<svg xmlns="http://www.w3.org/2000/svg" xmlns:xlink="http://www.w3.org/1999/xlink" id="body_342" preserveAspectRatio="xMinYMin meet" viewBox="0 0 793 1121"><defs><clipPath id="1"><path d="M0 841L0 -0.8897705L0 -0.8897705L595.2756 -0.8897705L595.2756 -0.8897705L595.2756 841L595.2756 841L0 841z" /></clipPath><clipPath id="2"><path d="M50 -0.8897705L545.25 -0.8897705L545.25 -0.8897705L545.25 840.9998L545.25 840.9998L50 840.9998L50 840.9998L50 -0.8897705" /></clipPath><clipPath id="3"><path d="M50 48.58905L545.25 48.58905L545.25 48.58905L545.25 791.5209L545.25 791.5209L50 791.5209L50 791.5209L50 48.58905" /></clipPath><clipPath id="4"><path d="M50 791.5209L545.25 791.5209L545.25 791.5209L545.25 840.9998L545.25 840.9998L50 840.9998L50 840.9998L50 791.5209" /></clipPath></defs><g transform="matrix(1.333333 0 0 1.333333 0 0)"><g><g clip-path="url(#1)"><g clip-path="url(#2)"></g><g clip-path="url(#3)"><path transform="matrix(1 0 0 -1 0 841)" d="M101 783.4148C 101 782.1727 100.0313 781.1658 98.75 781.1658C 97.5 781.1658 96.5 782.1727 96.5 783.4148C 96.5 784.6569 97.5 785.6638 98.75 785.6638C 100.0313 785.6638 101 784.6569 101 783.4148" stroke="#000000" stroke-width="0.750418" stroke-linecap="square" fill="none" /><path transform="matrix(1 0 0 -1 0 841)" d="M154.2813 778.5419L225.5938 778.5419z" stroke="#0000EE" stroke-width="0.750418" stroke-linecap="square" fill="none" /><path transform="matrix(1 0 0 -1 0 841)" d="M71 751.1786C 71 749.9365 70 748.9296 68.75 748.9296C 67.46875 748.9296 66.5 749.9365 66.5 751.1786C 66.5 752.4208 67.46875 753.4276 68.75 753.4276C 70 753.4276 71 752.4208 71 751.1786" stroke="#000000" stroke-width="0.750418" fill="#000000" fill-rule="evenodd" /><path transform="matrix(1 0 0 -1 0 841)" d="M101 733.936C 101 732.6938 100.0313 731.687 98.75 731.687C 97.5 731.687 96.5 732.6938 96.5 733.936C 96.5 735.1782 97.5 736.1851 98.75 736.1851C 100.0313 736.1851 101 735.1782 101 733.936" stroke="#000000" stroke-width="0.750418" stroke-linecap="square" fill="none" /><path transform="matrix(1 0 0 -1 0 841)" d="M178.3125 729.0631L493.4688 729.0631z" stroke="#0000EE" stroke-width="0.750418" stroke-linecap="square" fill="none" /><path transform="matrix(1 0 0 -1 0 841)" d="M71 701.6998C 71 700.4576 70 699.4507 68.75 699.4507C 67.46875 699.4507 66.5 700.4576 66.5 701.6998C 66.5 702.942 67.46875 703.9489 68.75 703.9489C 70 703.9489 71 702.942 71 701.6998" stroke="#000000" stroke-width="0.750418" fill="#000000" fill-rule="evenodd" /><path transform="matrix(1 0 0 -1 0 841)" d="M360.6563 696.8269L395.9375 696.8269z" stroke="#0000EE" stroke-width="0.750418" stroke-linecap="square" fill="none" /><path transform="matrix(1 0 0 -1 0 841)" d="M71 676.9604C 71 675.7183 70 674.7114 68.75 674.7114C 67.46875 674.7114 66.5 675.7183 66.5 676.9604C 66.5 678.2025 67.46875 679.2094 68.75 679.2094C 70 679.2094 71 678.2025 71 676.9604" stroke="#000000" stroke-width="0.750418" fill="#000000" fill-rule="evenodd" /><path transform="matrix(1 0 0 -1 0 841)" d="M101 659.7178C 101 658.4756 100.0313 657.4688 98.75 657.4688C 97.5 657.4688 96.5 658.4756 96.5 659.7178C 96.5 660.9599 97.5 661.9668 98.75 661.9668C 100.0313 661.9668 101 660.9599 101 659.7178" stroke="#000000" stroke-width="0.750418" stroke-linecap="square" fill="none" /><path transform="matrix(1 0 0 -1 0 841)" d="M154.2813 654.8448L383.9063 654.8448z" stroke="#0000EE" stroke-width="0.750418" stroke-linecap="square" fill="none" /></g><g clip-path="url(#4)"></g></g></g></g></svg>