<svg xmlns="http://www.w3.org/2000/svg" xmlns:xlink="http://www.w3.org/1999/xlink" id="body_13" preserveAspectRatio="xMinYMin meet" viewBox="0 0 793 1121"><defs><clipPath id="1"><path d="M0 841L0 -0.8897705L0 -0.8897705L595.2756 -0.8897705L595.2756 -0.8897705L595.2756 841L595.2756 841L0 841z" /></clipPath><clipPath id="2"><path d="M49.99951 -0.8897705L545.2754 -0.8897705L545.2754 -0.8897705L545.2754 840.9998L545.2754 840.9998L49.99951 840.9998L49.99951 840.9998L49.99951 -0.8897705" /></clipPath><clipPath id="3"><path d="M49.99951 48.58905L545.2754 48.58905L545.2754 48.58905L545.2754 791.5209L545.2754 791.5209L49.99951 791.5209L49.99951 791.5209L49.99951 48.58905" /></clipPath><clipPath id="4"><path d="M49.99951 48.58905L545.2754 48.58905L545.2754 48.58905L545.2754 791.5209L545.2754 791.5209L49.99951 791.5209L49.99951 791.5209L49.99951 48.58905" /></clipPath><clipPath id="5"><path d="M49.99951 791.5209L545.2754 791.5209L545.2754 791.5209L545.2754 840.9998L545.2754 840.9998L49.99951 840.9998L49.99951 840.9998L49.99951 791.5209" /></clipPath></defs><g transform="matrix(1.333333 0 0 1.333333 0 0)"><g><g clip-path="url(#1)"><g clip-path="url(#2)"></g><g clip-path="url(#3)"><path transform="matrix(1 0 0 -1 0 841)" d="M49.99951 721.9411L545.2754 721.9411L545.2754 721.9411L545.2754 721.1915L545.2754 721.1915L49.99951 721.1915z" stroke="none" fill="#2C2C2C" fill-rule="winding" /><path transform="matrix(1 0 0 -1 0 841)" d="M49.99951 719.6921L545.2754 719.6921L545.2754 719.6921L545.2754 718.9424L545.2754 718.9424L49.99951 718.9424z" stroke="none" fill="#808080" fill-rule="winding" /><path transform="matrix(1 0 0 -1 0 841)" d="M49.99951 721.9411L49.99951 718.9424L49.99951 718.9424L50.75 719.6921L50.75 719.6921L50.75 721.9411z" stroke="#000000" stroke-width="0" fill="#2C2C2C" fill-rule="evenodd" /><path transform="matrix(1 0 0 -1 0 841)" d="M544.5249 721.1915L544.5249 718.9424L544.5249 718.9424L545.2754 718.9424L545.2754 718.9424L545.2754 721.9411z" stroke="#000000" stroke-width="0" fill="#808080" fill-rule="evenodd" /></g><g clip-path="url(#4)"></g><g clip-path="url(#5)"></g></g></g></g></svg>