<svg xmlns="http://www.w3.org/2000/svg" xmlns:xlink="http://www.w3.org/1999/xlink" id="body_234" preserveAspectRatio="xMinYMin meet" viewBox="0 0 793 1121"><defs><clipPath id="1"><path d="M0 841L0 -0.8897705L0 -0.8897705L595.2756 -0.8897705L595.2756 -0.8897705L595.2756 841L595.2756 841L0 841z" /></clipPath><clipPath id="2"><path d="M50 -0.8897705L545.2813 -0.8897705L545.2813 -0.8897705L545.2813 840.9998L545.2813 840.9998L50 840.9998L50 840.9998L50 -0.8897705" /></clipPath><clipPath id="3"><path d="M50 48.58905L545.2813 48.58905L545.2813 48.58905L545.2813 791.5209L545.2813 791.5209L50 791.5209L50 791.5209L50 48.58905" /></clipPath><clipPath id="4"><path d="M50 791.5209L545.2813 791.5209L545.2813 791.5209L545.2813 840.9998L545.2813 840.9998L50 840.9998L50 840.9998L50 791.5209" /></clipPath></defs><g transform="matrix(1.333333 0 0 1.333333 0 0)"><g><g clip-path="url(#1)"><g clip-path="url(#2)"></g><g clip-path="url(#3)"><path transform="matrix(1 0 0 -1 0 841)" d="M71.01563 383.0862C 71.01563 381.8441 70.03125 380.8372 68.76563 380.8372C 67.48438 380.8372 66.5 381.8441 66.5 383.0862C 66.5 384.3284 67.48438 385.3352 68.76563 385.3352C 70.03125 385.3352 71.01563 384.3284 71.01563 383.0862" stroke="#000000" stroke-width="0.750418" fill="#000000" fill-rule="evenodd" /><path transform="matrix(1 0 0 -1 0 841)" d="M71.01563 358.3468C 71.01563 357.1046 70.03125 356.0977 68.76563 356.0977C 67.48438 356.0977 66.5 357.1046 66.5 358.3468C 66.5 359.589 67.48438 360.5958 68.76563 360.5958C 70.03125 360.5958 71.01563 359.589 71.01563 358.3468" stroke="#000000" stroke-width="0.750418" fill="#000000" fill-rule="evenodd" /><path transform="matrix(1 0 0 -1 0 841)" d="M71.01563 333.6074C 71.01563 332.3652 70.03125 331.3583 68.76563 331.3583C 67.48438 331.3583 66.5 332.3652 66.5 333.6074C 66.5 334.8495 67.48438 335.8564 68.76563 335.8564C 70.03125 335.8564 71.01563 334.8495 71.01563 333.6074" stroke="#000000" stroke-width="0.750418" fill="#000000" fill-rule="evenodd" /><path transform="matrix(1 0 0 -1 0 841)" d="M71.01563 308.868C 71.01563 307.6258 70.03125 306.619 68.76563 306.619C 67.48438 306.619 66.5 307.6258 66.5 308.868C 66.5 310.1102 67.48438 311.117 68.76563 311.117C 70.03125 311.117 71.01563 310.1102 71.01563 308.868" stroke="#000000" stroke-width="0.750418" fill="#000000" fill-rule="evenodd" /></g><g clip-path="url(#4)"></g></g></g></g></svg>