<svg xmlns="http://www.w3.org/2000/svg" xmlns:xlink="http://www.w3.org/1999/xlink" id="body_268" preserveAspectRatio="xMinYMin meet" viewBox="0 0 793 1121"><defs><clipPath id="1"><path d="M0 841L0 -0.8897705L0 -0.8897705L595.2756 -0.8897705L595.2756 -0.8897705L595.2756 841L595.2756 841L0 841z" /></clipPath><clipPath id="2"><path d="M50 -0.8897705L545.2656 -0.8897705L545.2656 -0.8897705L545.2656 840.9998L545.2656 840.9998L50 840.9998L50 840.9998L50 -0.8897705" /></clipPath><clipPath id="3"><path d="M50 48.58905L545.2656 48.58905L545.2656 48.58905L545.2656 791.5209L545.2656 791.5209L50 791.5209L50 791.5209L50 48.58905" /></clipPath><clipPath id="4"><path d="M50 791.5209L545.2656 791.5209L545.2656 791.5209L545.2656 840.9998L545.2656 840.9998L50 840.9998L50 840.9998L50 791.5209" /></clipPath></defs><g transform="matrix(1.333333 0 0 1.333333 0 0)"><g><g clip-path="url(#1)"><g clip-path="url(#2)"></g><g clip-path="url(#3)"><path transform="matrix(1 0 0 -1 0 841)" d="M71.01563 432.565C 71.01563 431.3229 70.01563 430.316 68.75 430.316C 67.48438 430.316 66.5 431.3229 66.5 432.565C 66.5 433.8072 67.48438 434.8141 68.75 434.8141C 70.01563 434.8141 71.01563 433.8072 71.01563 432.565" stroke="#000000" stroke-width="0.750418" fill="#000000" fill-rule="evenodd" /><path transform="matrix(1 0 0 -1 0 841)" d="M71.01563 407.8256C 71.01563 406.5835 70.01563 405.5766 68.75 405.5766C 67.48438 405.5766 66.5 406.5835 66.5 407.8256C 66.5 409.0678 67.48438 410.0746 68.75 410.0746C 70.01563 410.0746 71.01563 409.0678 71.01563 407.8256" stroke="#000000" stroke-width="0.750418" fill="#000000" fill-rule="evenodd" /><path transform="matrix(1 0 0 -1 0 841)" d="M71.01563 383.0862C 71.01563 381.8441 70.01563 380.8372 68.75 380.8372C 67.48438 380.8372 66.5 381.8441 66.5 383.0862C 66.5 384.3284 67.48438 385.3352 68.75 385.3352C 70.01563 385.3352 71.01563 384.3284 71.01563 383.0862" stroke="#000000" stroke-width="0.750418" fill="#000000" fill-rule="evenodd" /><path transform="matrix(1 0 0 -1 0 841)" d="M71.01563 358.3468C 71.01563 357.1046 70.01563 356.0977 68.75 356.0977C 67.48438 356.0977 66.5 357.1046 66.5 358.3468C 66.5 359.589 67.48438 360.5958 68.75 360.5958C 70.01563 360.5958 71.01563 359.589 71.01563 358.3468" stroke="#000000" stroke-width="0.750418" fill="#000000" fill-rule="evenodd" /></g><g clip-path="url(#4)"></g></g></g></g></svg>