<svg xmlns="http://www.w3.org/2000/svg" xmlns:xlink="http://www.w3.org/1999/xlink" id="body_284" preserveAspectRatio="xMinYMin meet" viewBox="0 0 793 1121"><defs><clipPath id="1"><path d="M0 841L0 -0.8897705L0 -0.8897705L595.2756 -0.8897705L595.2756 -0.8897705L595.2756 841L595.2756 841L0 841z" /></clipPath><clipPath id="2"><path d="M50 -0.8897705L545.2656 -0.8897705L545.2656 -0.8897705L545.2656 840.9998L545.2656 840.9998L50 840.9998L50 840.9998L50 -0.8897705" /></clipPath><clipPath id="3"><path d="M50 48.58905L545.2656 48.58905L545.2656 48.58905L545.2656 791.5209L545.2656 791.5209L50 791.5209L50 791.5209L50 48.58905" /></clipPath><clipPath id="4"><path d="M50 791.5209L545.2656 791.5209L545.2656 791.5209L545.2656 840.9998L545.2656 840.9998L50 840.9998L50 840.9998L50 791.5209" /></clipPath></defs><g transform="matrix(1.333333 0 0 1.333333 0 0)"><g><g clip-path="url(#1)"><g clip-path="url(#2)"></g><g clip-path="url(#3)"><path transform="matrix(1 0 0 -1 0 841)" d="M71 509.0323C 71 507.7901 70.01563 506.7832 68.75 506.7832C 67.48438 506.7832 66.5 507.7901 66.5 509.0323C 66.5 510.2744 67.48438 511.2813 68.75 511.2813C 70.01563 511.2813 71 510.2744 71 509.0323" stroke="#000000" stroke-width="0.750418" fill="#000000" fill-rule="evenodd" /><path transform="matrix(1 0 0 -1 0 841)" d="M71 484.2929C 71 483.0508 70.01563 482.0438 68.75 482.0438C 67.48438 482.0438 66.5 483.0508 66.5 484.2929C 66.5 485.535 67.48438 486.5419 68.75 486.5419C 70.01563 486.5419 71 485.535 71 484.2929" stroke="#000000" stroke-width="0.750418" fill="#000000" fill-rule="evenodd" /><path transform="matrix(1 0 0 -1 0 841)" d="M71 459.5535C 71 458.3113 70.01563 457.3044 68.75 457.3044C 67.48438 457.3044 66.5 458.3113 66.5 459.5535C 66.5 460.7956 67.48438 461.8025 68.75 461.8025C 70.01563 461.8025 71 460.7956 71 459.5535" stroke="#000000" stroke-width="0.750418" fill="#000000" fill-rule="evenodd" /><path transform="matrix(1 0 0 -1 0 841)" d="M71 434.8141C 71 433.5719 70.01563 432.565 68.75 432.565C 67.48438 432.565 66.5 433.5719 66.5 434.8141C 66.5 436.0562 67.48438 437.0631 68.75 437.0631C 70.01563 437.0631 71 436.0562 71 434.8141" stroke="#000000" stroke-width="0.750418" fill="#000000" fill-rule="evenodd" /></g><g clip-path="url(#4)"></g></g></g></g></svg>