<svg xmlns="http://www.w3.org/2000/svg" xmlns:xlink="http://www.w3.org/1999/xlink" id="body_343" preserveAspectRatio="xMinYMin meet" viewBox="0 0 793 1121"><defs><clipPath id="1"><path d="M0 841L0 -0.8897705L0 -0.8897705L595.2756 -0.8897705L595.2756 -0.8897705L595.2756 841L595.2756 841L0 841z" /></clipPath><clipPath id="2"><path d="M49.96875 -0.8897705L545.25 -0.8897705L545.25 -0.8897705L545.25 840.9998L545.25 840.9998L49.96875 840.9998L49.96875 840.9998L49.96875 -0.8897705" /></clipPath><clipPath id="3"><path d="M49.96875 48.58905L545.25 48.58905L545.25 48.58905L545.25 791.5209L545.25 791.5209L49.96875 791.5209L49.96875 791.5209L49.96875 48.58905" /></clipPath><clipPath id="4"><path d="M49.96875 791.5209L545.25 791.5209L545.25 791.5209L545.25 840.9998L545.25 840.9998L49.96875 840.9998L49.96875 840.9998L49.96875 791.5209" /></clipPath></defs><g transform="matrix(1.333333 0 0 1.333333 0 0)"><g><g clip-path="url(#1)"><g clip-path="url(#2)"></g><g clip-path="url(#3)"><path transform="matrix(1 0 0 -1 0 841)" d="M71 718.9424C 71 717.7003 70 716.6934 68.75 716.6934C 67.46875 716.6934 66.5 717.7003 66.5 718.9424C 66.5 720.1846 67.46875 721.1915 68.75 721.1915C 70 721.1915 71 720.1846 71 718.9424" stroke="#000000" stroke-width="0.750418" fill="#000000" fill-rule="evenodd" /><path transform="matrix(1 0 0 -1 0 841)" d="M101 701.6998C 101 700.4576 100.0313 699.4507 98.75 699.4507C 97.5 699.4507 96.5 700.4576 96.5 701.6998C 96.5 702.942 97.5 703.9489 98.75 703.9489C 100.0313 703.9489 101 702.942 101 701.6998" stroke="#000000" stroke-width="0.750418" stroke-linecap="square" fill="none" /><path transform="matrix(1 0 0 -1 0 841)" d="M308.125 696.8269L545.25 696.8269z" stroke="#0000EE" stroke-width="0.750418" stroke-linecap="square" fill="none" /><path transform="matrix(1 0 0 -1 0 841)" d="M110 679.5842L215.8125 679.5842z" stroke="#0000EE" stroke-width="0.750418" stroke-linecap="square" fill="none" /><path transform="matrix(1 0 0 -1 0 841)" d="M223.3125 679.5842L345.6563 679.5842z" stroke="#0000EE" stroke-width="0.750418" stroke-linecap="square" fill="none" /><path transform="matrix(1 0 0 -1 0 841)" d="M101 659.7178C 101 658.4756 100.0313 657.4688 98.75 657.4688C 97.5 657.4688 96.5 658.4756 96.5 659.7178C 96.5 660.9599 97.5 661.9668 98.75 661.9668C 100.0313 661.9668 101 660.9599 101 659.7178" stroke="#000000" stroke-width="0.750418" stroke-linecap="square" fill="none" /><path transform="matrix(1 0 0 -1 0 841)" d="M213.5625 654.8448L478.4688 654.8448z" stroke="#0000EE" stroke-width="0.750418" stroke-linecap="square" fill="none" /><path transform="matrix(1 0 0 -1 0 841)" d="M487.4688 654.8448L545.25 654.8448z" stroke="#0000EE" stroke-width="0.750418" stroke-linecap="square" fill="none" /><path transform="matrix(1 0 0 -1 0 841)" d="M110 637.6022L173.0625 637.6022z" stroke="#0000EE" stroke-width="0.750418" stroke-linecap="square" fill="none" /><path transform="matrix(1 0 0 -1 0 841)" d="M101 617.7357C 101 616.4936 100.0313 615.4867 98.75 615.4867C 97.5 615.4867 96.5 616.4936 96.5 617.7357C 96.5 618.9779 97.5 619.9847 98.75 619.9847C 100.0313 619.9847 101 618.9779 101 617.7357" stroke="#000000" stroke-width="0.750418" stroke-linecap="square" fill="none" /><path transform="matrix(1 0 0 -1 0 841)" d="M199.3125 612.8628L452.2188 612.8628z" stroke="#0000EE" stroke-width="0.750418" stroke-linecap="square" fill="none" /><path transform="matrix(1 0 0 -1 0 841)" d="M101 592.9963C 101 591.7542 100.0313 590.7473 98.75 590.7473C 97.5 590.7473 96.5 591.7542 96.5 592.9963C 96.5 594.2385 97.5 595.2454 98.75 595.2454C 100.0313 595.2454 101 594.2385 101 592.9963" stroke="#000000" stroke-width="0.750418" stroke-linecap="square" fill="none" /><path transform="matrix(1 0 0 -1 0 841)" d="M317.125 588.1234L545.25 588.1234z" stroke="#0000EE" stroke-width="0.750418" stroke-linecap="square" fill="none" /><path transform="matrix(1 0 0 -1 0 841)" d="M110 570.8808L217.3125 570.8808z" stroke="#0000EE" stroke-width="0.750418" stroke-linecap="square" fill="none" /><path transform="matrix(1 0 0 -1 0 841)" d="M224.8125 570.8808L347.1563 570.8808z" stroke="#0000EE" stroke-width="0.750418" stroke-linecap="square" fill="none" /><path transform="matrix(1 0 0 -1 0 841)" d="M101 551.0143C 101 549.7722 100.0313 548.7653 98.75 548.7653C 97.5 548.7653 96.5 549.7722 96.5 551.0143C 96.5 552.2565 97.5 553.2633 98.75 553.2633C 100.0313 553.2633 101 552.2565 101 551.0143" stroke="#000000" stroke-width="0.750418" stroke-linecap="square" fill="none" /><path transform="matrix(1 0 0 -1 0 841)" d="M242.8438 546.1414L545.25 546.1414z" stroke="#0000EE" stroke-width="0.750418" stroke-linecap="square" fill="none" /><path transform="matrix(1 0 0 -1 0 841)" d="M110 528.8988L169.2813 528.8988z" stroke="#0000EE" stroke-width="0.750418" stroke-linecap="square" fill="none" /><path transform="matrix(1 0 0 -1 0 841)" d="M71 501.5355C 71 500.2934 70 499.2865 68.75 499.2865C 67.46875 499.2865 66.5 500.2934 66.5 501.5355C 66.5 502.7776 67.46875 503.7845 68.75 503.7845C 70 503.7845 71 502.7776 71 501.5355" stroke="#000000" stroke-width="0.750418" fill="#000000" fill-rule="evenodd" /><path transform="matrix(1 0 0 -1 0 841)" d="M101 484.2929C 101 483.0508 100.0313 482.0438 98.75 482.0438C 97.5 482.0438 96.5 483.0508 96.5 484.2929C 96.5 485.535 97.5 486.5419 98.75 486.5419C 100.0313 486.5419 101 485.535 101 484.2929" stroke="#000000" stroke-width="0.750418" stroke-linecap="square" fill="none" /><path transform="matrix(1 0 0 -1 0 841)" d="M154.2813 479.42L206.0625 479.42z" stroke="#0000EE" stroke-width="0.750418" stroke-linecap="square" fill="none" /><path transform="matrix(1 0 0 -1 0 841)" d="M71 452.0567C 71 450.8145 70 449.8076 68.75 449.8076C 67.46875 449.8076 66.5 450.8145 66.5 452.0567C 66.5 453.2988 67.46875 454.3057 68.75 454.3057C 70 454.3057 71 453.2988 71 452.0567" stroke="#000000" stroke-width="0.750418" fill="#000000" fill-rule="evenodd" /><path transform="matrix(1 0 0 -1 0 841)" d="M101 434.8141C 101 433.5719 100.0313 432.565 98.75 432.565C 97.5 432.565 96.5 433.5719 96.5 434.8141C 96.5 436.0562 97.5 437.0631 98.75 437.0631C 100.0313 437.0631 101 436.0562 101 434.8141" stroke="#000000" stroke-width="0.750418" stroke-linecap="square" fill="none" /><path transform="matrix(1 0 0 -1 0 841)" d="M185.8125 429.9411L472.4688 429.9411z" stroke="#0000EE" stroke-width="0.750418" stroke-linecap="square" fill="none" /><path transform="matrix(1 0 0 -1 0 841)" d="M484.4688 429.9411L545.25 429.9411z" stroke="#0000EE" stroke-width="0.750418" stroke-linecap="square" fill="none" /><path transform="matrix(1 0 0 -1 0 841)" d="M110 412.6985L173.0625 412.6985z" stroke="#0000EE" stroke-width="0.750418" stroke-linecap="square" fill="none" /><path transform="matrix(1 0 0 -1 0 841)" d="M71 385.3352C 71 384.0931 70 383.0862 68.75 383.0862C 67.46875 383.0862 66.5 384.0931 66.5 385.3352C 66.5 386.5774 67.46875 387.5843 68.75 387.5843C 70 387.5843 71 386.5774 71 385.3352" stroke="#000000" stroke-width="0.750418" fill="#000000" fill-rule="evenodd" /><path transform="matrix(1 0 0 -1 0 841)" d="M101 368.0926C 101 366.8505 100.0313 365.8436 98.75 365.8436C 97.5 365.8436 96.5 366.8505 96.5 368.0926C 96.5 369.3348 97.5 370.3417 98.75 370.3417C 100.0313 370.3417 101 369.3348 101 368.0926" stroke="#000000" stroke-width="0.750418" stroke-linecap="square" fill="none" /><path transform="matrix(1 0 0 -1 0 841)" d="M154.2813 363.2197L273.5938 363.2197z" stroke="#0000EE" stroke-width="0.750418" stroke-linecap="square" fill="none" /><path transform="matrix(1 0 0 -1 0 841)" d="M71 335.8564C 71 334.6143 70 333.6074 68.75 333.6074C 67.46875 333.6074 66.5 334.6143 66.5 335.8564C 66.5 337.0986 67.46875 338.1055 68.75 338.1055C 70 338.1055 71 337.0986 71 335.8564" stroke="#000000" stroke-width="0.750418" fill="#000000" fill-rule="evenodd" /><path transform="matrix(1 0 0 -1 0 841)" d="M101 318.6138C 101 317.3716 100.0313 316.3647 98.75 316.3647C 97.5 316.3647 96.5 317.3716 96.5 318.6138C 96.5 319.856 97.5 320.8629 98.75 320.8629C 100.0313 320.8629 101 319.856 101 318.6138" stroke="#000000" stroke-width="0.750418" stroke-linecap="square" fill="none" /><path transform="matrix(1 0 0 -1 0 841)" d="M154.2813 313.7409L242.8438 313.7409z" stroke="#0000EE" stroke-width="0.750418" stroke-linecap="square" fill="none" /><path transform="matrix(1 0 0 -1 0 841)" d="M71 286.3776C 71 285.1354 70 284.1286 68.75 284.1286C 67.46875 284.1286 66.5 285.1354 66.5 286.3776C 66.5 287.6198 67.46875 288.6266 68.75 288.6266C 70 288.6266 71 287.6198 71 286.3776" stroke="#000000" stroke-width="0.750418" fill="#000000" fill-rule="evenodd" /><path transform="matrix(1 0 0 -1 0 841)" d="M101 269.135C 101 267.8928 100.0313 266.8859 98.75 266.8859C 97.5 266.8859 96.5 267.8928 96.5 269.135C 96.5 270.3771 97.5 271.384 98.75 271.384C 100.0313 271.384 101 270.3771 101 269.135" stroke="#000000" stroke-width="0.750418" stroke-linecap="square" fill="none" /><path transform="matrix(1 0 0 -1 0 841)" d="M154.2813 264.2621L383.9063 264.2621z" stroke="#0000EE" stroke-width="0.750418" stroke-linecap="square" fill="none" /></g><g clip-path="url(#4)"></g></g></g></g></svg>