<svg xmlns="http://www.w3.org/2000/svg" xmlns:xlink="http://www.w3.org/1999/xlink" id="body_328" preserveAspectRatio="xMinYMin meet" viewBox="0 0 793 1121"><defs><clipPath id="1"><path d="M0 841L0 -0.8897705L0 -0.8897705L595.2756 -0.8897705L595.2756 -0.8897705L595.2756 841L595.2756 841L0 841z" /></clipPath><clipPath id="2"><path d="M50 -0.8897705L545.2813 -0.8897705L545.2813 -0.8897705L545.2813 840.9998L545.2813 840.9998L50 840.9998L50 840.9998L50 -0.8897705" /></clipPath><clipPath id="3"><path d="M50 48.58905L545.2813 48.58905L545.2813 48.58905L545.2813 791.5209L545.2813 791.5209L50 791.5209L50 791.5209L50 48.58905" /></clipPath><clipPath id="4"><path d="M50 791.5209L545.2813 791.5209L545.2813 791.5209L545.2813 840.9998L545.2813 840.9998L50 840.9998L50 840.9998L50 791.5209" /></clipPath></defs><g transform="matrix(1.333333 0 0 1.333333 0 0)"><g><g clip-path="url(#1)"><g clip-path="url(#2)"></g><g clip-path="url(#3)"><path transform="matrix(1 0 0 -1 0 841)" d="M71 718.9424C 71 717.7003 70.03125 716.6934 68.75 716.6934C 67.5 716.6934 66.5 717.7003 66.5 718.9424C 66.5 720.1846 67.5 721.1915 68.75 721.1915C 70.03125 721.1915 71 720.1846 71 718.9424" stroke="#000000" stroke-width="0.750418" fill="#000000" fill-rule="evenodd" /><path transform="matrix(1 0 0 -1 0 841)" d="M101.0313 701.6998C 101.0313 700.4576 100.0313 699.4507 98.78125 699.4507C 97.5 699.4507 96.53125 700.4576 96.53125 701.6998C 96.53125 702.942 97.5 703.9489 98.78125 703.9489C 100.0313 703.9489 101.0313 702.942 101.0313 701.6998" stroke="#000000" stroke-width="0.750418" stroke-linecap="square" fill="none" /><path transform="matrix(1 0 0 -1 0 841)" d="M170.8125 696.8269L308.9063 696.8269z" stroke="#0000EE" stroke-width="0.750418" stroke-linecap="square" fill="none" /><path transform="matrix(1 0 0 -1 0 841)" d="M101.0313 676.9604C 101.0313 675.7183 100.0313 674.7114 98.78125 674.7114C 97.5 674.7114 96.53125 675.7183 96.53125 676.9604C 96.53125 678.2025 97.5 679.2094 98.78125 679.2094C 100.0313 679.2094 101.0313 678.2025 101.0313 676.9604" stroke="#000000" stroke-width="0.750418" stroke-linecap="square" fill="none" /><path transform="matrix(1 0 0 -1 0 841)" d="M170.8125 672.0875L308.9063 672.0875z" stroke="#0000EE" stroke-width="0.750418" stroke-linecap="square" fill="none" /><path transform="matrix(1 0 0 -1 0 841)" d="M101.0313 652.2209C 101.0313 650.9788 100.0313 649.9719 98.78125 649.9719C 97.5 649.9719 96.53125 650.9788 96.53125 652.2209C 96.53125 653.4631 97.5 654.47 98.78125 654.47C 100.0313 654.47 101.0313 653.4631 101.0313 652.2209" stroke="#000000" stroke-width="0.750418" stroke-linecap="square" fill="none" /><path transform="matrix(1 0 0 -1 0 841)" d="M233.0938 647.3481L371.1875 647.3481z" stroke="#0000EE" stroke-width="0.750418" stroke-linecap="square" fill="none" /><path transform="matrix(1 0 0 -1 0 841)" d="M71 619.9847C 71 618.7427 70.03125 617.7357 68.75 617.7357C 67.5 617.7357 66.5 618.7427 66.5 619.9847C 66.5 621.2269 67.5 622.2338 68.75 622.2338C 70.03125 622.2338 71 621.2269 71 619.9847" stroke="#000000" stroke-width="0.750418" fill="#000000" fill-rule="evenodd" /><path transform="matrix(1 0 0 -1 0 841)" d="M101.0313 602.7422C 101.0313 601.5 100.0313 600.4931 98.78125 600.4931C 97.5 600.4931 96.53125 601.5 96.53125 602.7422C 96.53125 603.9843 97.5 604.9912 98.78125 604.9912C 100.0313 604.9912 101.0313 603.9843 101.0313 602.7422" stroke="#000000" stroke-width="0.750418" stroke-linecap="square" fill="none" /><path transform="matrix(1 0 0 -1 0 841)" d="M154.3125 597.8693L243.5938 597.8693z" stroke="#0000EE" stroke-width="0.750418" stroke-linecap="square" fill="none" /><path transform="matrix(1 0 0 -1 0 841)" d="M71 570.506C 71 569.2638 70.03125 568.257 68.75 568.257C 67.5 568.257 66.5 569.2638 66.5 570.506C 66.5 571.7481 67.5 572.755 68.75 572.755C 70.03125 572.755 71 571.7481 71 570.506" stroke="#000000" stroke-width="0.750418" fill="#000000" fill-rule="evenodd" /><path transform="matrix(1 0 0 -1 0 841)" d="M101.0313 553.2633C 101.0313 552.0212 100.0313 551.0143 98.78125 551.0143C 97.5 551.0143 96.53125 552.0212 96.53125 553.2633C 96.53125 554.5055 97.5 555.5124 98.78125 555.5124C 100.0313 555.5124 101.0313 554.5055 101.0313 553.2633" stroke="#000000" stroke-width="0.750418" stroke-linecap="square" fill="none" /><path transform="matrix(1 0 0 -1 0 841)" d="M149.8125 548.3904L416.9375 548.3904z" stroke="#0000EE" stroke-width="0.750418" stroke-linecap="square" fill="none" /><path transform="matrix(1 0 0 -1 0 841)" d="M101.0313 528.5239C 101.0313 527.2818 100.0313 526.2749 98.78125 526.2749C 97.5 526.2749 96.53125 527.2818 96.53125 528.5239C 96.53125 529.7661 97.5 530.7729 98.78125 530.7729C 100.0313 530.7729 101.0313 529.7661 101.0313 528.5239" stroke="#000000" stroke-width="0.750418" stroke-linecap="square" fill="none" /><path transform="matrix(1 0 0 -1 0 841)" d="M154.3125 523.651L238.3438 523.651z" stroke="#0000EE" stroke-width="0.750418" stroke-linecap="square" fill="none" /><path transform="matrix(1 0 0 -1 0 841)" d="M101.0313 503.7845C 101.0313 502.5424 100.0313 501.5355 98.78125 501.5355C 97.5 501.5355 96.53125 502.5424 96.53125 503.7845C 96.53125 505.0267 97.5 506.0336 98.78125 506.0336C 100.0313 506.0336 101.0313 505.0267 101.0313 503.7845" stroke="#000000" stroke-width="0.750418" stroke-linecap="square" fill="none" /><path transform="matrix(1 0 0 -1 0 841)" d="M248.8438 498.9116L516.75 498.9116z" stroke="#0000EE" stroke-width="0.750418" stroke-linecap="square" fill="none" /></g><g clip-path="url(#4)"></g></g></g></g></svg>