<svg xmlns="http://www.w3.org/2000/svg" xmlns:xlink="http://www.w3.org/1999/xlink" id="body_345" preserveAspectRatio="xMinYMin meet" viewBox="0 0 793 1121"><defs><clipPath id="1"><path d="M0 841L0 -0.8897705L0 -0.8897705L595.2756 -0.8897705L595.2756 -0.8897705L595.2756 841L595.2756 841L0 841z" /></clipPath><clipPath id="2"><path d="M49.96875 -0.8897705L545.25 -0.8897705L545.25 -0.8897705L545.25 840.9998L545.25 840.9998L49.96875 840.9998L49.96875 840.9998L49.96875 -0.8897705" /></clipPath><clipPath id="3"><path d="M49.96875 48.58905L545.25 48.58905L545.25 48.58905L545.25 791.5209L545.25 791.5209L49.96875 791.5209L49.96875 791.5209L49.96875 48.58905" /></clipPath><clipPath id="4"><path d="M49.96875 791.5209L545.25 791.5209L545.25 791.5209L545.25 840.9998L545.25 840.9998L49.96875 840.9998L49.96875 840.9998L49.96875 791.5209" /></clipPath></defs><g transform="matrix(1.333333 0 0 1.333333 0 0)"><g><g clip-path="url(#1)"><g clip-path="url(#2)"></g><g clip-path="url(#3)"><path transform="matrix(1 0 0 -1 0 841)" d="M70.96875 718.9424C 70.96875 717.7003 70 716.6934 68.71875 716.6934C 67.46875 716.6934 66.46875 717.7003 66.46875 718.9424C 66.46875 720.1846 67.46875 721.1915 68.71875 721.1915C 70 721.1915 70.96875 720.1846 70.96875 718.9424" stroke="#000000" stroke-width="0.750418" fill="#000000" fill-rule="evenodd" /><path transform="matrix(1 0 0 -1 0 841)" d="M101 701.6998C 101 700.4576 100 699.4507 98.75 699.4507C 97.46875 699.4507 96.5 700.4576 96.5 701.6998C 96.5 702.942 97.46875 703.9489 98.75 703.9489C 100 703.9489 101 702.942 101 701.6998" stroke="#000000" stroke-width="0.750418" stroke-linecap="square" fill="none" /><path transform="matrix(1 0 0 -1 0 841)" d="M154.2813 696.8269L185.7813 696.8269z" stroke="#0000EE" stroke-width="0.750418" stroke-linecap="square" fill="none" /><path transform="matrix(1 0 0 -1 0 841)" d="M193.3125 696.8269L350.875 696.8269z" stroke="#0000EE" stroke-width="0.750418" stroke-linecap="square" fill="none" /><path transform="matrix(1 0 0 -1 0 841)" d="M358.4063 696.8269L488.2188 696.8269z" stroke="#0000EE" stroke-width="0.750418" stroke-linecap="square" fill="none" /><path transform="matrix(1 0 0 -1 0 841)" d="M101 676.9604C 101 675.7183 100 674.7114 98.75 674.7114C 97.46875 674.7114 96.5 675.7183 96.5 676.9604C 96.5 678.2025 97.46875 679.2094 98.75 679.2094C 100 679.2094 101 678.2025 101 676.9604" stroke="#000000" stroke-width="0.750418" stroke-linecap="square" fill="none" /><path transform="matrix(1 0 0 -1 0 841)" d="M152.7813 672.0875L282.5938 672.0875z" stroke="#0000EE" stroke-width="0.750418" stroke-linecap="square" fill="none" /><path transform="matrix(1 0 0 -1 0 841)" d="M101 652.2209C 101 650.9788 100 649.9719 98.75 649.9719C 97.46875 649.9719 96.5 650.9788 96.5 652.2209C 96.5 653.4631 97.46875 654.47 98.75 654.47C 100 654.47 101 653.4631 101 652.2209" stroke="#000000" stroke-width="0.750418" stroke-linecap="square" fill="none" /><path transform="matrix(1 0 0 -1 0 841)" d="M177.5313 647.3481L307.375 647.3481z" stroke="#0000EE" stroke-width="0.750418" stroke-linecap="square" fill="none" /><path transform="matrix(1 0 0 -1 0 841)" d="M70.96875 619.9847C 70.96875 618.7427 70 617.7357 68.71875 617.7357C 67.46875 617.7357 66.46875 618.7427 66.46875 619.9847C 66.46875 621.2269 67.46875 622.2338 68.71875 622.2338C 70 622.2338 70.96875 621.2269 70.96875 619.9847" stroke="#000000" stroke-width="0.750418" fill="#000000" fill-rule="evenodd" /><path transform="matrix(1 0 0 -1 0 841)" d="M101 602.7422C 101 601.5 100 600.4931 98.75 600.4931C 97.46875 600.4931 96.5 601.5 96.5 602.7422C 96.5 603.9843 97.46875 604.9912 98.75 604.9912C 100 604.9912 101 603.9843 101 602.7422" stroke="#000000" stroke-width="0.750418" stroke-linecap="square" fill="none" /><path transform="matrix(1 0 0 -1 0 841)" d="M154.2813 597.8693L324.625 597.8693z" stroke="#0000EE" stroke-width="0.750418" stroke-linecap="square" fill="none" /><path transform="matrix(1 0 0 -1 0 841)" d="M70.96875 570.506C 70.96875 569.2638 70 568.257 68.71875 568.257C 67.46875 568.257 66.46875 569.2638 66.46875 570.506C 66.46875 571.7481 67.46875 572.755 68.71875 572.755C 70 572.755 70.96875 571.7481 70.96875 570.506" stroke="#000000" stroke-width="0.750418" fill="#000000" fill-rule="evenodd" /><path transform="matrix(1 0 0 -1 0 841)" d="M101 553.2633C 101 552.0212 100 551.0143 98.75 551.0143C 97.46875 551.0143 96.5 552.0212 96.5 553.2633C 96.5 554.5055 97.46875 555.5124 98.75 555.5124C 100 555.5124 101 554.5055 101 553.2633" stroke="#000000" stroke-width="0.750418" stroke-linecap="square" fill="none" /><path transform="matrix(1 0 0 -1 0 841)" d="M154.2813 548.3904L324.625 548.3904z" stroke="#0000EE" stroke-width="0.750418" stroke-linecap="square" fill="none" /><path transform="matrix(1 0 0 -1 0 841)" d="M70.96875 521.0272C 70.96875 519.785 70 518.7781 68.71875 518.7781C 67.46875 518.7781 66.46875 519.785 66.46875 521.0272C 66.46875 522.2693 67.46875 523.2762 68.71875 523.2762C 70 523.2762 70.96875 522.2693 70.96875 521.0272" stroke="#000000" stroke-width="0.750418" fill="#000000" fill-rule="evenodd" /><path transform="matrix(1 0 0 -1 0 841)" d="M101 503.7845C 101 502.5424 100 501.5355 98.75 501.5355C 97.46875 501.5355 96.5 502.5424 96.5 503.7845C 96.5 505.0267 97.46875 506.0336 98.75 506.0336C 100 506.0336 101 505.0267 101 503.7845" stroke="#000000" stroke-width="0.750418" stroke-linecap="square" fill="none" /><path transform="matrix(1 0 0 -1 0 841)" d="M154.2813 498.9116L240.5625 498.9116z" stroke="#0000EE" stroke-width="0.750418" stroke-linecap="square" fill="none" /><path transform="matrix(1 0 0 -1 0 841)" d="M70.96875 471.5483C 70.96875 470.3062 70 469.2993 68.71875 469.2993C 67.46875 469.2993 66.46875 470.3062 66.46875 471.5483C 66.46875 472.7905 67.46875 473.7974 68.71875 473.7974C 70 473.7974 70.96875 472.7905 70.96875 471.5483" stroke="#000000" stroke-width="0.750418" fill="#000000" fill-rule="evenodd" /><path transform="matrix(1 0 0 -1 0 841)" d="M101 454.3057C 101 453.0636 100 452.0567 98.75 452.0567C 97.46875 452.0567 96.5 453.0636 96.5 454.3057C 96.5 455.5479 97.46875 456.5547 98.75 456.5547C 100 456.5547 101 455.5479 101 454.3057" stroke="#000000" stroke-width="0.750418" stroke-linecap="square" fill="none" /><path transform="matrix(1 0 0 -1 0 841)" d="M154.2813 449.4328L365.9063 449.4328z" stroke="#0000EE" stroke-width="0.750418" stroke-linecap="square" fill="none" /><path transform="matrix(1 0 0 -1 0 841)" d="M70.96875 422.0695C 70.96875 420.8274 70 419.8205 68.71875 419.8205C 67.46875 419.8205 66.46875 420.8274 66.46875 422.0695C 66.46875 423.3117 67.46875 424.3185 68.71875 424.3185C 70 424.3185 70.96875 423.3117 70.96875 422.0695" stroke="#000000" stroke-width="0.750418" fill="#000000" fill-rule="evenodd" /><path transform="matrix(1 0 0 -1 0 841)" d="M101 404.8269C 101 403.5847 100 402.5779 98.75 402.5779C 97.46875 402.5779 96.5 403.5847 96.5 404.8269C 96.5 406.0691 97.46875 407.0759 98.75 407.0759C 100 407.0759 101 406.0691 101 404.8269" stroke="#000000" stroke-width="0.750418" stroke-linecap="square" fill="none" /><path transform="matrix(1 0 0 -1 0 841)" d="M163.2813 399.954L193.3125 399.954z" stroke="#0000EE" stroke-width="0.750418" stroke-linecap="square" fill="none" /><path transform="matrix(1 0 0 -1 0 841)" d="M205.3125 399.954L278.0938 399.954z" stroke="#0000EE" stroke-width="0.750418" stroke-linecap="square" fill="none" /><path transform="matrix(1 0 0 -1 0 841)" d="M290.0938 399.954L424.4375 399.954z" stroke="#0000EE" stroke-width="0.750418" stroke-linecap="square" fill="none" /><path transform="matrix(1 0 0 -1 0 841)" d="M436.4375 399.954L545.25 399.954z" stroke="#0000EE" stroke-width="0.750418" stroke-linecap="square" fill="none" /><path transform="matrix(1 0 0 -1 0 841)" d="M110 382.7114L159.5313 382.7114z" stroke="#0000EE" stroke-width="0.750418" stroke-linecap="square" fill="none" /><path transform="matrix(1 0 0 -1 0 841)" d="M101 362.8449C 101 361.6027 100 360.5958 98.75 360.5958C 97.46875 360.5958 96.5 361.6027 96.5 362.8449C 96.5 364.087 97.46875 365.0939 98.75 365.0939C 100 365.0939 101 364.087 101 362.8449" stroke="#000000" stroke-width="0.750418" stroke-linecap="square" fill="none" /><path transform="matrix(1 0 0 -1 0 841)" d="M152.7813 357.972L286.3438 357.972z" stroke="#0000EE" stroke-width="0.750418" stroke-linecap="square" fill="none" /><path transform="matrix(1 0 0 -1 0 841)" d="M101 338.1055C 101 336.8633 100 335.8564 98.75 335.8564C 97.46875 335.8564 96.5 336.8633 96.5 338.1055C 96.5 339.3476 97.46875 340.3545 98.75 340.3545C 100 340.3545 101 339.3476 101 338.1055" stroke="#000000" stroke-width="0.750418" stroke-linecap="square" fill="none" /><path transform="matrix(1 0 0 -1 0 841)" d="M177.5313 333.2325L311.125 333.2325z" stroke="#0000EE" stroke-width="0.750418" stroke-linecap="square" fill="none" /><path transform="matrix(1 0 0 -1 0 841)" d="M70.96875 305.8693C 70.96875 304.6271 70 303.6202 68.71875 303.6202C 67.46875 303.6202 66.46875 304.6271 66.46875 305.8693C 66.46875 307.1115 67.46875 308.1183 68.71875 308.1183C 70 308.1183 70.96875 307.1115 70.96875 305.8693" stroke="#000000" stroke-width="0.750418" fill="#000000" fill-rule="evenodd" /><path transform="matrix(1 0 0 -1 0 841)" d="M101 288.6266C 101 287.3845 100 286.3776 98.75 286.3776C 97.46875 286.3776 96.5 287.3845 96.5 288.6266C 96.5 289.8688 97.46875 290.8757 98.75 290.8757C 100 290.8757 101 289.8688 101 288.6266" stroke="#000000" stroke-width="0.750418" stroke-linecap="square" fill="none" /><path transform="matrix(1 0 0 -1 0 841)" d="M154.2813 283.7537L311.875 283.7537z" stroke="#0000EE" stroke-width="0.750418" stroke-linecap="square" fill="none" /><path transform="matrix(1 0 0 -1 0 841)" d="M70.96875 256.3904C 70.96875 255.1483 70 254.1414 68.71875 254.1414C 67.46875 254.1414 66.46875 255.1483 66.46875 256.3904C 66.46875 257.6326 67.46875 258.6395 68.71875 258.6395C 70 258.6395 70.96875 257.6326 70.96875 256.3904" stroke="#000000" stroke-width="0.750418" fill="#000000" fill-rule="evenodd" /><path transform="matrix(1 0 0 -1 0 841)" d="M101 239.1478C 101 237.9057 100 236.8988 98.75 236.8988C 97.46875 236.8988 96.5 237.9057 96.5 239.1478C 96.5 240.39 97.46875 241.3969 98.75 241.3969C 100 241.3969 101 240.39 101 239.1478" stroke="#000000" stroke-width="0.750418" stroke-linecap="square" fill="none" /><path transform="matrix(1 0 0 -1 0 841)" d="M149.7813 234.2749L177.5313 234.2749z" stroke="#0000EE" stroke-width="0.750418" stroke-linecap="square" fill="none" /><path transform="matrix(1 0 0 -1 0 841)" d="M101 214.4084C 101 213.1663 100 212.1594 98.75 212.1594C 97.46875 212.1594 96.5 213.1663 96.5 214.4084C 96.5 215.6506 97.46875 216.6575 98.75 216.6575C 100 216.6575 101 215.6506 101 214.4084" stroke="#000000" stroke-width="0.750418" stroke-linecap="square" fill="none" /><path transform="matrix(1 0 0 -1 0 841)" d="M222.5625 209.5355L323.125 209.5355z" stroke="#0000EE" stroke-width="0.750418" stroke-linecap="square" fill="none" /><path transform="matrix(1 0 0 -1 0 841)" d="M101 189.669C 101 188.4269 100 187.42 98.75 187.42C 97.46875 187.42 96.5 188.4269 96.5 189.669C 96.5 190.9112 97.46875 191.918 98.75 191.918C 100 191.918 101 190.9112 101 189.669" stroke="#000000" stroke-width="0.750418" stroke-linecap="square" fill="none" /><path transform="matrix(1 0 0 -1 0 841)" d="M281.0938 184.7961L440.1875 184.7961z" stroke="#0000EE" stroke-width="0.750418" stroke-linecap="square" fill="none" /><path transform="matrix(1 0 0 -1 0 841)" d="M101 164.9296C 101 163.6874 100 162.6805 98.75 162.6805C 97.46875 162.6805 96.5 163.6874 96.5 164.9296C 96.5 166.1718 97.46875 167.1786 98.75 167.1786C 100 167.1786 101 166.1718 101 164.9296" stroke="#000000" stroke-width="0.750418" stroke-linecap="square" fill="none" /><path transform="matrix(1 0 0 -1 0 841)" d="M182.0313 160.0567L242.0625 160.0567z" stroke="#0000EE" stroke-width="0.750418" stroke-linecap="square" fill="none" /><path transform="matrix(1 0 0 -1 0 841)" d="M101 140.1902C 101 138.9481 100 137.9412 98.75 137.9412C 97.46875 137.9412 96.5 138.9481 96.5 140.1902C 96.5 141.4324 97.46875 142.4392 98.75 142.4392C 100 142.4392 101 141.4324 101 140.1902" stroke="#000000" stroke-width="0.750418" stroke-linecap="square" fill="none" /><path transform="matrix(1 0 0 -1 0 841)" d="M178.2813 135.3173L234.5625 135.3173z" stroke="#0000EE" stroke-width="0.750418" stroke-linecap="square" fill="none" /><path transform="matrix(1 0 0 -1 0 841)" d="M70.96875 107.954C 70.96875 106.7119 70 105.705 68.71875 105.705C 67.46875 105.705 66.46875 106.7119 66.46875 107.954C 66.46875 109.1962 67.46875 110.2031 68.71875 110.2031C 70 110.2031 70.96875 109.1962 70.96875 107.954" stroke="#000000" stroke-width="0.750418" fill="#000000" fill-rule="evenodd" /><path transform="matrix(1 0 0 -1 0 841)" d="M101 90.71136C 101 89.46918 100 88.46234 98.75 88.46234C 97.46875 88.46234 96.5 89.46918 96.5 90.71136C 96.5 91.95361 97.46875 92.96045 98.75 92.96045C 100 92.96045 101 91.95361 101 90.71136" stroke="#000000" stroke-width="0.750418" stroke-linecap="square" fill="none" /><path transform="matrix(1 0 0 -1 0 841)" d="M308.125 85.83844L545.25 85.83844z" stroke="#0000EE" stroke-width="0.750418" stroke-linecap="square" fill="none" /><path transform="matrix(1 0 0 -1 0 841)" d="M110 68.59583L231.5625 68.59583z" stroke="#0000EE" stroke-width="0.750418" stroke-linecap="square" fill="none" /></g><g clip-path="url(#4)"></g></g></g></g></svg>