<svg xmlns="http://www.w3.org/2000/svg" xmlns:xlink="http://www.w3.org/1999/xlink" id="body_312" preserveAspectRatio="xMinYMin meet" viewBox="0 0 793 1121"><defs><clipPath id="1"><path d="M0 841L0 -0.8897705L0 -0.8897705L595.2756 -0.8897705L595.2756 -0.8897705L595.2756 841L595.2756 841L0 841z" /></clipPath><clipPath id="2"><path d="M50 -0.8897705L545.2813 -0.8897705L545.2813 -0.8897705L545.2813 840.9998L545.2813 840.9998L50 840.9998L50 840.9998L50 -0.8897705" /></clipPath><clipPath id="3"><path d="M50 48.58905L545.2813 48.58905L545.2813 48.58905L545.2813 791.5209L545.2813 791.5209L50 791.5209L50 791.5209L50 48.58905" /></clipPath><clipPath id="4"><path d="M50 791.5209L545.2813 791.5209L545.2813 791.5209L545.2813 840.9998L545.2813 840.9998L50 840.9998L50 840.9998L50 791.5209" /></clipPath></defs><g transform="matrix(1.333333 0 0 1.333333 0 0)"><g><g clip-path="url(#1)"><g clip-path="url(#2)"></g><g clip-path="url(#3)"><path transform="matrix(1 0 0 -1 0 841)" d="M71 718.9424C 71 717.7003 70.03125 716.6934 68.75 716.6934C 67.46875 716.6934 66.5 717.7003 66.5 718.9424C 66.5 720.1846 67.46875 721.1915 68.75 721.1915C 70.03125 721.1915 71 720.1846 71 718.9424" stroke="#000000" stroke-width="0.750418" fill="#000000" fill-rule="evenodd" /><path transform="matrix(1 0 0 -1 0 841)" d="M101.0313 701.6998C 101.0313 700.4576 100.0313 699.4507 98.78125 699.4507C 97.5 699.4507 96.53125 700.4576 96.53125 701.6998C 96.53125 702.942 97.5 703.9489 98.78125 703.9489C 100.0313 703.9489 101.0313 702.942 101.0313 701.6998" stroke="#000000" stroke-width="0.750418" stroke-linecap="square" fill="none" /><path transform="matrix(1 0 0 -1 0 841)" d="M154.3125 696.8269L182.0625 696.8269z" stroke="#0000EE" stroke-width="0.750418" stroke-linecap="square" fill="none" /><path transform="matrix(1 0 0 -1 0 841)" d="M101.0313 676.9604C 101.0313 675.7183 100.0313 674.7114 98.78125 674.7114C 97.5 674.7114 96.53125 675.7183 96.53125 676.9604C 96.53125 678.2025 97.5 679.2094 98.78125 679.2094C 100.0313 679.2094 101.0313 678.2025 101.0313 676.9604" stroke="#000000" stroke-width="0.750418" stroke-linecap="square" fill="none" /><path transform="matrix(1 0 0 -1 0 841)" d="M209.8438 672.0875L297.625 672.0875z" stroke="#0000EE" stroke-width="0.750418" stroke-linecap="square" fill="none" /><path transform="matrix(1 0 0 -1 0 841)" d="M101.0313 652.2209C 101.0313 650.9788 100.0313 649.9719 98.78125 649.9719C 97.5 649.9719 96.53125 650.9788 96.53125 652.2209C 96.53125 653.4631 97.5 654.47 98.78125 654.47C 100.0313 654.47 101.0313 653.4631 101.0313 652.2209" stroke="#000000" stroke-width="0.750418" stroke-linecap="square" fill="none" /><path transform="matrix(1 0 0 -1 0 841)" d="M192.5625 647.3481L265.375 647.3481z" stroke="#0000EE" stroke-width="0.750418" stroke-linecap="square" fill="none" /><path transform="matrix(1 0 0 -1 0 841)" d="M101.0313 627.4816C 101.0313 626.2394 100.0313 625.2325 98.78125 625.2325C 97.5 625.2325 96.53125 626.2394 96.53125 627.4816C 96.53125 628.7237 97.5 629.7306 98.78125 629.7306C 100.0313 629.7306 101.0313 628.7237 101.0313 627.4816" stroke="#000000" stroke-width="0.750418" stroke-linecap="square" fill="none" /><path transform="matrix(1 0 0 -1 0 841)" d="M157.3125 622.6086L194.8125 622.6086z" stroke="#0000EE" stroke-width="0.750418" stroke-linecap="square" fill="none" /><path transform="matrix(1 0 0 -1 0 841)" d="M101.0313 602.7422C 101.0313 601.5 100.0313 600.4931 98.78125 600.4931C 97.5 600.4931 96.53125 601.5 96.53125 602.7422C 96.53125 603.9843 97.5 604.9912 98.78125 604.9912C 100.0313 604.9912 101.0313 603.9843 101.0313 602.7422" stroke="#000000" stroke-width="0.750418" stroke-linecap="square" fill="none" /><path transform="matrix(1 0 0 -1 0 841)" d="M158.0625 597.8693L197.8125 597.8693z" stroke="#0000EE" stroke-width="0.750418" stroke-linecap="square" fill="none" /><path transform="matrix(1 0 0 -1 0 841)" d="M101.0313 578.0027C 101.0313 576.7606 100.0313 575.7537 98.78125 575.7537C 97.5 575.7537 96.53125 576.7606 96.53125 578.0027C 96.53125 579.2449 97.5 580.2518 98.78125 580.2518C 100.0313 580.2518 101.0313 579.2449 101.0313 578.0027" stroke="#000000" stroke-width="0.750418" stroke-linecap="square" fill="none" /><path transform="matrix(1 0 0 -1 0 841)" d="M195.5625 573.1299L272.875 573.1299z" stroke="#0000EE" stroke-width="0.750418" stroke-linecap="square" fill="none" /><path transform="matrix(1 0 0 -1 0 841)" d="M101.0313 553.2633C 101.0313 552.0212 100.0313 551.0143 98.78125 551.0143C 97.5 551.0143 96.53125 552.0212 96.53125 553.2633C 96.53125 554.5055 97.5 555.5124 98.78125 555.5124C 100.0313 555.5124 101.0313 554.5055 101.0313 553.2633" stroke="#000000" stroke-width="0.750418" stroke-linecap="square" fill="none" /><path transform="matrix(1 0 0 -1 0 841)" d="M155.8125 548.3904L191.8125 548.3904z" stroke="#0000EE" stroke-width="0.750418" stroke-linecap="square" fill="none" /><path transform="matrix(1 0 0 -1 0 841)" d="M101.0313 528.5239C 101.0313 527.2818 100.0313 526.2749 98.78125 526.2749C 97.5 526.2749 96.53125 527.2818 96.53125 528.5239C 96.53125 529.7661 97.5 530.7729 98.78125 530.7729C 100.0313 530.7729 101.0313 529.7661 101.0313 528.5239" stroke="#000000" stroke-width="0.750418" stroke-linecap="square" fill="none" /><path transform="matrix(1 0 0 -1 0 841)" d="M188.8125 523.651L317.125 523.651z" stroke="#0000EE" stroke-width="0.750418" stroke-linecap="square" fill="none" /><path transform="matrix(1 0 0 -1 0 841)" d="M101.0313 503.7845C 101.0313 502.5424 100.0313 501.5355 98.78125 501.5355C 97.5 501.5355 96.53125 502.5424 96.53125 503.7845C 96.53125 505.0267 97.5 506.0336 98.78125 506.0336C 100.0313 506.0336 101.0313 505.0267 101.0313 503.7845" stroke="#000000" stroke-width="0.750418" stroke-linecap="square" fill="none" /><path transform="matrix(1 0 0 -1 0 841)" d="M169.3125 498.9116L350.1563 498.9116z" stroke="#0000EE" stroke-width="0.750418" stroke-linecap="square" fill="none" /><path transform="matrix(1 0 0 -1 0 841)" d="M71 471.5483C 71 470.3062 70.03125 469.2993 68.75 469.2993C 67.46875 469.2993 66.5 470.3062 66.5 471.5483C 66.5 472.7905 67.46875 473.7974 68.75 473.7974C 70.03125 473.7974 71 472.7905 71 471.5483" stroke="#000000" stroke-width="0.750418" fill="#000000" fill-rule="evenodd" /><path transform="matrix(1 0 0 -1 0 841)" d="M101.0313 454.3057C 101.0313 453.0636 100.0313 452.0567 98.78125 452.0567C 97.5 452.0567 96.53125 453.0636 96.53125 454.3057C 96.53125 455.5479 97.5 456.5547 98.78125 456.5547C 100.0313 456.5547 101.0313 455.5479 101.0313 454.3057" stroke="#000000" stroke-width="0.750418" stroke-linecap="square" fill="none" /><path transform="matrix(1 0 0 -1 0 841)" d="M177.5625 449.4328L263.8438 449.4328z" stroke="#0000EE" stroke-width="0.750418" stroke-linecap="square" fill="none" /><path transform="matrix(1 0 0 -1 0 841)" d="M101.0313 429.5663C 101.0313 428.3242 100.0313 427.3173 98.78125 427.3173C 97.5 427.3173 96.53125 428.3242 96.53125 429.5663C 96.53125 430.8085 97.5 431.8153 98.78125 431.8153C 100.0313 431.8153 101.0313 430.8085 101.0313 429.5663" stroke="#000000" stroke-width="0.750418" stroke-linecap="square" fill="none" /><path transform="matrix(1 0 0 -1 0 841)" d="M278.875 424.6934L533.25 424.6934z" stroke="#0000EE" stroke-width="0.750418" stroke-linecap="square" fill="none" /><path transform="matrix(1 0 0 -1 0 841)" d="M101.0313 404.8269C 101.0313 403.5847 100.0313 402.5779 98.78125 402.5779C 97.5 402.5779 96.53125 403.5847 96.53125 404.8269C 96.53125 406.0691 97.5 407.0759 98.78125 407.0759C 100.0313 407.0759 101.0313 406.0691 101.0313 404.8269" stroke="#000000" stroke-width="0.750418" stroke-linecap="square" fill="none" /><path transform="matrix(1 0 0 -1 0 841)" d="M278.875 399.954L533.25 399.954z" stroke="#0000EE" stroke-width="0.750418" stroke-linecap="square" fill="none" /><path transform="matrix(1 0 0 -1 0 841)" d="M101.0313 380.0875C 101.0313 378.8453 100.0313 377.8384 98.78125 377.8384C 97.5 377.8384 96.53125 378.8453 96.53125 380.0875C 96.53125 381.3297 97.5 382.3365 98.78125 382.3365C 100.0313 382.3365 101.0313 381.3297 101.0313 380.0875" stroke="#000000" stroke-width="0.750418" stroke-linecap="square" fill="none" /><path transform="matrix(1 0 0 -1 0 841)" d="M255.5938 375.2146L492 375.2146z" stroke="#0000EE" stroke-width="0.750418" stroke-linecap="square" fill="none" /><path transform="matrix(1 0 0 -1 0 841)" d="M71 347.8513C 71 346.6091 70.03125 345.6023 68.75 345.6023C 67.46875 345.6023 66.5 346.6091 66.5 347.8513C 66.5 349.0934 67.46875 350.1003 68.75 350.1003C 70.03125 350.1003 71 349.0934 71 347.8513" stroke="#000000" stroke-width="0.750418" fill="#000000" fill-rule="evenodd" /><path transform="matrix(1 0 0 -1 0 841)" d="M101.0313 330.6087C 101.0313 329.3665 100.0313 328.3596 98.78125 328.3596C 97.5 328.3596 96.53125 329.3665 96.53125 330.6087C 96.53125 331.8508 97.5 332.8577 98.78125 332.8577C 100.0313 332.8577 101.0313 331.8508 101.0313 330.6087" stroke="#000000" stroke-width="0.750418" stroke-linecap="square" fill="none" /><path transform="matrix(1 0 0 -1 0 841)" d="M230.8438 325.7358L479.9688 325.7358z" stroke="#0000EE" stroke-width="0.750418" stroke-linecap="square" fill="none" /><path transform="matrix(1 0 0 -1 0 841)" d="M101.0313 305.8693C 101.0313 304.6271 100.0313 303.6202 98.78125 303.6202C 97.5 303.6202 96.53125 304.6271 96.53125 305.8693C 96.53125 307.1115 97.5 308.1183 98.78125 308.1183C 100.0313 308.1183 101.0313 307.1115 101.0313 305.8693" stroke="#000000" stroke-width="0.750418" stroke-linecap="square" fill="none" /><path transform="matrix(1 0 0 -1 0 841)" d="M215.0938 300.9963L410.9375 300.9963z" stroke="#0000EE" stroke-width="0.750418" stroke-linecap="square" fill="none" /><path transform="matrix(1 0 0 -1 0 841)" d="M418.4375 300.9963L540.75 300.9963z" stroke="#0000EE" stroke-width="0.750418" stroke-linecap="square" fill="none" /><path transform="matrix(1 0 0 -1 0 841)" d="M71 273.6331C 71 272.3909 70.03125 271.384 68.75 271.384C 67.46875 271.384 66.5 272.3909 66.5 273.6331C 66.5 274.8752 67.46875 275.8821 68.75 275.8821C 70.03125 275.8821 71 274.8752 71 273.6331" stroke="#000000" stroke-width="0.750418" fill="#000000" fill-rule="evenodd" /><path transform="matrix(1 0 0 -1 0 841)" d="M101.0313 256.3904C 101.0313 255.1483 100.0313 254.1414 98.78125 254.1414C 97.5 254.1414 96.53125 255.1483 96.53125 256.3904C 96.53125 257.6326 97.5 258.6395 98.78125 258.6395C 100.0313 258.6395 101.0313 257.6326 101.0313 256.3904" stroke="#000000" stroke-width="0.750418" stroke-linecap="square" fill="none" /><path transform="matrix(1 0 0 -1 0 841)" d="M242.0938 251.5175L360.6563 251.5175z" stroke="#0000EE" stroke-width="0.750418" stroke-linecap="square" fill="none" /><path transform="matrix(1 0 0 -1 0 841)" d="M101.0313 231.6511C 101.0313 230.4089 100.0313 229.402 98.78125 229.402C 97.5 229.402 96.53125 230.4089 96.53125 231.6511C 96.53125 232.8932 97.5 233.9001 98.78125 233.9001C 100.0313 233.9001 101.0313 232.8932 101.0313 231.6511" stroke="#000000" stroke-width="0.750418" stroke-linecap="square" fill="none" /><path transform="matrix(1 0 0 -1 0 841)" d="M244.3438 226.7781L365.1563 226.7781z" stroke="#0000EE" stroke-width="0.750418" stroke-linecap="square" fill="none" /><path transform="matrix(1 0 0 -1 0 841)" d="M71 199.4149C 71 198.1727 70.03125 197.1658 68.75 197.1658C 67.46875 197.1658 66.5 198.1727 66.5 199.4149C 66.5 200.657 67.46875 201.6639 68.75 201.6639C 70.03125 201.6639 71 200.657 71 199.4149" stroke="#000000" stroke-width="0.750418" fill="#000000" fill-rule="evenodd" /><path transform="matrix(1 0 0 -1 0 841)" d="M101.0313 182.1722C 101.0313 180.9301 100.0313 179.9232 98.78125 179.9232C 97.5 179.9232 96.53125 180.9301 96.53125 182.1722C 96.53125 183.4144 97.5 184.4213 98.78125 184.4213C 100.0313 184.4213 101.0313 183.4144 101.0313 182.1722" stroke="#000000" stroke-width="0.750418" stroke-linecap="square" fill="none" /><path transform="matrix(1 0 0 -1 0 841)" d="M207.5625 177.2993L296.125 177.2993z" stroke="#0000EE" stroke-width="0.750418" stroke-linecap="square" fill="none" /><path transform="matrix(1 0 0 -1 0 841)" d="M101.0313 157.4328C 101.0313 156.1907 100.0313 155.1838 98.78125 155.1838C 97.5 155.1838 96.53125 156.1907 96.53125 157.4328C 96.53125 158.675 97.5 159.6818 98.78125 159.6818C 100.0313 159.6818 101.0313 158.675 101.0313 157.4328" stroke="#000000" stroke-width="0.750418" stroke-linecap="square" fill="none" /><path transform="matrix(1 0 0 -1 0 841)" d="M216.5938 152.5599L314.875 152.5599z" stroke="#0000EE" stroke-width="0.750418" stroke-linecap="square" fill="none" /><path transform="matrix(1 0 0 -1 0 841)" d="M101.0313 132.6934C 101.0313 131.4512 100.0313 130.4444 98.78125 130.4444C 97.5 130.4444 96.53125 131.4512 96.53125 132.6934C 96.53125 133.9355 97.5 134.9424 98.78125 134.9424C 100.0313 134.9424 101.0313 133.9355 101.0313 132.6934" stroke="#000000" stroke-width="0.750418" stroke-linecap="square" fill="none" /><path transform="matrix(1 0 0 -1 0 841)" d="M238.3438 127.8205L357.6563 127.8205z" stroke="#0000EE" stroke-width="0.750418" stroke-linecap="square" fill="none" /><path transform="matrix(1 0 0 -1 0 841)" d="M101.0313 107.954C 101.0313 106.7119 100.0313 105.705 98.78125 105.705C 97.5 105.705 96.53125 106.7119 96.53125 107.954C 96.53125 109.1962 97.5 110.2031 98.78125 110.2031C 100.0313 110.2031 101.0313 109.1962 101.0313 107.954" stroke="#000000" stroke-width="0.750418" stroke-linecap="square" fill="none" /><path transform="matrix(1 0 0 -1 0 841)" d="M212.8438 103.0811L308.125 103.0811z" stroke="#0000EE" stroke-width="0.750418" stroke-linecap="square" fill="none" /><path transform="matrix(1 0 0 -1 0 841)" d="M101.0313 83.2146C 101.0313 81.97241 100.0313 80.96558 98.78125 80.96558C 97.5 80.96558 96.53125 81.97241 96.53125 83.2146C 96.53125 84.45679 97.5 85.46362 98.78125 85.46362C 100.0313 85.46362 101.0313 84.45679 101.0313 83.2146" stroke="#000000" stroke-width="0.750418" stroke-linecap="square" fill="none" /><path transform="matrix(1 0 0 -1 0 841)" d="M279.625 78.34167L541.5 78.34167z" stroke="#0000EE" stroke-width="0.750418" stroke-linecap="square" fill="none" /><path transform="matrix(1 0 0 -1 0 841)" d="M110.0313 61.09906L232.3438 61.09906z" stroke="#0000EE" stroke-width="0.750418" stroke-linecap="square" fill="none" /></g><g clip-path="url(#4)"></g></g></g></g></svg>