<svg xmlns="http://www.w3.org/2000/svg" xmlns:xlink="http://www.w3.org/1999/xlink" id="body_169" preserveAspectRatio="xMinYMin meet" viewBox="0 0 793 1121"><defs><clipPath id="1"><path d="M0 841L0 -0.8897705L0 -0.8897705L595.2756 -0.8897705L595.2756 -0.8897705L595.2756 841L595.2756 841L0 841z" /></clipPath><clipPath id="2"><path d="M49.98438 -0.8897705L545.2656 -0.8897705L545.2656 -0.8897705L545.2656 840.9998L545.2656 840.9998L49.98438 840.9998L49.98438 840.9998L49.98438 -0.8897705" /></clipPath><clipPath id="3"><path d="M49.98438 48.58905L545.2656 48.58905L545.2656 48.58905L545.2656 791.5209L545.2656 791.5209L49.98438 791.5209L49.98438 791.5209L49.98438 48.58905" /></clipPath><clipPath id="4"><path d="M49.98438 791.5209L545.2656 791.5209L545.2656 791.5209L545.2656 840.9998L545.2656 840.9998L49.98438 840.9998L49.98438 840.9998L49.98438 791.5209" /></clipPath></defs><g transform="matrix(1.333333 0 0 1.333333 0 0)"><g><g clip-path="url(#1)"><g clip-path="url(#2)"></g><g clip-path="url(#3)"><g transform="matrix(0.5493024 0 0 0.5483189 80.00121 48.58911)"><g transform="matrix(1 0 0 1 0 0)"><image x="0" y="0" xlink:href="img_289.png" width="847" height="242" /></g></g><g transform="matrix(0.7504179 0 0 0.749679 80.00121 241.2566)"><g transform="matrix(1 0 0 1 0 0)"><image x="0" y="0" xlink:href="img_290.png" width="248" height="155" /></g></g><g transform="matrix(0.6050184 0 0 0.6037415 80.00121 417.4312)"><g transform="matrix(1 0 0 1 0 0)"><image x="0" y="0" xlink:href="img_291.png" width="769" height="375" /></g></g></g><g clip-path="url(#4)"></g></g></g></g></svg>