<svg xmlns="http://www.w3.org/2000/svg" xmlns:xlink="http://www.w3.org/1999/xlink" id="body_327" preserveAspectRatio="xMinYMin meet" viewBox="0 0 793 1121"><defs><clipPath id="1"><path d="M0 841L0 -0.8897705L0 -0.8897705L595.2756 -0.8897705L595.2756 -0.8897705L595.2756 841L595.2756 841L0 841z" /></clipPath><clipPath id="2"><path d="M49.96875 -0.8897705L545.25 -0.8897705L545.25 -0.8897705L545.25 840.9998L545.25 840.9998L49.96875 840.9998L49.96875 840.9998L49.96875 -0.8897705" /></clipPath><clipPath id="3"><path d="M49.96875 48.58905L545.25 48.58905L545.25 48.58905L545.25 791.5209L545.25 791.5209L49.96875 791.5209L49.96875 791.5209L49.96875 48.58905" /></clipPath><clipPath id="4"><path d="M49.96875 791.5209L545.25 791.5209L545.25 791.5209L545.25 840.9998L545.25 840.9998L49.96875 840.9998L49.96875 840.9998L49.96875 791.5209" /></clipPath></defs><g transform="matrix(1.333333 0 0 1.333333 0 0)"><g><g clip-path="url(#1)"><g clip-path="url(#2)"></g><g clip-path="url(#3)"><path transform="matrix(1 0 0 -1 0 841)" d="M70.96875 768.4212C 70.96875 767.1791 70 766.1722 68.71875 766.1722C 67.46875 766.1722 66.46875 767.1791 66.46875 768.4212C 66.46875 769.6633 67.46875 770.6703 68.71875 770.6703C 70 770.6703 70.96875 769.6633 70.96875 768.4212" stroke="#000000" stroke-width="0.750418" fill="#000000" fill-rule="evenodd" /><path transform="matrix(1 0 0 -1 0 841)" d="M199.3125 763.5483L433.4375 763.5483z" stroke="#0000EE" stroke-width="0.750418" stroke-linecap="square" fill="none" /><path transform="matrix(1 0 0 -1 0 841)" d="M70.96875 743.6818C 70.96875 742.4397 70 741.4328 68.71875 741.4328C 67.46875 741.4328 66.46875 742.4397 66.46875 743.6818C 66.46875 744.924 67.46875 745.9308 68.71875 745.9308C 70 745.9308 70.96875 744.924 70.96875 743.6818" stroke="#000000" stroke-width="0.750418" fill="#000000" fill-rule="evenodd" /><path transform="matrix(1 0 0 -1 0 841)" d="M101 726.4392C 101 725.197 100.0313 724.1902 98.75 724.1902C 97.46875 724.1902 96.5 725.197 96.5 726.4392C 96.5 727.6813 97.46875 728.6882 98.75 728.6882C 100.0313 728.6882 101 727.6813 101 726.4392" stroke="#000000" stroke-width="0.750418" stroke-linecap="square" fill="none" /><path transform="matrix(1 0 0 -1 0 841)" d="M154.2813 721.5663L266.0938 721.5663z" stroke="#0000EE" stroke-width="0.750418" stroke-linecap="square" fill="none" /><path transform="matrix(1 0 0 -1 0 841)" d="M101 701.6998C 101 700.4576 100.0313 699.4507 98.75 699.4507C 97.46875 699.4507 96.5 700.4576 96.5 701.6998C 96.5 702.942 97.46875 703.9489 98.75 703.9489C 100.0313 703.9489 101 702.942 101 701.6998" stroke="#000000" stroke-width="0.750418" stroke-linecap="square" fill="none" /><path transform="matrix(1 0 0 -1 0 841)" d="M274.3438 696.8269L540 696.8269z" stroke="#0000EE" stroke-width="0.750418" stroke-linecap="square" fill="none" /><path transform="matrix(1 0 0 -1 0 841)" d="M101 676.9604C 101 675.7183 100.0313 674.7114 98.75 674.7114C 97.46875 674.7114 96.5 675.7183 96.5 676.9604C 96.5 678.2025 97.46875 679.2094 98.75 679.2094C 100.0313 679.2094 101 678.2025 101 676.9604" stroke="#000000" stroke-width="0.750418" stroke-linecap="square" fill="none" /><path transform="matrix(1 0 0 -1 0 841)" d="M227.8125 672.0875L525.75 672.0875z" stroke="#0000EE" stroke-width="0.750418" stroke-linecap="square" fill="none" /><path transform="matrix(1 0 0 -1 0 841)" d="M101 652.2209C 101 650.9788 100.0313 649.9719 98.75 649.9719C 97.46875 649.9719 96.5 650.9788 96.5 652.2209C 96.5 653.4631 97.46875 654.47 98.75 654.47C 100.0313 654.47 101 653.4631 101 652.2209" stroke="#000000" stroke-width="0.750418" stroke-linecap="square" fill="none" /><path transform="matrix(1 0 0 -1 0 841)" d="M209.0625 647.3481L506.9688 647.3481z" stroke="#0000EE" stroke-width="0.750418" stroke-linecap="square" fill="none" /><path transform="matrix(1 0 0 -1 0 841)" d="M101 627.4816C 101 626.2394 100.0313 625.2325 98.75 625.2325C 97.46875 625.2325 96.5 626.2394 96.5 627.4816C 96.5 628.7237 97.46875 629.7306 98.75 629.7306C 100.0313 629.7306 101 628.7237 101 627.4816" stroke="#000000" stroke-width="0.750418" stroke-linecap="square" fill="none" /><path transform="matrix(1 0 0 -1 0 841)" d="M209.0625 622.6086L398.9063 622.6086z" stroke="#0000EE" stroke-width="0.750418" stroke-linecap="square" fill="none" /><path transform="matrix(1 0 0 -1 0 841)" d="M101 602.7422C 101 601.5 100.0313 600.4931 98.75 600.4931C 97.46875 600.4931 96.5 601.5 96.5 602.7422C 96.5 603.9843 97.46875 604.9912 98.75 604.9912C 100.0313 604.9912 101 603.9843 101 602.7422" stroke="#000000" stroke-width="0.750418" stroke-linecap="square" fill="none" /><path transform="matrix(1 0 0 -1 0 841)" d="M233.8125 597.8693L448.4375 597.8693z" stroke="#0000EE" stroke-width="0.750418" stroke-linecap="square" fill="none" /><path transform="matrix(1 0 0 -1 0 841)" d="M101 578.0027C 101 576.7606 100.0313 575.7537 98.75 575.7537C 97.46875 575.7537 96.5 576.7606 96.5 578.0027C 96.5 579.2449 97.46875 580.2518 98.75 580.2518C 100.0313 580.2518 101 579.2449 101 578.0027" stroke="#000000" stroke-width="0.750418" stroke-linecap="square" fill="none" /><path transform="matrix(1 0 0 -1 0 841)" d="M337.375 573.1299L545.25 573.1299z" stroke="#0000EE" stroke-width="0.750418" stroke-linecap="square" fill="none" /><path transform="matrix(1 0 0 -1 0 841)" d="M110 555.8872L214.3125 555.8872z" stroke="#0000EE" stroke-width="0.750418" stroke-linecap="square" fill="none" /><path transform="matrix(1 0 0 -1 0 841)" d="M70.96875 528.5239C 70.96875 527.2818 70 526.2749 68.71875 526.2749C 67.46875 526.2749 66.46875 527.2818 66.46875 528.5239C 66.46875 529.7661 67.46875 530.7729 68.71875 530.7729C 70 530.7729 70.96875 529.7661 70.96875 528.5239" stroke="#000000" stroke-width="0.750418" fill="#000000" fill-rule="evenodd" /><path transform="matrix(1 0 0 -1 0 841)" d="M101 511.2813C 101 510.0392 100.0313 509.0323 98.75 509.0323C 97.46875 509.0323 96.5 510.0392 96.5 511.2813C 96.5 512.5234 97.46875 513.5304 98.75 513.5304C 100.0313 513.5304 101 512.5234 101 511.2813" stroke="#000000" stroke-width="0.750418" stroke-linecap="square" fill="none" /><path transform="matrix(1 0 0 -1 0 841)" d="M154.2813 506.4084L277.3438 506.4084z" stroke="#0000EE" stroke-width="0.750418" stroke-linecap="square" fill="none" /></g><g clip-path="url(#4)"></g></g></g></g></svg>