<svg xmlns="http://www.w3.org/2000/svg" xmlns:xlink="http://www.w3.org/1999/xlink" id="body_336" preserveAspectRatio="xMinYMin meet" viewBox="0 0 793 1121"><defs><clipPath id="1"><path d="M0 841L0 -0.8897705L0 -0.8897705L595.2756 -0.8897705L595.2756 -0.8897705L595.2756 841L595.2756 841L0 841z" /></clipPath><clipPath id="2"><path d="M50 -0.8897705L545.25 -0.8897705L545.25 -0.8897705L545.25 840.9998L545.25 840.9998L50 840.9998L50 840.9998L50 -0.8897705" /></clipPath><clipPath id="3"><path d="M50 48.58905L545.25 48.58905L545.25 48.58905L545.25 791.5209L545.25 791.5209L50 791.5209L50 791.5209L50 48.58905" /></clipPath><clipPath id="4"><path d="M50 791.5209L545.25 791.5209L545.25 791.5209L545.25 840.9998L545.25 840.9998L50 840.9998L50 840.9998L50 791.5209" /></clipPath></defs><g transform="matrix(1.333333 0 0 1.333333 0 0)"><g><g clip-path="url(#1)"><g clip-path="url(#2)"></g><g clip-path="url(#3)"><path transform="matrix(1 0 0 -1 0 841)" d="M71 718.9424C 71 717.7003 70 716.6934 68.75 716.6934C 67.46875 716.6934 66.5 717.7003 66.5 718.9424C 66.5 720.1846 67.46875 721.1915 68.75 721.1915C 70 721.1915 71 720.1846 71 718.9424" stroke="#000000" stroke-width="0.750418" fill="#000000" fill-rule="evenodd" /><path transform="matrix(1 0 0 -1 0 841)" d="M101 701.6998C 101 700.4576 100.0313 699.4507 98.75 699.4507C 97.5 699.4507 96.5 700.4576 96.5 701.6998C 96.5 702.942 97.5 703.9489 98.75 703.9489C 100.0313 703.9489 101 702.942 101 701.6998" stroke="#000000" stroke-width="0.750418" stroke-linecap="square" fill="none" /><path transform="matrix(1 0 0 -1 0 841)" d="M154.2813 696.8269L348.6563 696.8269z" stroke="#0000EE" stroke-width="0.750418" stroke-linecap="square" fill="none" /><path transform="matrix(1 0 0 -1 0 841)" d="M101 676.9604C 101 675.7183 100.0313 674.7114 98.75 674.7114C 97.5 674.7114 96.5 675.7183 96.5 676.9604C 96.5 678.2025 97.5 679.2094 98.75 679.2094C 100.0313 679.2094 101 678.2025 101 676.9604" stroke="#000000" stroke-width="0.750418" stroke-linecap="square" fill="none" /><path transform="matrix(1 0 0 -1 0 841)" d="M299.125 672.0875L540 672.0875z" stroke="#0000EE" stroke-width="0.750418" stroke-linecap="square" fill="none" /><path transform="matrix(1 0 0 -1 0 841)" d="M101 652.2209C 101 650.9788 100.0313 649.9719 98.75 649.9719C 97.5 649.9719 96.5 650.9788 96.5 652.2209C 96.5 653.4631 97.5 654.47 98.75 654.47C 100.0313 654.47 101 653.4631 101 652.2209" stroke="#000000" stroke-width="0.750418" stroke-linecap="square" fill="none" /><path transform="matrix(1 0 0 -1 0 841)" d="M186.5625 647.3481L427.4375 647.3481z" stroke="#0000EE" stroke-width="0.750418" stroke-linecap="square" fill="none" /><path transform="matrix(1 0 0 -1 0 841)" d="M101 627.4816C 101 626.2394 100.0313 625.2325 98.75 625.2325C 97.5 625.2325 96.5 626.2394 96.5 627.4816C 96.5 628.7237 97.5 629.7306 98.75 629.7306C 100.0313 629.7306 101 628.7237 101 627.4816" stroke="#000000" stroke-width="0.750418" stroke-linecap="square" fill="none" /><path transform="matrix(1 0 0 -1 0 841)" d="M182.8125 622.6086L312.625 622.6086z" stroke="#0000EE" stroke-width="0.750418" stroke-linecap="square" fill="none" /><path transform="matrix(1 0 0 -1 0 841)" d="M101 602.7422C 101 601.5 100.0313 600.4931 98.75 600.4931C 97.5 600.4931 96.5 601.5 96.5 602.7422C 96.5 603.9843 97.5 604.9912 98.75 604.9912C 100.0313 604.9912 101 603.9843 101 602.7422" stroke="#000000" stroke-width="0.750418" stroke-linecap="square" fill="none" /><path transform="matrix(1 0 0 -1 0 841)" d="M179.8125 597.8693L410.1875 597.8693z" stroke="#0000EE" stroke-width="0.750418" stroke-linecap="square" fill="none" /><path transform="matrix(1 0 0 -1 0 841)" d="M417.6875 597.8693L540 597.8693z" stroke="#0000EE" stroke-width="0.750418" stroke-linecap="square" fill="none" /><path transform="matrix(1 0 0 -1 0 841)" d="M71 570.506C 71 569.2638 70 568.257 68.75 568.257C 67.46875 568.257 66.5 569.2638 66.5 570.506C 66.5 571.7481 67.46875 572.755 68.75 572.755C 70 572.755 71 571.7481 71 570.506" stroke="#000000" stroke-width="0.750418" fill="#000000" fill-rule="evenodd" /><path transform="matrix(1 0 0 -1 0 841)" d="M101 553.2633C 101 552.0212 100.0313 551.0143 98.75 551.0143C 97.5 551.0143 96.5 552.0212 96.5 553.2633C 96.5 554.5055 97.5 555.5124 98.75 555.5124C 100.0313 555.5124 101 554.5055 101 553.2633" stroke="#000000" stroke-width="0.750418" stroke-linecap="square" fill="none" /><path transform="matrix(1 0 0 -1 0 841)" d="M154.2813 548.3904L338.9063 548.3904z" stroke="#0000EE" stroke-width="0.750418" stroke-linecap="square" fill="none" /><path transform="matrix(1 0 0 -1 0 841)" d="M101 528.5239C 101 527.2818 100.0313 526.2749 98.75 526.2749C 97.5 526.2749 96.5 527.2818 96.5 528.5239C 96.5 529.7661 97.5 530.7729 98.75 530.7729C 100.0313 530.7729 101 529.7661 101 528.5239" stroke="#000000" stroke-width="0.750418" stroke-linecap="square" fill="none" /><path transform="matrix(1 0 0 -1 0 841)" d="M188.8125 523.651L373.4063 523.651z" stroke="#0000EE" stroke-width="0.750418" stroke-linecap="square" fill="none" /><path transform="matrix(1 0 0 -1 0 841)" d="M101 503.7845C 101 502.5424 100.0313 501.5355 98.75 501.5355C 97.5 501.5355 96.5 502.5424 96.5 503.7845C 96.5 505.0267 97.5 506.0336 98.75 506.0336C 100.0313 506.0336 101 505.0267 101 503.7845" stroke="#000000" stroke-width="0.750418" stroke-linecap="square" fill="none" /><path transform="matrix(1 0 0 -1 0 841)" d="M172.3125 498.9116L222.5938 498.9116z" stroke="#0000EE" stroke-width="0.750418" stroke-linecap="square" fill="none" /><path transform="matrix(1 0 0 -1 0 841)" d="M101 479.0451C 101 477.803 100.0313 476.7961 98.75 476.7961C 97.5 476.7961 96.5 477.803 96.5 479.0451C 96.5 480.2873 97.5 481.2942 98.75 481.2942C 100.0313 481.2942 101 480.2873 101 479.0451" stroke="#000000" stroke-width="0.750418" stroke-linecap="square" fill="none" /><path transform="matrix(1 0 0 -1 0 841)" d="M169.3125 474.1722L216.5938 474.1722z" stroke="#0000EE" stroke-width="0.750418" stroke-linecap="square" fill="none" /><path transform="matrix(1 0 0 -1 0 841)" d="M101 454.3057C 101 453.0636 100.0313 452.0567 98.75 452.0567C 97.5 452.0567 96.5 453.0636 96.5 454.3057C 96.5 455.5479 97.5 456.5547 98.75 456.5547C 100.0313 456.5547 101 455.5479 101 454.3057" stroke="#000000" stroke-width="0.750418" stroke-linecap="square" fill="none" /><path transform="matrix(1 0 0 -1 0 841)" d="M173.8125 449.4328L225.5938 449.4328z" stroke="#0000EE" stroke-width="0.750418" stroke-linecap="square" fill="none" /><path transform="matrix(1 0 0 -1 0 841)" d="M101 429.5663C 101 428.3242 100.0313 427.3173 98.75 427.3173C 97.5 427.3173 96.5 428.3242 96.5 429.5663C 96.5 430.8085 97.5 431.8153 98.75 431.8153C 100.0313 431.8153 101 430.8085 101 429.5663" stroke="#000000" stroke-width="0.750418" stroke-linecap="square" fill="none" /><path transform="matrix(1 0 0 -1 0 841)" d="M201.5625 424.6934L281.125 424.6934z" stroke="#0000EE" stroke-width="0.750418" stroke-linecap="square" fill="none" /><path transform="matrix(1 0 0 -1 0 841)" d="M101 404.8269C 101 403.5847 100.0313 402.5779 98.75 402.5779C 97.5 402.5779 96.5 403.5847 96.5 404.8269C 96.5 406.0691 97.5 407.0759 98.75 407.0759C 100.0313 407.0759 101 406.0691 101 404.8269" stroke="#000000" stroke-width="0.750418" stroke-linecap="square" fill="none" /><path transform="matrix(1 0 0 -1 0 841)" d="M195.5625 399.954L269.0938 399.954z" stroke="#0000EE" stroke-width="0.750418" stroke-linecap="square" fill="none" /><path transform="matrix(1 0 0 -1 0 841)" d="M101 380.0875C 101 378.8453 100.0313 377.8384 98.75 377.8384C 97.5 377.8384 96.5 378.8453 96.5 380.0875C 96.5 381.3297 97.5 382.3365 98.75 382.3365C 100.0313 382.3365 101 381.3297 101 380.0875" stroke="#000000" stroke-width="0.750418" stroke-linecap="square" fill="none" /><path transform="matrix(1 0 0 -1 0 841)" d="M281.875 375.2146L531.75 375.2146z" stroke="#0000EE" stroke-width="0.750418" stroke-linecap="square" fill="none" /><path transform="matrix(1 0 0 -1 0 841)" d="M71 347.8513C 71 346.6091 70 345.6023 68.75 345.6023C 67.46875 345.6023 66.5 346.6091 66.5 347.8513C 66.5 349.0934 67.46875 350.1003 68.75 350.1003C 70 350.1003 71 349.0934 71 347.8513" stroke="#000000" stroke-width="0.750418" fill="#000000" fill-rule="evenodd" /><path transform="matrix(1 0 0 -1 0 841)" d="M101 330.6087C 101 329.3665 100.0313 328.3596 98.75 328.3596C 97.5 328.3596 96.5 329.3665 96.5 330.6087C 96.5 331.8508 97.5 332.8577 98.75 332.8577C 100.0313 332.8577 101 331.8508 101 330.6087" stroke="#000000" stroke-width="0.750418" stroke-linecap="square" fill="none" /><path transform="matrix(1 0 0 -1 0 841)" d="M154.2813 325.7358L191.8125 325.7358z" stroke="#0000EE" stroke-width="0.750418" stroke-linecap="square" fill="none" /><path transform="matrix(1 0 0 -1 0 841)" d="M71 298.3725C 71 297.1303 70 296.1234 68.75 296.1234C 67.46875 296.1234 66.5 297.1303 66.5 298.3725C 66.5 299.6146 67.46875 300.6215 68.75 300.6215C 70 300.6215 71 299.6146 71 298.3725" stroke="#000000" stroke-width="0.750418" fill="#000000" fill-rule="evenodd" /><path transform="matrix(1 0 0 -1 0 841)" d="M101 281.1299C 101 279.8877 100.0313 278.8808 98.75 278.8808C 97.5 278.8808 96.5 279.8877 96.5 281.1299C 96.5 282.372 97.5 283.3789 98.75 283.3789C 100.0313 283.3789 101 282.372 101 281.1299" stroke="#000000" stroke-width="0.750418" stroke-linecap="square" fill="none" /><path transform="matrix(1 0 0 -1 0 841)" d="M154.2813 276.257L293.125 276.257z" stroke="#0000EE" stroke-width="0.750418" stroke-linecap="square" fill="none" /><path transform="matrix(1 0 0 -1 0 841)" d="M71 248.8937C 71 247.6515 70 246.6446 68.75 246.6446C 67.46875 246.6446 66.5 247.6515 66.5 248.8937C 66.5 250.1358 67.46875 251.1427 68.75 251.1427C 70 251.1427 71 250.1358 71 248.8937" stroke="#000000" stroke-width="0.750418" fill="#000000" fill-rule="evenodd" /><path transform="matrix(1 0 0 -1 0 841)" d="M101 231.6511C 101 230.4089 100.0313 229.402 98.75 229.402C 97.5 229.402 96.5 230.4089 96.5 231.6511C 96.5 232.8932 97.5 233.9001 98.75 233.9001C 100.0313 233.9001 101 232.8932 101 231.6511" stroke="#000000" stroke-width="0.750418" stroke-linecap="square" fill="none" /><path transform="matrix(1 0 0 -1 0 841)" d="M277.375 226.7781L518.25 226.7781z" stroke="#0000EE" stroke-width="0.750418" stroke-linecap="square" fill="none" /><path transform="matrix(1 0 0 -1 0 841)" d="M71 199.4149C 71 198.1727 70 197.1658 68.75 197.1658C 67.46875 197.1658 66.5 198.1727 66.5 199.4149C 66.5 200.657 67.46875 201.6639 68.75 201.6639C 70 201.6639 71 200.657 71 199.4149" stroke="#000000" stroke-width="0.750418" fill="#000000" fill-rule="evenodd" /><path transform="matrix(1 0 0 -1 0 841)" d="M101 182.1722C 101 180.9301 100.0313 179.9232 98.75 179.9232C 97.5 179.9232 96.5 180.9301 96.5 182.1722C 96.5 183.4144 97.5 184.4213 98.75 184.4213C 100.0313 184.4213 101 183.4144 101 182.1722" stroke="#000000" stroke-width="0.750418" stroke-linecap="square" fill="none" /><path transform="matrix(1 0 0 -1 0 841)" d="M176.8125 177.2993L460.4688 177.2993z" stroke="#0000EE" stroke-width="0.750418" stroke-linecap="square" fill="none" /><path transform="matrix(1 0 0 -1 0 841)" d="M71 149.936C 71 148.6938 70 147.687 68.75 147.687C 67.46875 147.687 66.5 148.6938 66.5 149.936C 66.5 151.1782 67.46875 152.1851 68.75 152.1851C 70 152.1851 71 151.1782 71 149.936" stroke="#000000" stroke-width="0.750418" fill="#000000" fill-rule="evenodd" /><path transform="matrix(1 0 0 -1 0 841)" d="M101 132.6934C 101 131.4512 100.0313 130.4444 98.75 130.4444C 97.5 130.4444 96.5 131.4512 96.5 132.6934C 96.5 133.9355 97.5 134.9424 98.75 134.9424C 100.0313 134.9424 101 133.9355 101 132.6934" stroke="#000000" stroke-width="0.750418" stroke-linecap="square" fill="none" /><path transform="matrix(1 0 0 -1 0 841)" d="M154.2813 127.8205L250.3438 127.8205z" stroke="#0000EE" stroke-width="0.750418" stroke-linecap="square" fill="none" /><path transform="matrix(1 0 0 -1 0 841)" d="M71 100.4572C 71 99.21503 70 98.20819 68.75 98.20819C 67.46875 98.20819 66.5 99.21503 66.5 100.4572C 66.5 101.6993 67.46875 102.7062 68.75 102.7062C 70 102.7062 71 101.6993 71 100.4572" stroke="#000000" stroke-width="0.750418" fill="#000000" fill-rule="evenodd" /><path transform="matrix(1 0 0 -1 0 841)" d="M101 83.2146C 101 81.97241 100.0313 80.96558 98.75 80.96558C 97.5 80.96558 96.5 81.97241 96.5 83.2146C 96.5 84.45679 97.5 85.46362 98.75 85.46362C 100.0313 85.46362 101 84.45679 101 83.2146" stroke="#000000" stroke-width="0.750418" stroke-linecap="square" fill="none" /><path transform="matrix(1 0 0 -1 0 841)" d="M154.2813 78.34167L260.8438 78.34167z" stroke="#0000EE" stroke-width="0.750418" stroke-linecap="square" fill="none" /><path transform="matrix(1 0 0 -1 0 841)" d="M101 58.47516C 101 57.23297 100.0313 56.22614 98.75 56.22614C 97.5 56.22614 96.5 57.23297 96.5 58.47516C 96.5 59.71741 97.5 60.72424 98.75 60.72424C 100.0313 60.72424 101 59.71741 101 58.47516" stroke="#000000" stroke-width="0.750418" stroke-linecap="square" fill="none" /><path transform="matrix(1 0 0 -1 0 841)" d="M152.7813 53.60229L226.3438 53.60229z" stroke="#0000EE" stroke-width="0.750418" stroke-linecap="square" fill="none" /></g><g clip-path="url(#4)"></g></g></g></g></svg>