<svg xmlns="http://www.w3.org/2000/svg" xmlns:xlink="http://www.w3.org/1999/xlink" id="body_323" preserveAspectRatio="xMinYMin meet" viewBox="0 0 793 1121"><defs><clipPath id="1"><path d="M0 841L0 -0.8897705L0 -0.8897705L595.2756 -0.8897705L595.2756 -0.8897705L595.2756 841L595.2756 841L0 841z" /></clipPath><clipPath id="2"><path d="M50 -0.8897705L545.2813 -0.8897705L545.2813 -0.8897705L545.2813 840.9998L545.2813 840.9998L50 840.9998L50 840.9998L50 -0.8897705" /></clipPath><clipPath id="3"><path d="M50 48.58905L545.2813 48.58905L545.2813 48.58905L545.2813 791.5209L545.2813 791.5209L50 791.5209L50 791.5209L50 48.58905" /></clipPath><clipPath id="4"><path d="M50 791.5209L545.2813 791.5209L545.2813 791.5209L545.2813 840.9998L545.2813 840.9998L50 840.9998L50 840.9998L50 791.5209" /></clipPath></defs><g transform="matrix(1.333333 0 0 1.333333 0 0)"><g><g clip-path="url(#1)"><g clip-path="url(#2)"></g><g clip-path="url(#3)"><path transform="matrix(1 0 0 -1 0 841)" d="M71 718.9424C 71 717.7003 70.03125 716.6934 68.75 716.6934C 67.5 716.6934 66.5 717.7003 66.5 718.9424C 66.5 720.1846 67.5 721.1915 68.75 721.1915C 70.03125 721.1915 71 720.1846 71 718.9424" stroke="#000000" stroke-width="0.750418" fill="#000000" fill-rule="evenodd" /><path transform="matrix(1 0 0 -1 0 841)" d="M101.0313 701.6998C 101.0313 700.4576 100.0313 699.4507 98.78125 699.4507C 97.5 699.4507 96.53125 700.4576 96.53125 701.6998C 96.53125 702.942 97.5 703.9489 98.78125 703.9489C 100.0313 703.9489 101.0313 702.942 101.0313 701.6998" stroke="#000000" stroke-width="0.750418" stroke-linecap="square" fill="none" /><path transform="matrix(1 0 0 -1 0 841)" d="M154.3125 696.8269L175.3125 696.8269z" stroke="#0000EE" stroke-width="0.750418" stroke-linecap="square" fill="none" /><path transform="matrix(1 0 0 -1 0 841)" d="M182.8125 696.8269L408.6875 696.8269z" stroke="#0000EE" stroke-width="0.750418" stroke-linecap="square" fill="none" /><path transform="matrix(1 0 0 -1 0 841)" d="M71 669.4636C 71 668.2214 70.03125 667.2145 68.75 667.2145C 67.5 667.2145 66.5 668.2214 66.5 669.4636C 66.5 670.7057 67.5 671.7126 68.75 671.7126C 70.03125 671.7126 71 670.7057 71 669.4636" stroke="#000000" stroke-width="0.750418" fill="#000000" fill-rule="evenodd" /><path transform="matrix(1 0 0 -1 0 841)" d="M185.0625 664.5907L410.9375 664.5907z" stroke="#0000EE" stroke-width="0.750418" stroke-linecap="square" fill="none" /><path transform="matrix(1 0 0 -1 0 841)" d="M71 644.7242C 71 643.4821 70.03125 642.4752 68.75 642.4752C 67.5 642.4752 66.5 643.4821 66.5 644.7242C 66.5 645.9663 67.5 646.9732 68.75 646.9732C 70.03125 646.9732 71 645.9663 71 644.7242" stroke="#000000" stroke-width="0.750418" fill="#000000" fill-rule="evenodd" /><path transform="matrix(1 0 0 -1 0 841)" d="M101.0313 627.4816C 101.0313 626.2394 100.0313 625.2325 98.78125 625.2325C 97.5 625.2325 96.53125 626.2394 96.53125 627.4816C 96.53125 628.7237 97.5 629.7306 98.78125 629.7306C 100.0313 629.7306 101.0313 628.7237 101.0313 627.4816" stroke="#000000" stroke-width="0.750418" stroke-linecap="square" fill="none" /><path transform="matrix(1 0 0 -1 0 841)" d="M157.3125 622.6086L228.5938 622.6086z" stroke="#0000EE" stroke-width="0.750418" stroke-linecap="square" fill="none" /><path transform="matrix(1 0 0 -1 0 841)" d="M101.0313 602.7422C 101.0313 601.5 100.0313 600.4931 98.78125 600.4931C 97.5 600.4931 96.53125 601.5 96.53125 602.7422C 96.53125 603.9843 97.5 604.9912 98.78125 604.9912C 100.0313 604.9912 101.0313 603.9843 101.0313 602.7422" stroke="#000000" stroke-width="0.750418" stroke-linecap="square" fill="none" /><path transform="matrix(1 0 0 -1 0 841)" d="M323.1563 597.8693L545.2813 597.8693z" stroke="#0000EE" stroke-width="0.750418" stroke-linecap="square" fill="none" /><path transform="matrix(1 0 0 -1 0 841)" d="M110.0313 580.6266L223.3438 580.6266z" stroke="#0000EE" stroke-width="0.750418" stroke-linecap="square" fill="none" /><path transform="matrix(1 0 0 -1 0 841)" d="M230.8438 580.6266L353.1563 580.6266z" stroke="#0000EE" stroke-width="0.750418" stroke-linecap="square" fill="none" /><path transform="matrix(1 0 0 -1 0 841)" d="M71 553.2633C 71 552.0212 70.03125 551.0143 68.75 551.0143C 67.5 551.0143 66.5 552.0212 66.5 553.2633C 66.5 554.5055 67.5 555.5124 68.75 555.5124C 70.03125 555.5124 71 554.5055 71 553.2633" stroke="#000000" stroke-width="0.750418" fill="#000000" fill-rule="evenodd" /><path transform="matrix(1 0 0 -1 0 841)" d="M101.0313 536.0208C 101.0313 534.7786 100.0313 533.7717 98.78125 533.7717C 97.5 533.7717 96.53125 534.7786 96.53125 536.0208C 96.53125 537.2628 97.5 538.2698 98.78125 538.2698C 100.0313 538.2698 101.0313 537.2628 101.0313 536.0208" stroke="#000000" stroke-width="0.750418" stroke-linecap="square" fill="none" /><path transform="matrix(1 0 0 -1 0 841)" d="M154.3125 531.1478L324.6563 531.1478z" stroke="#0000EE" stroke-width="0.750418" stroke-linecap="square" fill="none" /><path transform="matrix(1 0 0 -1 0 841)" d="M71 503.7845C 71 502.5424 70.03125 501.5355 68.75 501.5355C 67.5 501.5355 66.5 502.5424 66.5 503.7845C 66.5 505.0267 67.5 506.0336 68.75 506.0336C 70.03125 506.0336 71 505.0267 71 503.7845" stroke="#000000" stroke-width="0.750418" fill="#000000" fill-rule="evenodd" /><path transform="matrix(1 0 0 -1 0 841)" d="M101.0313 486.5419C 101.0313 485.2998 100.0313 484.2929 98.78125 484.2929C 97.5 484.2929 96.53125 485.2998 96.53125 486.5419C 96.53125 487.7841 97.5 488.791 98.78125 488.791C 100.0313 488.791 101.0313 487.7841 101.0313 486.5419" stroke="#000000" stroke-width="0.750418" stroke-linecap="square" fill="none" /><path transform="matrix(1 0 0 -1 0 841)" d="M154.3125 481.669L239.8438 481.669z" stroke="#0000EE" stroke-width="0.750418" stroke-linecap="square" fill="none" /><path transform="matrix(1 0 0 -1 0 841)" d="M101.0313 461.8025C 101.0313 460.5604 100.0313 459.5535 98.78125 459.5535C 97.5 459.5535 96.53125 460.5604 96.53125 461.8025C 96.53125 463.0446 97.5 464.0515 98.78125 464.0515C 100.0313 464.0515 101.0313 463.0446 101.0313 461.8025" stroke="#000000" stroke-width="0.750418" stroke-linecap="square" fill="none" /><path transform="matrix(1 0 0 -1 0 841)" d="M386.1875 456.9296L545.2813 456.9296z" stroke="#0000EE" stroke-width="0.750418" stroke-linecap="square" fill="none" /><path transform="matrix(1 0 0 -1 0 841)" d="M110.0313 439.687L308.875 439.687z" stroke="#0000EE" stroke-width="0.750418" stroke-linecap="square" fill="none" /><path transform="matrix(1 0 0 -1 0 841)" d="M101.0313 419.8205C 101.0313 418.5783 100.0313 417.5714 98.78125 417.5714C 97.5 417.5714 96.53125 418.5783 96.53125 419.8205C 96.53125 421.0626 97.5 422.0695 98.78125 422.0695C 100.0313 422.0695 101.0313 421.0626 101.0313 419.8205" stroke="#000000" stroke-width="0.750418" stroke-linecap="square" fill="none" /><path transform="matrix(1 0 0 -1 0 841)" d="M380.1875 414.9476L545.2813 414.9476z" stroke="#0000EE" stroke-width="0.750418" stroke-linecap="square" fill="none" /><path transform="matrix(1 0 0 -1 0 841)" d="M110.0313 397.705L293.125 397.705z" stroke="#0000EE" stroke-width="0.750418" stroke-linecap="square" fill="none" /><path transform="matrix(1 0 0 -1 0 841)" d="M300.625 397.705L422.9375 397.705z" stroke="#0000EE" stroke-width="0.750418" stroke-linecap="square" fill="none" /><path transform="matrix(1 0 0 -1 0 841)" d="M101.0313 377.8384C 101.0313 376.5963 100.0313 375.5894 98.78125 375.5894C 97.5 375.5894 96.53125 376.5963 96.53125 377.8384C 96.53125 379.0806 97.5 380.0875 98.78125 380.0875C 100.0313 380.0875 101.0313 379.0806 101.0313 377.8384" stroke="#000000" stroke-width="0.750418" stroke-linecap="square" fill="none" /><path transform="matrix(1 0 0 -1 0 841)" d="M310.375 372.9655L545.2813 372.9655z" stroke="#0000EE" stroke-width="0.750418" stroke-linecap="square" fill="none" /><path transform="matrix(1 0 0 -1 0 841)" d="M110.0313 355.7229L167.0625 355.7229z" stroke="#0000EE" stroke-width="0.750418" stroke-linecap="square" fill="none" /><path transform="matrix(1 0 0 -1 0 841)" d="M101.0313 335.8564C 101.0313 334.6143 100.0313 333.6074 98.78125 333.6074C 97.5 333.6074 96.53125 334.6143 96.53125 335.8564C 96.53125 337.0986 97.5 338.1055 98.78125 338.1055C 100.0313 338.1055 101.0313 337.0986 101.0313 335.8564" stroke="#000000" stroke-width="0.750418" stroke-linecap="square" fill="none" /><path transform="matrix(1 0 0 -1 0 841)" d="M278.875 330.9835L541.5313 330.9835z" stroke="#0000EE" stroke-width="0.750418" stroke-linecap="square" fill="none" /><path transform="matrix(1 0 0 -1 0 841)" d="M110.0313 313.7409L232.3438 313.7409z" stroke="#0000EE" stroke-width="0.750418" stroke-linecap="square" fill="none" /><path transform="matrix(1 0 0 -1 0 841)" d="M71 286.3776C 71 285.1354 70.03125 284.1286 68.75 284.1286C 67.5 284.1286 66.5 285.1354 66.5 286.3776C 66.5 287.6198 67.5 288.6266 68.75 288.6266C 70.03125 288.6266 71 287.6198 71 286.3776" stroke="#000000" stroke-width="0.750418" fill="#000000" fill-rule="evenodd" /><path transform="matrix(1 0 0 -1 0 841)" d="M355.4063 281.5047L392.9375 281.5047z" stroke="#0000EE" stroke-width="0.750418" stroke-linecap="square" fill="none" /><path transform="matrix(1 0 0 -1 0 841)" d="M71 261.6382C 71 260.3961 70.03125 259.3892 68.75 259.3892C 67.5 259.3892 66.5 260.3961 66.5 261.6382C 66.5 262.8804 67.5 263.8873 68.75 263.8873C 70.03125 263.8873 71 262.8804 71 261.6382" stroke="#000000" stroke-width="0.750418" fill="#000000" fill-rule="evenodd" /><path transform="matrix(1 0 0 -1 0 841)" d="M101.0313 244.3956C 101.0313 243.1534 100.0313 242.1465 98.78125 242.1465C 97.5 242.1465 96.53125 243.1534 96.53125 244.3956C 96.53125 245.6378 97.5 246.6446 98.78125 246.6446C 100.0313 246.6446 101.0313 245.6378 101.0313 244.3956" stroke="#000000" stroke-width="0.750418" stroke-linecap="square" fill="none" /><path transform="matrix(1 0 0 -1 0 841)" d="M154.3125 239.5226L290.125 239.5226z" stroke="#0000EE" stroke-width="0.750418" stroke-linecap="square" fill="none" /><path transform="matrix(1 0 0 -1 0 841)" d="M71 212.1594C 71 210.9172 70.03125 209.9103 68.75 209.9103C 67.5 209.9103 66.5 210.9172 66.5 212.1594C 66.5 213.4016 67.5 214.4084 68.75 214.4084C 70.03125 214.4084 71 213.4016 71 212.1594" stroke="#000000" stroke-width="0.750418" fill="#000000" fill-rule="evenodd" /><path transform="matrix(1 0 0 -1 0 841)" d="M101.0313 194.9167C 101.0313 193.6746 100.0313 192.6677 98.78125 192.6677C 97.5 192.6677 96.53125 193.6746 96.53125 194.9167C 96.53125 196.1589 97.5 197.1658 98.78125 197.1658C 100.0313 197.1658 101.0313 196.1589 101.0313 194.9167" stroke="#000000" stroke-width="0.750418" stroke-linecap="square" fill="none" /><path transform="matrix(1 0 0 -1 0 841)" d="M154.3125 190.0439L305.875 190.0439z" stroke="#0000EE" stroke-width="0.750418" stroke-linecap="square" fill="none" /><path transform="matrix(1 0 0 -1 0 841)" d="M71 162.6805C 71 161.4384 70.03125 160.4315 68.75 160.4315C 67.5 160.4315 66.5 161.4384 66.5 162.6805C 66.5 163.9227 67.5 164.9296 68.75 164.9296C 70.03125 164.9296 71 163.9227 71 162.6805" stroke="#000000" stroke-width="0.750418" fill="#000000" fill-rule="evenodd" /><path transform="matrix(1 0 0 -1 0 841)" d="M101.0313 145.4379C 101.0313 144.1958 100.0313 143.1889 98.78125 143.1889C 97.5 143.1889 96.53125 144.1958 96.53125 145.4379C 96.53125 146.6801 97.5 147.687 98.78125 147.687C 100.0313 147.687 101.0313 146.6801 101.0313 145.4379" stroke="#000000" stroke-width="0.750418" stroke-linecap="square" fill="none" /><path transform="matrix(1 0 0 -1 0 841)" d="M154.3125 140.5651L239.8438 140.5651z" stroke="#0000EE" stroke-width="0.750418" stroke-linecap="square" fill="none" /><path transform="matrix(1 0 0 -1 0 841)" d="M71 113.2018C 71 111.9596 70.03125 110.9527 68.75 110.9527C 67.5 110.9527 66.5 111.9596 66.5 113.2018C 66.5 114.4439 67.5 115.4508 68.75 115.4508C 70.03125 115.4508 71 114.4439 71 113.2018" stroke="#000000" stroke-width="0.750418" fill="#000000" fill-rule="evenodd" /><path transform="matrix(1 0 0 -1 0 841)" d="M101.0313 95.95911C 101.0313 94.71698 100.0313 93.71008 98.78125 93.71008C 97.5 93.71008 96.53125 94.71698 96.53125 95.95911C 96.53125 97.20129 97.5 98.20819 98.78125 98.20819C 100.0313 98.20819 101.0313 97.20129 101.0313 95.95911" stroke="#000000" stroke-width="0.750418" stroke-linecap="square" fill="none" /><path transform="matrix(1 0 0 -1 0 841)" d="M154.3125 91.08624L242.8438 91.08624z" stroke="#0000EE" stroke-width="0.750418" stroke-linecap="square" fill="none" /><path transform="matrix(1 0 0 -1 0 841)" d="M71 63.72296C 71 62.48071 70.03125 61.47388 68.75 61.47388C 67.5 61.47388 66.5 62.48071 66.5 63.72296C 66.5 64.96515 67.5 65.97198 68.75 65.97198C 70.03125 65.97198 71 64.96515 71 63.72296" stroke="#000000" stroke-width="0.750418" fill="#000000" fill-rule="evenodd" /></g><g clip-path="url(#4)"></g></g></g></g></svg>