<svg xmlns="http://www.w3.org/2000/svg" xmlns:xlink="http://www.w3.org/1999/xlink" id="body_317" preserveAspectRatio="xMinYMin meet" viewBox="0 0 793 1121"><defs><clipPath id="1"><path d="M0 841L0 -0.8897705L0 -0.8897705L595.2756 -0.8897705L595.2756 -0.8897705L595.2756 841L595.2756 841L0 841z" /></clipPath><clipPath id="2"><path d="M50 -0.8897705L545.2813 -0.8897705L545.2813 -0.8897705L545.2813 840.9998L545.2813 840.9998L50 840.9998L50 840.9998L50 -0.8897705" /></clipPath><clipPath id="3"><path d="M50 48.58905L545.2813 48.58905L545.2813 48.58905L545.2813 791.5209L545.2813 791.5209L50 791.5209L50 791.5209L50 48.58905" /></clipPath><clipPath id="4"><path d="M50 791.5209L545.2813 791.5209L545.2813 791.5209L545.2813 840.9998L545.2813 840.9998L50 840.9998L50 840.9998L50 791.5209" /></clipPath></defs><g transform="matrix(1.333333 0 0 1.333333 0 0)"><g><g clip-path="url(#1)"><g clip-path="url(#2)"></g><g clip-path="url(#3)"><path transform="matrix(1 0 0 -1 0 841)" d="M101.0313 775.918C 101.0313 774.6759 100.0313 773.6689 98.78125 773.6689C 97.5 773.6689 96.53125 774.6759 96.53125 775.918C 96.53125 777.1602 97.5 778.1671 98.78125 778.1671C 100.0313 778.1671 101.0313 777.1602 101.0313 775.918" stroke="#000000" stroke-width="0.750418" stroke-linecap="square" fill="none" /><path transform="matrix(1 0 0 -1 0 841)" d="M221.0938 771.0451L349.4063 771.0451z" stroke="#0000EE" stroke-width="0.750418" stroke-linecap="square" fill="none" /><path transform="matrix(1 0 0 -1 0 841)" d="M101.0313 751.1786C 101.0313 749.9365 100.0313 748.9296 98.78125 748.9296C 97.5 748.9296 96.53125 749.9365 96.53125 751.1786C 96.53125 752.4208 97.5 753.4276 98.78125 753.4276C 100.0313 753.4276 101.0313 752.4208 101.0313 751.1786" stroke="#000000" stroke-width="0.750418" stroke-linecap="square" fill="none" /><path transform="matrix(1 0 0 -1 0 841)" d="M311.125 746.3057L499.5 746.3057z" stroke="#0000EE" stroke-width="0.750418" stroke-linecap="square" fill="none" /><path transform="matrix(1 0 0 -1 0 841)" d="M101.0313 726.4392C 101.0313 725.197 100.0313 724.1902 98.78125 724.1902C 97.5 724.1902 96.53125 725.197 96.53125 726.4392C 96.53125 727.6813 97.5 728.6882 98.78125 728.6882C 100.0313 728.6882 101.0313 727.6813 101.0313 726.4392" stroke="#000000" stroke-width="0.750418" stroke-linecap="square" fill="none" /><path transform="matrix(1 0 0 -1 0 841)" d="M307.375 721.5663L492 721.5663z" stroke="#0000EE" stroke-width="0.750418" stroke-linecap="square" fill="none" /><path transform="matrix(1 0 0 -1 0 841)" d="M101.0313 701.6998C 101.0313 700.4576 100.0313 699.4507 98.78125 699.4507C 97.5 699.4507 96.53125 700.4576 96.53125 701.6998C 96.53125 702.942 97.5 703.9489 98.78125 703.9489C 100.0313 703.9489 101.0313 702.942 101.0313 701.6998" stroke="#000000" stroke-width="0.750418" stroke-linecap="square" fill="none" /><path transform="matrix(1 0 0 -1 0 841)" d="M259.375 696.8269L458.9688 696.8269z" stroke="#0000EE" stroke-width="0.750418" stroke-linecap="square" fill="none" /><path transform="matrix(1 0 0 -1 0 841)" d="M101.0313 676.9604C 101.0313 675.7183 100.0313 674.7114 98.78125 674.7114C 97.5 674.7114 96.53125 675.7183 96.53125 676.9604C 96.53125 678.2025 97.5 679.2094 98.78125 679.2094C 100.0313 679.2094 101.0313 678.2025 101.0313 676.9604" stroke="#000000" stroke-width="0.750418" stroke-linecap="square" fill="none" /><path transform="matrix(1 0 0 -1 0 841)" d="M209.8438 672.0875L287.875 672.0875z" stroke="#0000EE" stroke-width="0.750418" stroke-linecap="square" fill="none" /><path transform="matrix(1 0 0 -1 0 841)" d="M101.0313 652.2209C 101.0313 650.9788 100.0313 649.9719 98.78125 649.9719C 97.5 649.9719 96.53125 650.9788 96.53125 652.2209C 96.53125 653.4631 97.5 654.47 98.78125 654.47C 100.0313 654.47 101.0313 653.4631 101.0313 652.2209" stroke="#000000" stroke-width="0.750418" stroke-linecap="square" fill="none" /><path transform="matrix(1 0 0 -1 0 841)" d="M215.8438 647.3481L299.875 647.3481z" stroke="#0000EE" stroke-width="0.750418" stroke-linecap="square" fill="none" /><path transform="matrix(1 0 0 -1 0 841)" d="M101.0313 627.4816C 101.0313 626.2394 100.0313 625.2325 98.78125 625.2325C 97.5 625.2325 96.53125 626.2394 96.53125 627.4816C 96.53125 628.7237 97.5 629.7306 98.78125 629.7306C 100.0313 629.7306 101.0313 628.7237 101.0313 627.4816" stroke="#000000" stroke-width="0.750418" stroke-linecap="square" fill="none" /><path transform="matrix(1 0 0 -1 0 841)" d="M299.125 622.6086L545.2813 622.6086z" stroke="#0000EE" stroke-width="0.750418" stroke-linecap="square" fill="none" /><path transform="matrix(1 0 0 -1 0 841)" d="M110.0313 605.366L206.0938 605.366z" stroke="#0000EE" stroke-width="0.750418" stroke-linecap="square" fill="none" /><path transform="matrix(1 0 0 -1 0 841)" d="M213.5938 605.366L335.9063 605.366z" stroke="#0000EE" stroke-width="0.750418" stroke-linecap="square" fill="none" /><path transform="matrix(1 0 0 -1 0 841)" d="M101.0313 585.4995C 101.0313 584.2574 100.0313 583.2505 98.78125 583.2505C 97.5 583.2505 96.53125 584.2574 96.53125 585.4995C 96.53125 586.7417 97.5 587.7486 98.78125 587.7486C 100.0313 587.7486 101.0313 586.7417 101.0313 585.4995" stroke="#000000" stroke-width="0.750418" stroke-linecap="square" fill="none" /><path transform="matrix(1 0 0 -1 0 841)" d="M158.0625 580.6266L264.625 580.6266z" stroke="#0000EE" stroke-width="0.750418" stroke-linecap="square" fill="none" /><path transform="matrix(1 0 0 -1 0 841)" d="M101.0313 560.7601C 101.0313 559.518 100.0313 558.5111 98.78125 558.5111C 97.5 558.5111 96.53125 559.518 96.53125 560.7601C 96.53125 562.0023 97.5 563.0092 98.78125 563.0092C 100.0313 563.0092 101.0313 562.0023 101.0313 560.7601" stroke="#000000" stroke-width="0.750418" stroke-linecap="square" fill="none" /><path transform="matrix(1 0 0 -1 0 841)" d="M213.5938 555.8872L320.1563 555.8872z" stroke="#0000EE" stroke-width="0.750418" stroke-linecap="square" fill="none" /><path transform="matrix(1 0 0 -1 0 841)" d="M101.0313 536.0208C 101.0313 534.7786 100.0313 533.7717 98.78125 533.7717C 97.5 533.7717 96.53125 534.7786 96.53125 536.0208C 96.53125 537.2628 97.5 538.2698 98.78125 538.2698C 100.0313 538.2698 101.0313 537.2628 101.0313 536.0208" stroke="#000000" stroke-width="0.750418" stroke-linecap="square" fill="none" /><path transform="matrix(1 0 0 -1 0 841)" d="M216.5938 531.1478L348.6563 531.1478z" stroke="#0000EE" stroke-width="0.750418" stroke-linecap="square" fill="none" /><path transform="matrix(1 0 0 -1 0 841)" d="M101.0313 511.2813C 101.0313 510.0392 100.0313 509.0323 98.78125 509.0323C 97.5 509.0323 96.53125 510.0392 96.53125 511.2813C 96.53125 512.5234 97.5 513.5304 98.78125 513.5304C 100.0313 513.5304 101.0313 512.5234 101.0313 511.2813" stroke="#000000" stroke-width="0.750418" stroke-linecap="square" fill="none" /><path transform="matrix(1 0 0 -1 0 841)" d="M197.0625 506.4084L392.1875 506.4084z" stroke="#0000EE" stroke-width="0.750418" stroke-linecap="square" fill="none" /><path transform="matrix(1 0 0 -1 0 841)" d="M101.0313 486.5419C 101.0313 485.2998 100.0313 484.2929 98.78125 484.2929C 97.5 484.2929 96.53125 485.2998 96.53125 486.5419C 96.53125 487.7841 97.5 488.791 98.78125 488.791C 100.0313 488.791 101.0313 487.7841 101.0313 486.5419" stroke="#000000" stroke-width="0.750418" stroke-linecap="square" fill="none" /><path transform="matrix(1 0 0 -1 0 841)" d="M279.625 481.669L541.5313 481.669z" stroke="#0000EE" stroke-width="0.750418" stroke-linecap="square" fill="none" /><path transform="matrix(1 0 0 -1 0 841)" d="M110.0313 464.4264L232.3438 464.4264z" stroke="#0000EE" stroke-width="0.750418" stroke-linecap="square" fill="none" /><path transform="matrix(1 0 0 -1 0 841)" d="M101.0313 444.5599C 101.0313 443.3177 100.0313 442.3109 98.78125 442.3109C 97.5 442.3109 96.53125 443.3177 96.53125 444.5599C 96.53125 445.802 97.5 446.8089 98.78125 446.8089C 100.0313 446.8089 101.0313 445.802 101.0313 444.5599" stroke="#000000" stroke-width="0.750418" stroke-linecap="square" fill="none" /><path transform="matrix(1 0 0 -1 0 841)" d="M238.3438 439.687L476.2188 439.687z" stroke="#0000EE" stroke-width="0.750418" stroke-linecap="square" fill="none" /><path transform="matrix(1 0 0 -1 0 841)" d="M486.75 439.687L545.2813 439.687z" stroke="#0000EE" stroke-width="0.750418" stroke-linecap="square" fill="none" /><path transform="matrix(1 0 0 -1 0 841)" d="M110.0313 422.4444L173.0625 422.4444z" stroke="#0000EE" stroke-width="0.750418" stroke-linecap="square" fill="none" /><path transform="matrix(1 0 0 -1 0 841)" d="M101.0313 402.5779C 101.0313 401.3357 100.0313 400.3288 98.78125 400.3288C 97.5 400.3288 96.53125 401.3357 96.53125 402.5779C 96.53125 403.82 97.5 404.8269 98.78125 404.8269C 100.0313 404.8269 101.0313 403.82 101.0313 402.5779" stroke="#000000" stroke-width="0.750418" stroke-linecap="square" fill="none" /><path transform="matrix(1 0 0 -1 0 841)" d="M260.875 397.705L399.6875 397.705z" stroke="#0000EE" stroke-width="0.750418" stroke-linecap="square" fill="none" /><path transform="matrix(1 0 0 -1 0 841)" d="M71 370.3417C 71 369.0995 70.03125 368.0926 68.75 368.0926C 67.5 368.0926 66.5 369.0995 66.5 370.3417C 66.5 371.5838 67.5 372.5907 68.75 372.5907C 70.03125 372.5907 71 371.5838 71 370.3417" stroke="#000000" stroke-width="0.750418" fill="#000000" fill-rule="evenodd" /><path transform="matrix(1 0 0 -1 0 841)" d="M101.0313 353.099C 101.0313 351.8569 100.0313 350.85 98.78125 350.85C 97.5 350.85 96.53125 351.8569 96.53125 353.099C 96.53125 354.3412 97.5 355.3481 98.78125 355.3481C 100.0313 355.3481 101.0313 354.3412 101.0313 353.099" stroke="#000000" stroke-width="0.750418" stroke-linecap="square" fill="none" /><path transform="matrix(1 0 0 -1 0 841)" d="M170.0625 348.2261L481.5 348.2261z" stroke="#0000EE" stroke-width="0.750418" stroke-linecap="square" fill="none" /><path transform="matrix(1 0 0 -1 0 841)" d="M71 320.8629C 71 319.6207 70.03125 318.6138 68.75 318.6138C 67.5 318.6138 66.5 319.6207 66.5 320.8629C 66.5 322.105 67.5 323.1119 68.75 323.1119C 70.03125 323.1119 71 322.105 71 320.8629" stroke="#000000" stroke-width="0.750418" fill="#000000" fill-rule="evenodd" /><path transform="matrix(1 0 0 -1 0 841)" d="M101.0313 303.6202C 101.0313 302.3781 100.0313 301.3712 98.78125 301.3712C 97.5 301.3712 96.53125 302.3781 96.53125 303.6202C 96.53125 304.8624 97.5 305.8693 98.78125 305.8693C 100.0313 305.8693 101.0313 304.8624 101.0313 303.6202" stroke="#000000" stroke-width="0.750418" stroke-linecap="square" fill="none" /><path transform="matrix(1 0 0 -1 0 841)" d="M201.5938 298.7473L468.7188 298.7473z" stroke="#0000EE" stroke-width="0.750418" stroke-linecap="square" fill="none" /><path transform="matrix(1 0 0 -1 0 841)" d="M483 298.7473L545.2813 298.7473z" stroke="#0000EE" stroke-width="0.750418" stroke-linecap="square" fill="none" /><path transform="matrix(1 0 0 -1 0 841)" d="M110.0313 281.5047L173.0625 281.5047z" stroke="#0000EE" stroke-width="0.750418" stroke-linecap="square" fill="none" /><path transform="matrix(1 0 0 -1 0 841)" d="M71 254.1414C 71 252.8992 70.03125 251.8924 68.75 251.8924C 67.5 251.8924 66.5 252.8992 66.5 254.1414C 66.5 255.3835 67.5 256.3904 68.75 256.3904C 70.03125 256.3904 71 255.3835 71 254.1414" stroke="#000000" stroke-width="0.750418" fill="#000000" fill-rule="evenodd" /><path transform="matrix(1 0 0 -1 0 841)" d="M101.0313 236.8988C 101.0313 235.6566 100.0313 234.6498 98.78125 234.6498C 97.5 234.6498 96.53125 235.6566 96.53125 236.8988C 96.53125 238.1409 97.5 239.1478 98.78125 239.1478C 100.0313 239.1478 101.0313 238.1409 101.0313 236.8988" stroke="#000000" stroke-width="0.750418" stroke-linecap="square" fill="none" /><path transform="matrix(1 0 0 -1 0 841)" d="M154.3125 232.0259L195.5625 232.0259z" stroke="#0000EE" stroke-width="0.750418" stroke-linecap="square" fill="none" /><path transform="matrix(1 0 0 -1 0 841)" d="M101.0313 212.1594C 101.0313 210.9172 100.0313 209.9103 98.78125 209.9103C 97.5 209.9103 96.53125 210.9172 96.53125 212.1594C 96.53125 213.4016 97.5 214.4084 98.78125 214.4084C 100.0313 214.4084 101.0313 213.4016 101.0313 212.1594" stroke="#000000" stroke-width="0.750418" stroke-linecap="square" fill="none" /><path transform="matrix(1 0 0 -1 0 841)" d="M276.625 207.2865L541.5313 207.2865z" stroke="#0000EE" stroke-width="0.750418" stroke-linecap="square" fill="none" /><path transform="matrix(1 0 0 -1 0 841)" d="M110.0313 190.0439L232.3438 190.0439z" stroke="#0000EE" stroke-width="0.750418" stroke-linecap="square" fill="none" /><path transform="matrix(1 0 0 -1 0 841)" d="M71 162.6805C 71 161.4384 70.03125 160.4315 68.75 160.4315C 67.5 160.4315 66.5 161.4384 66.5 162.6805C 66.5 163.9227 67.5 164.9296 68.75 164.9296C 70.03125 164.9296 71 163.9227 71 162.6805" stroke="#000000" stroke-width="0.750418" fill="#000000" fill-rule="evenodd" /><path transform="matrix(1 0 0 -1 0 841)" d="M101.0313 145.4379C 101.0313 144.1958 100.0313 143.1889 98.78125 143.1889C 97.5 143.1889 96.53125 144.1958 96.53125 145.4379C 96.53125 146.6801 97.5 147.687 98.78125 147.687C 100.0313 147.687 101.0313 146.6801 101.0313 145.4379" stroke="#000000" stroke-width="0.750418" stroke-linecap="square" fill="none" /><path transform="matrix(1 0 0 -1 0 841)" d="M154.3125 140.5651L315.6563 140.5651z" stroke="#0000EE" stroke-width="0.750418" stroke-linecap="square" fill="none" /><path transform="matrix(1 0 0 -1 0 841)" d="M101.0313 120.6985C 101.0313 119.4564 100.0313 118.4495 98.78125 118.4495C 97.5 118.4495 96.53125 119.4564 96.53125 120.6985C 96.53125 121.9407 97.5 122.9476 98.78125 122.9476C 100.0313 122.9476 101.0313 121.9407 101.0313 120.6985" stroke="#000000" stroke-width="0.750418" stroke-linecap="square" fill="none" /><path transform="matrix(1 0 0 -1 0 841)" d="M212.0938 115.8256L248.0938 115.8256z" stroke="#0000EE" stroke-width="0.750418" stroke-linecap="square" fill="none" /><path transform="matrix(1 0 0 -1 0 841)" d="M101.0313 95.95911C 101.0313 94.71698 100.0313 93.71008 98.78125 93.71008C 97.5 93.71008 96.53125 94.71698 96.53125 95.95911C 96.53125 97.20129 97.5 98.20819 98.78125 98.20819C 100.0313 98.20819 101.0313 97.20129 101.0313 95.95911" stroke="#000000" stroke-width="0.750418" stroke-linecap="square" fill="none" /><path transform="matrix(1 0 0 -1 0 841)" d="M146.8125 91.08624L174.5625 91.08624z" stroke="#0000EE" stroke-width="0.750418" stroke-linecap="square" fill="none" /><path transform="matrix(1 0 0 -1 0 841)" d="M101.0313 71.21973C 101.0313 69.97754 100.0313 68.9707 98.78125 68.9707C 97.5 68.9707 96.53125 69.97754 96.53125 71.21973C 96.53125 72.46191 97.5 73.46875 98.78125 73.46875C 100.0313 73.46875 101.0313 72.46191 101.0313 71.21973" stroke="#000000" stroke-width="0.750418" stroke-linecap="square" fill="none" /><path transform="matrix(1 0 0 -1 0 841)" d="M171.5625 66.3468L223.3438 66.3468z" stroke="#0000EE" stroke-width="0.750418" stroke-linecap="square" fill="none" /></g><g clip-path="url(#4)"></g></g></g></g></svg>