<svg xmlns="http://www.w3.org/2000/svg" xmlns:xlink="http://www.w3.org/1999/xlink" id="body_325" preserveAspectRatio="xMinYMin meet" viewBox="0 0 793 1121"><defs><clipPath id="1"><path d="M0 841L0 -0.8897705L0 -0.8897705L595.2756 -0.8897705L595.2756 -0.8897705L595.2756 841L595.2756 841L0 841z" /></clipPath><clipPath id="2"><path d="M49.96875 -0.8897705L545.25 -0.8897705L545.25 -0.8897705L545.25 840.9998L545.25 840.9998L49.96875 840.9998L49.96875 840.9998L49.96875 -0.8897705" /></clipPath><clipPath id="3"><path d="M49.96875 48.58905L545.25 48.58905L545.25 48.58905L545.25 791.5209L545.25 791.5209L49.96875 791.5209L49.96875 791.5209L49.96875 48.58905" /></clipPath><clipPath id="4"><path d="M49.96875 791.5209L545.25 791.5209L545.25 791.5209L545.25 840.9998L545.25 840.9998L49.96875 840.9998L49.96875 840.9998L49.96875 791.5209" /></clipPath></defs><g transform="matrix(1.333333 0 0 1.333333 0 0)"><g><g clip-path="url(#1)"><g clip-path="url(#2)"></g><g clip-path="url(#3)"><path transform="matrix(1 0 0 -1 0 841)" d="M71 718.9424C 71 717.7003 70 716.6934 68.75 716.6934C 67.46875 716.6934 66.5 717.7003 66.5 718.9424C 66.5 720.1846 67.46875 721.1915 68.75 721.1915C 70 721.1915 71 720.1846 71 718.9424" stroke="#000000" stroke-width="0.750418" fill="#000000" fill-rule="evenodd" /><path transform="matrix(1 0 0 -1 0 841)" d="M101 701.6998C 101 700.4576 100.0313 699.4507 98.75 699.4507C 97.5 699.4507 96.5 700.4576 96.5 701.6998C 96.5 702.942 97.5 703.9489 98.75 703.9489C 100.0313 703.9489 101 702.942 101 701.6998" stroke="#000000" stroke-width="0.750418" stroke-linecap="square" fill="none" /><path transform="matrix(1 0 0 -1 0 841)" d="M154.2813 696.8269L230.8438 696.8269z" stroke="#0000EE" stroke-width="0.750418" stroke-linecap="square" fill="none" /><path transform="matrix(1 0 0 -1 0 841)" d="M71 669.4636C 71 668.2214 70 667.2145 68.75 667.2145C 67.46875 667.2145 66.5 668.2214 66.5 669.4636C 66.5 670.7057 67.46875 671.7126 68.75 671.7126C 70 671.7126 71 670.7057 71 669.4636" stroke="#000000" stroke-width="0.750418" fill="#000000" fill-rule="evenodd" /><path transform="matrix(1 0 0 -1 0 841)" d="M101 652.2209C 101 650.9788 100.0313 649.9719 98.75 649.9719C 97.5 649.9719 96.5 650.9788 96.5 652.2209C 96.5 653.4631 97.5 654.47 98.75 654.47C 100.0313 654.47 101 653.4631 101 652.2209" stroke="#000000" stroke-width="0.750418" stroke-linecap="square" fill="none" /><path transform="matrix(1 0 0 -1 0 841)" d="M154.2813 647.3481L345.6563 647.3481z" stroke="#0000EE" stroke-width="0.750418" stroke-linecap="square" fill="none" /><path transform="matrix(1 0 0 -1 0 841)" d="M353.1563 647.3481L475.4688 647.3481z" stroke="#0000EE" stroke-width="0.750418" stroke-linecap="square" fill="none" /><path transform="matrix(1 0 0 -1 0 841)" d="M71 619.9847C 71 618.7427 70 617.7357 68.75 617.7357C 67.46875 617.7357 66.5 618.7427 66.5 619.9847C 66.5 621.2269 67.46875 622.2338 68.75 622.2338C 70 622.2338 71 621.2269 71 619.9847" stroke="#000000" stroke-width="0.750418" fill="#000000" fill-rule="evenodd" /><path transform="matrix(1 0 0 -1 0 841)" d="M101 602.7422C 101 601.5 100.0313 600.4931 98.75 600.4931C 97.5 600.4931 96.5 601.5 96.5 602.7422C 96.5 603.9843 97.5 604.9912 98.75 604.9912C 100.0313 604.9912 101 603.9843 101 602.7422" stroke="#000000" stroke-width="0.750418" stroke-linecap="square" fill="none" /><path transform="matrix(1 0 0 -1 0 841)" d="M154.2813 597.8693L273.5938 597.8693z" stroke="#0000EE" stroke-width="0.750418" stroke-linecap="square" fill="none" /></g><g clip-path="url(#4)"></g></g></g></g></svg>