<svg xmlns="http://www.w3.org/2000/svg" xmlns:xlink="http://www.w3.org/1999/xlink" id="body_340" preserveAspectRatio="xMinYMin meet" viewBox="0 0 793 1121"><defs><clipPath id="1"><path d="M0 841L0 -0.8897705L0 -0.8897705L595.2756 -0.8897705L595.2756 -0.8897705L595.2756 841L595.2756 841L0 841z" /></clipPath><clipPath id="2"><path d="M50 -0.8897705L545.2813 -0.8897705L545.2813 -0.8897705L545.2813 840.9998L545.2813 840.9998L50 840.9998L50 840.9998L50 -0.8897705" /></clipPath><clipPath id="3"><path d="M50 48.58905L545.2813 48.58905L545.2813 48.58905L545.2813 791.5209L545.2813 791.5209L50 791.5209L50 791.5209L50 48.58905" /></clipPath><clipPath id="4"><path d="M50 791.5209L545.2813 791.5209L545.2813 791.5209L545.2813 840.9998L545.2813 840.9998L50 840.9998L50 840.9998L50 791.5209" /></clipPath></defs><g transform="matrix(1.333333 0 0 1.333333 0 0)"><g><g clip-path="url(#1)"><g clip-path="url(#2)"></g><g clip-path="url(#3)"><path transform="matrix(1 0 0 -1 0 841)" d="M71 783.4148C 71 782.1727 70.03125 781.1658 68.75 781.1658C 67.5 781.1658 66.5 782.1727 66.5 783.4148C 66.5 784.6569 67.5 785.6638 68.75 785.6638C 70.03125 785.6638 71 784.6569 71 783.4148" stroke="#000000" stroke-width="0.750418" fill="#000000" fill-rule="evenodd" /><path transform="matrix(1 0 0 -1 0 841)" d="M101.0313 766.1722C 101.0313 764.9301 100.0313 763.9232 98.78125 763.9232C 97.5 763.9232 96.53125 764.9301 96.53125 766.1722C 96.53125 767.4143 97.5 768.4212 98.78125 768.4212C 100.0313 768.4212 101.0313 767.4143 101.0313 766.1722" stroke="#000000" stroke-width="0.750418" stroke-linecap="square" fill="none" /><path transform="matrix(1 0 0 -1 0 841)" d="M178.3125 761.2993L424.4688 761.2993z" stroke="#0000EE" stroke-width="0.750418" stroke-linecap="square" fill="none" /><path transform="matrix(1 0 0 -1 0 841)" d="M101.0313 741.4328C 101.0313 740.1906 100.0313 739.1837 98.78125 739.1837C 97.5 739.1837 96.53125 740.1906 96.53125 741.4328C 96.53125 742.6749 97.5 743.6818 98.78125 743.6818C 100.0313 743.6818 101.0313 742.6749 101.0313 741.4328" stroke="#000000" stroke-width="0.750418" stroke-linecap="square" fill="none" /><path transform="matrix(1 0 0 -1 0 841)" d="M363.6563 736.5599L545.2813 736.5599z" stroke="#0000EE" stroke-width="0.750418" stroke-linecap="square" fill="none" /><path transform="matrix(1 0 0 -1 0 841)" d="M110.0313 719.3173L263.125 719.3173z" stroke="#0000EE" stroke-width="0.750418" stroke-linecap="square" fill="none" /><path transform="matrix(1 0 0 -1 0 841)" d="M71 691.954C 71 690.7118 70.03125 689.705 68.75 689.705C 67.5 689.705 66.5 690.7118 66.5 691.954C 66.5 693.1961 67.5 694.203 68.75 694.203C 70.03125 694.203 71 693.1961 71 691.954" stroke="#000000" stroke-width="0.750418" fill="#000000" fill-rule="evenodd" /><path transform="matrix(1 0 0 -1 0 841)" d="M101.0313 674.7114C 101.0313 673.4692 100.0313 672.4623 98.78125 672.4623C 97.5 672.4623 96.53125 673.4692 96.53125 674.7114C 96.53125 675.9535 97.5 676.9604 98.78125 676.9604C 100.0313 676.9604 101.0313 675.9535 101.0313 674.7114" stroke="#000000" stroke-width="0.750418" stroke-linecap="square" fill="none" /><path transform="matrix(1 0 0 -1 0 841)" d="M189.5625 669.8384L506.25 669.8384z" stroke="#0000EE" stroke-width="0.750418" stroke-linecap="square" fill="none" /><path transform="matrix(1 0 0 -1 0 841)" d="M514.5 669.8384L545.2813 669.8384z" stroke="#0000EE" stroke-width="0.750418" stroke-linecap="square" fill="none" /><path transform="matrix(1 0 0 -1 0 841)" d="M110.0313 652.5958L197.8438 652.5958z" stroke="#0000EE" stroke-width="0.750418" stroke-linecap="square" fill="none" /><path transform="matrix(1 0 0 -1 0 841)" d="M71 625.2325C 71 623.9904 70.03125 622.9835 68.75 622.9835C 67.5 622.9835 66.5 623.9904 66.5 625.2325C 66.5 626.4747 67.5 627.4816 68.75 627.4816C 70.03125 627.4816 71 626.4747 71 625.2325" stroke="#000000" stroke-width="0.750418" fill="#000000" fill-rule="evenodd" /><path transform="matrix(1 0 0 -1 0 841)" d="M101.0313 607.9899C 101.0313 606.7478 100.0313 605.7408 98.78125 605.7408C 97.5 605.7408 96.53125 606.7478 96.53125 607.9899C 96.53125 609.2321 97.5 610.239 98.78125 610.239C 100.0313 610.239 101.0313 609.2321 101.0313 607.9899" stroke="#000000" stroke-width="0.750418" stroke-linecap="square" fill="none" /><path transform="matrix(1 0 0 -1 0 841)" d="M154.3125 603.117L191.8125 603.117z" stroke="#0000EE" stroke-width="0.750418" stroke-linecap="square" fill="none" /><path transform="matrix(1 0 0 -1 0 841)" d="M101.0313 583.2505C 101.0313 582.0084 100.0313 581.0015 98.78125 581.0015C 97.5 581.0015 96.53125 582.0084 96.53125 583.2505C 96.53125 584.4927 97.5 585.4995 98.78125 585.4995C 100.0313 585.4995 101.0313 584.4927 101.0313 583.2505" stroke="#000000" stroke-width="0.750418" stroke-linecap="square" fill="none" /><path transform="matrix(1 0 0 -1 0 841)" d="M194.8125 578.3776L232.3438 578.3776z" stroke="#0000EE" stroke-width="0.750418" stroke-linecap="square" fill="none" /><path transform="matrix(1 0 0 -1 0 841)" d="M71 551.0143C 71 549.7722 70.03125 548.7653 68.75 548.7653C 67.5 548.7653 66.5 549.7722 66.5 551.0143C 66.5 552.2565 67.5 553.2633 68.75 553.2633C 70.03125 553.2633 71 552.2565 71 551.0143" stroke="#000000" stroke-width="0.750418" fill="#000000" fill-rule="evenodd" /><path transform="matrix(1 0 0 -1 0 841)" d="M101.0313 533.7717C 101.0313 532.5295 100.0313 531.5226 98.78125 531.5226C 97.5 531.5226 96.53125 532.5295 96.53125 533.7717C 96.53125 535.0138 97.5 536.0208 98.78125 536.0208C 100.0313 536.0208 101.0313 535.0138 101.0313 533.7717" stroke="#000000" stroke-width="0.750418" stroke-linecap="square" fill="none" /><path transform="matrix(1 0 0 -1 0 841)" d="M154.3125 528.8988L385.4375 528.8988z" stroke="#0000EE" stroke-width="0.750418" stroke-linecap="square" fill="none" /><path transform="matrix(1 0 0 -1 0 841)" d="M101.0313 509.0323C 101.0313 507.7901 100.0313 506.7832 98.78125 506.7832C 97.5 506.7832 96.53125 507.7901 96.53125 509.0323C 96.53125 510.2744 97.5 511.2813 98.78125 511.2813C 100.0313 511.2813 101.0313 510.2744 101.0313 509.0323" stroke="#000000" stroke-width="0.750418" stroke-linecap="square" fill="none" /><path transform="matrix(1 0 0 -1 0 841)" d="M149.8125 504.1594L380.9375 504.1594z" stroke="#0000EE" stroke-width="0.750418" stroke-linecap="square" fill="none" /><path transform="matrix(1 0 0 -1 0 841)" d="M71 476.7961C 71 475.554 70.03125 474.5471 68.75 474.5471C 67.5 474.5471 66.5 475.554 66.5 476.7961C 66.5 478.0382 67.5 479.0451 68.75 479.0451C 70.03125 479.0451 71 478.0382 71 476.7961" stroke="#000000" stroke-width="0.750418" fill="#000000" fill-rule="evenodd" /><path transform="matrix(1 0 0 -1 0 841)" d="M101.0313 459.5535C 101.0313 458.3113 100.0313 457.3044 98.78125 457.3044C 97.5 457.3044 96.53125 458.3113 96.53125 459.5535C 96.53125 460.7956 97.5 461.8025 98.78125 461.8025C 100.0313 461.8025 101.0313 460.7956 101.0313 459.5535" stroke="#000000" stroke-width="0.750418" stroke-linecap="square" fill="none" /><path transform="matrix(1 0 0 -1 0 841)" d="M154.3125 454.6805L190.3125 454.6805z" stroke="#0000EE" stroke-width="0.750418" stroke-linecap="square" fill="none" /><path transform="matrix(1 0 0 -1 0 841)" d="M101.0313 434.8141C 101.0313 433.5719 100.0313 432.565 98.78125 432.565C 97.5 432.565 96.53125 433.5719 96.53125 434.8141C 96.53125 436.0562 97.5 437.0631 98.78125 437.0631C 100.0313 437.0631 101.0313 436.0562 101.0313 434.8141" stroke="#000000" stroke-width="0.750418" stroke-linecap="square" fill="none" /><path transform="matrix(1 0 0 -1 0 841)" d="M162.5625 429.9411L242.8438 429.9411z" stroke="#0000EE" stroke-width="0.750418" stroke-linecap="square" fill="none" /><path transform="matrix(1 0 0 -1 0 841)" d="M101.0313 410.0746C 101.0313 408.8325 100.0313 407.8256 98.78125 407.8256C 97.5 407.8256 96.53125 408.8325 96.53125 410.0746C 96.53125 411.3168 97.5 412.3237 98.78125 412.3237C 100.0313 412.3237 101.0313 411.3168 101.0313 410.0746" stroke="#000000" stroke-width="0.750418" stroke-linecap="square" fill="none" /><path transform="matrix(1 0 0 -1 0 841)" d="M290.875 405.2017L537.0313 405.2017z" stroke="#0000EE" stroke-width="0.750418" stroke-linecap="square" fill="none" /><path transform="matrix(1 0 0 -1 0 841)" d="M101.0313 385.3352C 101.0313 384.0931 100.0313 383.0862 98.78125 383.0862C 97.5 383.0862 96.53125 384.0931 96.53125 385.3352C 96.53125 386.5774 97.5 387.5843 98.78125 387.5843C 100.0313 387.5843 101.0313 386.5774 101.0313 385.3352" stroke="#000000" stroke-width="0.750418" stroke-linecap="square" fill="none" /><path transform="matrix(1 0 0 -1 0 841)" d="M198.5938 380.4623L338.9063 380.4623z" stroke="#0000EE" stroke-width="0.750418" stroke-linecap="square" fill="none" /><path transform="matrix(1 0 0 -1 0 841)" d="M71 353.099C 71 351.8569 70.03125 350.85 68.75 350.85C 67.5 350.85 66.5 351.8569 66.5 353.099C 66.5 354.3412 67.5 355.3481 68.75 355.3481C 70.03125 355.3481 71 354.3412 71 353.099" stroke="#000000" stroke-width="0.750418" fill="#000000" fill-rule="evenodd" /><path transform="matrix(1 0 0 -1 0 841)" d="M101.0313 335.8564C 101.0313 334.6143 100.0313 333.6074 98.78125 333.6074C 97.5 333.6074 96.53125 334.6143 96.53125 335.8564C 96.53125 337.0986 97.5 338.1055 98.78125 338.1055C 100.0313 338.1055 101.0313 337.0986 101.0313 335.8564" stroke="#000000" stroke-width="0.750418" stroke-linecap="square" fill="none" /><path transform="matrix(1 0 0 -1 0 841)" d="M177.5625 330.9835L296.125 330.9835z" stroke="#0000EE" stroke-width="0.750418" stroke-linecap="square" fill="none" /><path transform="matrix(1 0 0 -1 0 841)" d="M101.0313 311.117C 101.0313 309.8749 100.0313 308.868 98.78125 308.868C 97.5 308.868 96.53125 309.8749 96.53125 311.117C 96.53125 312.3592 97.5 313.366 98.78125 313.366C 100.0313 313.366 101.0313 312.3592 101.0313 311.117" stroke="#000000" stroke-width="0.750418" stroke-linecap="square" fill="none" /><path transform="matrix(1 0 0 -1 0 841)" d="M161.8125 306.2441L378.6875 306.2441z" stroke="#0000EE" stroke-width="0.750418" stroke-linecap="square" fill="none" /><path transform="matrix(1 0 0 -1 0 841)" d="M71 278.8808C 71 277.6387 70.03125 276.6318 68.75 276.6318C 67.5 276.6318 66.5 277.6387 66.5 278.8808C 66.5 280.123 67.5 281.1299 68.75 281.1299C 70.03125 281.1299 71 280.123 71 278.8808" stroke="#000000" stroke-width="0.750418" fill="#000000" fill-rule="evenodd" /><path transform="matrix(1 0 0 -1 0 841)" d="M101.0313 261.6382C 101.0313 260.3961 100.0313 259.3892 98.78125 259.3892C 97.5 259.3892 96.53125 260.3961 96.53125 261.6382C 96.53125 262.8804 97.5 263.8873 98.78125 263.8873C 100.0313 263.8873 101.0313 262.8804 101.0313 261.6382" stroke="#000000" stroke-width="0.750418" stroke-linecap="square" fill="none" /><path transform="matrix(1 0 0 -1 0 841)" d="M154.3125 256.7653L182.8125 256.7653z" stroke="#0000EE" stroke-width="0.750418" stroke-linecap="square" fill="none" /></g><g clip-path="url(#4)"></g></g></g></g></svg>