<svg xmlns="http://www.w3.org/2000/svg" xmlns:xlink="http://www.w3.org/1999/xlink" id="body_255" preserveAspectRatio="xMinYMin meet" viewBox="0 0 793 1121"><defs><clipPath id="1"><path d="M0 841L0 -0.8897705L0 -0.8897705L595.2756 -0.8897705L595.2756 -0.8897705L595.2756 841L595.2756 841L0 841z" /></clipPath><clipPath id="2"><path d="M49.98438 -0.8897705L545.2656 -0.8897705L545.2656 -0.8897705L545.2656 840.9998L545.2656 840.9998L49.98438 840.9998L49.98438 840.9998L49.98438 -0.8897705" /></clipPath><clipPath id="3"><path d="M49.98438 48.58905L545.2656 48.58905L545.2656 48.58905L545.2656 791.5209L545.2656 791.5209L49.98438 791.5209L49.98438 791.5209L49.98438 48.58905" /></clipPath><clipPath id="4"><path d="M49.98438 791.5209L545.2656 791.5209L545.2656 791.5209L545.2656 840.9998L545.2656 840.9998L49.98438 840.9998L49.98438 840.9998L49.98438 791.5209" /></clipPath></defs><g transform="matrix(1.333333 0 0 1.333333 0 0)"><g><g clip-path="url(#1)"><g clip-path="url(#2)"></g><g clip-path="url(#3)"><path transform="matrix(1 0 0 -1 0 841)" d="M80 588.1234L543.0156 588.1234z" stroke="#0000EE" stroke-width="0.750418" stroke-linecap="square" fill="none" /><path transform="matrix(1 0 0 -1 0 841)" d="M80 570.8808L154.2969 570.8808z" stroke="#0000EE" stroke-width="0.750418" stroke-linecap="square" fill="none" /><g transform="matrix(0.750418 0 0 0.749679 80.00188 273.4928)"><g transform="matrix(1 0 0 1 0 0)"><image x="0" y="0" xlink:href="img_16.png" width="600" height="2" /></g></g><path transform="matrix(1 0 0 -1 0 841)" d="M80 483.1684L137.7813 483.1684z" stroke="#0000EE" stroke-width="0.750418" stroke-linecap="square" fill="none" /><path transform="matrix(1 0 0 -1 0 841)" d="M80 448.6831L543.0156 448.6831z" stroke="#0000EE" stroke-width="0.750418" stroke-linecap="square" fill="none" /><path transform="matrix(1 0 0 -1 0 841)" d="M80 431.4405L154.2969 431.4405z" stroke="#0000EE" stroke-width="0.750418" stroke-linecap="square" fill="none" /><g transform="matrix(0.750418 0 0 0.749679 80.00188 437.6725)"><g transform="matrix(1 0 0 1 0 0)"><image x="0" y="0" xlink:href="img_16.png" width="600" height="2" /></g></g><g transform="matrix(0.750418 0 0 0.749679 80.00188 473.6571)"><g transform="matrix(1 0 0 1 0 0)"><image x="0" y="0" xlink:href="img_463.png" width="590" height="393" /></g></g></g><g clip-path="url(#4)"></g></g></g></g></svg>