<svg xmlns="http://www.w3.org/2000/svg" xmlns:xlink="http://www.w3.org/1999/xlink" id="body_311" preserveAspectRatio="xMinYMin meet" viewBox="0 0 793 1121"><defs><clipPath id="1"><path d="M0 841L0 -0.8897705L0 -0.8897705L595.2756 -0.8897705L595.2756 -0.8897705L595.2756 841L595.2756 841L0 841z" /></clipPath><clipPath id="2"><path d="M50 -0.8897705L545.2813 -0.8897705L545.2813 -0.8897705L545.2813 840.9998L545.2813 840.9998L50 840.9998L50 840.9998L50 -0.8897705" /></clipPath><clipPath id="3"><path d="M50 48.58905L545.2813 48.58905L545.2813 48.58905L545.2813 791.5209L545.2813 791.5209L50 791.5209L50 791.5209L50 48.58905" /></clipPath><clipPath id="4"><path d="M50 791.5209L545.2813 791.5209L545.2813 791.5209L545.2813 840.9998L545.2813 840.9998L50 840.9998L50 840.9998L50 791.5209" /></clipPath></defs><g transform="matrix(1.333333 0 0 1.333333 0 0)"><g><g clip-path="url(#1)"><g clip-path="url(#2)"></g><g clip-path="url(#3)"><path transform="matrix(1 0 0 -1 0 841)" d="M71 768.4212C 71 767.1791 70.03125 766.1722 68.75 766.1722C 67.5 766.1722 66.5 767.1791 66.5 768.4212C 66.5 769.6633 67.5 770.6703 68.75 770.6703C 70.03125 770.6703 71 769.6633 71 768.4212" stroke="#000000" stroke-width="0.750418" fill="#000000" fill-rule="evenodd" /><path transform="matrix(1 0 0 -1 0 841)" d="M356.1563 763.5483L545.2813 763.5483z" stroke="#0000EE" stroke-width="0.750418" stroke-linecap="square" fill="none" /><path transform="matrix(1 0 0 -1 0 841)" d="M80 746.3057L236.0938 746.3057z" stroke="#0000EE" stroke-width="0.750418" stroke-linecap="square" fill="none" /><path transform="matrix(1 0 0 -1 0 841)" d="M71 726.4392C 71 725.197 70.03125 724.1902 68.75 724.1902C 67.5 724.1902 66.5 725.197 66.5 726.4392C 66.5 727.6813 67.5 728.6882 68.75 728.6882C 70.03125 728.6882 71 727.6813 71 726.4392" stroke="#000000" stroke-width="0.750418" fill="#000000" fill-rule="evenodd" /><path transform="matrix(1 0 0 -1 0 841)" d="M101.0313 709.1966C 101.0313 707.9545 100.0313 706.9475 98.78125 706.9475C 97.5 706.9475 96.53125 707.9545 96.53125 709.1966C 96.53125 710.4387 97.5 711.4456 98.78125 711.4456C 100.0313 711.4456 101.0313 710.4387 101.0313 709.1966" stroke="#000000" stroke-width="0.750418" stroke-linecap="square" fill="none" /><path transform="matrix(1 0 0 -1 0 841)" d="M154.3125 704.3237L184.3125 704.3237z" stroke="#0000EE" stroke-width="0.750418" stroke-linecap="square" fill="none" /><path transform="matrix(1 0 0 -1 0 841)" d="M71 676.9604C 71 675.7183 70.03125 674.7114 68.75 674.7114C 67.5 674.7114 66.5 675.7183 66.5 676.9604C 66.5 678.2025 67.5 679.2094 68.75 679.2094C 70.03125 679.2094 71 678.2025 71 676.9604" stroke="#000000" stroke-width="0.750418" fill="#000000" fill-rule="evenodd" /><path transform="matrix(1 0 0 -1 0 841)" d="M101.0313 659.7178C 101.0313 658.4756 100.0313 657.4688 98.78125 657.4688C 97.5 657.4688 96.53125 658.4756 96.53125 659.7178C 96.53125 660.9599 97.5 661.9668 98.78125 661.9668C 100.0313 661.9668 101.0313 660.9599 101.0313 659.7178" stroke="#000000" stroke-width="0.750418" stroke-linecap="square" fill="none" /><path transform="matrix(1 0 0 -1 0 841)" d="M154.3125 654.8448L182.0625 654.8448z" stroke="#0000EE" stroke-width="0.750418" stroke-linecap="square" fill="none" /><path transform="matrix(1 0 0 -1 0 841)" d="M71 627.4816C 71 626.2394 70.03125 625.2325 68.75 625.2325C 67.5 625.2325 66.5 626.2394 66.5 627.4816C 66.5 628.7237 67.5 629.7306 68.75 629.7306C 70.03125 629.7306 71 628.7237 71 627.4816" stroke="#000000" stroke-width="0.750418" fill="#000000" fill-rule="evenodd" /><path transform="matrix(1 0 0 -1 0 841)" d="M101.0313 610.239C 101.0313 608.9968 100.0313 607.9899 98.78125 607.9899C 97.5 607.9899 96.53125 608.9968 96.53125 610.239C 96.53125 611.4811 97.5 612.488 98.78125 612.488C 100.0313 612.488 101.0313 611.4811 101.0313 610.239" stroke="#000000" stroke-width="0.750418" stroke-linecap="square" fill="none" /><path transform="matrix(1 0 0 -1 0 841)" d="M154.3125 605.366L227.8438 605.366z" stroke="#0000EE" stroke-width="0.750418" stroke-linecap="square" fill="none" /><path transform="matrix(1 0 0 -1 0 841)" d="M101.0313 585.4995C 101.0313 584.2574 100.0313 583.2505 98.78125 583.2505C 97.5 583.2505 96.53125 584.2574 96.53125 585.4995C 96.53125 586.7417 97.5 587.7486 98.78125 587.7486C 100.0313 587.7486 101.0313 586.7417 101.0313 585.4995" stroke="#000000" stroke-width="0.750418" stroke-linecap="square" fill="none" /><path transform="matrix(1 0 0 -1 0 841)" d="M149.8125 580.6266L223.3438 580.6266z" stroke="#0000EE" stroke-width="0.750418" stroke-linecap="square" fill="none" /><path transform="matrix(1 0 0 -1 0 841)" d="M230.8438 580.6266L514.5 580.6266z" stroke="#0000EE" stroke-width="0.750418" stroke-linecap="square" fill="none" /><path transform="matrix(1 0 0 -1 0 841)" d="M71 553.2633C 71 552.0212 70.03125 551.0143 68.75 551.0143C 67.5 551.0143 66.5 552.0212 66.5 553.2633C 66.5 554.5055 67.5 555.5124 68.75 555.5124C 70.03125 555.5124 71 554.5055 71 553.2633" stroke="#000000" stroke-width="0.750418" fill="#000000" fill-rule="evenodd" /><path transform="matrix(1 0 0 -1 0 841)" d="M101.0313 536.0208C 101.0313 534.7786 100.0313 533.7717 98.78125 533.7717C 97.5 533.7717 96.53125 534.7786 96.53125 536.0208C 96.53125 537.2628 97.5 538.2698 98.78125 538.2698C 100.0313 538.2698 101.0313 537.2628 101.0313 536.0208" stroke="#000000" stroke-width="0.750418" stroke-linecap="square" fill="none" /><path transform="matrix(1 0 0 -1 0 841)" d="M169.3125 531.1478L486.75 531.1478z" stroke="#0000EE" stroke-width="0.750418" stroke-linecap="square" fill="none" /><path transform="matrix(1 0 0 -1 0 841)" d="M71 503.7845C 71 502.5424 70.03125 501.5355 68.75 501.5355C 67.5 501.5355 66.5 502.5424 66.5 503.7845C 66.5 505.0267 67.5 506.0336 68.75 506.0336C 70.03125 506.0336 71 505.0267 71 503.7845" stroke="#000000" stroke-width="0.750418" fill="#000000" fill-rule="evenodd" /><path transform="matrix(1 0 0 -1 0 841)" d="M101.0313 486.5419C 101.0313 485.2998 100.0313 484.2929 98.78125 484.2929C 97.5 484.2929 96.53125 485.2998 96.53125 486.5419C 96.53125 487.7841 97.5 488.791 98.78125 488.791C 100.0313 488.791 101.0313 487.7841 101.0313 486.5419" stroke="#000000" stroke-width="0.750418" stroke-linecap="square" fill="none" /><path transform="matrix(1 0 0 -1 0 841)" d="M179.8125 481.669L470.9688 481.669z" stroke="#0000EE" stroke-width="0.750418" stroke-linecap="square" fill="none" /><path transform="matrix(1 0 0 -1 0 841)" d="M483.75 481.669L545.2813 481.669z" stroke="#0000EE" stroke-width="0.750418" stroke-linecap="square" fill="none" /><path transform="matrix(1 0 0 -1 0 841)" d="M110.0313 464.4264L173.0625 464.4264z" stroke="#0000EE" stroke-width="0.750418" stroke-linecap="square" fill="none" /></g><g clip-path="url(#4)"></g></g></g></g></svg>