<svg xmlns="http://www.w3.org/2000/svg" xmlns:xlink="http://www.w3.org/1999/xlink" id="body_308" preserveAspectRatio="xMinYMin meet" viewBox="0 0 793 1121"><defs><clipPath id="1"><path d="M0 841L0 -0.8897705L0 -0.8897705L595.2756 -0.8897705L595.2756 -0.8897705L595.2756 841L595.2756 841L0 841z" /></clipPath><clipPath id="2"><path d="M49.96875 -0.8897705L545.25 -0.8897705L545.25 -0.8897705L545.25 840.9998L545.25 840.9998L49.96875 840.9998L49.96875 840.9998L49.96875 -0.8897705" /></clipPath><clipPath id="3"><path d="M49.96875 48.58905L545.25 48.58905L545.25 48.58905L545.25 791.5209L545.25 791.5209L49.96875 791.5209L49.96875 791.5209L49.96875 48.58905" /></clipPath><clipPath id="4"><path d="M49.96875 791.5209L545.25 791.5209L545.25 791.5209L545.25 840.9998L545.25 840.9998L49.96875 840.9998L49.96875 840.9998L49.96875 791.5209" /></clipPath></defs><g transform="matrix(1.333333 0 0 1.333333 0 0)"><g><g clip-path="url(#1)"><g clip-path="url(#2)"></g><g clip-path="url(#3)"><path transform="matrix(1 0 0 -1 0 841)" d="M71 783.4148C 71 782.1727 70 781.1658 68.75 781.1658C 67.46875 781.1658 66.5 782.1727 66.5 783.4148C 66.5 784.6569 67.46875 785.6638 68.75 785.6638C 70 785.6638 71 784.6569 71 783.4148" stroke="#000000" stroke-width="0.750418" fill="#000000" fill-rule="evenodd" /><path transform="matrix(1 0 0 -1 0 841)" d="M101 766.1722C 101 764.9301 100.0313 763.9232 98.75 763.9232C 97.5 763.9232 96.5 764.9301 96.5 766.1722C 96.5 767.4143 97.5 768.4212 98.75 768.4212C 100.0313 768.4212 101 767.4143 101 766.1722" stroke="#000000" stroke-width="0.750418" stroke-linecap="square" fill="none" /><path transform="matrix(1 0 0 -1 0 841)" d="M149.7813 761.2993L287.875 761.2993z" stroke="#0000EE" stroke-width="0.750418" stroke-linecap="square" fill="none" /><path transform="matrix(1 0 0 -1 0 841)" d="M71 733.936C 71 732.6938 70 731.687 68.75 731.687C 67.46875 731.687 66.5 732.6938 66.5 733.936C 66.5 735.1782 67.46875 736.1851 68.75 736.1851C 70 736.1851 71 735.1782 71 733.936" stroke="#000000" stroke-width="0.750418" fill="#000000" fill-rule="evenodd" /><path transform="matrix(1 0 0 -1 0 841)" d="M101 716.6934C 101 715.4512 100.0313 714.4443 98.75 714.4443C 97.5 714.4443 96.5 715.4512 96.5 716.6934C 96.5 717.9355 97.5 718.9424 98.75 718.9424C 100.0313 718.9424 101 717.9355 101 716.6934" stroke="#000000" stroke-width="0.750418" stroke-linecap="square" fill="none" /><path transform="matrix(1 0 0 -1 0 841)" d="M154.2813 711.8204L185.8125 711.8204z" stroke="#0000EE" stroke-width="0.750418" stroke-linecap="square" fill="none" /><path transform="matrix(1 0 0 -1 0 841)" d="M193.3125 711.8204L243.5938 711.8204z" stroke="#0000EE" stroke-width="0.750418" stroke-linecap="square" fill="none" /><path transform="matrix(1 0 0 -1 0 841)" d="M71 684.4572C 71 683.215 70 682.2081 68.75 682.2081C 67.46875 682.2081 66.5 683.215 66.5 684.4572C 66.5 685.6993 67.46875 686.7062 68.75 686.7062C 70 686.7062 71 685.6993 71 684.4572" stroke="#000000" stroke-width="0.750418" fill="#000000" fill-rule="evenodd" /><path transform="matrix(1 0 0 -1 0 841)" d="M101 667.2145C 101 665.9724 100.0313 664.9655 98.75 664.9655C 97.5 664.9655 96.5 665.9724 96.5 667.2145C 96.5 668.4567 97.5 669.4636 98.75 669.4636C 100.0313 669.4636 101 668.4567 101 667.2145" stroke="#000000" stroke-width="0.750418" stroke-linecap="square" fill="none" /><path transform="matrix(1 0 0 -1 0 841)" d="M154.2813 662.3417L209.0625 662.3417z" stroke="#0000EE" stroke-width="0.750418" stroke-linecap="square" fill="none" /></g><g clip-path="url(#4)"></g></g></g></g></svg>