<svg xmlns="http://www.w3.org/2000/svg" xmlns:xlink="http://www.w3.org/1999/xlink" id="body_266" preserveAspectRatio="xMinYMin meet" viewBox="0 0 793 1121"><defs><clipPath id="1"><path d="M0 841L0 -0.8897705L0 -0.8897705L595.2756 -0.8897705L595.2756 -0.8897705L595.2756 841L595.2756 841L0 841z" /></clipPath><clipPath id="2"><path d="M49.98438 -0.8897705L545.2656 -0.8897705L545.2656 -0.8897705L545.2656 840.9998L545.2656 840.9998L49.98438 840.9998L49.98438 840.9998L49.98438 -0.8897705" /></clipPath><clipPath id="3"><path d="M49.98438 48.58905L545.2656 48.58905L545.2656 48.58905L545.2656 791.5209L545.2656 791.5209L49.98438 791.5209L49.98438 791.5209L49.98438 48.58905" /></clipPath><clipPath id="4"><path d="M49.98438 48.58905L545.2656 48.58905L545.2656 48.58905L545.2656 791.5209L545.2656 791.5209L49.98438 791.5209L49.98438 791.5209L49.98438 48.58905" /></clipPath><clipPath id="5"><path d="M49.98438 791.5209L545.2656 791.5209L545.2656 791.5209L545.2656 840.9998L545.2656 840.9998L49.98438 840.9998L49.98438 840.9998L49.98438 791.5209" /></clipPath></defs><g transform="matrix(1.333333 0 0 1.333333 0 0)"><g><g clip-path="url(#1)"><g clip-path="url(#2)"></g><g clip-path="url(#3)"><path transform="matrix(1 0 0 -1 0 841)" d="M80.01563 77.21716L209.8281 77.21716L209.8281 77.21716L209.8281 76.46747L209.8281 76.46747L80.01563 76.46747z" stroke="none" fill="#808080" fill-rule="winding" /><path transform="matrix(1 0 0 -1 0 841)" d="M80.01563 -38.98309L209.8281 -38.98309L209.8281 -38.98309L209.8281 -39.73279L209.8281 -39.73279L80.01563 -39.73279z" stroke="none" fill="#2C2C2C" fill-rule="winding" /><path transform="matrix(1 0 0 -1 0 841)" d="M80.01563 77.21716L80.01563 -39.73279L80.01563 -39.73279L80.76563 -38.98309L80.76563 -38.98309L80.76563 77.21716z" stroke="#000000" stroke-width="0" fill="#808080" fill-rule="evenodd" /><path transform="matrix(1 0 0 -1 0 841)" d="M209.0781 76.46747L209.0781 -39.73279L209.0781 -39.73279L209.8281 -39.73279L209.8281 -39.73279L209.8281 77.21716z" stroke="#000000" stroke-width="0" fill="#2C2C2C" fill-rule="evenodd" /><path transform="matrix(1 0 0 -1 0 841)" d="M82.26563 74.96814L132.5313 74.96814L132.5313 74.96814L132.5313 74.21844L132.5313 74.21844L82.26563 74.21844z" stroke="none" fill="#2C2C2C" fill-rule="winding" /><path transform="matrix(1 0 0 -1 0 841)" d="M82.26563 51.72809L132.5313 51.72809L132.5313 51.72809L132.5313 50.97839L132.5313 50.97839L82.26563 50.97839z" stroke="none" fill="#808080" fill-rule="winding" /><path transform="matrix(1 0 0 -1 0 841)" d="M82.26563 74.96814L82.26563 50.97839L82.26563 50.97839L83.01563 51.72809L83.01563 51.72809L83.01563 74.96814z" stroke="#000000" stroke-width="0" fill="#2C2C2C" fill-rule="evenodd" /><path transform="matrix(1 0 0 -1 0 841)" d="M131.7813 74.21844L131.7813 50.97839L131.7813 50.97839L132.5313 50.97839L132.5313 50.97839L132.5313 74.96814z" stroke="#000000" stroke-width="0" fill="#808080" fill-rule="evenodd" /><path transform="matrix(1 0 0 -1 0 841)" d="M134.0313 74.96814L207.5781 74.96814L207.5781 74.96814L207.5781 74.21844L207.5781 74.21844L134.0313 74.21844z" stroke="none" fill="#2C2C2C" fill-rule="winding" /><path transform="matrix(1 0 0 -1 0 841)" d="M134.0313 51.72809L207.5781 51.72809L207.5781 51.72809L207.5781 50.97839L207.5781 50.97839L134.0313 50.97839z" stroke="none" fill="#808080" fill-rule="winding" /><path transform="matrix(1 0 0 -1 0 841)" d="M134.0313 74.96814L134.0313 50.97839L134.0313 50.97839L134.7969 51.72809L134.7969 51.72809L134.7969 74.96814z" stroke="#000000" stroke-width="0" fill="#2C2C2C" fill-rule="evenodd" /><path transform="matrix(1 0 0 -1 0 841)" d="M206.8281 74.21844L206.8281 50.97839L206.8281 50.97839L207.5781 50.97839L207.5781 50.97839L207.5781 74.96814z" stroke="#000000" stroke-width="0" fill="#808080" fill-rule="evenodd" /></g><g clip-path="url(#4)"><g transform="matrix(0.750418 0 0 0.749679 80.00885 137.0512)"><g transform="matrix(1 0 0 1 0 0)"><image x="0" y="0" xlink:href="img_16.png" width="600" height="2" /></g></g><path transform="matrix(1 0 0 -1 0 841)" d="M80.01563 559.6356L352.4063 559.6356z" stroke="#0000EE" stroke-width="0.750418" stroke-linecap="square" fill="none" /><g transform="matrix(0.750418 0 0 0.749679 80.00885 292.2348)"><g transform="matrix(1 0 0 1 0 0)"><image x="0" y="0" xlink:href="img_16.png" width="600" height="2" /></g></g><g transform="matrix(0.7504179 0 0 0.749679 80.00885 328.969)"><g transform="matrix(1 0 0 1 0 0)"><image x="0" y="0" xlink:href="img_496.png" width="552" height="73" /></g></g><g transform="matrix(0.7504179 0 0 0.749679 80.00885 460.9125)"><g transform="matrix(1 0 0 1 0 0)"><image x="0" y="0" xlink:href="img_497.png" width="398" height="83" /></g></g><g transform="matrix(0.6752673 0 0 0.6741299 80.00885 565.1179)"><g transform="matrix(1 0 0 1 0 0)"><image x="0" y="0" xlink:href="img_498.png" width="689" height="258" /></g></g></g><g clip-path="url(#5)"></g></g></g></g></svg>