<svg xmlns="http://www.w3.org/2000/svg" xmlns:xlink="http://www.w3.org/1999/xlink" id="body_332" preserveAspectRatio="xMinYMin meet" viewBox="0 0 793 1121"><defs><clipPath id="1"><path d="M0 841L0 -0.8897705L0 -0.8897705L595.2756 -0.8897705L595.2756 -0.8897705L595.2756 841L595.2756 841L0 841z" /></clipPath><clipPath id="2"><path d="M49.96875 -0.8897705L545.25 -0.8897705L545.25 -0.8897705L545.25 840.9998L545.25 840.9998L49.96875 840.9998L49.96875 840.9998L49.96875 -0.8897705" /></clipPath><clipPath id="3"><path d="M49.96875 48.58905L545.25 48.58905L545.25 48.58905L545.25 791.5209L545.25 791.5209L49.96875 791.5209L49.96875 791.5209L49.96875 48.58905" /></clipPath><clipPath id="4"><path d="M49.96875 791.5209L545.25 791.5209L545.25 791.5209L545.25 840.9998L545.25 840.9998L49.96875 840.9998L49.96875 840.9998L49.96875 791.5209" /></clipPath></defs><g transform="matrix(1.333333 0 0 1.333333 0 0)"><g><g clip-path="url(#1)"><g clip-path="url(#2)"></g><g clip-path="url(#3)"><path transform="matrix(1 0 0 -1 0 841)" d="M71 718.9424C 71 717.7003 70 716.6934 68.75 716.6934C 67.46875 716.6934 66.5 717.7003 66.5 718.9424C 66.5 720.1846 67.46875 721.1915 68.75 721.1915C 70 721.1915 71 720.1846 71 718.9424" stroke="#000000" stroke-width="0.750418" fill="#000000" fill-rule="evenodd" /><path transform="matrix(1 0 0 -1 0 841)" d="M269.0938 714.0695L545.25 714.0695z" stroke="#0000EE" stroke-width="0.750418" stroke-linecap="square" fill="none" /><path transform="matrix(1 0 0 -1 0 841)" d="M80 696.8269L145.2813 696.8269z" stroke="#0000EE" stroke-width="0.750418" stroke-linecap="square" fill="none" /><path transform="matrix(1 0 0 -1 0 841)" d="M71 676.9604C 71 675.7183 70 674.7114 68.75 674.7114C 67.46875 674.7114 66.5 675.7183 66.5 676.9604C 66.5 678.2025 67.46875 679.2094 68.75 679.2094C 70 679.2094 71 678.2025 71 676.9604" stroke="#000000" stroke-width="0.750418" fill="#000000" fill-rule="evenodd" /><path transform="matrix(1 0 0 -1 0 841)" d="M101 659.7178C 101 658.4756 100.0313 657.4688 98.75 657.4688C 97.5 657.4688 96.5 658.4756 96.5 659.7178C 96.5 660.9599 97.5 661.9668 98.75 661.9668C 100.0313 661.9668 101 660.9599 101 659.7178" stroke="#000000" stroke-width="0.750418" stroke-linecap="square" fill="none" /><path transform="matrix(1 0 0 -1 0 841)" d="M154.2813 654.8448L181.3125 654.8448z" stroke="#0000EE" stroke-width="0.750418" stroke-linecap="square" fill="none" /><path transform="matrix(1 0 0 -1 0 841)" d="M71 627.4816C 71 626.2394 70 625.2325 68.75 625.2325C 67.46875 625.2325 66.5 626.2394 66.5 627.4816C 66.5 628.7237 67.46875 629.7306 68.75 629.7306C 70 629.7306 71 628.7237 71 627.4816" stroke="#000000" stroke-width="0.750418" fill="#000000" fill-rule="evenodd" /><path transform="matrix(1 0 0 -1 0 841)" d="M101 610.239C 101 608.9968 100.0313 607.9899 98.75 607.9899C 97.5 607.9899 96.5 608.9968 96.5 610.239C 96.5 611.4811 97.5 612.488 98.75 612.488C 100.0313 612.488 101 611.4811 101 610.239" stroke="#000000" stroke-width="0.750418" stroke-linecap="square" fill="none" /><path transform="matrix(1 0 0 -1 0 841)" d="M178.3125 605.366L471.7188 605.366z" stroke="#0000EE" stroke-width="0.750418" stroke-linecap="square" fill="none" /><path transform="matrix(1 0 0 -1 0 841)" d="M71 578.0027C 71 576.7606 70 575.7537 68.75 575.7537C 67.46875 575.7537 66.5 576.7606 66.5 578.0027C 66.5 579.2449 67.46875 580.2518 68.75 580.2518C 70 580.2518 71 579.2449 71 578.0027" stroke="#000000" stroke-width="0.750418" fill="#000000" fill-rule="evenodd" /><path transform="matrix(1 0 0 -1 0 841)" d="M146.7813 573.1299L327.625 573.1299z" stroke="#0000EE" stroke-width="0.750418" stroke-linecap="square" fill="none" /><path transform="matrix(1 0 0 -1 0 841)" d="M71 553.2633C 71 552.0212 70 551.0143 68.75 551.0143C 67.46875 551.0143 66.5 552.0212 66.5 553.2633C 66.5 554.5055 67.46875 555.5124 68.75 555.5124C 70 555.5124 71 554.5055 71 553.2633" stroke="#000000" stroke-width="0.750418" fill="#000000" fill-rule="evenodd" /><path transform="matrix(1 0 0 -1 0 841)" d="M101 536.0208C 101 534.7786 100.0313 533.7717 98.75 533.7717C 97.5 533.7717 96.5 534.7786 96.5 536.0208C 96.5 537.2628 97.5 538.2698 98.75 538.2698C 100.0313 538.2698 101 537.2628 101 536.0208" stroke="#000000" stroke-width="0.750418" stroke-linecap="square" fill="none" /><path transform="matrix(1 0 0 -1 0 841)" d="M154.2813 531.1478L183.5625 531.1478z" stroke="#0000EE" stroke-width="0.750418" stroke-linecap="square" fill="none" /><path transform="matrix(1 0 0 -1 0 841)" d="M71 503.7845C 71 502.5424 70 501.5355 68.75 501.5355C 67.46875 501.5355 66.5 502.5424 66.5 503.7845C 66.5 505.0267 67.46875 506.0336 68.75 506.0336C 70 506.0336 71 505.0267 71 503.7845" stroke="#000000" stroke-width="0.750418" fill="#000000" fill-rule="evenodd" /><path transform="matrix(1 0 0 -1 0 841)" d="M190.3125 498.9116L252.5938 498.9116z" stroke="#0000EE" stroke-width="0.750418" stroke-linecap="square" fill="none" /><path transform="matrix(1 0 0 -1 0 841)" d="M71 479.0451C 71 477.803 70 476.7961 68.75 476.7961C 67.46875 476.7961 66.5 477.803 66.5 479.0451C 66.5 480.2873 67.46875 481.2942 68.75 481.2942C 70 481.2942 71 480.2873 71 479.0451" stroke="#000000" stroke-width="0.750418" fill="#000000" fill-rule="evenodd" /><path transform="matrix(1 0 0 -1 0 841)" d="M101 461.8025C 101 460.5604 100.0313 459.5535 98.75 459.5535C 97.5 459.5535 96.5 460.5604 96.5 461.8025C 96.5 463.0446 97.5 464.0515 98.75 464.0515C 100.0313 464.0515 101 463.0446 101 461.8025" stroke="#000000" stroke-width="0.750418" stroke-linecap="square" fill="none" /><path transform="matrix(1 0 0 -1 0 841)" d="M200.8125 456.9296L368.1563 456.9296z" stroke="#0000EE" stroke-width="0.750418" stroke-linecap="square" fill="none" /><path transform="matrix(1 0 0 -1 0 841)" d="M101 437.0631C 101 435.8209 100.0313 434.8141 98.75 434.8141C 97.5 434.8141 96.5 435.8209 96.5 437.0631C 96.5 438.3053 97.5 439.3121 98.75 439.3121C 100.0313 439.3121 101 438.3053 101 437.0631" stroke="#000000" stroke-width="0.750418" stroke-linecap="square" fill="none" /><path transform="matrix(1 0 0 -1 0 841)" d="M290.875 432.1902L545.25 432.1902z" stroke="#0000EE" stroke-width="0.750418" stroke-linecap="square" fill="none" /><path transform="matrix(1 0 0 -1 0 841)" d="M110 414.9476L137.7813 414.9476z" stroke="#0000EE" stroke-width="0.750418" stroke-linecap="square" fill="none" /><path transform="matrix(1 0 0 -1 0 841)" d="M101 395.0811C 101 393.8389 100.0313 392.832 98.75 392.832C 97.5 392.832 96.5 393.8389 96.5 395.0811C 96.5 396.3232 97.5 397.3301 98.75 397.3301C 100.0313 397.3301 101 396.3232 101 395.0811" stroke="#000000" stroke-width="0.750418" stroke-linecap="square" fill="none" /><path transform="matrix(1 0 0 -1 0 841)" d="M241.3438 390.2082L473.9688 390.2082z" stroke="#0000EE" stroke-width="0.750418" stroke-linecap="square" fill="none" /><path transform="matrix(1 0 0 -1 0 841)" d="M101 370.3417C 101 369.0995 100.0313 368.0926 98.75 368.0926C 97.5 368.0926 96.5 369.0995 96.5 370.3417C 96.5 371.5838 97.5 372.5907 98.75 372.5907C 100.0313 372.5907 101 371.5838 101 370.3417" stroke="#000000" stroke-width="0.750418" stroke-linecap="square" fill="none" /><path transform="matrix(1 0 0 -1 0 841)" d="M355.4063 365.4688L545.25 365.4688z" stroke="#0000EE" stroke-width="0.750418" stroke-linecap="square" fill="none" /><path transform="matrix(1 0 0 -1 0 841)" d="M110 348.2261L251.0938 348.2261z" stroke="#0000EE" stroke-width="0.750418" stroke-linecap="square" fill="none" /><path transform="matrix(1 0 0 -1 0 841)" d="M101 328.3596C 101 327.1175 100.0313 326.1106 98.75 326.1106C 97.5 326.1106 96.5 327.1175 96.5 328.3596C 96.5 329.6018 97.5 330.6087 98.75 330.6087C 100.0313 330.6087 101 329.6018 101 328.3596" stroke="#000000" stroke-width="0.750418" stroke-linecap="square" fill="none" /><path transform="matrix(1 0 0 -1 0 841)" d="M276.5938 323.4867L534 323.4867z" stroke="#0000EE" stroke-width="0.750418" stroke-linecap="square" fill="none" /><path transform="matrix(1 0 0 -1 0 841)" d="M101 303.6202C 101 302.3781 100.0313 301.3712 98.75 301.3712C 97.5 301.3712 96.5 302.3781 96.5 303.6202C 96.5 304.8624 97.5 305.8693 98.75 305.8693C 100.0313 305.8693 101 304.8624 101 303.6202" stroke="#000000" stroke-width="0.750418" stroke-linecap="square" fill="none" /><path transform="matrix(1 0 0 -1 0 841)" d="M262.3438 298.7473L506.2188 298.7473z" stroke="#0000EE" stroke-width="0.750418" stroke-linecap="square" fill="none" /><path transform="matrix(1 0 0 -1 0 841)" d="M514.5 298.7473L545.25 298.7473z" stroke="#0000EE" stroke-width="0.750418" stroke-linecap="square" fill="none" /><path transform="matrix(1 0 0 -1 0 841)" d="M110 281.5047L197.8125 281.5047z" stroke="#0000EE" stroke-width="0.750418" stroke-linecap="square" fill="none" /><path transform="matrix(1 0 0 -1 0 841)" d="M101 261.6382C 101 260.3961 100.0313 259.3892 98.75 259.3892C 97.5 259.3892 96.5 260.3961 96.5 261.6382C 96.5 262.8804 97.5 263.8873 98.75 263.8873C 100.0313 263.8873 101 262.8804 101 261.6382" stroke="#000000" stroke-width="0.750418" stroke-linecap="square" fill="none" /><path transform="matrix(1 0 0 -1 0 841)" d="M185.8125 256.7653L431.1875 256.7653z" stroke="#0000EE" stroke-width="0.750418" stroke-linecap="square" fill="none" /><path transform="matrix(1 0 0 -1 0 841)" d="M71 229.402C 71 228.1599 70 227.153 68.75 227.153C 67.46875 227.153 66.5 228.1599 66.5 229.402C 66.5 230.6442 67.46875 231.6511 68.75 231.6511C 70 231.6511 71 230.6442 71 229.402" stroke="#000000" stroke-width="0.750418" fill="#000000" fill-rule="evenodd" /><path transform="matrix(1 0 0 -1 0 841)" d="M101 212.1594C 101 210.9172 100.0313 209.9103 98.75 209.9103C 97.5 209.9103 96.5 210.9172 96.5 212.1594C 96.5 213.4016 97.5 214.4084 98.75 214.4084C 100.0313 214.4084 101 213.4016 101 212.1594" stroke="#000000" stroke-width="0.750418" stroke-linecap="square" fill="none" /><path transform="matrix(1 0 0 -1 0 841)" d="M200.8125 207.2865L385.4063 207.2865z" stroke="#0000EE" stroke-width="0.750418" stroke-linecap="square" fill="none" /><path transform="matrix(1 0 0 -1 0 841)" d="M101 187.42C 101 186.1778 100.0313 185.171 98.75 185.171C 97.5 185.171 96.5 186.1778 96.5 187.42C 96.5 188.6621 97.5 189.669 98.75 189.669C 100.0313 189.669 101 188.6621 101 187.42" stroke="#000000" stroke-width="0.750418" stroke-linecap="square" fill="none" /><path transform="matrix(1 0 0 -1 0 841)" d="M316.375 182.5471L545.25 182.5471z" stroke="#0000EE" stroke-width="0.750418" stroke-linecap="square" fill="none" /><path transform="matrix(1 0 0 -1 0 841)" d="M110 165.3044L188.8125 165.3044z" stroke="#0000EE" stroke-width="0.750418" stroke-linecap="square" fill="none" /><path transform="matrix(1 0 0 -1 0 841)" d="M196.3125 165.3044L318.625 165.3044z" stroke="#0000EE" stroke-width="0.750418" stroke-linecap="square" fill="none" /><path transform="matrix(1 0 0 -1 0 841)" d="M101 145.4379C 101 144.1958 100.0313 143.1889 98.75 143.1889C 97.5 143.1889 96.5 144.1958 96.5 145.4379C 96.5 146.6801 97.5 147.687 98.75 147.687C 100.0313 147.687 101 146.6801 101 145.4379" stroke="#000000" stroke-width="0.750418" stroke-linecap="square" fill="none" /><path transform="matrix(1 0 0 -1 0 841)" d="M244.3438 140.5651L479.9688 140.5651z" stroke="#0000EE" stroke-width="0.750418" stroke-linecap="square" fill="none" /><path transform="matrix(1 0 0 -1 0 841)" d="M101 120.6985C 101 119.4564 100.0313 118.4495 98.75 118.4495C 97.5 118.4495 96.5 119.4564 96.5 120.6985C 96.5 121.9407 97.5 122.9476 98.75 122.9476C 100.0313 122.9476 101 121.9407 101 120.6985" stroke="#000000" stroke-width="0.750418" stroke-linecap="square" fill="none" /><path transform="matrix(1 0 0 -1 0 841)" d="M214.3125 115.8256L504.7188 115.8256z" stroke="#0000EE" stroke-width="0.750418" stroke-linecap="square" fill="none" /><path transform="matrix(1 0 0 -1 0 841)" d="M514.5 115.8256L545.25 115.8256z" stroke="#0000EE" stroke-width="0.750418" stroke-linecap="square" fill="none" /><path transform="matrix(1 0 0 -1 0 841)" d="M110 98.58301L197.8125 98.58301z" stroke="#0000EE" stroke-width="0.750418" stroke-linecap="square" fill="none" /><path transform="matrix(1 0 0 -1 0 841)" d="M71 71.21973C 71 69.97754 70 68.9707 68.75 68.9707C 67.46875 68.9707 66.5 69.97754 66.5 71.21973C 66.5 72.46191 67.46875 73.46875 68.75 73.46875C 70 73.46875 71 72.46191 71 71.21973" stroke="#000000" stroke-width="0.750418" fill="#000000" fill-rule="evenodd" /></g><g clip-path="url(#4)"></g></g></g></g></svg>