<svg xmlns="http://www.w3.org/2000/svg" xmlns:xlink="http://www.w3.org/1999/xlink" id="body_160" preserveAspectRatio="xMinYMin meet" viewBox="0 0 793 1121"><defs><clipPath id="1"><path d="M0 841L0 -0.8897705L0 -0.8897705L595.2756 -0.8897705L595.2756 -0.8897705L595.2756 841L595.2756 841L0 841z" /></clipPath><clipPath id="2"><path d="M49.99219 -0.8897705L545.2656 -0.8897705L545.2656 -0.8897705L545.2656 840.9998L545.2656 840.9998L49.99219 840.9998L49.99219 840.9998L49.99219 -0.8897705" /></clipPath><clipPath id="3"><path d="M49.99219 48.58905L545.2656 48.58905L545.2656 48.58905L545.2656 791.5209L545.2656 791.5209L49.99219 791.5209L49.99219 791.5209L49.99219 48.58905" /></clipPath><clipPath id="4"><path d="M49.99219 791.5209L545.2656 791.5209L545.2656 791.5209L545.2656 840.9998L545.2656 840.9998L49.99219 840.9998L49.99219 840.9998L49.99219 791.5209" /></clipPath></defs><g transform="matrix(1.333333 0 0 1.333333 0 0)"><g><g clip-path="url(#1)"><g clip-path="url(#2)"></g><g clip-path="url(#3)"><path transform="matrix(1 0 0 -1 0 841)" d="M71.00781 500.7858C 71.00781 499.5437 70.03125 498.5368 68.75 498.5368C 67.47656 498.5368 66.5 499.5437 66.5 500.7858C 66.5 502.028 67.47656 503.0349 68.75 503.0349C 70.03125 503.0349 71.00781 502.028 71.00781 500.7858" stroke="#000000" stroke-width="0.750418" fill="#000000" fill-rule="evenodd" /><path transform="matrix(1 0 0 -1 0 841)" d="M71.00781 476.0464C 71.00781 474.8043 70.03125 473.7974 68.75 473.7974C 67.47656 473.7974 66.5 474.8043 66.5 476.0464C 66.5 477.2885 67.47656 478.2954 68.75 478.2954C 70.03125 478.2954 71.00781 477.2885 71.00781 476.0464" stroke="#000000" stroke-width="0.750418" fill="#000000" fill-rule="evenodd" /><path transform="matrix(1 0 0 -1 0 841)" d="M71.00781 451.307C 71.00781 450.0648 70.03125 449.058 68.75 449.058C 67.47656 449.058 66.5 450.0648 66.5 451.307C 66.5 452.5492 67.47656 453.556 68.75 453.556C 70.03125 453.556 71.00781 452.5492 71.00781 451.307" stroke="#000000" stroke-width="0.750418" fill="#000000" fill-rule="evenodd" /><path transform="matrix(1 0 0 -1 0 841)" d="M71.00781 426.5676C 71.00781 425.3254 70.03125 424.3185 68.75 424.3185C 67.47656 424.3185 66.5 425.3254 66.5 426.5676C 66.5 427.8098 67.47656 428.8166 68.75 428.8166C 70.03125 428.8166 71.00781 427.8098 71.00781 426.5676" stroke="#000000" stroke-width="0.750418" fill="#000000" fill-rule="evenodd" /></g><g clip-path="url(#4)"></g></g></g></g></svg>