<svg xmlns="http://www.w3.org/2000/svg" xmlns:xlink="http://www.w3.org/1999/xlink" id="body_212" preserveAspectRatio="xMinYMin meet" viewBox="0 0 793 1121"><defs><clipPath id="1"><path d="M0 841L0 -0.8897705L0 -0.8897705L595.2756 -0.8897705L595.2756 -0.8897705L595.2756 841L595.2756 841L0 841z" /></clipPath><clipPath id="2"><path d="M49.98438 -0.8897705L545.2656 -0.8897705L545.2656 -0.8897705L545.2656 840.9998L545.2656 840.9998L49.98438 840.9998L49.98438 840.9998L49.98438 -0.8897705" /></clipPath><clipPath id="3"><path d="M49.98438 48.58905L545.2656 48.58905L545.2656 48.58905L545.2656 791.5209L545.2656 791.5209L49.98438 791.5209L49.98438 791.5209L49.98438 48.58905" /></clipPath><clipPath id="4"><path d="M49.98438 791.5209L545.2656 791.5209L545.2656 791.5209L545.2656 840.9998L545.2656 840.9998L49.98438 840.9998L49.98438 840.9998L49.98438 791.5209" /></clipPath></defs><g transform="matrix(1.333333 0 0 1.333333 0 0)"><g><g clip-path="url(#1)"><g clip-path="url(#2)"></g><g clip-path="url(#3)"><g transform="matrix(0.6426232 0 0 0.6368241 80.00479 91.3208)"><g transform="matrix(1 0 0 1 0 0)"><image x="0" y="0" xlink:href="img_367.png" width="724" height="93" /></g></g><g transform="matrix(0.7504179 0 0 0.749679 80.00479 192.5275)"><g transform="matrix(1 0 0 1 0 0)"><image x="0" y="0" xlink:href="img_368.png" width="567" height="53" /></g></g><g transform="matrix(0.7385066 0 0 0.7304565 80.00479 292.9844)"><g transform="matrix(1 0 0 1 0 0)"><image x="0" y="0" xlink:href="img_369.png" width="630" height="39" /></g></g><g transform="matrix(0.750418 0 0 0.749679 80.00479 381.4465)"><g transform="matrix(1 0 0 1 0 0)"><image x="0" y="0" xlink:href="img_16.png" width="600" height="2" /></g></g><g transform="matrix(0.750418 0 0 0.749679 80.00479 495.3978)"><g transform="matrix(1 0 0 1 0 0)"><image x="0" y="0" xlink:href="img_16.png" width="600" height="2" /></g></g><g transform="matrix(0.6842046 0 0 0.6727889 80.00479 625.8419)"><g transform="matrix(1 0 0 1 0 0)"><image x="0" y="0" xlink:href="img_370.png" width="680" height="39" /></g></g></g><g clip-path="url(#4)"></g></g></g></g></svg>