<svg xmlns="http://www.w3.org/2000/svg" xmlns:xlink="http://www.w3.org/1999/xlink" id="body_315" preserveAspectRatio="xMinYMin meet" viewBox="0 0 793 1121"><defs><clipPath id="1"><path d="M0 841L0 -0.8897705L0 -0.8897705L595.2756 -0.8897705L595.2756 -0.8897705L595.2756 841L595.2756 841L0 841z" /></clipPath><clipPath id="2"><path d="M49.96875 -0.8897705L545.25 -0.8897705L545.25 -0.8897705L545.25 840.9998L545.25 840.9998L49.96875 840.9998L49.96875 840.9998L49.96875 -0.8897705" /></clipPath><clipPath id="3"><path d="M49.96875 48.58905L545.25 48.58905L545.25 48.58905L545.25 791.5209L545.25 791.5209L49.96875 791.5209L49.96875 791.5209L49.96875 48.58905" /></clipPath><clipPath id="4"><path d="M49.96875 791.5209L545.25 791.5209L545.25 791.5209L545.25 840.9998L545.25 840.9998L49.96875 840.9998L49.96875 840.9998L49.96875 791.5209" /></clipPath></defs><g transform="matrix(1.333333 0 0 1.333333 0 0)"><g><g clip-path="url(#1)"><g clip-path="url(#2)"></g><g clip-path="url(#3)"><path transform="matrix(1 0 0 -1 0 841)" d="M71 718.9424C 71 717.7003 70 716.6934 68.75 716.6934C 67.46875 716.6934 66.46875 717.7003 66.46875 718.9424C 66.46875 720.1846 67.46875 721.1915 68.75 721.1915C 70 721.1915 71 720.1846 71 718.9424" stroke="#000000" stroke-width="0.750418" fill="#000000" fill-rule="evenodd" /><path transform="matrix(1 0 0 -1 0 841)" d="M206.8125 714.0695L440.9375 714.0695z" stroke="#0000EE" stroke-width="0.750418" stroke-linecap="square" fill="none" /><path transform="matrix(1 0 0 -1 0 841)" d="M71 694.203C 71 692.9609 70 691.954 68.75 691.954C 67.46875 691.954 66.46875 692.9609 66.46875 694.203C 66.46875 695.4451 67.46875 696.452 68.75 696.452C 70 696.452 71 695.4451 71 694.203" stroke="#000000" stroke-width="0.750418" fill="#000000" fill-rule="evenodd" /><path transform="matrix(1 0 0 -1 0 841)" d="M101 676.9604C 101 675.7183 100.0313 674.7114 98.75 674.7114C 97.5 674.7114 96.5 675.7183 96.5 676.9604C 96.5 678.2025 97.5 679.2094 98.75 679.2094C 100.0313 679.2094 101 678.2025 101 676.9604" stroke="#000000" stroke-width="0.750418" stroke-linecap="square" fill="none" /><path transform="matrix(1 0 0 -1 0 841)" d="M154.2813 672.0875L266.8438 672.0875z" stroke="#0000EE" stroke-width="0.750418" stroke-linecap="square" fill="none" /><path transform="matrix(1 0 0 -1 0 841)" d="M101 652.2209C 101 650.9788 100.0313 649.9719 98.75 649.9719C 97.5 649.9719 96.5 650.9788 96.5 652.2209C 96.5 653.4631 97.5 654.47 98.75 654.47C 100.0313 654.47 101 653.4631 101 652.2209" stroke="#000000" stroke-width="0.750418" stroke-linecap="square" fill="none" /><path transform="matrix(1 0 0 -1 0 841)" d="M227.0625 647.3481L479.2188 647.3481z" stroke="#0000EE" stroke-width="0.750418" stroke-linecap="square" fill="none" /><path transform="matrix(1 0 0 -1 0 841)" d="M488.2188 647.3481L545.25 647.3481z" stroke="#0000EE" stroke-width="0.750418" stroke-linecap="square" fill="none" /><path transform="matrix(1 0 0 -1 0 841)" d="M110 630.1055L173.0313 630.1055z" stroke="#0000EE" stroke-width="0.750418" stroke-linecap="square" fill="none" /><path transform="matrix(1 0 0 -1 0 841)" d="M101 610.239C 101 608.9968 100.0313 607.9899 98.75 607.9899C 97.5 607.9899 96.5 608.9968 96.5 610.239C 96.5 611.4811 97.5 612.488 98.75 612.488C 100.0313 612.488 101 611.4811 101 610.239" stroke="#000000" stroke-width="0.750418" stroke-linecap="square" fill="none" /><path transform="matrix(1 0 0 -1 0 841)" d="M255.5938 605.366L505.4688 605.366z" stroke="#0000EE" stroke-width="0.750418" stroke-linecap="square" fill="none" /><path transform="matrix(1 0 0 -1 0 841)" d="M514.4688 605.366L545.25 605.366z" stroke="#0000EE" stroke-width="0.750418" stroke-linecap="square" fill="none" /><path transform="matrix(1 0 0 -1 0 841)" d="M110 588.1234L197.8125 588.1234z" stroke="#0000EE" stroke-width="0.750418" stroke-linecap="square" fill="none" /><path transform="matrix(1 0 0 -1 0 841)" d="M71 560.7601C 71 559.518 70 558.5111 68.75 558.5111C 67.46875 558.5111 66.46875 559.518 66.46875 560.7601C 66.46875 562.0023 67.46875 563.0092 68.75 563.0092C 70 563.0092 71 562.0023 71 560.7601" stroke="#000000" stroke-width="0.750418" fill="#000000" fill-rule="evenodd" /><path transform="matrix(1 0 0 -1 0 841)" d="M137.7813 555.8872L260.0938 555.8872z" stroke="#0000EE" stroke-width="0.750418" stroke-linecap="square" fill="none" /><path transform="matrix(1 0 0 -1 0 841)" d="M71 536.0208C 71 534.7786 70 533.7717 68.75 533.7717C 67.46875 533.7717 66.46875 534.7786 66.46875 536.0208C 66.46875 537.2628 67.46875 538.2698 68.75 538.2698C 70 538.2698 71 537.2628 71 536.0208" stroke="#000000" stroke-width="0.750418" fill="#000000" fill-rule="evenodd" /><path transform="matrix(1 0 0 -1 0 841)" d="M135.5313 531.1478L257.8438 531.1478z" stroke="#0000EE" stroke-width="0.750418" stroke-linecap="square" fill="none" /></g><g clip-path="url(#4)"></g></g></g></g></svg>