<svg xmlns="http://www.w3.org/2000/svg" xmlns:xlink="http://www.w3.org/1999/xlink" id="body_319" preserveAspectRatio="xMinYMin meet" viewBox="0 0 793 1121"><defs><clipPath id="1"><path d="M0 841L0 -0.8897705L0 -0.8897705L595.2756 -0.8897705L595.2756 -0.8897705L595.2756 841L595.2756 841L0 841z" /></clipPath><clipPath id="2"><path d="M49.96875 -0.8897705L545.25 -0.8897705L545.25 -0.8897705L545.25 840.9998L545.25 840.9998L49.96875 840.9998L49.96875 840.9998L49.96875 -0.8897705" /></clipPath><clipPath id="3"><path d="M49.96875 48.58905L545.25 48.58905L545.25 48.58905L545.25 791.5209L545.25 791.5209L49.96875 791.5209L49.96875 791.5209L49.96875 48.58905" /></clipPath><clipPath id="4"><path d="M49.96875 791.5209L545.25 791.5209L545.25 791.5209L545.25 840.9998L545.25 840.9998L49.96875 840.9998L49.96875 840.9998L49.96875 791.5209" /></clipPath></defs><g transform="matrix(1.333333 0 0 1.333333 0 0)"><g><g clip-path="url(#1)"><g clip-path="url(#2)"></g><g clip-path="url(#3)"><path transform="matrix(1 0 0 -1 0 841)" d="M71 768.4212C 71 767.1791 70 766.1722 68.75 766.1722C 67.46875 766.1722 66.5 767.1791 66.5 768.4212C 66.5 769.6633 67.46875 770.6703 68.75 770.6703C 70 770.6703 71 769.6633 71 768.4212" stroke="#000000" stroke-width="0.750418" fill="#000000" fill-rule="evenodd" /><path transform="matrix(1 0 0 -1 0 841)" d="M101 751.1786C 101 749.9365 100.0313 748.9296 98.75 748.9296C 97.5 748.9296 96.5 749.9365 96.5 751.1786C 96.5 752.4208 97.5 753.4276 98.75 753.4276C 100.0313 753.4276 101 752.4208 101 751.1786" stroke="#000000" stroke-width="0.750418" stroke-linecap="square" fill="none" /><path transform="matrix(1 0 0 -1 0 841)" d="M154.2813 746.3057L269.0938 746.3057z" stroke="#0000EE" stroke-width="0.750418" stroke-linecap="square" fill="none" /><path transform="matrix(1 0 0 -1 0 841)" d="M101 726.4392C 101 725.197 100.0313 724.1902 98.75 724.1902C 97.5 724.1902 96.5 725.197 96.5 726.4392C 96.5 727.6813 97.5 728.6882 98.75 728.6882C 100.0313 728.6882 101 727.6813 101 726.4392" stroke="#000000" stroke-width="0.750418" stroke-linecap="square" fill="none" /><path transform="matrix(1 0 0 -1 0 841)" d="M234.5938 721.5663L435.6875 721.5663z" stroke="#0000EE" stroke-width="0.750418" stroke-linecap="square" fill="none" /><path transform="matrix(1 0 0 -1 0 841)" d="M101 701.6998C 101 700.4576 100.0313 699.4507 98.75 699.4507C 97.5 699.4507 96.5 700.4576 96.5 701.6998C 96.5 702.942 97.5 703.9489 98.75 703.9489C 100.0313 703.9489 101 702.942 101 701.6998" stroke="#000000" stroke-width="0.750418" stroke-linecap="square" fill="none" /><path transform="matrix(1 0 0 -1 0 841)" d="M235.3438 696.8269L429.6875 696.8269z" stroke="#0000EE" stroke-width="0.750418" stroke-linecap="square" fill="none" /><path transform="matrix(1 0 0 -1 0 841)" d="M101 676.9604C 101 675.7183 100.0313 674.7114 98.75 674.7114C 97.5 674.7114 96.5 675.7183 96.5 676.9604C 96.5 678.2025 97.5 679.2094 98.75 679.2094C 100.0313 679.2094 101 678.2025 101 676.9604" stroke="#000000" stroke-width="0.750418" stroke-linecap="square" fill="none" /><path transform="matrix(1 0 0 -1 0 841)" d="M184.3125 672.0875L425.1875 672.0875z" stroke="#0000EE" stroke-width="0.750418" stroke-linecap="square" fill="none" /><path transform="matrix(1 0 0 -1 0 841)" d="M71 644.7242C 71 643.4821 70 642.4752 68.75 642.4752C 67.46875 642.4752 66.5 643.4821 66.5 644.7242C 66.5 645.9663 67.46875 646.9732 68.75 646.9732C 70 646.9732 71 645.9663 71 644.7242" stroke="#000000" stroke-width="0.750418" fill="#000000" fill-rule="evenodd" /><path transform="matrix(1 0 0 -1 0 841)" d="M170.8125 639.8513L409.4375 639.8513z" stroke="#0000EE" stroke-width="0.750418" stroke-linecap="square" fill="none" /><path transform="matrix(1 0 0 -1 0 841)" d="M71 619.9847C 71 618.7427 70 617.7357 68.75 617.7357C 67.46875 617.7357 66.5 618.7427 66.5 619.9847C 66.5 621.2269 67.46875 622.2338 68.75 622.2338C 70 622.2338 71 621.2269 71 619.9847" stroke="#000000" stroke-width="0.750418" fill="#000000" fill-rule="evenodd" /><path transform="matrix(1 0 0 -1 0 841)" d="M181.3125 615.1119L303.625 615.1119z" stroke="#0000EE" stroke-width="0.750418" stroke-linecap="square" fill="none" /><path transform="matrix(1 0 0 -1 0 841)" d="M71 595.2454C 71 594.0032 70 592.9963 68.75 592.9963C 67.46875 592.9963 66.5 594.0032 66.5 595.2454C 66.5 596.4875 67.46875 597.4944 68.75 597.4944C 70 597.4944 71 596.4875 71 595.2454" stroke="#000000" stroke-width="0.750418" fill="#000000" fill-rule="evenodd" /><path transform="matrix(1 0 0 -1 0 841)" d="M101 578.0027C 101 576.7606 100.0313 575.7537 98.75 575.7537C 97.5 575.7537 96.5 576.7606 96.5 578.0027C 96.5 579.2449 97.5 580.2518 98.75 580.2518C 100.0313 580.2518 101 579.2449 101 578.0027" stroke="#000000" stroke-width="0.750418" stroke-linecap="square" fill="none" /><path transform="matrix(1 0 0 -1 0 841)" d="M154.2813 573.1299L305.875 573.1299z" stroke="#0000EE" stroke-width="0.750418" stroke-linecap="square" fill="none" /><path transform="matrix(1 0 0 -1 0 841)" d="M71 545.7665C 71 544.5244 70 543.5175 68.75 543.5175C 67.46875 543.5175 66.5 544.5244 66.5 545.7665C 66.5 547.0087 67.46875 548.0156 68.75 548.0156C 70 548.0156 71 547.0087 71 545.7665" stroke="#000000" stroke-width="0.750418" fill="#000000" fill-rule="evenodd" /><path transform="matrix(1 0 0 -1 0 841)" d="M101 528.5239C 101 527.2818 100.0313 526.2749 98.75 526.2749C 97.5 526.2749 96.5 527.2818 96.5 528.5239C 96.5 529.7661 97.5 530.7729 98.75 530.7729C 100.0313 530.7729 101 529.7661 101 528.5239" stroke="#000000" stroke-width="0.750418" stroke-linecap="square" fill="none" /><path transform="matrix(1 0 0 -1 0 841)" d="M154.2813 523.651L200.8125 523.651z" stroke="#0000EE" stroke-width="0.750418" stroke-linecap="square" fill="none" /><path transform="matrix(1 0 0 -1 0 841)" d="M71 496.2878C 71 495.0456 70 494.0387 68.75 494.0387C 67.46875 494.0387 66.5 495.0456 66.5 496.2878C 66.5 497.5299 67.46875 498.5368 68.75 498.5368C 70 498.5368 71 497.5299 71 496.2878" stroke="#000000" stroke-width="0.750418" fill="#000000" fill-rule="evenodd" /><path transform="matrix(1 0 0 -1 0 841)" d="M101 479.0451C 101 477.803 100.0313 476.7961 98.75 476.7961C 97.5 476.7961 96.5 477.803 96.5 479.0451C 96.5 480.2873 97.5 481.2942 98.75 481.2942C 100.0313 481.2942 101 480.2873 101 479.0451" stroke="#000000" stroke-width="0.750418" stroke-linecap="square" fill="none" /><path transform="matrix(1 0 0 -1 0 841)" d="M154.2813 474.1722L195.5625 474.1722z" stroke="#0000EE" stroke-width="0.750418" stroke-linecap="square" fill="none" /><path transform="matrix(1 0 0 -1 0 841)" d="M101 454.3057C 101 453.0636 100.0313 452.0567 98.75 452.0567C 97.5 452.0567 96.5 453.0636 96.5 454.3057C 96.5 455.5479 97.5 456.5547 98.75 456.5547C 100.0313 456.5547 101 455.5479 101 454.3057" stroke="#000000" stroke-width="0.750418" stroke-linecap="square" fill="none" /><path transform="matrix(1 0 0 -1 0 841)" d="M229.3438 449.4328L341.1563 449.4328z" stroke="#0000EE" stroke-width="0.750418" stroke-linecap="square" fill="none" /><path transform="matrix(1 0 0 -1 0 841)" d="M101 429.5663C 101 428.3242 100.0313 427.3173 98.75 427.3173C 97.5 427.3173 96.5 428.3242 96.5 429.5663C 96.5 430.8085 97.5 431.8153 98.75 431.8153C 100.0313 431.8153 101 430.8085 101 429.5663" stroke="#000000" stroke-width="0.750418" stroke-linecap="square" fill="none" /><path transform="matrix(1 0 0 -1 0 841)" d="M261.5938 424.6934L403.4375 424.6934z" stroke="#0000EE" stroke-width="0.750418" stroke-linecap="square" fill="none" /><path transform="matrix(1 0 0 -1 0 841)" d="M101 404.8269C 101 403.5847 100.0313 402.5779 98.75 402.5779C 97.5 402.5779 96.5 403.5847 96.5 404.8269C 96.5 406.0691 97.5 407.0759 98.75 407.0759C 100.0313 407.0759 101 406.0691 101 404.8269" stroke="#000000" stroke-width="0.750418" stroke-linecap="square" fill="none" /><path transform="matrix(1 0 0 -1 0 841)" d="M221.0938 399.954L320.125 399.954z" stroke="#0000EE" stroke-width="0.750418" stroke-linecap="square" fill="none" /><path transform="matrix(1 0 0 -1 0 841)" d="M101 380.0875C 101 378.8453 100.0313 377.8384 98.75 377.8384C 97.5 377.8384 96.5 378.8453 96.5 380.0875C 96.5 381.3297 97.5 382.3365 98.75 382.3365C 100.0313 382.3365 101 381.3297 101 380.0875" stroke="#000000" stroke-width="0.750418" stroke-linecap="square" fill="none" /><path transform="matrix(1 0 0 -1 0 841)" d="M210.5625 375.2146L302.875 375.2146z" stroke="#0000EE" stroke-width="0.750418" stroke-linecap="square" fill="none" /><path transform="matrix(1 0 0 -1 0 841)" d="M101 355.3481C 101 354.1059 100.0313 353.099 98.75 353.099C 97.5 353.099 96.5 354.1059 96.5 355.3481C 96.5 356.5902 97.5 357.5971 98.75 357.5971C 100.0313 357.5971 101 356.5902 101 355.3481" stroke="#000000" stroke-width="0.750418" stroke-linecap="square" fill="none" /><path transform="matrix(1 0 0 -1 0 841)" d="M203.8125 350.4752L285.625 350.4752z" stroke="#0000EE" stroke-width="0.750418" stroke-linecap="square" fill="none" /><path transform="matrix(1 0 0 -1 0 841)" d="M101 330.6087C 101 329.3665 100.0313 328.3596 98.75 328.3596C 97.5 328.3596 96.5 329.3665 96.5 330.6087C 96.5 331.8508 97.5 332.8577 98.75 332.8577C 100.0313 332.8577 101 331.8508 101 330.6087" stroke="#000000" stroke-width="0.750418" stroke-linecap="square" fill="none" /><path transform="matrix(1 0 0 -1 0 841)" d="M196.3125 325.7358L270.5938 325.7358z" stroke="#0000EE" stroke-width="0.750418" stroke-linecap="square" fill="none" /><path transform="matrix(1 0 0 -1 0 841)" d="M101 305.8693C 101 304.6271 100.0313 303.6202 98.75 303.6202C 97.5 303.6202 96.5 304.6271 96.5 305.8693C 96.5 307.1115 97.5 308.1183 98.75 308.1183C 100.0313 308.1183 101 307.1115 101 305.8693" stroke="#000000" stroke-width="0.750418" stroke-linecap="square" fill="none" /><path transform="matrix(1 0 0 -1 0 841)" d="M307.375 300.9963L545.25 300.9963z" stroke="#0000EE" stroke-width="0.750418" stroke-linecap="square" fill="none" /><path transform="matrix(1 0 0 -1 0 841)" d="M110.0313 283.7537L188.0625 283.7537z" stroke="#0000EE" stroke-width="0.750418" stroke-linecap="square" fill="none" /><path transform="matrix(1 0 0 -1 0 841)" d="M101 263.8873C 101 262.6451 100.0313 261.6382 98.75 261.6382C 97.5 261.6382 96.5 262.6451 96.5 263.8873C 96.5 265.1294 97.5 266.1363 98.75 266.1363C 100.0313 266.1363 101 265.1294 101 263.8873" stroke="#000000" stroke-width="0.750418" stroke-linecap="square" fill="none" /><path transform="matrix(1 0 0 -1 0 841)" d="M254.0938 259.0143L541.5 259.0143z" stroke="#0000EE" stroke-width="0.750418" stroke-linecap="square" fill="none" /><path transform="matrix(1 0 0 -1 0 841)" d="M71 231.6511C 71 230.4089 70 229.402 68.75 229.402C 67.46875 229.402 66.5 230.4089 66.5 231.6511C 66.5 232.8932 67.46875 233.9001 68.75 233.9001C 70 233.9001 71 232.8932 71 231.6511" stroke="#000000" stroke-width="0.750418" fill="#000000" fill-rule="evenodd" /><path transform="matrix(1 0 0 -1 0 841)" d="M101 214.4084C 101 213.1663 100.0313 212.1594 98.75 212.1594C 97.5 212.1594 96.5 213.1663 96.5 214.4084C 96.5 215.6506 97.5 216.6575 98.75 216.6575C 100.0313 216.6575 101 215.6506 101 214.4084" stroke="#000000" stroke-width="0.750418" stroke-linecap="square" fill="none" /><path transform="matrix(1 0 0 -1 0 841)" d="M154.2813 209.5355L254.8438 209.5355z" stroke="#0000EE" stroke-width="0.750418" stroke-linecap="square" fill="none" /><path transform="matrix(1 0 0 -1 0 841)" d="M71 182.1722C 71 180.9301 70 179.9232 68.75 179.9232C 67.46875 179.9232 66.5 180.9301 66.5 182.1722C 66.5 183.4144 67.46875 184.4213 68.75 184.4213C 70 184.4213 71 183.4144 71 182.1722" stroke="#000000" stroke-width="0.750418" fill="#000000" fill-rule="evenodd" /><path transform="matrix(1 0 0 -1 0 841)" d="M239.0938 177.2993L473.2188 177.2993z" stroke="#0000EE" stroke-width="0.750418" stroke-linecap="square" fill="none" /><path transform="matrix(1 0 0 -1 0 841)" d="M71 157.4328C 71 156.1907 70 155.1838 68.75 155.1838C 67.46875 155.1838 66.5 156.1907 66.5 157.4328C 66.5 158.675 67.46875 159.6818 68.75 159.6818C 70 159.6818 71 158.675 71 157.4328" stroke="#000000" stroke-width="0.750418" fill="#000000" fill-rule="evenodd" /><path transform="matrix(1 0 0 -1 0 841)" d="M101 140.1902C 101 138.9481 100.0313 137.9412 98.75 137.9412C 97.5 137.9412 96.5 138.9481 96.5 140.1902C 96.5 141.4324 97.5 142.4392 98.75 142.4392C 100.0313 142.4392 101 141.4324 101 140.1902" stroke="#000000" stroke-width="0.750418" stroke-linecap="square" fill="none" /><path transform="matrix(1 0 0 -1 0 841)" d="M154.2813 135.3173L313.375 135.3173z" stroke="#0000EE" stroke-width="0.750418" stroke-linecap="square" fill="none" /><path transform="matrix(1 0 0 -1 0 841)" d="M71 107.954C 71 106.7119 70 105.705 68.75 105.705C 67.46875 105.705 66.5 106.7119 66.5 107.954C 66.5 109.1962 67.46875 110.2031 68.75 110.2031C 70 110.2031 71 109.1962 71 107.954" stroke="#000000" stroke-width="0.750418" fill="#000000" fill-rule="evenodd" /><path transform="matrix(1 0 0 -1 0 841)" d="M101 90.71136C 101 89.46918 100.0313 88.46234 98.75 88.46234C 97.5 88.46234 96.5 89.46918 96.5 90.71136C 96.5 91.95361 97.5 92.96045 98.75 92.96045C 100.0313 92.96045 101 91.95361 101 90.71136" stroke="#000000" stroke-width="0.750418" stroke-linecap="square" fill="none" /><path transform="matrix(1 0 0 -1 0 841)" d="M154.2813 85.83844L184.3125 85.83844z" stroke="#0000EE" stroke-width="0.750418" stroke-linecap="square" fill="none" /><path transform="matrix(1 0 0 -1 0 841)" d="M71 58.47516C 71 57.23297 70 56.22614 68.75 56.22614C 67.46875 56.22614 66.5 57.23297 66.5 58.47516C 66.5 59.71741 67.46875 60.72424 68.75 60.72424C 70 60.72424 71 59.71741 71 58.47516" stroke="#000000" stroke-width="0.750418" fill="#000000" fill-rule="evenodd" /></g><g clip-path="url(#4)"></g></g></g></g></svg>