<svg xmlns="http://www.w3.org/2000/svg" xmlns:xlink="http://www.w3.org/1999/xlink" id="body_253" preserveAspectRatio="xMinYMin meet" viewBox="0 0 793 1121"><defs><clipPath id="1"><path d="M0 841L0 -0.8897705L0 -0.8897705L595.2756 -0.8897705L595.2756 -0.8897705L595.2756 841L595.2756 841L0 841z" /></clipPath><clipPath id="2"><path d="M50 -0.8897705L545.2656 -0.8897705L545.2656 -0.8897705L545.2656 840.9998L545.2656 840.9998L50 840.9998L50 840.9998L50 -0.8897705" /></clipPath><clipPath id="3"><path d="M50 48.58905L545.2656 48.58905L545.2656 48.58905L545.2656 791.5209L545.2656 791.5209L50 791.5209L50 791.5209L50 48.58905" /></clipPath><clipPath id="4"><path d="M50 791.5209L545.2656 791.5209L545.2656 791.5209L545.2656 840.9998L545.2656 840.9998L50 840.9998L50 840.9998L50 791.5209" /></clipPath></defs><g transform="matrix(1.333333 0 0 1.333333 0 0)"><g><g clip-path="url(#1)"><g clip-path="url(#2)"></g><g clip-path="url(#3)"><path transform="matrix(1 0 0 -1 0 841)" d="M71 373.3404C 71 372.0982 70.01563 371.0913 68.75 371.0913C 67.48438 371.0913 66.5 372.0982 66.5 373.3404C 66.5 374.5826 67.48438 375.5894 68.75 375.5894C 70.01563 375.5894 71 374.5826 71 373.3404" stroke="#000000" stroke-width="0.750418" fill="#000000" fill-rule="evenodd" /><path transform="matrix(1 0 0 -1 0 841)" d="M71 348.601C 71 347.3588 70.01563 346.3519 68.75 346.3519C 67.48438 346.3519 66.5 347.3588 66.5 348.601C 66.5 349.8431 67.48438 350.85 68.75 350.85C 70.01563 350.85 71 349.8431 71 348.601" stroke="#000000" stroke-width="0.750418" fill="#000000" fill-rule="evenodd" /><path transform="matrix(1 0 0 -1 0 841)" d="M71 323.8616C 71 322.6194 70.01563 321.6125 68.75 321.6125C 67.48438 321.6125 66.5 322.6194 66.5 323.8616C 66.5 325.1037 67.48438 326.1106 68.75 326.1106C 70.01563 326.1106 71 325.1037 71 323.8616" stroke="#000000" stroke-width="0.750418" fill="#000000" fill-rule="evenodd" /><path transform="matrix(1 0 0 -1 0 841)" d="M71 299.1221C 71 297.88 70.01563 296.8731 68.75 296.8731C 67.48438 296.8731 66.5 297.88 66.5 299.1221C 66.5 300.3643 67.48438 301.3712 68.75 301.3712C 70.01563 301.3712 71 300.3643 71 299.1221" stroke="#000000" stroke-width="0.750418" fill="#000000" fill-rule="evenodd" /><path transform="matrix(1 0 0 -1 0 841)" d="M71 274.3828C 71 273.1406 70.01563 272.1337 68.75 272.1337C 67.48438 272.1337 66.5 273.1406 66.5 274.3828C 66.5 275.6249 67.48438 276.6318 68.75 276.6318C 70.01563 276.6318 71 275.6249 71 274.3828" stroke="#000000" stroke-width="0.750418" fill="#000000" fill-rule="evenodd" /></g><g clip-path="url(#4)"></g></g></g></g></svg>