<svg xmlns="http://www.w3.org/2000/svg" xmlns:xlink="http://www.w3.org/1999/xlink" id="body_320" preserveAspectRatio="xMinYMin meet" viewBox="0 0 793 1121"><defs><clipPath id="1"><path d="M0 841L0 -0.8897705L0 -0.8897705L595.2756 -0.8897705L595.2756 -0.8897705L595.2756 841L595.2756 841L0 841z" /></clipPath><clipPath id="2"><path d="M49.96875 -0.8897705L545.25 -0.8897705L545.25 -0.8897705L545.25 840.9998L545.25 840.9998L49.96875 840.9998L49.96875 840.9998L49.96875 -0.8897705" /></clipPath><clipPath id="3"><path d="M49.96875 48.58905L545.25 48.58905L545.25 48.58905L545.25 791.5209L545.25 791.5209L49.96875 791.5209L49.96875 791.5209L49.96875 48.58905" /></clipPath><clipPath id="4"><path d="M49.96875 791.5209L545.25 791.5209L545.25 791.5209L545.25 840.9998L545.25 840.9998L49.96875 840.9998L49.96875 840.9998L49.96875 791.5209" /></clipPath></defs><g transform="matrix(1.333333 0 0 1.333333 0 0)"><g><g clip-path="url(#1)"><g clip-path="url(#2)"></g><g clip-path="url(#3)"><path transform="matrix(1 0 0 -1 0 841)" d="M101 783.4148C 101 782.1727 100.0313 781.1658 98.75 781.1658C 97.5 781.1658 96.5 782.1727 96.5 783.4148C 96.5 784.6569 97.5 785.6638 98.75 785.6638C 100.0313 785.6638 101 784.6569 101 783.4148" stroke="#000000" stroke-width="0.750418" stroke-linecap="square" fill="none" /><path transform="matrix(1 0 0 -1 0 841)" d="M154.2813 778.5419L240.5938 778.5419z" stroke="#0000EE" stroke-width="0.750418" stroke-linecap="square" fill="none" /><path transform="matrix(1 0 0 -1 0 841)" d="M71 751.1786C 71 749.9365 70 748.9296 68.75 748.9296C 67.46875 748.9296 66.5 749.9365 66.5 751.1786C 66.5 752.4208 67.46875 753.4276 68.75 753.4276C 70 753.4276 71 752.4208 71 751.1786" stroke="#000000" stroke-width="0.750418" fill="#000000" fill-rule="evenodd" /><path transform="matrix(1 0 0 -1 0 841)" d="M101 733.936C 101 732.6938 100.0313 731.687 98.75 731.687C 97.5 731.687 96.5 732.6938 96.5 733.936C 96.5 735.1782 97.5 736.1851 98.75 736.1851C 100.0313 736.1851 101 735.1782 101 733.936" stroke="#000000" stroke-width="0.750418" stroke-linecap="square" fill="none" /><path transform="matrix(1 0 0 -1 0 841)" d="M191.8125 729.0631L470.9688 729.0631z" stroke="#0000EE" stroke-width="0.750418" stroke-linecap="square" fill="none" /><path transform="matrix(1 0 0 -1 0 841)" d="M71 701.6998C 71 700.4576 70 699.4507 68.75 699.4507C 67.46875 699.4507 66.5 700.4576 66.5 701.6998C 66.5 702.942 67.46875 703.9489 68.75 703.9489C 70 703.9489 71 702.942 71 701.6998" stroke="#000000" stroke-width="0.750418" fill="#000000" fill-rule="evenodd" /><path transform="matrix(1 0 0 -1 0 841)" d="M170.7813 696.8269L431.1875 696.8269z" stroke="#0000EE" stroke-width="0.750418" stroke-linecap="square" fill="none" /><path transform="matrix(1 0 0 -1 0 841)" d="M71 676.9604C 71 675.7183 70 674.7114 68.75 674.7114C 67.46875 674.7114 66.5 675.7183 66.5 676.9604C 66.5 678.2025 67.46875 679.2094 68.75 679.2094C 70 679.2094 71 678.2025 71 676.9604" stroke="#000000" stroke-width="0.750418" fill="#000000" fill-rule="evenodd" /><path transform="matrix(1 0 0 -1 0 841)" d="M101 659.7178C 101 658.4756 100.0313 657.4688 98.75 657.4688C 97.5 657.4688 96.5 658.4756 96.5 659.7178C 96.5 660.9599 97.5 661.9668 98.75 661.9668C 100.0313 661.9668 101 660.9599 101 659.7178" stroke="#000000" stroke-width="0.750418" stroke-linecap="square" fill="none" /><path transform="matrix(1 0 0 -1 0 841)" d="M154.2813 654.8448L240.5938 654.8448z" stroke="#0000EE" stroke-width="0.750418" stroke-linecap="square" fill="none" /><path transform="matrix(1 0 0 -1 0 841)" d="M71 627.4816C 71 626.2394 70 625.2325 68.75 625.2325C 67.46875 625.2325 66.5 626.2394 66.5 627.4816C 66.5 628.7237 67.46875 629.7306 68.75 629.7306C 70 629.7306 71 628.7237 71 627.4816" stroke="#000000" stroke-width="0.750418" fill="#000000" fill-rule="evenodd" /><path transform="matrix(1 0 0 -1 0 841)" d="M101 610.239C 101 608.9968 100.0313 607.9899 98.75 607.9899C 97.5 607.9899 96.5 608.9968 96.5 610.239C 96.5 611.4811 97.5 612.488 98.75 612.488C 100.0313 612.488 101 611.4811 101 610.239" stroke="#000000" stroke-width="0.750418" stroke-linecap="square" fill="none" /><path transform="matrix(1 0 0 -1 0 841)" d="M154.2813 605.366L323.875 605.366z" stroke="#0000EE" stroke-width="0.750418" stroke-linecap="square" fill="none" /><path transform="matrix(1 0 0 -1 0 841)" d="M101 585.4995C 101 584.2574 100.0313 583.2505 98.75 583.2505C 97.5 583.2505 96.5 584.2574 96.5 585.4995C 96.5 586.7417 97.5 587.7486 98.75 587.7486C 100.0313 587.7486 101 586.7417 101 585.4995" stroke="#000000" stroke-width="0.750418" stroke-linecap="square" fill="none" /><path transform="matrix(1 0 0 -1 0 841)" d="M362.9063 580.6266L545.25 580.6266z" stroke="#0000EE" stroke-width="0.750418" stroke-linecap="square" fill="none" /><path transform="matrix(1 0 0 -1 0 841)" d="M110 563.384L273.5938 563.384z" stroke="#0000EE" stroke-width="0.750418" stroke-linecap="square" fill="none" /><path transform="matrix(1 0 0 -1 0 841)" d="M101 543.5175C 101 542.2754 100.0313 541.2685 98.75 541.2685C 97.5 541.2685 96.5 542.2754 96.5 543.5175C 96.5 544.7596 97.5 545.7665 98.75 545.7665C 100.0313 545.7665 101 544.7596 101 543.5175" stroke="#000000" stroke-width="0.750418" stroke-linecap="square" fill="none" /><path transform="matrix(1 0 0 -1 0 841)" d="M371.1563 538.6446L545.25 538.6446z" stroke="#0000EE" stroke-width="0.750418" stroke-linecap="square" fill="none" /><path transform="matrix(1 0 0 -1 0 841)" d="M110 521.402L299.875 521.402z" stroke="#0000EE" stroke-width="0.750418" stroke-linecap="square" fill="none" /><path transform="matrix(1 0 0 -1 0 841)" d="M307.375 521.402L429.6875 521.402z" stroke="#0000EE" stroke-width="0.750418" stroke-linecap="square" fill="none" /><path transform="matrix(1 0 0 -1 0 841)" d="M101 501.5355C 101 500.2934 100.0313 499.2865 98.75 499.2865C 97.5 499.2865 96.5 500.2934 96.5 501.5355C 96.5 502.7776 97.5 503.7845 98.75 503.7845C 100.0313 503.7845 101 502.7776 101 501.5355" stroke="#000000" stroke-width="0.750418" stroke-linecap="square" fill="none" /><path transform="matrix(1 0 0 -1 0 841)" d="M296.125 496.6626L545.25 496.6626z" stroke="#0000EE" stroke-width="0.750418" stroke-linecap="square" fill="none" /><path transform="matrix(1 0 0 -1 0 841)" d="M110 479.42L250.3438 479.42z" stroke="#0000EE" stroke-width="0.750418" stroke-linecap="square" fill="none" /><path transform="matrix(1 0 0 -1 0 841)" d="M257.8438 479.42L380.1563 479.42z" stroke="#0000EE" stroke-width="0.750418" stroke-linecap="square" fill="none" /><path transform="matrix(1 0 0 -1 0 841)" d="M101 459.5535C 101 458.3113 100.0313 457.3044 98.75 457.3044C 97.5 457.3044 96.5 458.3113 96.5 459.5535C 96.5 460.7956 97.5 461.8025 98.75 461.8025C 100.0313 461.8025 101 460.7956 101 459.5535" stroke="#000000" stroke-width="0.750418" stroke-linecap="square" fill="none" /><path transform="matrix(1 0 0 -1 0 841)" d="M216.5625 454.6805L358.4063 454.6805z" stroke="#0000EE" stroke-width="0.750418" stroke-linecap="square" fill="none" /><path transform="matrix(1 0 0 -1 0 841)" d="M101 434.8141C 101 433.5719 100.0313 432.565 98.75 432.565C 97.5 432.565 96.5 433.5719 96.5 434.8141C 96.5 436.0562 97.5 437.0631 98.75 437.0631C 100.0313 437.0631 101 436.0562 101 434.8141" stroke="#000000" stroke-width="0.750418" stroke-linecap="square" fill="none" /><path transform="matrix(1 0 0 -1 0 841)" d="M263.8438 429.9411L532.5 429.9411z" stroke="#0000EE" stroke-width="0.750418" stroke-linecap="square" fill="none" /><path transform="matrix(1 0 0 -1 0 841)" d="M71 402.5779C 71 401.3357 70 400.3288 68.75 400.3288C 67.46875 400.3288 66.5 401.3357 66.5 402.5779C 66.5 403.82 67.46875 404.8269 68.75 404.8269C 70 404.8269 71 403.82 71 402.5779" stroke="#000000" stroke-width="0.750418" fill="#000000" fill-rule="evenodd" /><path transform="matrix(1 0 0 -1 0 841)" d="M101 385.3352C 101 384.0931 100.0313 383.0862 98.75 383.0862C 97.5 383.0862 96.5 384.0931 96.5 385.3352C 96.5 386.5774 97.5 387.5843 98.75 387.5843C 100.0313 387.5843 101 386.5774 101 385.3352" stroke="#000000" stroke-width="0.750418" stroke-linecap="square" fill="none" /><path transform="matrix(1 0 0 -1 0 841)" d="M154.2813 380.4623L274.3438 380.4623z" stroke="#0000EE" stroke-width="0.750418" stroke-linecap="square" fill="none" /><path transform="matrix(1 0 0 -1 0 841)" d="M101 360.5958C 101 359.3537 100.0313 358.3468 98.75 358.3468C 97.5 358.3468 96.5 359.3537 96.5 360.5958C 96.5 361.838 97.5 362.8449 98.75 362.8449C 100.0313 362.8449 101 361.838 101 360.5958" stroke="#000000" stroke-width="0.750418" stroke-linecap="square" fill="none" /><path transform="matrix(1 0 0 -1 0 841)" d="M188.8125 355.7229L308.875 355.7229z" stroke="#0000EE" stroke-width="0.750418" stroke-linecap="square" fill="none" /><path transform="matrix(1 0 0 -1 0 841)" d="M101 335.8564C 101 334.6143 100.0313 333.6074 98.75 333.6074C 97.5 333.6074 96.5 334.6143 96.5 335.8564C 96.5 337.0986 97.5 338.1055 98.75 338.1055C 100.0313 338.1055 101 337.0986 101 335.8564" stroke="#000000" stroke-width="0.750418" stroke-linecap="square" fill="none" /><path transform="matrix(1 0 0 -1 0 841)" d="M262.3438 330.9835L516 330.9835z" stroke="#0000EE" stroke-width="0.750418" stroke-linecap="square" fill="none" /><path transform="matrix(1 0 0 -1 0 841)" d="M71 303.6202C 71 302.3781 70 301.3712 68.75 301.3712C 67.46875 301.3712 66.5 302.3781 66.5 303.6202C 66.5 304.8624 67.46875 305.8693 68.75 305.8693C 70 305.8693 71 304.8624 71 303.6202" stroke="#000000" stroke-width="0.750418" fill="#000000" fill-rule="evenodd" /><path transform="matrix(1 0 0 -1 0 841)" d="M101 286.3776C 101 285.1354 100.0313 284.1286 98.75 284.1286C 97.5 284.1286 96.5 285.1354 96.5 286.3776C 96.5 287.6198 97.5 288.6266 98.75 288.6266C 100.0313 288.6266 101 287.6198 101 286.3776" stroke="#000000" stroke-width="0.750418" stroke-linecap="square" fill="none" /><path transform="matrix(1 0 0 -1 0 841)" d="M154.2813 281.5047L252.5938 281.5047z" stroke="#0000EE" stroke-width="0.750418" stroke-linecap="square" fill="none" /><path transform="matrix(1 0 0 -1 0 841)" d="M71 254.1414C 71 252.8992 70 251.8924 68.75 251.8924C 67.46875 251.8924 66.5 252.8992 66.5 254.1414C 66.5 255.3835 67.46875 256.3904 68.75 256.3904C 70 256.3904 71 255.3835 71 254.1414" stroke="#000000" stroke-width="0.750418" fill="#000000" fill-rule="evenodd" /><path transform="matrix(1 0 0 -1 0 841)" d="M101 236.8988C 101 235.6566 100.0313 234.6498 98.75 234.6498C 97.5 234.6498 96.5 235.6566 96.5 236.8988C 96.5 238.1409 97.5 239.1478 98.75 239.1478C 100.0313 239.1478 101 238.1409 101 236.8988" stroke="#000000" stroke-width="0.750418" stroke-linecap="square" fill="none" /><path transform="matrix(1 0 0 -1 0 841)" d="M154.2813 232.0259L206.0625 232.0259z" stroke="#0000EE" stroke-width="0.750418" stroke-linecap="square" fill="none" /></g><g clip-path="url(#4)"></g></g></g></g></svg>