<svg xmlns="http://www.w3.org/2000/svg" xmlns:xlink="http://www.w3.org/1999/xlink" id="body_306" preserveAspectRatio="xMinYMin meet" viewBox="0 0 793 1121"><defs><clipPath id="1"><path d="M0 841L0 -0.8897705L0 -0.8897705L595.2756 -0.8897705L595.2756 -0.8897705L595.2756 841L595.2756 841L0 841z" /></clipPath><clipPath id="2"><path d="M50 -0.8897705L545.2813 -0.8897705L545.2813 -0.8897705L545.2813 840.9998L545.2813 840.9998L50 840.9998L50 840.9998L50 -0.8897705" /></clipPath><clipPath id="3"><path d="M50 48.58905L545.2813 48.58905L545.2813 48.58905L545.2813 791.5209L545.2813 791.5209L50 791.5209L50 791.5209L50 48.58905" /></clipPath><clipPath id="4"><path d="M50 48.58905L545.2813 48.58905L545.2813 48.58905L545.2813 791.5209L545.2813 791.5209L50 791.5209L50 791.5209L50 48.58905" /></clipPath><clipPath id="5"><path d="M50 791.5209L545.2813 791.5209L545.2813 791.5209L545.2813 840.9998L545.2813 840.9998L50 840.9998L50 840.9998L50 791.5209" /></clipPath></defs><g transform="matrix(1.333333 0 0 1.333333 0 0)"><g><g clip-path="url(#1)"><g clip-path="url(#2)"></g><g clip-path="url(#3)"><path transform="matrix(1 0 0 -1 0 841)" d="M50 742.9321L80.75 742.9321L80.75 742.9321L80.75 742.1824L80.75 742.1824L50 742.1824z" stroke="none" fill="#808080" fill-rule="winding" /><path transform="matrix(1 0 0 -1 0 841)" d="M50 689.705L80.75 689.705L80.75 689.705L80.75 688.9553L80.75 688.9553L50 688.9553z" stroke="none" fill="#2C2C2C" fill-rule="winding" /><path transform="matrix(1 0 0 -1 0 841)" d="M50 742.9321L50 688.9553L50 688.9553L50.75 689.705L50.75 689.705L50.75 742.9321z" stroke="#000000" stroke-width="0" fill="#808080" fill-rule="evenodd" /><path transform="matrix(1 0 0 -1 0 841)" d="M80 742.1824L80 688.9553L80 688.9553L80.75 688.9553L80.75 688.9553L80.75 742.9321z" stroke="#000000" stroke-width="0" fill="#2C2C2C" fill-rule="evenodd" /><path transform="matrix(1 0 0 -1 0 841)" d="M52.25 740.6831L68.75 740.6831L68.75 740.6831L68.75 739.9334L68.75 739.9334L52.25 739.9334z" stroke="none" fill="#2C2C2C" fill-rule="winding" /><path transform="matrix(1 0 0 -1 0 841)" d="M52.25 717.4431L68.75 717.4431L68.75 717.4431L68.75 716.6934L68.75 716.6934L52.25 716.6934z" stroke="none" fill="#808080" fill-rule="winding" /><path transform="matrix(1 0 0 -1 0 841)" d="M52.25 740.6831L52.25 716.6934L52.25 716.6934L53 717.4431L53 717.4431L53 740.6831z" stroke="#000000" stroke-width="0" fill="#2C2C2C" fill-rule="evenodd" /><path transform="matrix(1 0 0 -1 0 841)" d="M68 739.9334L68 716.6934L68 716.6934L68.75 716.6934L68.75 716.6934L68.75 740.6831z" stroke="#000000" stroke-width="0" fill="#808080" fill-rule="evenodd" /><path transform="matrix(1 0 0 -1 0 841)" d="M70.25 740.6831L78.5 740.6831L78.5 740.6831L78.5 739.9334L78.5 739.9334L70.25 739.9334z" stroke="none" fill="#2C2C2C" fill-rule="winding" /><path transform="matrix(1 0 0 -1 0 841)" d="M70.25 717.4431L78.5 717.4431L78.5 717.4431L78.5 716.6934L78.5 716.6934L70.25 716.6934z" stroke="none" fill="#808080" fill-rule="winding" /><path transform="matrix(1 0 0 -1 0 841)" d="M70.25 740.6831L70.25 716.6934L70.25 716.6934L71 717.4431L71 717.4431L71 740.6831z" stroke="#000000" stroke-width="0" fill="#2C2C2C" fill-rule="evenodd" /><path transform="matrix(1 0 0 -1 0 841)" d="M77.75 739.9334L77.75 716.6934L77.75 716.6934L78.5 716.6934L78.5 716.6934L78.5 740.6831z" stroke="#000000" stroke-width="0" fill="#808080" fill-rule="evenodd" /><path transform="matrix(1 0 0 -1 0 841)" d="M52.25 715.194L68.75 715.194L68.75 715.194L68.75 714.4443L68.75 714.4443L52.25 714.4443z" stroke="none" fill="#2C2C2C" fill-rule="winding" /><path transform="matrix(1 0 0 -1 0 841)" d="M52.25 691.954L68.75 691.954L68.75 691.954L68.75 691.2043L68.75 691.2043L52.25 691.2043z" stroke="none" fill="#808080" fill-rule="winding" /><path transform="matrix(1 0 0 -1 0 841)" d="M52.25 715.194L52.25 691.2043L52.25 691.2043L53 691.954L53 691.954L53 715.194z" stroke="#000000" stroke-width="0" fill="#2C2C2C" fill-rule="evenodd" /><path transform="matrix(1 0 0 -1 0 841)" d="M68 714.4443L68 691.2043L68 691.2043L68.75 691.2043L68.75 691.2043L68.75 715.194z" stroke="#000000" stroke-width="0" fill="#808080" fill-rule="evenodd" /><path transform="matrix(1 0 0 -1 0 841)" d="M70.25 715.194L78.5 715.194L78.5 715.194L78.5 714.4443L78.5 714.4443L70.25 714.4443z" stroke="none" fill="#2C2C2C" fill-rule="winding" /><path transform="matrix(1 0 0 -1 0 841)" d="M70.25 691.954L78.5 691.954L78.5 691.954L78.5 691.2043L78.5 691.2043L70.25 691.2043z" stroke="none" fill="#808080" fill-rule="winding" /><path transform="matrix(1 0 0 -1 0 841)" d="M70.25 715.194L70.25 691.2043L70.25 691.2043L71 691.954L71 691.954L71 715.194z" stroke="#000000" stroke-width="0" fill="#2C2C2C" fill-rule="evenodd" /><path transform="matrix(1 0 0 -1 0 841)" d="M77.75 714.4443L77.75 691.2043L77.75 691.2043L78.5 691.2043L78.5 691.2043L78.5 715.194z" stroke="#000000" stroke-width="0" fill="#808080" fill-rule="evenodd" /></g><g clip-path="url(#4)"></g><g clip-path="url(#5)"></g></g></g></g></svg>