<svg xmlns="http://www.w3.org/2000/svg" xmlns:xlink="http://www.w3.org/1999/xlink" id="body_337" preserveAspectRatio="xMinYMin meet" viewBox="0 0 793 1121"><defs><clipPath id="1"><path d="M0 841L0 -0.8897705L0 -0.8897705L595.2756 -0.8897705L595.2756 -0.8897705L595.2756 841L595.2756 841L0 841z" /></clipPath><clipPath id="2"><path d="M49.96875 -0.8897705L545.25 -0.8897705L545.25 -0.8897705L545.25 840.9998L545.25 840.9998L49.96875 840.9998L49.96875 840.9998L49.96875 -0.8897705" /></clipPath><clipPath id="3"><path d="M49.96875 48.58905L545.25 48.58905L545.25 48.58905L545.25 791.5209L545.25 791.5209L49.96875 791.5209L49.96875 791.5209L49.96875 48.58905" /></clipPath><clipPath id="4"><path d="M49.96875 791.5209L545.25 791.5209L545.25 791.5209L545.25 840.9998L545.25 840.9998L49.96875 840.9998L49.96875 840.9998L49.96875 791.5209" /></clipPath></defs><g transform="matrix(1.333333 0 0 1.333333 0 0)"><g><g clip-path="url(#1)"><g clip-path="url(#2)"></g><g clip-path="url(#3)"><path transform="matrix(1 0 0 -1 0 841)" d="M101 775.918C 101 774.6759 100.0313 773.6689 98.75 773.6689C 97.5 773.6689 96.5 774.6759 96.5 775.918C 96.5 777.1602 97.5 778.1671 98.75 778.1671C 100.0313 778.1671 101 777.1602 101 775.918" stroke="#000000" stroke-width="0.750418" stroke-linecap="square" fill="none" /><path transform="matrix(1 0 0 -1 0 841)" d="M290.875 771.0451L545.25 771.0451z" stroke="#0000EE" stroke-width="0.750418" stroke-linecap="square" fill="none" /><path transform="matrix(1 0 0 -1 0 841)" d="M110 753.8025L150.5313 753.8025z" stroke="#0000EE" stroke-width="0.750418" stroke-linecap="square" fill="none" /><path transform="matrix(1 0 0 -1 0 841)" d="M158.0313 753.8025L280.3438 753.8025z" stroke="#0000EE" stroke-width="0.750418" stroke-linecap="square" fill="none" /><path transform="matrix(1 0 0 -1 0 841)" d="M71 726.4392C 71 725.197 70 724.1902 68.75 724.1902C 67.46875 724.1902 66.5 725.197 66.5 726.4392C 66.5 727.6813 67.46875 728.6882 68.75 728.6882C 70 728.6882 71 727.6813 71 726.4392" stroke="#000000" stroke-width="0.750418" fill="#000000" fill-rule="evenodd" /><path transform="matrix(1 0 0 -1 0 841)" d="M101 709.1966C 101 707.9545 100.0313 706.9475 98.75 706.9475C 97.5 706.9475 96.5 707.9545 96.5 709.1966C 96.5 710.4387 97.5 711.4456 98.75 711.4456C 100.0313 711.4456 101 710.4387 101 709.1966" stroke="#000000" stroke-width="0.750418" stroke-linecap="square" fill="none" /><path transform="matrix(1 0 0 -1 0 841)" d="M209.8125 704.3237L296.125 704.3237z" stroke="#0000EE" stroke-width="0.750418" stroke-linecap="square" fill="none" /><path transform="matrix(1 0 0 -1 0 841)" d="M101 684.4572C 101 683.215 100.0313 682.2081 98.75 682.2081C 97.5 682.2081 96.5 683.215 96.5 684.4572C 96.5 685.6993 97.5 686.7062 98.75 686.7062C 100.0313 686.7062 101 685.6993 101 684.4572" stroke="#000000" stroke-width="0.750418" stroke-linecap="square" fill="none" /><path transform="matrix(1 0 0 -1 0 841)" d="M215.8125 679.5842L306.625 679.5842z" stroke="#0000EE" stroke-width="0.750418" stroke-linecap="square" fill="none" /><path transform="matrix(1 0 0 -1 0 841)" d="M71 652.2209C 71 650.9788 70 649.9719 68.75 649.9719C 67.46875 649.9719 66.5 650.9788 66.5 652.2209C 66.5 653.4631 67.46875 654.47 68.75 654.47C 70 654.47 71 653.4631 71 652.2209" stroke="#000000" stroke-width="0.750418" fill="#000000" fill-rule="evenodd" /><path transform="matrix(1 0 0 -1 0 841)" d="M101 634.9784C 101 633.7362 100.0313 632.7293 98.75 632.7293C 97.5 632.7293 96.5 633.7362 96.5 634.9784C 96.5 636.2205 97.5 637.2274 98.75 637.2274C 100.0313 637.2274 101 636.2205 101 634.9784" stroke="#000000" stroke-width="0.750418" stroke-linecap="square" fill="none" /><path transform="matrix(1 0 0 -1 0 841)" d="M154.2813 630.1055L249.5938 630.1055z" stroke="#0000EE" stroke-width="0.750418" stroke-linecap="square" fill="none" /><path transform="matrix(1 0 0 -1 0 841)" d="M71 602.7422C 71 601.5 70 600.4931 68.75 600.4931C 67.46875 600.4931 66.5 601.5 66.5 602.7422C 66.5 603.9843 67.46875 604.9912 68.75 604.9912C 70 604.9912 71 603.9843 71 602.7422" stroke="#000000" stroke-width="0.750418" fill="#000000" fill-rule="evenodd" /><path transform="matrix(1 0 0 -1 0 841)" d="M101 585.4995C 101 584.2574 100.0313 583.2505 98.75 583.2505C 97.5 583.2505 96.5 584.2574 96.5 585.4995C 96.5 586.7417 97.5 587.7486 98.75 587.7486C 100.0313 587.7486 101 586.7417 101 585.4995" stroke="#000000" stroke-width="0.750418" stroke-linecap="square" fill="none" /><path transform="matrix(1 0 0 -1 0 841)" d="M154.2813 580.6266L437.9375 580.6266z" stroke="#0000EE" stroke-width="0.750418" stroke-linecap="square" fill="none" /><path transform="matrix(1 0 0 -1 0 841)" d="M71 553.2633C 71 552.0212 70 551.0143 68.75 551.0143C 67.46875 551.0143 66.5 552.0212 66.5 553.2633C 66.5 554.5055 67.46875 555.5124 68.75 555.5124C 70 555.5124 71 554.5055 71 553.2633" stroke="#000000" stroke-width="0.750418" fill="#000000" fill-rule="evenodd" /><path transform="matrix(1 0 0 -1 0 841)" d="M101 536.0208C 101 534.7786 100.0313 533.7717 98.75 533.7717C 97.5 533.7717 96.5 534.7786 96.5 536.0208C 96.5 537.2628 97.5 538.2698 98.75 538.2698C 100.0313 538.2698 101 537.2628 101 536.0208" stroke="#000000" stroke-width="0.750418" stroke-linecap="square" fill="none" /><path transform="matrix(1 0 0 -1 0 841)" d="M154.2813 531.1478L226.3438 531.1478z" stroke="#0000EE" stroke-width="0.750418" stroke-linecap="square" fill="none" /><path transform="matrix(1 0 0 -1 0 841)" d="M71 503.7845C 71 502.5424 70 501.5355 68.75 501.5355C 67.46875 501.5355 66.5 502.5424 66.5 503.7845C 66.5 505.0267 67.46875 506.0336 68.75 506.0336C 70 506.0336 71 505.0267 71 503.7845" stroke="#000000" stroke-width="0.750418" fill="#000000" fill-rule="evenodd" /><path transform="matrix(1 0 0 -1 0 841)" d="M101 486.5419C 101 485.2998 100.0313 484.2929 98.75 484.2929C 97.5 484.2929 96.5 485.2998 96.5 486.5419C 96.5 487.7841 97.5 488.791 98.75 488.791C 100.0313 488.791 101 487.7841 101 486.5419" stroke="#000000" stroke-width="0.750418" stroke-linecap="square" fill="none" /><path transform="matrix(1 0 0 -1 0 841)" d="M261.5938 481.669L545.25 481.669z" stroke="#0000EE" stroke-width="0.750418" stroke-linecap="square" fill="none" /><path transform="matrix(1 0 0 -1 0 841)" d="M110 464.4264L175.3125 464.4264z" stroke="#0000EE" stroke-width="0.750418" stroke-linecap="square" fill="none" /><path transform="matrix(1 0 0 -1 0 841)" d="M182.8125 464.4264L305.125 464.4264z" stroke="#0000EE" stroke-width="0.750418" stroke-linecap="square" fill="none" /></g><g clip-path="url(#4)"></g></g></g></g></svg>