<svg xmlns="http://www.w3.org/2000/svg" xmlns:xlink="http://www.w3.org/1999/xlink" id="body_346" preserveAspectRatio="xMinYMin meet" viewBox="0 0 793 1121"><defs><clipPath id="1"><path d="M0 841L0 -0.8897705L0 -0.8897705L595.2756 -0.8897705L595.2756 -0.8897705L595.2756 841L595.2756 841L0 841z" /></clipPath><clipPath id="2"><path d="M50 -0.8897705L545.2813 -0.8897705L545.2813 -0.8897705L545.2813 840.9998L545.2813 840.9998L50 840.9998L50 840.9998L50 -0.8897705" /></clipPath><clipPath id="3"><path d="M50 48.58905L545.2813 48.58905L545.2813 48.58905L545.2813 791.5209L545.2813 791.5209L50 791.5209L50 791.5209L50 48.58905" /></clipPath><clipPath id="4"><path d="M50 791.5209L545.2813 791.5209L545.2813 791.5209L545.2813 840.9998L545.2813 840.9998L50 840.9998L50 840.9998L50 791.5209" /></clipPath></defs><g transform="matrix(1.333333 0 0 1.333333 0 0)"><g><g clip-path="url(#1)"><g clip-path="url(#2)"></g><g clip-path="url(#3)"><path transform="matrix(1 0 0 -1 0 841)" d="M101.0313 775.918C 101.0313 774.6759 100.0313 773.6689 98.78125 773.6689C 97.5 773.6689 96.53125 774.6759 96.53125 775.918C 96.53125 777.1602 97.5 778.1671 98.78125 778.1671C 100.0313 778.1671 101.0313 777.1602 101.0313 775.918" stroke="#000000" stroke-width="0.750418" stroke-linecap="square" fill="none" /><path transform="matrix(1 0 0 -1 0 841)" d="M209.0938 771.0451L477.7188 771.0451z" stroke="#0000EE" stroke-width="0.750418" stroke-linecap="square" fill="none" /><path transform="matrix(1 0 0 -1 0 841)" d="M101.0313 751.1786C 101.0313 749.9365 100.0313 748.9296 98.78125 748.9296C 97.5 748.9296 96.53125 749.9365 96.53125 751.1786C 96.53125 752.4208 97.5 753.4276 98.78125 753.4276C 100.0313 753.4276 101.0313 752.4208 101.0313 751.1786" stroke="#000000" stroke-width="0.750418" stroke-linecap="square" fill="none" /><path transform="matrix(1 0 0 -1 0 841)" d="M317.1563 746.3057L545.2813 746.3057z" stroke="#0000EE" stroke-width="0.750418" stroke-linecap="square" fill="none" /><path transform="matrix(1 0 0 -1 0 841)" d="M110.0313 729.0631L233.0938 729.0631z" stroke="#0000EE" stroke-width="0.750418" stroke-linecap="square" fill="none" /><path transform="matrix(1 0 0 -1 0 841)" d="M71 701.6998C 71 700.4576 70.03125 699.4507 68.75 699.4507C 67.5 699.4507 66.5 700.4576 66.5 701.6998C 66.5 702.942 67.5 703.9489 68.75 703.9489C 70.03125 703.9489 71 702.942 71 701.6998" stroke="#000000" stroke-width="0.750418" fill="#000000" fill-rule="evenodd" /><path transform="matrix(1 0 0 -1 0 841)" d="M101.0313 684.4572C 101.0313 683.215 100.0313 682.2081 98.78125 682.2081C 97.5 682.2081 96.53125 683.215 96.53125 684.4572C 96.53125 685.6993 97.5 686.7062 98.78125 686.7062C 100.0313 686.7062 101.0313 685.6993 101.0313 684.4572" stroke="#000000" stroke-width="0.750418" stroke-linecap="square" fill="none" /><path transform="matrix(1 0 0 -1 0 841)" d="M154.3125 679.5842L188.8125 679.5842z" stroke="#0000EE" stroke-width="0.750418" stroke-linecap="square" fill="none" /><path transform="matrix(1 0 0 -1 0 841)" d="M196.3125 679.5842L353.9063 679.5842z" stroke="#0000EE" stroke-width="0.750418" stroke-linecap="square" fill="none" /><path transform="matrix(1 0 0 -1 0 841)" d="M101.0313 659.7178C 101.0313 658.4756 100.0313 657.4688 98.78125 657.4688C 97.5 657.4688 96.53125 658.4756 96.53125 659.7178C 96.53125 660.9599 97.5 661.9668 98.78125 661.9668C 100.0313 661.9668 101.0313 660.9599 101.0313 659.7178" stroke="#000000" stroke-width="0.750418" stroke-linecap="square" fill="none" /><path transform="matrix(1 0 0 -1 0 841)" d="M230.0938 654.8448L541.5313 654.8448z" stroke="#0000EE" stroke-width="0.750418" stroke-linecap="square" fill="none" /><path transform="matrix(1 0 0 -1 0 841)" d="M110.0313 637.6022L232.3438 637.6022z" stroke="#0000EE" stroke-width="0.750418" stroke-linecap="square" fill="none" /><path transform="matrix(1 0 0 -1 0 841)" d="M71 610.239C 71 608.9968 70.03125 607.9899 68.75 607.9899C 67.5 607.9899 66.5 608.9968 66.5 610.239C 66.5 611.4811 67.5 612.488 68.75 612.488C 70.03125 612.488 71 611.4811 71 610.239" stroke="#000000" stroke-width="0.750418" fill="#000000" fill-rule="evenodd" /><path transform="matrix(1 0 0 -1 0 841)" d="M101.0313 592.9963C 101.0313 591.7542 100.0313 590.7473 98.78125 590.7473C 97.5 590.7473 96.53125 591.7542 96.53125 592.9963C 96.53125 594.2385 97.5 595.2454 98.78125 595.2454C 100.0313 595.2454 101.0313 594.2385 101.0313 592.9963" stroke="#000000" stroke-width="0.750418" stroke-linecap="square" fill="none" /><path transform="matrix(1 0 0 -1 0 841)" d="M154.3125 588.1234L203.8438 588.1234z" stroke="#0000EE" stroke-width="0.750418" stroke-linecap="square" fill="none" /><path transform="matrix(1 0 0 -1 0 841)" d="M71 560.7601C 71 559.518 70.03125 558.5111 68.75 558.5111C 67.5 558.5111 66.5 559.518 66.5 560.7601C 66.5 562.0023 67.5 563.0092 68.75 563.0092C 70.03125 563.0092 71 562.0023 71 560.7601" stroke="#000000" stroke-width="0.750418" fill="#000000" fill-rule="evenodd" /><path transform="matrix(1 0 0 -1 0 841)" d="M101.0313 543.5175C 101.0313 542.2754 100.0313 541.2685 98.78125 541.2685C 97.5 541.2685 96.53125 542.2754 96.53125 543.5175C 96.53125 544.7596 97.5 545.7665 98.78125 545.7665C 100.0313 545.7665 101.0313 544.7596 101.0313 543.5175" stroke="#000000" stroke-width="0.750418" stroke-linecap="square" fill="none" /><path transform="matrix(1 0 0 -1 0 841)" d="M178.3125 538.6446L457.4688 538.6446z" stroke="#0000EE" stroke-width="0.750418" stroke-linecap="square" fill="none" /><path transform="matrix(1 0 0 -1 0 841)" d="M101.0313 518.7781C 101.0313 517.536 100.0313 516.5291 98.78125 516.5291C 97.5 516.5291 96.53125 517.536 96.53125 518.7781C 96.53125 520.0203 97.5 521.0272 98.78125 521.0272C 100.0313 521.0272 101.0313 520.0203 101.0313 518.7781" stroke="#000000" stroke-width="0.750418" stroke-linecap="square" fill="none" /><path transform="matrix(1 0 0 -1 0 841)" d="M176.8125 513.9052L231.5938 513.9052z" stroke="#0000EE" stroke-width="0.750418" stroke-linecap="square" fill="none" /><path transform="matrix(1 0 0 -1 0 841)" d="M101.0313 494.0387C 101.0313 492.7966 100.0313 491.7897 98.78125 491.7897C 97.5 491.7897 96.53125 492.7966 96.53125 494.0387C 96.53125 495.2808 97.5 496.2878 98.78125 496.2878C 100.0313 496.2878 101.0313 495.2808 101.0313 494.0387" stroke="#000000" stroke-width="0.750418" stroke-linecap="square" fill="none" /><path transform="matrix(1 0 0 -1 0 841)" d="M145.3125 489.1658L168.5625 489.1658z" stroke="#0000EE" stroke-width="0.750418" stroke-linecap="square" fill="none" /><path transform="matrix(1 0 0 -1 0 841)" d="M101.0313 469.2993C 101.0313 468.0572 100.0313 467.0503 98.78125 467.0503C 97.5 467.0503 96.53125 468.0572 96.53125 469.2993C 96.53125 470.5414 97.5 471.5483 98.78125 471.5483C 100.0313 471.5483 101.0313 470.5414 101.0313 469.2993" stroke="#000000" stroke-width="0.750418" stroke-linecap="square" fill="none" /><path transform="matrix(1 0 0 -1 0 841)" d="M173.0625 464.4264L224.0938 464.4264z" stroke="#0000EE" stroke-width="0.750418" stroke-linecap="square" fill="none" /><path transform="matrix(1 0 0 -1 0 841)" d="M101.0313 444.5599C 101.0313 443.3177 100.0313 442.3109 98.78125 442.3109C 97.5 442.3109 96.53125 443.3177 96.53125 444.5599C 96.53125 445.802 97.5 446.8089 98.78125 446.8089C 100.0313 446.8089 101.0313 445.802 101.0313 444.5599" stroke="#000000" stroke-width="0.750418" stroke-linecap="square" fill="none" /><path transform="matrix(1 0 0 -1 0 841)" d="M155.8125 439.687L189.5625 439.687z" stroke="#0000EE" stroke-width="0.750418" stroke-linecap="square" fill="none" /><path transform="matrix(1 0 0 -1 0 841)" d="M101.0313 419.8205C 101.0313 418.5783 100.0313 417.5714 98.78125 417.5714C 97.5 417.5714 96.53125 418.5783 96.53125 419.8205C 96.53125 421.0626 97.5 422.0695 98.78125 422.0695C 100.0313 422.0695 101.0313 421.0626 101.0313 419.8205" stroke="#000000" stroke-width="0.750418" stroke-linecap="square" fill="none" /><path transform="matrix(1 0 0 -1 0 841)" d="M198.5625 414.9476L275.125 414.9476z" stroke="#0000EE" stroke-width="0.750418" stroke-linecap="square" fill="none" /><path transform="matrix(1 0 0 -1 0 841)" d="M101.0313 395.0811C 101.0313 393.8389 100.0313 392.832 98.78125 392.832C 97.5 392.832 96.53125 393.8389 96.53125 395.0811C 96.53125 396.3232 97.5 397.3301 98.78125 397.3301C 100.0313 397.3301 101.0313 396.3232 101.0313 395.0811" stroke="#000000" stroke-width="0.750418" stroke-linecap="square" fill="none" /><path transform="matrix(1 0 0 -1 0 841)" d="M241.3438 390.2082L360.6563 390.2082z" stroke="#0000EE" stroke-width="0.750418" stroke-linecap="square" fill="none" /><path transform="matrix(1 0 0 -1 0 841)" d="M101.0313 370.3417C 101.0313 369.0995 100.0313 368.0926 98.78125 368.0926C 97.5 368.0926 96.53125 369.0995 96.53125 370.3417C 96.53125 371.5838 97.5 372.5907 98.78125 372.5907C 100.0313 372.5907 101.0313 371.5838 101.0313 370.3417" stroke="#000000" stroke-width="0.750418" stroke-linecap="square" fill="none" /><path transform="matrix(1 0 0 -1 0 841)" d="M149.0625 365.4688L176.0625 365.4688z" stroke="#0000EE" stroke-width="0.750418" stroke-linecap="square" fill="none" /><path transform="matrix(1 0 0 -1 0 841)" d="M101.0313 345.6023C 101.0313 344.3601 100.0313 343.3532 98.78125 343.3532C 97.5 343.3532 96.53125 344.3601 96.53125 345.6023C 96.53125 346.8444 97.5 347.8513 98.78125 347.8513C 100.0313 347.8513 101.0313 346.8444 101.0313 345.6023" stroke="#000000" stroke-width="0.750418" stroke-linecap="square" fill="none" /><path transform="matrix(1 0 0 -1 0 841)" d="M151.3125 340.7293L180.5625 340.7293z" stroke="#0000EE" stroke-width="0.750418" stroke-linecap="square" fill="none" /><path transform="matrix(1 0 0 -1 0 841)" d="M101.0313 320.8629C 101.0313 319.6207 100.0313 318.6138 98.78125 318.6138C 97.5 318.6138 96.53125 319.6207 96.53125 320.8629C 96.53125 322.105 97.5 323.1119 98.78125 323.1119C 100.0313 323.1119 101.0313 322.105 101.0313 320.8629" stroke="#000000" stroke-width="0.750418" stroke-linecap="square" fill="none" /><path transform="matrix(1 0 0 -1 0 841)" d="M150.5625 315.9899L179.0625 315.9899z" stroke="#0000EE" stroke-width="0.750418" stroke-linecap="square" fill="none" /><path transform="matrix(1 0 0 -1 0 841)" d="M101.0313 296.1234C 101.0313 294.8813 100.0313 293.8744 98.78125 293.8744C 97.5 293.8744 96.53125 294.8813 96.53125 296.1234C 96.53125 297.3656 97.5 298.3725 98.78125 298.3725C 100.0313 298.3725 101.0313 297.3656 101.0313 296.1234" stroke="#000000" stroke-width="0.750418" stroke-linecap="square" fill="none" /><path transform="matrix(1 0 0 -1 0 841)" d="M152.0625 291.2505L182.0625 291.2505z" stroke="#0000EE" stroke-width="0.750418" stroke-linecap="square" fill="none" /><path transform="matrix(1 0 0 -1 0 841)" d="M71 263.8873C 71 262.6451 70.03125 261.6382 68.75 261.6382C 67.5 261.6382 66.5 262.6451 66.5 263.8873C 66.5 265.1294 67.5 266.1363 68.75 266.1363C 70.03125 266.1363 71 265.1294 71 263.8873" stroke="#000000" stroke-width="0.750418" fill="#000000" fill-rule="evenodd" /><path transform="matrix(1 0 0 -1 0 841)" d="M101.0313 246.6446C 101.0313 245.4025 100.0313 244.3956 98.78125 244.3956C 97.5 244.3956 96.53125 245.4025 96.53125 246.6446C 96.53125 247.8868 97.5 248.8937 98.78125 248.8937C 100.0313 248.8937 101.0313 247.8868 101.0313 246.6446" stroke="#000000" stroke-width="0.750418" stroke-linecap="square" fill="none" /><path transform="matrix(1 0 0 -1 0 841)" d="M152.8125 241.7717L284.125 241.7717z" stroke="#0000EE" stroke-width="0.750418" stroke-linecap="square" fill="none" /><path transform="matrix(1 0 0 -1 0 841)" d="M291.625 241.7717L413.9375 241.7717z" stroke="#0000EE" stroke-width="0.750418" stroke-linecap="square" fill="none" /><path transform="matrix(1 0 0 -1 0 841)" d="M101.0313 221.9052C 101.0313 220.663 100.0313 219.6562 98.78125 219.6562C 97.5 219.6562 96.53125 220.663 96.53125 221.9052C 96.53125 223.1474 97.5 224.1542 98.78125 224.1542C 100.0313 224.1542 101.0313 223.1474 101.0313 221.9052" stroke="#000000" stroke-width="0.750418" stroke-linecap="square" fill="none" /><path transform="matrix(1 0 0 -1 0 841)" d="M293.125 217.0323L545.2813 217.0323z" stroke="#0000EE" stroke-width="0.750418" stroke-linecap="square" fill="none" /><path transform="matrix(1 0 0 -1 0 841)" d="M110.0313 199.7897L147.5625 199.7897z" stroke="#0000EE" stroke-width="0.750418" stroke-linecap="square" fill="none" /><path transform="matrix(1 0 0 -1 0 841)" d="M71 172.4264C 71 171.1843 70.03125 170.1774 68.75 170.1774C 67.5 170.1774 66.5 171.1843 66.5 172.4264C 66.5 173.6686 67.5 174.6754 68.75 174.6754C 70.03125 174.6754 71 173.6686 71 172.4264" stroke="#000000" stroke-width="0.750418" fill="#000000" fill-rule="evenodd" /><path transform="matrix(1 0 0 -1 0 841)" d="M299.875 167.5535L401.9375 167.5535z" stroke="#0000EE" stroke-width="0.750418" stroke-linecap="square" fill="none" /><path transform="matrix(1 0 0 -1 0 841)" d="M71 147.687C 71 146.4448 70.03125 145.4379 68.75 145.4379C 67.5 145.4379 66.5 146.4448 66.5 147.687C 66.5 148.9291 67.5 149.936 68.75 149.936C 70.03125 149.936 71 148.9291 71 147.687" stroke="#000000" stroke-width="0.750418" fill="#000000" fill-rule="evenodd" /><path transform="matrix(1 0 0 -1 0 841)" d="M101.0313 130.4444C 101.0313 129.2022 100.0313 128.1953 98.78125 128.1953C 97.5 128.1953 96.53125 129.2022 96.53125 130.4444C 96.53125 131.6865 97.5 132.6934 98.78125 132.6934C 100.0313 132.6934 101.0313 131.6865 101.0313 130.4444" stroke="#000000" stroke-width="0.750418" stroke-linecap="square" fill="none" /><path transform="matrix(1 0 0 -1 0 841)" d="M154.3125 125.5715L408.6875 125.5715z" stroke="#0000EE" stroke-width="0.750418" stroke-linecap="square" fill="none" /><path transform="matrix(1 0 0 -1 0 841)" d="M101.0313 105.705C 101.0313 104.4628 100.0313 103.4559 98.78125 103.4559C 97.5 103.4559 96.53125 104.4628 96.53125 105.705C 96.53125 106.9471 97.5 107.954 98.78125 107.954C 100.0313 107.954 101.0313 106.9471 101.0313 105.705" stroke="#000000" stroke-width="0.750418" stroke-linecap="square" fill="none" /><path transform="matrix(1 0 0 -1 0 841)" d="M177.5625 100.832L413.9375 100.832z" stroke="#0000EE" stroke-width="0.750418" stroke-linecap="square" fill="none" /><path transform="matrix(1 0 0 -1 0 841)" d="M71 73.46875C 71 72.22656 70.03125 71.21973 68.75 71.21973C 67.5 71.21973 66.5 72.22656 66.5 73.46875C 66.5 74.711 67.5 75.71777 68.75 75.71777C 70.03125 75.71777 71 74.711 71 73.46875" stroke="#000000" stroke-width="0.750418" fill="#000000" fill-rule="evenodd" /></g><g clip-path="url(#4)"></g></g></g></g></svg>