<svg xmlns="http://www.w3.org/2000/svg" xmlns:xlink="http://www.w3.org/1999/xlink" id="body_316" preserveAspectRatio="xMinYMin meet" viewBox="0 0 793 1121"><defs><clipPath id="1"><path d="M0 841L0 -0.8897705L0 -0.8897705L595.2756 -0.8897705L595.2756 -0.8897705L595.2756 841L595.2756 841L0 841z" /></clipPath><clipPath id="2"><path d="M50 -0.8897705L545.2813 -0.8897705L545.2813 -0.8897705L545.2813 840.9998L545.2813 840.9998L50 840.9998L50 840.9998L50 -0.8897705" /></clipPath><clipPath id="3"><path d="M50 48.58905L545.2813 48.58905L545.2813 48.58905L545.2813 791.5209L545.2813 791.5209L50 791.5209L50 791.5209L50 48.58905" /></clipPath><clipPath id="4"><path d="M50 791.5209L545.2813 791.5209L545.2813 791.5209L545.2813 840.9998L545.2813 840.9998L50 840.9998L50 840.9998L50 791.5209" /></clipPath></defs><g transform="matrix(1.333333 0 0 1.333333 0 0)"><g><g clip-path="url(#1)"><g clip-path="url(#2)"></g><g clip-path="url(#3)"><path transform="matrix(1 0 0 -1 0 841)" d="M71 718.9424C 71 717.7003 70.03125 716.6934 68.75 716.6934C 67.5 716.6934 66.5 717.7003 66.5 718.9424C 66.5 720.1846 67.5 721.1915 68.75 721.1915C 70.03125 721.1915 71 720.1846 71 718.9424" stroke="#000000" stroke-width="0.750418" fill="#000000" fill-rule="evenodd" /><path transform="matrix(1 0 0 -1 0 841)" d="M101.0313 701.6998C 101.0313 700.4576 100.0313 699.4507 98.78125 699.4507C 97.5 699.4507 96.53125 700.4576 96.53125 701.6998C 96.53125 702.942 97.5 703.9489 98.78125 703.9489C 100.0313 703.9489 101.0313 702.942 101.0313 701.6998" stroke="#000000" stroke-width="0.750418" stroke-linecap="square" fill="none" /><path transform="matrix(1 0 0 -1 0 841)" d="M154.3125 696.8269L293.125 696.8269z" stroke="#0000EE" stroke-width="0.750418" stroke-linecap="square" fill="none" /><path transform="matrix(1 0 0 -1 0 841)" d="M71 669.4636C 71 668.2214 70.03125 667.2145 68.75 667.2145C 67.5 667.2145 66.5 668.2214 66.5 669.4636C 66.5 670.7057 67.5 671.7126 68.75 671.7126C 70.03125 671.7126 71 670.7057 71 669.4636" stroke="#000000" stroke-width="0.750418" fill="#000000" fill-rule="evenodd" /><path transform="matrix(1 0 0 -1 0 841)" d="M101.0313 652.2209C 101.0313 650.9788 100.0313 649.9719 98.78125 649.9719C 97.5 649.9719 96.53125 650.9788 96.53125 652.2209C 96.53125 653.4631 97.5 654.47 98.78125 654.47C 100.0313 654.47 101.0313 653.4631 101.0313 652.2209" stroke="#000000" stroke-width="0.750418" stroke-linecap="square" fill="none" /><path transform="matrix(1 0 0 -1 0 841)" d="M154.3125 647.3481L355.4063 647.3481z" stroke="#0000EE" stroke-width="0.750418" stroke-linecap="square" fill="none" /><path transform="matrix(1 0 0 -1 0 841)" d="M71 619.9847C 71 618.7427 70.03125 617.7357 68.75 617.7357C 67.5 617.7357 66.5 618.7427 66.5 619.9847C 66.5 621.2269 67.5 622.2338 68.75 622.2338C 70.03125 622.2338 71 621.2269 71 619.9847" stroke="#000000" stroke-width="0.750418" fill="#000000" fill-rule="evenodd" /><path transform="matrix(1 0 0 -1 0 841)" d="M101.0313 602.7422C 101.0313 601.5 100.0313 600.4931 98.78125 600.4931C 97.5 600.4931 96.53125 601.5 96.53125 602.7422C 96.53125 603.9843 97.5 604.9912 98.78125 604.9912C 100.0313 604.9912 101.0313 603.9843 101.0313 602.7422" stroke="#000000" stroke-width="0.750418" stroke-linecap="square" fill="none" /><path transform="matrix(1 0 0 -1 0 841)" d="M154.3125 597.8693L287.875 597.8693z" stroke="#0000EE" stroke-width="0.750418" stroke-linecap="square" fill="none" /><path transform="matrix(1 0 0 -1 0 841)" d="M101.0313 578.0027C 101.0313 576.7606 100.0313 575.7537 98.78125 575.7537C 97.5 575.7537 96.53125 576.7606 96.53125 578.0027C 96.53125 579.2449 97.5 580.2518 98.78125 580.2518C 100.0313 580.2518 101.0313 579.2449 101.0313 578.0027" stroke="#000000" stroke-width="0.750418" stroke-linecap="square" fill="none" /><path transform="matrix(1 0 0 -1 0 841)" d="M177.5625 573.1299L311.1563 573.1299z" stroke="#0000EE" stroke-width="0.750418" stroke-linecap="square" fill="none" /><path transform="matrix(1 0 0 -1 0 841)" d="M71 545.7665C 71 544.5244 70.03125 543.5175 68.75 543.5175C 67.5 543.5175 66.5 544.5244 66.5 545.7665C 66.5 547.0087 67.5 548.0156 68.75 548.0156C 70.03125 548.0156 71 547.0087 71 545.7665" stroke="#000000" stroke-width="0.750418" fill="#000000" fill-rule="evenodd" /><path transform="matrix(1 0 0 -1 0 841)" d="M101.0313 528.5239C 101.0313 527.2818 100.0313 526.2749 98.78125 526.2749C 97.5 526.2749 96.53125 527.2818 96.53125 528.5239C 96.53125 529.7661 97.5 530.7729 98.78125 530.7729C 100.0313 530.7729 101.0313 529.7661 101.0313 528.5239" stroke="#000000" stroke-width="0.750418" stroke-linecap="square" fill="none" /><path transform="matrix(1 0 0 -1 0 841)" d="M154.3125 523.651L277.375 523.651z" stroke="#0000EE" stroke-width="0.750418" stroke-linecap="square" fill="none" /><path transform="matrix(1 0 0 -1 0 841)" d="M71 496.2878C 71 495.0456 70.03125 494.0387 68.75 494.0387C 67.5 494.0387 66.5 495.0456 66.5 496.2878C 66.5 497.5299 67.5 498.5368 68.75 498.5368C 70.03125 498.5368 71 497.5299 71 496.2878" stroke="#000000" stroke-width="0.750418" fill="#000000" fill-rule="evenodd" /><path transform="matrix(1 0 0 -1 0 841)" d="M101.0313 479.0451C 101.0313 477.803 100.0313 476.7961 98.78125 476.7961C 97.5 476.7961 96.53125 477.803 96.53125 479.0451C 96.53125 480.2873 97.5 481.2942 98.78125 481.2942C 100.0313 481.2942 101.0313 480.2873 101.0313 479.0451" stroke="#000000" stroke-width="0.750418" stroke-linecap="square" fill="none" /><path transform="matrix(1 0 0 -1 0 841)" d="M154.3125 474.1722L214.3438 474.1722z" stroke="#0000EE" stroke-width="0.750418" stroke-linecap="square" fill="none" /><path transform="matrix(1 0 0 -1 0 841)" d="M101.0313 454.3057C 101.0313 453.0636 100.0313 452.0567 98.78125 452.0567C 97.5 452.0567 96.53125 453.0636 96.53125 454.3057C 96.53125 455.5479 97.5 456.5547 98.78125 456.5547C 100.0313 456.5547 101.0313 455.5479 101.0313 454.3057" stroke="#000000" stroke-width="0.750418" stroke-linecap="square" fill="none" /><path transform="matrix(1 0 0 -1 0 841)" d="M165.5625 449.4328L379.4375 449.4328z" stroke="#0000EE" stroke-width="0.750418" stroke-linecap="square" fill="none" /><path transform="matrix(1 0 0 -1 0 841)" d="M71 422.0695C 71 420.8274 70.03125 419.8205 68.75 419.8205C 67.5 419.8205 66.5 420.8274 66.5 422.0695C 66.5 423.3117 67.5 424.3185 68.75 424.3185C 70.03125 424.3185 71 423.3117 71 422.0695" stroke="#000000" stroke-width="0.750418" fill="#000000" fill-rule="evenodd" /><path transform="matrix(1 0 0 -1 0 841)" d="M101.0313 404.8269C 101.0313 403.5847 100.0313 402.5779 98.78125 402.5779C 97.5 402.5779 96.53125 403.5847 96.53125 404.8269C 96.53125 406.0691 97.5 407.0759 98.78125 407.0759C 100.0313 407.0759 101.0313 406.0691 101.0313 404.8269" stroke="#000000" stroke-width="0.750418" stroke-linecap="square" fill="none" /><path transform="matrix(1 0 0 -1 0 841)" d="M194.8438 399.954L389.1875 399.954z" stroke="#0000EE" stroke-width="0.750418" stroke-linecap="square" fill="none" /><path transform="matrix(1 0 0 -1 0 841)" d="M71 372.5907C 71 371.3485 70.03125 370.3417 68.75 370.3417C 67.5 370.3417 66.5 371.3485 66.5 372.5907C 66.5 373.8329 67.5 374.8397 68.75 374.8397C 70.03125 374.8397 71 373.8329 71 372.5907" stroke="#000000" stroke-width="0.750418" fill="#000000" fill-rule="evenodd" /><path transform="matrix(1 0 0 -1 0 841)" d="M101.0313 355.3481C 101.0313 354.1059 100.0313 353.099 98.78125 353.099C 97.5 353.099 96.53125 354.1059 96.53125 355.3481C 96.53125 356.5902 97.5 357.5971 98.78125 357.5971C 100.0313 357.5971 101.0313 356.5902 101.0313 355.3481" stroke="#000000" stroke-width="0.750418" stroke-linecap="square" fill="none" /><path transform="matrix(1 0 0 -1 0 841)" d="M285.625 350.4752L545.2813 350.4752z" stroke="#0000EE" stroke-width="0.750418" stroke-linecap="square" fill="none" /><path transform="matrix(1 0 0 -1 0 841)" d="M110.0313 333.2325L181.3125 333.2325z" stroke="#0000EE" stroke-width="0.750418" stroke-linecap="square" fill="none" /><path transform="matrix(1 0 0 -1 0 841)" d="M71 305.8693C 71 304.6271 70.03125 303.6202 68.75 303.6202C 67.5 303.6202 66.5 304.6271 66.5 305.8693C 66.5 307.1115 67.5 308.1183 68.75 308.1183C 70.03125 308.1183 71 307.1115 71 305.8693" stroke="#000000" stroke-width="0.750418" fill="#000000" fill-rule="evenodd" /><path transform="matrix(1 0 0 -1 0 841)" d="M101.0313 288.6266C 101.0313 287.3845 100.0313 286.3776 98.78125 286.3776C 97.5 286.3776 96.53125 287.3845 96.53125 288.6266C 96.53125 289.8688 97.5 290.8757 98.78125 290.8757C 100.0313 290.8757 101.0313 289.8688 101.0313 288.6266" stroke="#000000" stroke-width="0.750418" stroke-linecap="square" fill="none" /><path transform="matrix(1 0 0 -1 0 841)" d="M154.3125 283.7537L205.3438 283.7537z" stroke="#0000EE" stroke-width="0.750418" stroke-linecap="square" fill="none" /><path transform="matrix(1 0 0 -1 0 841)" d="M71 256.3904C 71 255.1483 70.03125 254.1414 68.75 254.1414C 67.5 254.1414 66.5 255.1483 66.5 256.3904C 66.5 257.6326 67.5 258.6395 68.75 258.6395C 70.03125 258.6395 71 257.6326 71 256.3904" stroke="#000000" stroke-width="0.750418" fill="#000000" fill-rule="evenodd" /><path transform="matrix(1 0 0 -1 0 841)" d="M156.5625 251.5175L395.1875 251.5175z" stroke="#0000EE" stroke-width="0.750418" stroke-linecap="square" fill="none" /><path transform="matrix(1 0 0 -1 0 841)" d="M101.0313 239.1478C 101.0313 237.9057 100.0313 236.8988 98.78125 236.8988C 97.5 236.8988 96.53125 237.9057 96.53125 239.1478C 96.53125 240.39 97.5 241.3969 98.78125 241.3969C 100.0313 241.3969 101.0313 240.39 101.0313 239.1478" stroke="#000000" stroke-width="0.750418" stroke-linecap="square" fill="none" /><path transform="matrix(1 0 0 -1 0 841)" d="M154.3125 234.2749L239.8438 234.2749z" stroke="#0000EE" stroke-width="0.750418" stroke-linecap="square" fill="none" /><path transform="matrix(1 0 0 -1 0 841)" d="M247.375 234.2749L386.1875 234.2749z" stroke="#0000EE" stroke-width="0.750418" stroke-linecap="square" fill="none" /><path transform="matrix(1 0 0 -1 0 841)" d="M101.0313 214.4084C 101.0313 213.1663 100.0313 212.1594 98.78125 212.1594C 97.5 212.1594 96.53125 213.1663 96.53125 214.4084C 96.53125 215.6506 97.5 216.6575 98.78125 216.6575C 100.0313 216.6575 101.0313 215.6506 101.0313 214.4084" stroke="#000000" stroke-width="0.750418" stroke-linecap="square" fill="none" /><path transform="matrix(1 0 0 -1 0 841)" d="M149.8125 209.5355L272.875 209.5355z" stroke="#0000EE" stroke-width="0.750418" stroke-linecap="square" fill="none" /><path transform="matrix(1 0 0 -1 0 841)" d="M280.375 209.5355L352.4063 209.5355z" stroke="#0000EE" stroke-width="0.750418" stroke-linecap="square" fill="none" /><path transform="matrix(1 0 0 -1 0 841)" d="M101.0313 189.669C 101.0313 188.4269 100.0313 187.42 98.78125 187.42C 97.5 187.42 96.53125 188.4269 96.53125 189.669C 96.53125 190.9112 97.5 191.918 98.78125 191.918C 100.0313 191.918 101.0313 190.9112 101.0313 189.669" stroke="#000000" stroke-width="0.750418" stroke-linecap="square" fill="none" /><path transform="matrix(1 0 0 -1 0 841)" d="M235.3438 184.7961L358.4063 184.7961z" stroke="#0000EE" stroke-width="0.750418" stroke-linecap="square" fill="none" /><path transform="matrix(1 0 0 -1 0 841)" d="M101.0313 164.9296C 101.0313 163.6874 100.0313 162.6805 98.78125 162.6805C 97.5 162.6805 96.53125 163.6874 96.53125 164.9296C 96.53125 166.1718 97.5 167.1786 98.78125 167.1786C 100.0313 167.1786 101.0313 166.1718 101.0313 164.9296" stroke="#000000" stroke-width="0.750418" stroke-linecap="square" fill="none" /><path transform="matrix(1 0 0 -1 0 841)" d="M267.625 160.0567L545.2813 160.0567z" stroke="#0000EE" stroke-width="0.750418" stroke-linecap="square" fill="none" /><path transform="matrix(1 0 0 -1 0 841)" d="M110.0313 142.8141L154.3125 142.8141z" stroke="#0000EE" stroke-width="0.750418" stroke-linecap="square" fill="none" /><path transform="matrix(1 0 0 -1 0 841)" d="M101.0313 122.9476C 101.0313 121.7054 100.0313 120.6985 98.78125 120.6985C 97.5 120.6985 96.53125 121.7054 96.53125 122.9476C 96.53125 124.1898 97.5 125.1966 98.78125 125.1966C 100.0313 125.1966 101.0313 124.1898 101.0313 122.9476" stroke="#000000" stroke-width="0.750418" stroke-linecap="square" fill="none" /><path transform="matrix(1 0 0 -1 0 841)" d="M290.875 118.0746L455.9688 118.0746z" stroke="#0000EE" stroke-width="0.750418" stroke-linecap="square" fill="none" /><path transform="matrix(1 0 0 -1 0 841)" d="M101.0313 98.20819C 101.0313 96.966 100.0313 95.95911 98.78125 95.95911C 97.5 95.95911 96.53125 96.966 96.53125 98.20819C 96.53125 99.45032 97.5 100.4572 98.78125 100.4572C 100.0313 100.4572 101.0313 99.45032 101.0313 98.20819" stroke="#000000" stroke-width="0.750418" stroke-linecap="square" fill="none" /><path transform="matrix(1 0 0 -1 0 841)" d="M188.0625 93.33527L440.2188 93.33527z" stroke="#0000EE" stroke-width="0.750418" stroke-linecap="square" fill="none" /><path transform="matrix(1 0 0 -1 0 841)" d="M101.0313 73.46875C 101.0313 72.22656 100.0313 71.21973 98.78125 71.21973C 97.5 71.21973 96.53125 72.22656 96.53125 73.46875C 96.53125 74.711 97.5 75.71777 98.78125 75.71777C 100.0313 75.71777 101.0313 74.711 101.0313 73.46875" stroke="#000000" stroke-width="0.750418" stroke-linecap="square" fill="none" /><path transform="matrix(1 0 0 -1 0 841)" d="M205.3438 68.59583L323.9063 68.59583z" stroke="#0000EE" stroke-width="0.750418" stroke-linecap="square" fill="none" /></g><g clip-path="url(#4)"></g></g></g></g></svg>