<svg xmlns="http://www.w3.org/2000/svg" xmlns:xlink="http://www.w3.org/1999/xlink" id="body_56" preserveAspectRatio="xMinYMin meet" viewBox="0 0 793 1121"><defs><clipPath id="1"><path d="M0 841L0 -0.8897705L0 -0.8897705L595.2756 -0.8897705L595.2756 -0.8897705L595.2756 841L595.2756 841L0 841z" /></clipPath><clipPath id="2"><path d="M49.99609 -0.8897705L545.2734 -0.8897705L545.2734 -0.8897705L545.2734 840.9998L545.2734 840.9998L49.99609 840.9998L49.99609 840.9998L49.99609 -0.8897705" /></clipPath><clipPath id="3"><path d="M49.99609 48.58905L545.2734 48.58905L545.2734 48.58905L545.2734 791.5209L545.2734 791.5209L49.99609 791.5209L49.99609 791.5209L49.99609 48.58905" /></clipPath><clipPath id="4"><path d="M49.99609 791.5209L545.2734 791.5209L545.2734 791.5209L545.2734 840.9998L545.2734 840.9998L49.99609 840.9998L49.99609 840.9998L49.99609 791.5209" /></clipPath></defs><g transform="matrix(1.333333 0 0 1.333333 0 0)"><g><g clip-path="url(#1)"><g clip-path="url(#2)"></g><g clip-path="url(#3)"><path transform="matrix(1 0 0 -1 0 841)" d="M233.1016 440.4366L305.8906 440.4366z" stroke="#0000EE" stroke-width="0.750418" stroke-linecap="square" fill="none" /><path transform="matrix(1 0 0 -1 0 841)" d="M150.5547 423.194L215.8398 423.194z" stroke="#0000EE" stroke-width="0.750418" stroke-linecap="square" fill="none" /><path transform="matrix(1 0 0 -1 0 841)" d="M71.00781 363.5945C 71.00781 362.3524 70.00391 361.3455 68.75781 361.3455C 67.51172 361.3455 66.50781 362.3524 66.50781 363.5945C 66.50781 364.8367 67.51172 365.8436 68.75781 365.8436C 70.00391 365.8436 71.00781 364.8367 71.00781 363.5945" stroke="#000000" stroke-width="0.750418" fill="#000000" fill-rule="evenodd" /><path transform="matrix(1 0 0 -1 0 841)" d="M71.00781 338.8551C 71.00781 337.613 70.00391 336.6061 68.75781 336.6061C 67.51172 336.6061 66.50781 337.613 66.50781 338.8551C 66.50781 340.0973 67.51172 341.1042 68.75781 341.1042C 70.00391 341.1042 71.00781 340.0973 71.00781 338.8551" stroke="#000000" stroke-width="0.750418" fill="#000000" fill-rule="evenodd" /><path transform="matrix(1 0 0 -1 0 841)" d="M71.00781 314.1157C 71.00781 312.8736 70.00391 311.8667 68.75781 311.8667C 67.51172 311.8667 66.50781 312.8736 66.50781 314.1157C 66.50781 315.3579 67.51172 316.3647 68.75781 316.3647C 70.00391 316.3647 71.00781 315.3579 71.00781 314.1157" stroke="#000000" stroke-width="0.750418" fill="#000000" fill-rule="evenodd" /><path transform="matrix(1 0 0 -1 0 841)" d="M71.00781 289.3763C 71.00781 288.1342 70.00391 287.1273 68.75781 287.1273C 67.51172 287.1273 66.50781 288.1342 66.50781 289.3763C 66.50781 290.6185 67.51172 291.6254 68.75781 291.6254C 70.00391 291.6254 71.00781 290.6185 71.00781 289.3763" stroke="#000000" stroke-width="0.750418" fill="#000000" fill-rule="evenodd" /><path transform="matrix(1 0 0 -1 0 841)" d="M71.00781 264.6369C 71.00781 263.3948 70.00391 262.3879 68.75781 262.3879C 67.51172 262.3879 66.50781 263.3948 66.50781 264.6369C 66.50781 265.8791 67.51172 266.8859 68.75781 266.8859C 70.00391 266.8859 71.00781 265.8791 71.00781 264.6369" stroke="#000000" stroke-width="0.750418" fill="#000000" fill-rule="evenodd" /><path transform="matrix(1 0 0 -1 0 841)" d="M71.00781 239.8975C 71.00781 238.6553 70.00391 237.6485 68.75781 237.6485C 67.51172 237.6485 66.50781 238.6553 66.50781 239.8975C 66.50781 241.1396 67.51172 242.1465 68.75781 242.1465C 70.00391 242.1465 71.00781 241.1396 71.00781 239.8975" stroke="#000000" stroke-width="0.750418" fill="#000000" fill-rule="evenodd" /></g><g clip-path="url(#4)"></g></g></g></g></svg>