<svg xmlns="http://www.w3.org/2000/svg" xmlns:xlink="http://www.w3.org/1999/xlink" id="body_211" preserveAspectRatio="xMinYMin meet" viewBox="0 0 793 1121"><defs><clipPath id="1"><path d="M0 841L0 -0.8897705L0 -0.8897705L595.2756 -0.8897705L595.2756 -0.8897705L595.2756 841L595.2756 841L0 841z" /></clipPath><clipPath id="2"><path d="M50 -0.8897705L545.2813 -0.8897705L545.2813 -0.8897705L545.2813 840.9998L545.2813 840.9998L50 840.9998L50 840.9998L50 -0.8897705" /></clipPath><clipPath id="3"><path d="M50 48.58905L545.2813 48.58905L545.2813 48.58905L545.2813 791.5209L545.2813 791.5209L50 791.5209L50 791.5209L50 48.58905" /></clipPath><clipPath id="4"><path d="M50 791.5209L545.2813 791.5209L545.2813 791.5209L545.2813 840.9998L545.2813 840.9998L50 840.9998L50 840.9998L50 791.5209" /></clipPath></defs><g transform="matrix(1.333333 0 0 1.333333 0 0)"><g><g clip-path="url(#1)"><g clip-path="url(#2)"></g><g clip-path="url(#3)"><path transform="matrix(1 0 0 -1 0 841)" d="M55.25 698.3262L198.5781 698.3262z" stroke="#0000EE" stroke-width="0.750418" stroke-linecap="square" fill="none" /><path transform="matrix(1 0 0 -1 0 841)" d="M71.01563 576.5034C 71.01563 575.2612 70.03125 574.2544 68.76563 574.2544C 67.48438 574.2544 66.51563 575.2612 66.51563 576.5034C 66.51563 577.7455 67.48438 578.7524 68.76563 578.7524C 70.03125 578.7524 71.01563 577.7455 71.01563 576.5034" stroke="#000000" stroke-width="0.750418" fill="#000000" fill-rule="evenodd" /><path transform="matrix(1 0 0 -1 0 841)" d="M71.01563 551.0143C 71.01563 549.7722 70.03125 548.7653 68.76563 548.7653C 67.48438 548.7653 66.51563 549.7722 66.51563 551.0143C 66.51563 552.2565 67.48438 553.2633 68.76563 553.2633C 70.03125 553.2633 71.01563 552.2565 71.01563 551.0143" stroke="#000000" stroke-width="0.750418" fill="#000000" fill-rule="evenodd" /><path transform="matrix(1 0 0 -1 0 841)" d="M71.01563 525.5252C 71.01563 524.2831 70.03125 523.2762 68.76563 523.2762C 67.48438 523.2762 66.51563 524.2831 66.51563 525.5252C 66.51563 526.7673 67.48438 527.7743 68.76563 527.7743C 70.03125 527.7743 71.01563 526.7673 71.01563 525.5252" stroke="#000000" stroke-width="0.750418" fill="#000000" fill-rule="evenodd" /><path transform="matrix(1 0 0 -1 0 841)" d="M71.01563 500.0361C 71.01563 498.794 70.03125 497.7871 68.76563 497.7871C 67.48438 497.7871 66.51563 498.794 66.51563 500.0361C 66.51563 501.2783 67.48438 502.2852 68.76563 502.2852C 70.03125 502.2852 71.01563 501.2783 71.01563 500.0361" stroke="#000000" stroke-width="0.750418" fill="#000000" fill-rule="evenodd" /></g><g clip-path="url(#4)"></g></g></g></g></svg>