<svg xmlns="http://www.w3.org/2000/svg" xmlns:xlink="http://www.w3.org/1999/xlink" id="body_322" preserveAspectRatio="xMinYMin meet" viewBox="0 0 793 1121"><defs><clipPath id="1"><path d="M0 841L0 -0.8897705L0 -0.8897705L595.2756 -0.8897705L595.2756 -0.8897705L595.2756 841L595.2756 841L0 841z" /></clipPath><clipPath id="2"><path d="M50 -0.8897705L545.2813 -0.8897705L545.2813 -0.8897705L545.2813 840.9998L545.2813 840.9998L50 840.9998L50 840.9998L50 -0.8897705" /></clipPath><clipPath id="3"><path d="M50 48.58905L545.2813 48.58905L545.2813 48.58905L545.2813 791.5209L545.2813 791.5209L50 791.5209L50 791.5209L50 48.58905" /></clipPath><clipPath id="4"><path d="M50 791.5209L545.2813 791.5209L545.2813 791.5209L545.2813 840.9998L545.2813 840.9998L50 840.9998L50 840.9998L50 791.5209" /></clipPath></defs><g transform="matrix(1.333333 0 0 1.333333 0 0)"><g><g clip-path="url(#1)"><g clip-path="url(#2)"></g><g clip-path="url(#3)"><path transform="matrix(1 0 0 -1 0 841)" d="M71 718.9424C 71 717.7003 70.03125 716.6934 68.75 716.6934C 67.5 716.6934 66.5 717.7003 66.5 718.9424C 66.5 720.1846 67.5 721.1915 68.75 721.1915C 70.03125 721.1915 71 720.1846 71 718.9424" stroke="#000000" stroke-width="0.750418" fill="#000000" fill-rule="evenodd" /><path transform="matrix(1 0 0 -1 0 841)" d="M101.0313 701.6998C 101.0313 700.4576 100.0313 699.4507 98.78125 699.4507C 97.5 699.4507 96.53125 700.4576 96.53125 701.6998C 96.53125 702.942 97.5 703.9489 98.78125 703.9489C 100.0313 703.9489 101.0313 702.942 101.0313 701.6998" stroke="#000000" stroke-width="0.750418" stroke-linecap="square" fill="none" /><path transform="matrix(1 0 0 -1 0 841)" d="M154.3125 696.8269L216.5938 696.8269z" stroke="#0000EE" stroke-width="0.750418" stroke-linecap="square" fill="none" /><path transform="matrix(1 0 0 -1 0 841)" d="M71 669.4636C 71 668.2214 70.03125 667.2145 68.75 667.2145C 67.5 667.2145 66.5 668.2214 66.5 669.4636C 66.5 670.7057 67.5 671.7126 68.75 671.7126C 70.03125 671.7126 71 670.7057 71 669.4636" stroke="#000000" stroke-width="0.750418" fill="#000000" fill-rule="evenodd" /><path transform="matrix(1 0 0 -1 0 841)" d="M101.0313 652.2209C 101.0313 650.9788 100.0313 649.9719 98.78125 649.9719C 97.5 649.9719 96.53125 650.9788 96.53125 652.2209C 96.53125 653.4631 97.5 654.47 98.78125 654.47C 100.0313 654.47 101.0313 653.4631 101.0313 652.2209" stroke="#000000" stroke-width="0.750418" stroke-linecap="square" fill="none" /><path transform="matrix(1 0 0 -1 0 841)" d="M154.3125 647.3481L233.8438 647.3481z" stroke="#0000EE" stroke-width="0.750418" stroke-linecap="square" fill="none" /><path transform="matrix(1 0 0 -1 0 841)" d="M71 619.9847C 71 618.7427 70.03125 617.7357 68.75 617.7357C 67.5 617.7357 66.5 618.7427 66.5 619.9847C 66.5 621.2269 67.5 622.2338 68.75 622.2338C 70.03125 622.2338 71 621.2269 71 619.9847" stroke="#000000" stroke-width="0.750418" fill="#000000" fill-rule="evenodd" /><path transform="matrix(1 0 0 -1 0 841)" d="M101.0313 602.7422C 101.0313 601.5 100.0313 600.4931 98.78125 600.4931C 97.5 600.4931 96.53125 601.5 96.53125 602.7422C 96.53125 603.9843 97.5 604.9912 98.78125 604.9912C 100.0313 604.9912 101.0313 603.9843 101.0313 602.7422" stroke="#000000" stroke-width="0.750418" stroke-linecap="square" fill="none" /><path transform="matrix(1 0 0 -1 0 841)" d="M154.3125 597.8693L182.8125 597.8693z" stroke="#0000EE" stroke-width="0.750418" stroke-linecap="square" fill="none" /><path transform="matrix(1 0 0 -1 0 841)" d="M101.0313 578.0027C 101.0313 576.7606 100.0313 575.7537 98.78125 575.7537C 97.5 575.7537 96.53125 576.7606 96.53125 578.0027C 96.53125 579.2449 97.5 580.2518 98.78125 580.2518C 100.0313 580.2518 101.0313 579.2449 101.0313 578.0027" stroke="#000000" stroke-width="0.750418" stroke-linecap="square" fill="none" /><path transform="matrix(1 0 0 -1 0 841)" d="M149.8125 573.1299L178.3125 573.1299z" stroke="#0000EE" stroke-width="0.750418" stroke-linecap="square" fill="none" /><path transform="matrix(1 0 0 -1 0 841)" d="M71 545.7665C 71 544.5244 70.03125 543.5175 68.75 543.5175C 67.5 543.5175 66.5 544.5244 66.5 545.7665C 66.5 547.0087 67.5 548.0156 68.75 548.0156C 70.03125 548.0156 71 547.0087 71 545.7665" stroke="#000000" stroke-width="0.750418" fill="#000000" fill-rule="evenodd" /><path transform="matrix(1 0 0 -1 0 841)" d="M101.0313 528.5239C 101.0313 527.2818 100.0313 526.2749 98.78125 526.2749C 97.5 526.2749 96.53125 527.2818 96.53125 528.5239C 96.53125 529.7661 97.5 530.7729 98.78125 530.7729C 100.0313 530.7729 101.0313 529.7661 101.0313 528.5239" stroke="#000000" stroke-width="0.750418" stroke-linecap="square" fill="none" /><path transform="matrix(1 0 0 -1 0 841)" d="M149.0625 523.651L234.5938 523.651z" stroke="#0000EE" stroke-width="0.750418" stroke-linecap="square" fill="none" /><path transform="matrix(1 0 0 -1 0 841)" d="M101.0313 503.7845C 101.0313 502.5424 100.0313 501.5355 98.78125 501.5355C 97.5 501.5355 96.53125 502.5424 96.53125 503.7845C 96.53125 505.0267 97.5 506.0336 98.78125 506.0336C 100.0313 506.0336 101.0313 505.0267 101.0313 503.7845" stroke="#000000" stroke-width="0.750418" stroke-linecap="square" fill="none" /><path transform="matrix(1 0 0 -1 0 841)" d="M215.0938 498.9116L366.6875 498.9116z" stroke="#0000EE" stroke-width="0.750418" stroke-linecap="square" fill="none" /><path transform="matrix(1 0 0 -1 0 841)" d="M101.0313 479.0451C 101.0313 477.803 100.0313 476.7961 98.78125 476.7961C 97.5 476.7961 96.53125 477.803 96.53125 479.0451C 96.53125 480.2873 97.5 481.2942 98.78125 481.2942C 100.0313 481.2942 101.0313 480.2873 101.0313 479.0451" stroke="#000000" stroke-width="0.750418" stroke-linecap="square" fill="none" /><path transform="matrix(1 0 0 -1 0 841)" d="M186.5625 474.1722L309.6563 474.1722z" stroke="#0000EE" stroke-width="0.750418" stroke-linecap="square" fill="none" /><path transform="matrix(1 0 0 -1 0 841)" d="M71 446.8089C 71 445.5668 70.03125 444.5599 68.75 444.5599C 67.5 444.5599 66.5 445.5668 66.5 446.8089C 66.5 448.0511 67.5 449.058 68.75 449.058C 70.03125 449.058 71 448.0511 71 446.8089" stroke="#000000" stroke-width="0.750418" fill="#000000" fill-rule="evenodd" /><path transform="matrix(1 0 0 -1 0 841)" d="M236.0938 441.936L477 441.936z" stroke="#0000EE" stroke-width="0.750418" stroke-linecap="square" fill="none" /><path transform="matrix(1 0 0 -1 0 841)" d="M486.75 441.936L545.2813 441.936z" stroke="#0000EE" stroke-width="0.750418" stroke-linecap="square" fill="none" /><path transform="matrix(1 0 0 -1 0 841)" d="M80.03125 424.6934L143.0625 424.6934z" stroke="#0000EE" stroke-width="0.750418" stroke-linecap="square" fill="none" /><path transform="matrix(1 0 0 -1 0 841)" d="M71 404.8269C 71 403.5847 70.03125 402.5779 68.75 402.5779C 67.5 402.5779 66.5 403.5847 66.5 404.8269C 66.5 406.0691 67.5 407.0759 68.75 407.0759C 70.03125 407.0759 71 406.0691 71 404.8269" stroke="#000000" stroke-width="0.750418" fill="#000000" fill-rule="evenodd" /><path transform="matrix(1 0 0 -1 0 841)" d="M101.0313 387.5843C 101.0313 386.3421 100.0313 385.3352 98.78125 385.3352C 97.5 385.3352 96.53125 386.3421 96.53125 387.5843C 96.53125 388.8264 97.5 389.8333 98.78125 389.8333C 100.0313 389.8333 101.0313 388.8264 101.0313 387.5843" stroke="#000000" stroke-width="0.750418" stroke-linecap="square" fill="none" /><path transform="matrix(1 0 0 -1 0 841)" d="M154.3125 382.7114L200.8438 382.7114z" stroke="#0000EE" stroke-width="0.750418" stroke-linecap="square" fill="none" /><path transform="matrix(1 0 0 -1 0 841)" d="M101.0313 362.8449C 101.0313 361.6027 100.0313 360.5958 98.78125 360.5958C 97.5 360.5958 96.53125 361.6027 96.53125 362.8449C 96.53125 364.087 97.5 365.0939 98.78125 365.0939C 100.0313 365.0939 101.0313 364.087 101.0313 362.8449" stroke="#000000" stroke-width="0.750418" stroke-linecap="square" fill="none" /><path transform="matrix(1 0 0 -1 0 841)" d="M159.5625 357.972L200.8438 357.972z" stroke="#0000EE" stroke-width="0.750418" stroke-linecap="square" fill="none" /><path transform="matrix(1 0 0 -1 0 841)" d="M101.0313 338.1055C 101.0313 336.8633 100.0313 335.8564 98.78125 335.8564C 97.5 335.8564 96.53125 336.8633 96.53125 338.1055C 96.53125 339.3476 97.5 340.3545 98.78125 340.3545C 100.0313 340.3545 101.0313 339.3476 101.0313 338.1055" stroke="#000000" stroke-width="0.750418" stroke-linecap="square" fill="none" /><path transform="matrix(1 0 0 -1 0 841)" d="M143.0625 333.2325L164.0625 333.2325z" stroke="#0000EE" stroke-width="0.750418" stroke-linecap="square" fill="none" /><path transform="matrix(1 0 0 -1 0 841)" d="M71 305.8693C 71 304.6271 70.03125 303.6202 68.75 303.6202C 67.5 303.6202 66.5 304.6271 66.5 305.8693C 66.5 307.1115 67.5 308.1183 68.75 308.1183C 70.03125 308.1183 71 307.1115 71 305.8693" stroke="#000000" stroke-width="0.750418" fill="#000000" fill-rule="evenodd" /><path transform="matrix(1 0 0 -1 0 841)" d="M101.0313 288.6266C 101.0313 287.3845 100.0313 286.3776 98.78125 286.3776C 97.5 286.3776 96.53125 287.3845 96.53125 288.6266C 96.53125 289.8688 97.5 290.8757 98.78125 290.8757C 100.0313 290.8757 101.0313 289.8688 101.0313 288.6266" stroke="#000000" stroke-width="0.750418" stroke-linecap="square" fill="none" /><path transform="matrix(1 0 0 -1 0 841)" d="M149.8125 283.7537L221.8438 283.7537z" stroke="#0000EE" stroke-width="0.750418" stroke-linecap="square" fill="none" /></g><g clip-path="url(#4)"></g></g></g></g></svg>