<svg xmlns="http://www.w3.org/2000/svg" xmlns:xlink="http://www.w3.org/1999/xlink" id="body_132" preserveAspectRatio="xMinYMin meet" viewBox="0 0 793 1121"><defs><clipPath id="1"><path d="M0 841L0 -0.8897705L0 -0.8897705L595.2756 -0.8897705L595.2756 -0.8897705L595.2756 841L595.2756 841L0 841z" /></clipPath><clipPath id="2"><path d="M49.99219 -0.8897705L545.2656 -0.8897705L545.2656 -0.8897705L545.2656 840.9998L545.2656 840.9998L49.99219 840.9998L49.99219 840.9998L49.99219 -0.8897705" /></clipPath><clipPath id="3"><path d="M49.99219 48.58905L545.2656 48.58905L545.2656 48.58905L545.2656 791.5209L545.2656 791.5209L49.99219 791.5209L49.99219 791.5209L49.99219 48.58905" /></clipPath><clipPath id="4"><path d="M49.99219 791.5209L545.2656 791.5209L545.2656 791.5209L545.2656 840.9998L545.2656 840.9998L49.99219 840.9998L49.99219 840.9998L49.99219 791.5209" /></clipPath></defs><g transform="matrix(1.333333 0 0 1.333333 0 0)"><g><g clip-path="url(#1)"><g clip-path="url(#2)"></g><g clip-path="url(#3)"><g transform="matrix(0.7492096 0 0 0.7343794 80.00911 239.7572)"><g transform="matrix(1 0 0 1 0 0)"><image x="0" y="0" xlink:href="img_213.png" width="621" height="49" /></g></g><g transform="matrix(0.5486547 0 0 0.5433453 80.00911 712.8047)"><g transform="matrix(1 0 0 1 0 0)"><image x="0" y="0" xlink:href="img_214.png" width="848" height="109" /></g></g></g><g clip-path="url(#4)"></g></g></g></g></svg>