<svg xmlns="http://www.w3.org/2000/svg" xmlns:xlink="http://www.w3.org/1999/xlink" id="body_35" preserveAspectRatio="xMinYMin meet" viewBox="0 0 793 1121"><defs><clipPath id="1"><path d="M0 841L0 -0.8897705L0 -0.8897705L595.2756 -0.8897705L595.2756 -0.8897705L595.2756 841L595.2756 841L0 841z" /></clipPath><clipPath id="2"><path d="M50 -0.8897705L545.2754 -0.8897705L545.2754 -0.8897705L545.2754 840.9998L545.2754 840.9998L50 840.9998L50 840.9998L50 -0.8897705" /></clipPath><clipPath id="3"><path d="M50 48.58905L545.2754 48.58905L545.2754 48.58905L545.2754 791.5209L545.2754 791.5209L50 791.5209L50 791.5209L50 48.58905" /></clipPath><clipPath id="4"><path d="M50 48.58905L545.2754 48.58905L545.2754 48.58905L545.2754 791.5209L545.2754 791.5209L50 791.5209L50 791.5209L50 48.58905" /></clipPath><clipPath id="5"><path d="M50 791.5209L545.2754 791.5209L545.2754 791.5209L545.2754 840.9998L545.2754 840.9998L50 840.9998L50 840.9998L50 791.5209" /></clipPath></defs><g transform="matrix(1.333333 0 0 1.333333 0 0)"><g><g clip-path="url(#1)"><g clip-path="url(#2)"></g><g clip-path="url(#3)"><path transform="matrix(1 0 0 -1 0 841)" d="M50 589.9976L276.625 589.9976L276.625 589.9976L276.625 589.2479L276.625 589.2479L50 589.2479z" stroke="none" fill="#808080" fill-rule="winding" /><path transform="matrix(1 0 0 -1 0 841)" d="M50 460.3031L276.625 460.3031L276.625 460.3031L276.625 459.5535L276.625 459.5535L50 459.5535z" stroke="none" fill="#2C2C2C" fill-rule="winding" /><path transform="matrix(1 0 0 -1 0 841)" d="M50 589.9976L50 459.5535L50 459.5535L50.75 460.3031L50.75 460.3031L50.75 589.9976z" stroke="#000000" stroke-width="0" fill="#808080" fill-rule="evenodd" /><path transform="matrix(1 0 0 -1 0 841)" d="M275.875 589.2479L275.875 459.5535L275.875 459.5535L276.625 459.5535L276.625 459.5535L276.625 589.9976z" stroke="#000000" stroke-width="0" fill="#2C2C2C" fill-rule="evenodd" /><path transform="matrix(1 0 0 -1 0 841)" d="M52.25 587.7486L197.082 587.7486L197.082 587.7486L197.082 586.9989L197.082 586.9989L52.25 586.9989z" stroke="none" fill="#2C2C2C" fill-rule="winding" /><path transform="matrix(1 0 0 -1 0 841)" d="M52.25 564.5085L197.082 564.5085L197.082 564.5085L197.082 563.7589L197.082 563.7589L52.25 563.7589z" stroke="none" fill="#808080" fill-rule="winding" /><path transform="matrix(1 0 0 -1 0 841)" d="M52.25 587.7486L52.25 563.7589L52.25 563.7589L53 564.5085L53 564.5085L53 587.7486z" stroke="#000000" stroke-width="0" fill="#2C2C2C" fill-rule="evenodd" /><path transform="matrix(1 0 0 -1 0 841)" d="M196.3301 586.9989L196.3301 563.7589L196.3301 563.7589L197.082 563.7589L197.082 563.7589L197.082 587.7486z" stroke="#000000" stroke-width="0" fill="#808080" fill-rule="evenodd" /><path transform="matrix(1 0 0 -1 0 841)" d="M198.582 587.7486L274.375 587.7486L274.375 587.7486L274.375 586.9989L274.375 586.9989L198.582 586.9989z" stroke="none" fill="#2C2C2C" fill-rule="winding" /><path transform="matrix(1 0 0 -1 0 841)" d="M198.582 564.5085L274.375 564.5085L274.375 564.5085L274.375 563.7589L274.375 563.7589L198.582 563.7589z" stroke="none" fill="#808080" fill-rule="winding" /><path transform="matrix(1 0 0 -1 0 841)" d="M198.582 587.7486L198.582 563.7589L198.582 563.7589L199.332 564.5085L199.332 564.5085L199.332 587.7486z" stroke="#000000" stroke-width="0" fill="#2C2C2C" fill-rule="evenodd" /><path transform="matrix(1 0 0 -1 0 841)" d="M273.623 586.9989L273.623 563.7589L273.623 563.7589L274.375 563.7589L274.375 563.7589L274.375 587.7486z" stroke="#000000" stroke-width="0" fill="#808080" fill-rule="evenodd" /><path transform="matrix(1 0 0 -1 0 841)" d="M52.25 562.2595L197.082 562.2595L197.082 562.2595L197.082 561.5098L197.082 561.5098L52.25 561.5098z" stroke="none" fill="#2C2C2C" fill-rule="winding" /><path transform="matrix(1 0 0 -1 0 841)" d="M52.25 539.0194L197.082 539.0194L197.082 539.0194L197.082 538.2698L197.082 538.2698L52.25 538.2698z" stroke="none" fill="#808080" fill-rule="winding" /><path transform="matrix(1 0 0 -1 0 841)" d="M52.25 562.2595L52.25 538.2698L52.25 538.2698L53 539.0194L53 539.0194L53 562.2595z" stroke="#000000" stroke-width="0" fill="#2C2C2C" fill-rule="evenodd" /><path transform="matrix(1 0 0 -1 0 841)" d="M196.3301 561.5098L196.3301 538.2698L196.3301 538.2698L197.082 538.2698L197.082 538.2698L197.082 562.2595z" stroke="#000000" stroke-width="0" fill="#808080" fill-rule="evenodd" /><path transform="matrix(1 0 0 -1 0 841)" d="M198.582 562.2595L274.375 562.2595L274.375 562.2595L274.375 561.5098L274.375 561.5098L198.582 561.5098z" stroke="none" fill="#2C2C2C" fill-rule="winding" /><path transform="matrix(1 0 0 -1 0 841)" d="M198.582 539.0194L274.375 539.0194L274.375 539.0194L274.375 538.2698L274.375 538.2698L198.582 538.2698z" stroke="none" fill="#808080" fill-rule="winding" /><path transform="matrix(1 0 0 -1 0 841)" d="M198.582 562.2595L198.582 538.2698L198.582 538.2698L199.332 539.0194L199.332 539.0194L199.332 562.2595z" stroke="#000000" stroke-width="0" fill="#2C2C2C" fill-rule="evenodd" /><path transform="matrix(1 0 0 -1 0 841)" d="M273.623 561.5098L273.623 538.2698L273.623 538.2698L274.375 538.2698L274.375 538.2698L274.375 562.2595z" stroke="#000000" stroke-width="0" fill="#808080" fill-rule="evenodd" /><path transform="matrix(1 0 0 -1 0 841)" d="M52.25 536.7704L197.082 536.7704L197.082 536.7704L197.082 536.0208L197.082 536.0208L52.25 536.0208z" stroke="none" fill="#2C2C2C" fill-rule="winding" /><path transform="matrix(1 0 0 -1 0 841)" d="M52.25 513.5304L197.082 513.5304L197.082 513.5304L197.082 512.7806L197.082 512.7806L52.25 512.7806z" stroke="none" fill="#808080" fill-rule="winding" /><path transform="matrix(1 0 0 -1 0 841)" d="M52.25 536.7704L52.25 512.7806L52.25 512.7806L53 513.5304L53 513.5304L53 536.7704z" stroke="#000000" stroke-width="0" fill="#2C2C2C" fill-rule="evenodd" /><path transform="matrix(1 0 0 -1 0 841)" d="M196.3301 536.0208L196.3301 512.7806L196.3301 512.7806L197.082 512.7806L197.082 512.7806L197.082 536.7704z" stroke="#000000" stroke-width="0" fill="#808080" fill-rule="evenodd" /><path transform="matrix(1 0 0 -1 0 841)" d="M198.582 536.7704L274.375 536.7704L274.375 536.7704L274.375 536.0208L274.375 536.0208L198.582 536.0208z" stroke="none" fill="#2C2C2C" fill-rule="winding" /><path transform="matrix(1 0 0 -1 0 841)" d="M198.582 513.5304L274.375 513.5304L274.375 513.5304L274.375 512.7806L274.375 512.7806L198.582 512.7806z" stroke="none" fill="#808080" fill-rule="winding" /><path transform="matrix(1 0 0 -1 0 841)" d="M198.582 536.7704L198.582 512.7806L198.582 512.7806L199.332 513.5304L199.332 513.5304L199.332 536.7704z" stroke="#000000" stroke-width="0" fill="#2C2C2C" fill-rule="evenodd" /><path transform="matrix(1 0 0 -1 0 841)" d="M273.623 536.0208L273.623 512.7806L273.623 512.7806L274.375 512.7806L274.375 512.7806L274.375 536.7704z" stroke="#000000" stroke-width="0" fill="#808080" fill-rule="evenodd" /><path transform="matrix(1 0 0 -1 0 841)" d="M52.25 511.2813L197.082 511.2813L197.082 511.2813L197.082 510.5316L197.082 510.5316L52.25 510.5316z" stroke="none" fill="#2C2C2C" fill-rule="winding" /><path transform="matrix(1 0 0 -1 0 841)" d="M52.25 488.0413L197.082 488.0413L197.082 488.0413L197.082 487.2916L197.082 487.2916L52.25 487.2916z" stroke="none" fill="#808080" fill-rule="winding" /><path transform="matrix(1 0 0 -1 0 841)" d="M52.25 511.2813L52.25 487.2916L52.25 487.2916L53 488.0413L53 488.0413L53 511.2813z" stroke="#000000" stroke-width="0" fill="#2C2C2C" fill-rule="evenodd" /><path transform="matrix(1 0 0 -1 0 841)" d="M196.3301 510.5316L196.3301 487.2916L196.3301 487.2916L197.082 487.2916L197.082 487.2916L197.082 511.2813z" stroke="#000000" stroke-width="0" fill="#808080" fill-rule="evenodd" /><path transform="matrix(1 0 0 -1 0 841)" d="M198.582 511.2813L274.375 511.2813L274.375 511.2813L274.375 510.5316L274.375 510.5316L198.582 510.5316z" stroke="none" fill="#2C2C2C" fill-rule="winding" /><path transform="matrix(1 0 0 -1 0 841)" d="M198.582 488.0413L274.375 488.0413L274.375 488.0413L274.375 487.2916L274.375 487.2916L198.582 487.2916z" stroke="none" fill="#808080" fill-rule="winding" /><path transform="matrix(1 0 0 -1 0 841)" d="M198.582 511.2813L198.582 487.2916L198.582 487.2916L199.332 488.0413L199.332 488.0413L199.332 511.2813z" stroke="#000000" stroke-width="0" fill="#2C2C2C" fill-rule="evenodd" /><path transform="matrix(1 0 0 -1 0 841)" d="M273.623 510.5316L273.623 487.2916L273.623 487.2916L274.375 487.2916L274.375 487.2916L274.375 511.2813z" stroke="#000000" stroke-width="0" fill="#808080" fill-rule="evenodd" /><path transform="matrix(1 0 0 -1 0 841)" d="M52.25 485.7922L197.082 485.7922L197.082 485.7922L197.082 485.0425L197.082 485.0425L52.25 485.0425z" stroke="none" fill="#2C2C2C" fill-rule="winding" /><path transform="matrix(1 0 0 -1 0 841)" d="M52.25 462.5522L197.082 462.5522L197.082 462.5522L197.082 461.8025L197.082 461.8025L52.25 461.8025z" stroke="none" fill="#808080" fill-rule="winding" /><path transform="matrix(1 0 0 -1 0 841)" d="M52.25 485.7922L52.25 461.8025L52.25 461.8025L53 462.5522L53 462.5522L53 485.7922z" stroke="#000000" stroke-width="0" fill="#2C2C2C" fill-rule="evenodd" /><path transform="matrix(1 0 0 -1 0 841)" d="M196.3301 485.0425L196.3301 461.8025L196.3301 461.8025L197.082 461.8025L197.082 461.8025L197.082 485.7922z" stroke="#000000" stroke-width="0" fill="#808080" fill-rule="evenodd" /><path transform="matrix(1 0 0 -1 0 841)" d="M198.582 485.7922L274.375 485.7922L274.375 485.7922L274.375 485.0425L274.375 485.0425L198.582 485.0425z" stroke="none" fill="#2C2C2C" fill-rule="winding" /><path transform="matrix(1 0 0 -1 0 841)" d="M198.582 462.5522L274.375 462.5522L274.375 462.5522L274.375 461.8025L274.375 461.8025L198.582 461.8025z" stroke="none" fill="#808080" fill-rule="winding" /><path transform="matrix(1 0 0 -1 0 841)" d="M198.582 485.7922L198.582 461.8025L198.582 461.8025L199.332 462.5522L199.332 462.5522L199.332 485.7922z" stroke="#000000" stroke-width="0" fill="#2C2C2C" fill-rule="evenodd" /><path transform="matrix(1 0 0 -1 0 841)" d="M273.623 485.0425L273.623 461.8025L273.623 461.8025L274.375 461.8025L274.375 461.8025L274.375 485.7922z" stroke="#000000" stroke-width="0" fill="#808080" fill-rule="evenodd" /></g><g clip-path="url(#4)"><path transform="matrix(1 0 0 -1 0 841)" d="M50 652.5958L188.0762 652.5958z" stroke="#0000EE" stroke-width="0.750418" stroke-linecap="square" fill="none" /></g><g clip-path="url(#5)"></g></g></g></g></svg>