<svg xmlns="http://www.w3.org/2000/svg" xmlns:xlink="http://www.w3.org/1999/xlink" id="body_338" preserveAspectRatio="xMinYMin meet" viewBox="0 0 793 1121"><defs><clipPath id="1"><path d="M0 841L0 -0.8897705L0 -0.8897705L595.2756 -0.8897705L595.2756 -0.8897705L595.2756 841L595.2756 841L0 841z" /></clipPath><clipPath id="2"><path d="M49.96875 -0.8897705L545.25 -0.8897705L545.25 -0.8897705L545.25 840.9998L545.25 840.9998L49.96875 840.9998L49.96875 840.9998L49.96875 -0.8897705" /></clipPath><clipPath id="3"><path d="M49.96875 48.58905L545.25 48.58905L545.25 48.58905L545.25 791.5209L545.25 791.5209L49.96875 791.5209L49.96875 791.5209L49.96875 48.58905" /></clipPath><clipPath id="4"><path d="M49.96875 791.5209L545.25 791.5209L545.25 791.5209L545.25 840.9998L545.25 840.9998L49.96875 840.9998L49.96875 840.9998L49.96875 791.5209" /></clipPath></defs><g transform="matrix(1.333333 0 0 1.333333 0 0)"><g><g clip-path="url(#1)"><g clip-path="url(#2)"></g><g clip-path="url(#3)"><path transform="matrix(1 0 0 -1 0 841)" d="M71 718.9424C 71 717.7003 70 716.6934 68.75 716.6934C 67.46875 716.6934 66.5 717.7003 66.5 718.9424C 66.5 720.1846 67.46875 721.1915 68.75 721.1915C 70 721.1915 71 720.1846 71 718.9424" stroke="#000000" stroke-width="0.750418" fill="#000000" fill-rule="evenodd" /><path transform="matrix(1 0 0 -1 0 841)" d="M101 701.6998C 101 700.4576 100.0313 699.4507 98.75 699.4507C 97.5 699.4507 96.5 700.4576 96.5 701.6998C 96.5 702.942 97.5 703.9489 98.75 703.9489C 100.0313 703.9489 101 702.942 101 701.6998" stroke="#000000" stroke-width="0.750418" stroke-linecap="square" fill="none" /><path transform="matrix(1 0 0 -1 0 841)" d="M293.125 696.8269L462.7188 696.8269z" stroke="#0000EE" stroke-width="0.750418" stroke-linecap="square" fill="none" /><path transform="matrix(1 0 0 -1 0 841)" d="M101 676.9604C 101 675.7183 100.0313 674.7114 98.75 674.7114C 97.5 674.7114 96.5 675.7183 96.5 676.9604C 96.5 678.2025 97.5 679.2094 98.75 679.2094C 100.0313 679.2094 101 678.2025 101 676.9604" stroke="#000000" stroke-width="0.750418" stroke-linecap="square" fill="none" /><path transform="matrix(1 0 0 -1 0 841)" d="M231.5625 672.0875L340.375 672.0875z" stroke="#0000EE" stroke-width="0.750418" stroke-linecap="square" fill="none" /><path transform="matrix(1 0 0 -1 0 841)" d="M101 652.2209C 101 650.9788 100.0313 649.9719 98.75 649.9719C 97.5 649.9719 96.5 650.9788 96.5 652.2209C 96.5 653.4631 97.5 654.47 98.75 654.47C 100.0313 654.47 101 653.4631 101 652.2209" stroke="#000000" stroke-width="0.750418" stroke-linecap="square" fill="none" /><path transform="matrix(1 0 0 -1 0 841)" d="M227.0625 647.3481L330.625 647.3481z" stroke="#0000EE" stroke-width="0.750418" stroke-linecap="square" fill="none" /><path transform="matrix(1 0 0 -1 0 841)" d="M71 619.9847C 71 618.7427 70 617.7357 68.75 617.7357C 67.46875 617.7357 66.5 618.7427 66.5 619.9847C 66.5 621.2269 67.46875 622.2338 68.75 622.2338C 70 622.2338 71 621.2269 71 619.9847" stroke="#000000" stroke-width="0.750418" fill="#000000" fill-rule="evenodd" /><path transform="matrix(1 0 0 -1 0 841)" d="M101 602.7422C 101 601.5 100.0313 600.4931 98.75 600.4931C 97.5 600.4931 96.5 601.5 96.5 602.7422C 96.5 603.9843 97.5 604.9912 98.75 604.9912C 100.0313 604.9912 101 603.9843 101 602.7422" stroke="#000000" stroke-width="0.750418" stroke-linecap="square" fill="none" /><path transform="matrix(1 0 0 -1 0 841)" d="M201.5625 597.8693L366.6563 597.8693z" stroke="#0000EE" stroke-width="0.750418" stroke-linecap="square" fill="none" /><path transform="matrix(1 0 0 -1 0 841)" d="M101 578.0027C 101 576.7606 100.0313 575.7537 98.75 575.7537C 97.5 575.7537 96.5 576.7606 96.5 578.0027C 96.5 579.2449 97.5 580.2518 98.75 580.2518C 100.0313 580.2518 101 579.2449 101 578.0027" stroke="#000000" stroke-width="0.750418" stroke-linecap="square" fill="none" /><path transform="matrix(1 0 0 -1 0 841)" d="M303.625 573.1299L545.25 573.1299z" stroke="#0000EE" stroke-width="0.750418" stroke-linecap="square" fill="none" /><path transform="matrix(1 0 0 -1 0 841)" d="M110 555.8872L154.2813 555.8872z" stroke="#0000EE" stroke-width="0.750418" stroke-linecap="square" fill="none" /><path transform="matrix(1 0 0 -1 0 841)" d="M101 536.0208C 101 534.7786 100.0313 533.7717 98.75 533.7717C 97.5 533.7717 96.5 534.7786 96.5 536.0208C 96.5 537.2628 97.5 538.2698 98.75 538.2698C 100.0313 538.2698 101 537.2628 101 536.0208" stroke="#000000" stroke-width="0.750418" stroke-linecap="square" fill="none" /><path transform="matrix(1 0 0 -1 0 841)" d="M189.5625 531.1478L356.9063 531.1478z" stroke="#0000EE" stroke-width="0.750418" stroke-linecap="square" fill="none" /><path transform="matrix(1 0 0 -1 0 841)" d="M71 503.7845C 71 502.5424 70 501.5355 68.75 501.5355C 67.46875 501.5355 66.5 502.5424 66.5 503.7845C 66.5 505.0267 67.46875 506.0336 68.75 506.0336C 70 506.0336 71 505.0267 71 503.7845" stroke="#000000" stroke-width="0.750418" fill="#000000" fill-rule="evenodd" /><path transform="matrix(1 0 0 -1 0 841)" d="M101 486.5419C 101 485.2998 100.0313 484.2929 98.75 484.2929C 97.5 484.2929 96.5 485.2998 96.5 486.5419C 96.5 487.7841 97.5 488.791 98.75 488.791C 100.0313 488.791 101 487.7841 101 486.5419" stroke="#000000" stroke-width="0.750418" stroke-linecap="square" fill="none" /><path transform="matrix(1 0 0 -1 0 841)" d="M154.2813 481.669L286.3438 481.669z" stroke="#0000EE" stroke-width="0.750418" stroke-linecap="square" fill="none" /><path transform="matrix(1 0 0 -1 0 841)" d="M101 461.8025C 101 460.5604 100.0313 459.5535 98.75 459.5535C 97.5 459.5535 96.5 460.5604 96.5 461.8025C 96.5 463.0446 97.5 464.0515 98.75 464.0515C 100.0313 464.0515 101 463.0446 101 461.8025" stroke="#000000" stroke-width="0.750418" stroke-linecap="square" fill="none" /><path transform="matrix(1 0 0 -1 0 841)" d="M281.8438 456.9296L544.5 456.9296z" stroke="#0000EE" stroke-width="0.750418" stroke-linecap="square" fill="none" /><path transform="matrix(1 0 0 -1 0 841)" d="M101 437.0631C 101 435.8209 100.0313 434.8141 98.75 434.8141C 97.5 434.8141 96.5 435.8209 96.5 437.0631C 96.5 438.3053 97.5 439.3121 98.75 439.3121C 100.0313 439.3121 101 438.3053 101 437.0631" stroke="#000000" stroke-width="0.750418" stroke-linecap="square" fill="none" /><path transform="matrix(1 0 0 -1 0 841)" d="M298.375 432.1902L545.25 432.1902z" stroke="#0000EE" stroke-width="0.750418" stroke-linecap="square" fill="none" /><path transform="matrix(1 0 0 -1 0 841)" d="M110 414.9476L167.7813 414.9476z" stroke="#0000EE" stroke-width="0.750418" stroke-linecap="square" fill="none" /><path transform="matrix(1 0 0 -1 0 841)" d="M71 387.5843C 71 386.3421 70 385.3352 68.75 385.3352C 67.46875 385.3352 66.5 386.3421 66.5 387.5843C 66.5 388.8264 67.46875 389.8333 68.75 389.8333C 70 389.8333 71 388.8264 71 387.5843" stroke="#000000" stroke-width="0.750418" fill="#000000" fill-rule="evenodd" /><path transform="matrix(1 0 0 -1 0 841)" d="M101 370.3417C 101 369.0995 100.0313 368.0926 98.75 368.0926C 97.5 368.0926 96.5 369.0995 96.5 370.3417C 96.5 371.5838 97.5 372.5907 98.75 372.5907C 100.0313 372.5907 101 371.5838 101 370.3417" stroke="#000000" stroke-width="0.750418" stroke-linecap="square" fill="none" /><path transform="matrix(1 0 0 -1 0 841)" d="M152.7813 365.4688L304.375 365.4688z" stroke="#0000EE" stroke-width="0.750418" stroke-linecap="square" fill="none" /><path transform="matrix(1 0 0 -1 0 841)" d="M101 345.6023C 101 344.3601 100.0313 343.3532 98.75 343.3532C 97.5 343.3532 96.5 344.3601 96.5 345.6023C 96.5 346.8444 97.5 347.8513 98.75 347.8513C 100.0313 347.8513 101 346.8444 101 345.6023" stroke="#000000" stroke-width="0.750418" stroke-linecap="square" fill="none" /><path transform="matrix(1 0 0 -1 0 841)" d="M161.7813 340.7293L313.375 340.7293z" stroke="#0000EE" stroke-width="0.750418" stroke-linecap="square" fill="none" /><path transform="matrix(1 0 0 -1 0 841)" d="M101 320.8629C 101 319.6207 100.0313 318.6138 98.75 318.6138C 97.5 318.6138 96.5 319.6207 96.5 320.8629C 96.5 322.105 97.5 323.1119 98.75 323.1119C 100.0313 323.1119 101 322.105 101 320.8629" stroke="#000000" stroke-width="0.750418" stroke-linecap="square" fill="none" /><path transform="matrix(1 0 0 -1 0 841)" d="M152.0313 315.9899L303.625 315.9899z" stroke="#0000EE" stroke-width="0.750418" stroke-linecap="square" fill="none" /><path transform="matrix(1 0 0 -1 0 841)" d="M101 296.1234C 101 294.8813 100.0313 293.8744 98.75 293.8744C 97.5 293.8744 96.5 294.8813 96.5 296.1234C 96.5 297.3656 97.5 298.3725 98.75 298.3725C 100.0313 298.3725 101 297.3656 101 296.1234" stroke="#000000" stroke-width="0.750418" stroke-linecap="square" fill="none" /><path transform="matrix(1 0 0 -1 0 841)" d="M146.7813 291.2505L174.5313 291.2505z" stroke="#0000EE" stroke-width="0.750418" stroke-linecap="square" fill="none" /><path transform="matrix(1 0 0 -1 0 841)" d="M101 271.384C 101 270.1418 100.0313 269.135 98.75 269.135C 97.5 269.135 96.5 270.1418 96.5 271.384C 96.5 272.6262 97.5 273.6331 98.75 273.6331C 100.0313 273.6331 101 272.6262 101 271.384" stroke="#000000" stroke-width="0.750418" stroke-linecap="square" fill="none" /><path transform="matrix(1 0 0 -1 0 841)" d="M215.0625 266.5111L311.125 266.5111z" stroke="#0000EE" stroke-width="0.750418" stroke-linecap="square" fill="none" /><path transform="matrix(1 0 0 -1 0 841)" d="M101 246.6446C 101 245.4025 100.0313 244.3956 98.75 244.3956C 97.5 244.3956 96.5 245.4025 96.5 246.6446C 96.5 247.8868 97.5 248.8937 98.75 248.8937C 100.0313 248.8937 101 247.8868 101 246.6446" stroke="#000000" stroke-width="0.750418" stroke-linecap="square" fill="none" /><path transform="matrix(1 0 0 -1 0 841)" d="M221.8125 241.7717L323.875 241.7717z" stroke="#0000EE" stroke-width="0.750418" stroke-linecap="square" fill="none" /><path transform="matrix(1 0 0 -1 0 841)" d="M71 214.4084C 71 213.1663 70 212.1594 68.75 212.1594C 67.46875 212.1594 66.5 213.1663 66.5 214.4084C 66.5 215.6506 67.46875 216.6575 68.75 216.6575C 70 216.6575 71 215.6506 71 214.4084" stroke="#000000" stroke-width="0.750418" fill="#000000" fill-rule="evenodd" /><path transform="matrix(1 0 0 -1 0 841)" d="M101 197.1658C 101 195.9236 100.0313 194.9167 98.75 194.9167C 97.5 194.9167 96.5 195.9236 96.5 197.1658C 96.5 198.408 97.5 199.4149 98.75 199.4149C 100.0313 199.4149 101 198.408 101 197.1658" stroke="#000000" stroke-width="0.750418" stroke-linecap="square" fill="none" /><path transform="matrix(1 0 0 -1 0 841)" d="M154.2813 192.2929L350.1563 192.2929z" stroke="#0000EE" stroke-width="0.750418" stroke-linecap="square" fill="none" /><path transform="matrix(1 0 0 -1 0 841)" d="M71 164.9296C 71 163.6874 70 162.6805 68.75 162.6805C 67.46875 162.6805 66.5 163.6874 66.5 164.9296C 66.5 166.1718 67.46875 167.1786 68.75 167.1786C 70 167.1786 71 166.1718 71 164.9296" stroke="#000000" stroke-width="0.750418" fill="#000000" fill-rule="evenodd" /><path transform="matrix(1 0 0 -1 0 841)" d="M101 147.687C 101 146.4448 100.0313 145.4379 98.75 145.4379C 97.5 145.4379 96.5 146.4448 96.5 147.687C 96.5 148.9291 97.5 149.936 98.75 149.936C 100.0313 149.936 101 148.9291 101 147.687" stroke="#000000" stroke-width="0.750418" stroke-linecap="square" fill="none" /><path transform="matrix(1 0 0 -1 0 841)" d="M154.2813 142.8141L233.0625 142.8141z" stroke="#0000EE" stroke-width="0.750418" stroke-linecap="square" fill="none" /><path transform="matrix(1 0 0 -1 0 841)" d="M101 122.9476C 101 121.7054 100.0313 120.6985 98.75 120.6985C 97.5 120.6985 96.5 121.7054 96.5 122.9476C 96.5 124.1898 97.5 125.1966 98.75 125.1966C 100.0313 125.1966 101 124.1898 101 122.9476" stroke="#000000" stroke-width="0.750418" stroke-linecap="square" fill="none" /><path transform="matrix(1 0 0 -1 0 841)" d="M153.5313 118.0746L188.8125 118.0746z" stroke="#0000EE" stroke-width="0.750418" stroke-linecap="square" fill="none" /><path transform="matrix(1 0 0 -1 0 841)" d="M101 98.20819C 101 96.966 100.0313 95.95911 98.75 95.95911C 97.5 95.95911 96.5 96.966 96.5 98.20819C 96.5 99.45032 97.5 100.4572 98.75 100.4572C 100.0313 100.4572 101 99.45032 101 98.20819" stroke="#000000" stroke-width="0.750418" stroke-linecap="square" fill="none" /><path transform="matrix(1 0 0 -1 0 841)" d="M191.8125 93.33527L264.5938 93.33527z" stroke="#0000EE" stroke-width="0.750418" stroke-linecap="square" fill="none" /><path transform="matrix(1 0 0 -1 0 841)" d="M101 73.46875C 101 72.22656 100.0313 71.21973 98.75 71.21973C 97.5 71.21973 96.5 72.22656 96.5 73.46875C 96.5 74.711 97.5 75.71777 98.75 75.71777C 100.0313 75.71777 101 74.711 101 73.46875" stroke="#000000" stroke-width="0.750418" stroke-linecap="square" fill="none" /><path transform="matrix(1 0 0 -1 0 841)" d="M206.0625 68.59583L295.375 68.59583z" stroke="#0000EE" stroke-width="0.750418" stroke-linecap="square" fill="none" /></g><g clip-path="url(#4)"></g></g></g></g></svg>