<svg xmlns="http://www.w3.org/2000/svg" xmlns:xlink="http://www.w3.org/1999/xlink" id="body_321" preserveAspectRatio="xMinYMin meet" viewBox="0 0 793 1121"><defs><clipPath id="1"><path d="M0 841L0 -0.8897705L0 -0.8897705L595.2756 -0.8897705L595.2756 -0.8897705L595.2756 841L595.2756 841L0 841z" /></clipPath><clipPath id="2"><path d="M49.96875 -0.8897705L545.25 -0.8897705L545.25 -0.8897705L545.25 840.9998L545.25 840.9998L49.96875 840.9998L49.96875 840.9998L49.96875 -0.8897705" /></clipPath><clipPath id="3"><path d="M49.96875 48.58905L545.25 48.58905L545.25 48.58905L545.25 791.5209L545.25 791.5209L49.96875 791.5209L49.96875 791.5209L49.96875 48.58905" /></clipPath><clipPath id="4"><path d="M49.96875 791.5209L545.25 791.5209L545.25 791.5209L545.25 840.9998L545.25 840.9998L49.96875 840.9998L49.96875 840.9998L49.96875 791.5209" /></clipPath></defs><g transform="matrix(1.333333 0 0 1.333333 0 0)"><g><g clip-path="url(#1)"><g clip-path="url(#2)"></g><g clip-path="url(#3)"><path transform="matrix(1 0 0 -1 0 841)" d="M71 718.9424C 71 717.7003 70 716.6934 68.71875 716.6934C 67.46875 716.6934 66.46875 717.7003 66.46875 718.9424C 66.46875 720.1846 67.46875 721.1915 68.71875 721.1915C 70 721.1915 71 720.1846 71 718.9424" stroke="#000000" stroke-width="0.750418" fill="#000000" fill-rule="evenodd" /><path transform="matrix(1 0 0 -1 0 841)" d="M101 701.6998C 101 700.4576 100.0313 699.4507 98.75 699.4507C 97.46875 699.4507 96.5 700.4576 96.5 701.6998C 96.5 702.942 97.46875 703.9489 98.75 703.9489C 100.0313 703.9489 101 702.942 101 701.6998" stroke="#000000" stroke-width="0.750418" stroke-linecap="square" fill="none" /><path transform="matrix(1 0 0 -1 0 841)" d="M154.2813 696.8269L242.8438 696.8269z" stroke="#0000EE" stroke-width="0.750418" stroke-linecap="square" fill="none" /></g><g clip-path="url(#4)"></g></g></g></g></svg>