<svg xmlns="http://www.w3.org/2000/svg" xmlns:xlink="http://www.w3.org/1999/xlink" id="body_330" preserveAspectRatio="xMinYMin meet" viewBox="0 0 793 1121"><defs><clipPath id="1"><path d="M0 841L0 -0.8897705L0 -0.8897705L595.2756 -0.8897705L595.2756 -0.8897705L595.2756 841L595.2756 841L0 841z" /></clipPath><clipPath id="2"><path d="M50 -0.8897705L545.25 -0.8897705L545.25 -0.8897705L545.25 840.9998L545.25 840.9998L50 840.9998L50 840.9998L50 -0.8897705" /></clipPath><clipPath id="3"><path d="M50 48.58905L545.25 48.58905L545.25 48.58905L545.25 791.5209L545.25 791.5209L50 791.5209L50 791.5209L50 48.58905" /></clipPath><clipPath id="4"><path d="M50 791.5209L545.25 791.5209L545.25 791.5209L545.25 840.9998L545.25 840.9998L50 840.9998L50 840.9998L50 791.5209" /></clipPath></defs><g transform="matrix(1.333333 0 0 1.333333 0 0)"><g><g clip-path="url(#1)"><g clip-path="url(#2)"></g><g clip-path="url(#3)"><path transform="matrix(1 0 0 -1 0 841)" d="M71 718.9424C 71 717.7003 70 716.6934 68.75 716.6934C 67.46875 716.6934 66.5 717.7003 66.5 718.9424C 66.5 720.1846 67.46875 721.1915 68.75 721.1915C 70 721.1915 71 720.1846 71 718.9424" stroke="#000000" stroke-width="0.750418" fill="#000000" fill-rule="evenodd" /><path transform="matrix(1 0 0 -1 0 841)" d="M101.0313 701.6998C 101.0313 700.4576 100.0313 699.4507 98.75 699.4507C 97.5 699.4507 96.5 700.4576 96.5 701.6998C 96.5 702.942 97.5 703.9489 98.75 703.9489C 100.0313 703.9489 101.0313 702.942 101.0313 701.6998" stroke="#000000" stroke-width="0.750418" stroke-linecap="square" fill="none" /><path transform="matrix(1 0 0 -1 0 841)" d="M154.2813 696.8269L293.125 696.8269z" stroke="#0000EE" stroke-width="0.750418" stroke-linecap="square" fill="none" /><path transform="matrix(1 0 0 -1 0 841)" d="M71 669.4636C 71 668.2214 70 667.2145 68.75 667.2145C 67.46875 667.2145 66.5 668.2214 66.5 669.4636C 66.5 670.7057 67.46875 671.7126 68.75 671.7126C 70 671.7126 71 670.7057 71 669.4636" stroke="#000000" stroke-width="0.750418" fill="#000000" fill-rule="evenodd" /><path transform="matrix(1 0 0 -1 0 841)" d="M101.0313 652.2209C 101.0313 650.9788 100.0313 649.9719 98.75 649.9719C 97.5 649.9719 96.5 650.9788 96.5 652.2209C 96.5 653.4631 97.5 654.47 98.75 654.47C 100.0313 654.47 101.0313 653.4631 101.0313 652.2209" stroke="#000000" stroke-width="0.750418" stroke-linecap="square" fill="none" /><path transform="matrix(1 0 0 -1 0 841)" d="M154.2813 647.3481L226.3438 647.3481z" stroke="#0000EE" stroke-width="0.750418" stroke-linecap="square" fill="none" /><path transform="matrix(1 0 0 -1 0 841)" d="M71 619.9847C 71 618.7427 70 617.7357 68.75 617.7357C 67.46875 617.7357 66.5 618.7427 66.5 619.9847C 66.5 621.2269 67.46875 622.2338 68.75 622.2338C 70 622.2338 71 621.2269 71 619.9847" stroke="#000000" stroke-width="0.750418" fill="#000000" fill-rule="evenodd" /><path transform="matrix(1 0 0 -1 0 841)" d="M101.0313 602.7422C 101.0313 601.5 100.0313 600.4931 98.75 600.4931C 97.5 600.4931 96.5 601.5 96.5 602.7422C 96.5 603.9843 97.5 604.9912 98.75 604.9912C 100.0313 604.9912 101.0313 603.9843 101.0313 602.7422" stroke="#000000" stroke-width="0.750418" stroke-linecap="square" fill="none" /><path transform="matrix(1 0 0 -1 0 841)" d="M154.2813 597.8693L348.6563 597.8693z" stroke="#0000EE" stroke-width="0.750418" stroke-linecap="square" fill="none" /><path transform="matrix(1 0 0 -1 0 841)" d="M101.0313 578.0027C 101.0313 576.7606 100.0313 575.7537 98.75 575.7537C 97.5 575.7537 96.5 576.7606 96.5 578.0027C 96.5 579.2449 97.5 580.2518 98.75 580.2518C 100.0313 580.2518 101.0313 579.2449 101.0313 578.0027" stroke="#000000" stroke-width="0.750418" stroke-linecap="square" fill="none" /><path transform="matrix(1 0 0 -1 0 841)" d="M149.7813 573.1299L344.1563 573.1299z" stroke="#0000EE" stroke-width="0.750418" stroke-linecap="square" fill="none" /><path transform="matrix(1 0 0 -1 0 841)" d="M71 545.7665C 71 544.5244 70 543.5175 68.75 543.5175C 67.46875 543.5175 66.5 544.5244 66.5 545.7665C 66.5 547.0087 67.46875 548.0156 68.75 548.0156C 70 548.0156 71 547.0087 71 545.7665" stroke="#000000" stroke-width="0.750418" fill="#000000" fill-rule="evenodd" /><path transform="matrix(1 0 0 -1 0 841)" d="M101.0313 528.5239C 101.0313 527.2818 100.0313 526.2749 98.75 526.2749C 97.5 526.2749 96.5 527.2818 96.5 528.5239C 96.5 529.7661 97.5 530.7729 98.75 530.7729C 100.0313 530.7729 101.0313 529.7661 101.0313 528.5239" stroke="#000000" stroke-width="0.750418" stroke-linecap="square" fill="none" /><path transform="matrix(1 0 0 -1 0 841)" d="M154.2813 523.651L239.8438 523.651z" stroke="#0000EE" stroke-width="0.750418" stroke-linecap="square" fill="none" /><path transform="matrix(1 0 0 -1 0 841)" d="M71 496.2878C 71 495.0456 70 494.0387 68.75 494.0387C 67.46875 494.0387 66.5 495.0456 66.5 496.2878C 66.5 497.5299 67.46875 498.5368 68.75 498.5368C 70 498.5368 71 497.5299 71 496.2878" stroke="#000000" stroke-width="0.750418" fill="#000000" fill-rule="evenodd" /><path transform="matrix(1 0 0 -1 0 841)" d="M101.0313 479.0451C 101.0313 477.803 100.0313 476.7961 98.75 476.7961C 97.5 476.7961 96.5 477.803 96.5 479.0451C 96.5 480.2873 97.5 481.2942 98.75 481.2942C 100.0313 481.2942 101.0313 480.2873 101.0313 479.0451" stroke="#000000" stroke-width="0.750418" stroke-linecap="square" fill="none" /><path transform="matrix(1 0 0 -1 0 841)" d="M154.2813 474.1722L225.5938 474.1722z" stroke="#0000EE" stroke-width="0.750418" stroke-linecap="square" fill="none" /><path transform="matrix(1 0 0 -1 0 841)" d="M101.0313 454.3057C 101.0313 453.0636 100.0313 452.0567 98.75 452.0567C 97.5 452.0567 96.5 453.0636 96.5 454.3057C 96.5 455.5479 97.5 456.5547 98.75 456.5547C 100.0313 456.5547 101.0313 455.5479 101.0313 454.3057" stroke="#000000" stroke-width="0.750418" stroke-linecap="square" fill="none" /><path transform="matrix(1 0 0 -1 0 841)" d="M238.3438 449.4328L541.5 449.4328z" stroke="#0000EE" stroke-width="0.750418" stroke-linecap="square" fill="none" /><path transform="matrix(1 0 0 -1 0 841)" d="M110.0313 432.1902L232.3438 432.1902z" stroke="#0000EE" stroke-width="0.750418" stroke-linecap="square" fill="none" /><path transform="matrix(1 0 0 -1 0 841)" d="M101.0313 412.3237C 101.0313 411.0815 100.0313 410.0746 98.75 410.0746C 97.5 410.0746 96.5 411.0815 96.5 412.3237C 96.5 413.5659 97.5 414.5727 98.75 414.5727C 100.0313 414.5727 101.0313 413.5659 101.0313 412.3237" stroke="#000000" stroke-width="0.750418" stroke-linecap="square" fill="none" /><path transform="matrix(1 0 0 -1 0 841)" d="M233.8438 407.4508L344.1563 407.4508z" stroke="#0000EE" stroke-width="0.750418" stroke-linecap="square" fill="none" /><path transform="matrix(1 0 0 -1 0 841)" d="M101.0313 387.5843C 101.0313 386.3421 100.0313 385.3352 98.75 385.3352C 97.5 385.3352 96.5 386.3421 96.5 387.5843C 96.5 388.8264 97.5 389.8333 98.75 389.8333C 100.0313 389.8333 101.0313 388.8264 101.0313 387.5843" stroke="#000000" stroke-width="0.750418" stroke-linecap="square" fill="none" /><path transform="matrix(1 0 0 -1 0 841)" d="M169.3125 382.7114L497.25 382.7114z" stroke="#0000EE" stroke-width="0.750418" stroke-linecap="square" fill="none" /><path transform="matrix(1 0 0 -1 0 841)" d="M101.0313 362.8449C 101.0313 361.6027 100.0313 360.5958 98.75 360.5958C 97.5 360.5958 96.5 361.6027 96.5 362.8449C 96.5 364.087 97.5 365.0939 98.75 365.0939C 100.0313 365.0939 101.0313 364.087 101.0313 362.8449" stroke="#000000" stroke-width="0.750418" stroke-linecap="square" fill="none" /><path transform="matrix(1 0 0 -1 0 841)" d="M152.7813 357.972L261.5938 357.972z" stroke="#0000EE" stroke-width="0.750418" stroke-linecap="square" fill="none" /><path transform="matrix(1 0 0 -1 0 841)" d="M101.0313 338.1055C 101.0313 336.8633 100.0313 335.8564 98.75 335.8564C 97.5 335.8564 96.5 336.8633 96.5 338.1055C 96.5 339.3476 97.5 340.3545 98.75 340.3545C 100.0313 340.3545 101.0313 339.3476 101.0313 338.1055" stroke="#000000" stroke-width="0.750418" stroke-linecap="square" fill="none" /><path transform="matrix(1 0 0 -1 0 841)" d="M295.375 333.2325L545.25 333.2325z" stroke="#0000EE" stroke-width="0.750418" stroke-linecap="square" fill="none" /><path transform="matrix(1 0 0 -1 0 841)" d="M110.0313 315.9899L206.0625 315.9899z" stroke="#0000EE" stroke-width="0.750418" stroke-linecap="square" fill="none" /><path transform="matrix(1 0 0 -1 0 841)" d="M213.5938 315.9899L335.9063 315.9899z" stroke="#0000EE" stroke-width="0.750418" stroke-linecap="square" fill="none" /><path transform="matrix(1 0 0 -1 0 841)" d="M101.0313 296.1234C 101.0313 294.8813 100.0313 293.8744 98.75 293.8744C 97.5 293.8744 96.5 294.8813 96.5 296.1234C 96.5 297.3656 97.5 298.3725 98.75 298.3725C 100.0313 298.3725 101.0313 297.3656 101.0313 296.1234" stroke="#000000" stroke-width="0.750418" stroke-linecap="square" fill="none" /><path transform="matrix(1 0 0 -1 0 841)" d="M242.0938 291.2505L541.5 291.2505z" stroke="#0000EE" stroke-width="0.750418" stroke-linecap="square" fill="none" /><path transform="matrix(1 0 0 -1 0 841)" d="M110.0313 274.0079L232.3438 274.0079z" stroke="#0000EE" stroke-width="0.750418" stroke-linecap="square" fill="none" /><path transform="matrix(1 0 0 -1 0 841)" d="M71 246.6446C 71 245.4025 70 244.3956 68.75 244.3956C 67.46875 244.3956 66.5 245.4025 66.5 246.6446C 66.5 247.8868 67.46875 248.8937 68.75 248.8937C 70 248.8937 71 247.8868 71 246.6446" stroke="#000000" stroke-width="0.750418" fill="#000000" fill-rule="evenodd" /><path transform="matrix(1 0 0 -1 0 841)" d="M101.0313 229.402C 101.0313 228.1599 100.0313 227.153 98.75 227.153C 97.5 227.153 96.5 228.1599 96.5 229.402C 96.5 230.6442 97.5 231.6511 98.75 231.6511C 100.0313 231.6511 101.0313 230.6442 101.0313 229.402" stroke="#000000" stroke-width="0.750418" stroke-linecap="square" fill="none" /><path transform="matrix(1 0 0 -1 0 841)" d="M154.2813 224.5291L385.4375 224.5291z" stroke="#0000EE" stroke-width="0.750418" stroke-linecap="square" fill="none" /><path transform="matrix(1 0 0 -1 0 841)" d="M392.9375 224.5291L515.25 224.5291z" stroke="#0000EE" stroke-width="0.750418" stroke-linecap="square" fill="none" /><path transform="matrix(1 0 0 -1 0 841)" d="M71 197.1658C 71 195.9236 70 194.9167 68.75 194.9167C 67.46875 194.9167 66.5 195.9236 66.5 197.1658C 66.5 198.408 67.46875 199.4149 68.75 199.4149C 70 199.4149 71 198.408 71 197.1658" stroke="#000000" stroke-width="0.750418" fill="#000000" fill-rule="evenodd" /><path transform="matrix(1 0 0 -1 0 841)" d="M101.0313 179.9232C 101.0313 178.681 100.0313 177.6741 98.75 177.6741C 97.5 177.6741 96.5 178.681 96.5 179.9232C 96.5 181.1653 97.5 182.1722 98.75 182.1722C 100.0313 182.1722 101.0313 181.1653 101.0313 179.9232" stroke="#000000" stroke-width="0.750418" stroke-linecap="square" fill="none" /><path transform="matrix(1 0 0 -1 0 841)" d="M154.2813 175.0503L225.5938 175.0503z" stroke="#0000EE" stroke-width="0.750418" stroke-linecap="square" fill="none" /><path transform="matrix(1 0 0 -1 0 841)" d="M71 147.687C 71 146.4448 70 145.4379 68.75 145.4379C 67.46875 145.4379 66.5 146.4448 66.5 147.687C 66.5 148.9291 67.46875 149.936 68.75 149.936C 70 149.936 71 148.9291 71 147.687" stroke="#000000" stroke-width="0.750418" fill="#000000" fill-rule="evenodd" /><path transform="matrix(1 0 0 -1 0 841)" d="M101.0313 130.4444C 101.0313 129.2022 100.0313 128.1953 98.75 128.1953C 97.5 128.1953 96.5 129.2022 96.5 130.4444C 96.5 131.6865 97.5 132.6934 98.75 132.6934C 100.0313 132.6934 101.0313 131.6865 101.0313 130.4444" stroke="#000000" stroke-width="0.750418" stroke-linecap="square" fill="none" /><path transform="matrix(1 0 0 -1 0 841)" d="M154.2813 125.5715L413.9375 125.5715z" stroke="#0000EE" stroke-width="0.750418" stroke-linecap="square" fill="none" /><path transform="matrix(1 0 0 -1 0 841)" d="M101.0313 105.705C 101.0313 104.4628 100.0313 103.4559 98.75 103.4559C 97.5 103.4559 96.5 104.4628 96.5 105.705C 96.5 106.9471 97.5 107.954 98.75 107.954C 100.0313 107.954 101.0313 106.9471 101.0313 105.705" stroke="#000000" stroke-width="0.750418" stroke-linecap="square" fill="none" /><path transform="matrix(1 0 0 -1 0 841)" d="M149.7813 100.832L409.4375 100.832z" stroke="#0000EE" stroke-width="0.750418" stroke-linecap="square" fill="none" /><path transform="matrix(1 0 0 -1 0 841)" d="M101.0313 80.96558C 101.0313 79.72333 100.0313 78.71649 98.75 78.71649C 97.5 78.71649 96.5 79.72333 96.5 80.96558C 96.5 82.20776 97.5 83.2146 98.75 83.2146C 100.0313 83.2146 101.0313 82.20776 101.0313 80.96558" stroke="#000000" stroke-width="0.750418" stroke-linecap="square" fill="none" /><path transform="matrix(1 0 0 -1 0 841)" d="M152.7813 76.09265L412.4375 76.09265z" stroke="#0000EE" stroke-width="0.750418" stroke-linecap="square" fill="none" /></g><g clip-path="url(#4)"></g></g></g></g></svg>