<svg xmlns="http://www.w3.org/2000/svg" xmlns:xlink="http://www.w3.org/1999/xlink" id="body_302" preserveAspectRatio="xMinYMin meet" viewBox="0 0 793 1121"><defs><clipPath id="1"><path d="M0 841L0 -0.8897705L0 -0.8897705L595.2756 -0.8897705L595.2756 -0.8897705L595.2756 841L595.2756 841L0 841z" /></clipPath><clipPath id="2"><path d="M49.96875 -0.8897705L545.25 -0.8897705L545.25 -0.8897705L545.25 840.9998L545.25 840.9998L49.96875 840.9998L49.96875 840.9998L49.96875 -0.8897705" /></clipPath><clipPath id="3"><path d="M49.96875 48.58905L545.25 48.58905L545.25 48.58905L545.25 791.5209L545.25 791.5209L49.96875 791.5209L49.96875 791.5209L49.96875 48.58905" /></clipPath><clipPath id="4"><path d="M49.96875 48.58905L545.25 48.58905L545.25 48.58905L545.25 791.5209L545.25 791.5209L49.96875 791.5209L49.96875 791.5209L49.96875 48.58905" /></clipPath><clipPath id="5"><path d="M49.96875 791.5209L545.25 791.5209L545.25 791.5209L545.25 840.9998L545.25 840.9998L49.96875 840.9998L49.96875 840.9998L49.96875 791.5209" /></clipPath></defs><g transform="matrix(1.333333 0 0 1.333333 0 0)"><g><g clip-path="url(#1)"><g clip-path="url(#2)"></g><g clip-path="url(#3)"><path transform="matrix(1 0 0 -1 0 841)" d="M49.96875 742.9321L80.75 742.9321L80.75 742.9321L80.75 742.1824L80.75 742.1824L49.96875 742.1824z" stroke="none" fill="#808080" fill-rule="winding" /><path transform="matrix(1 0 0 -1 0 841)" d="M49.96875 664.2158L80.75 664.2158L80.75 664.2158L80.75 663.4662L80.75 663.4662L49.96875 663.4662z" stroke="none" fill="#2C2C2C" fill-rule="winding" /><path transform="matrix(1 0 0 -1 0 841)" d="M49.96875 742.9321L49.96875 663.4662L49.96875 663.4662L50.71875 664.2158L50.71875 664.2158L50.71875 742.9321z" stroke="#000000" stroke-width="0" fill="#808080" fill-rule="evenodd" /><path transform="matrix(1 0 0 -1 0 841)" d="M80 742.1824L80 663.4662L80 663.4662L80.75 663.4662L80.75 663.4662L80.75 742.9321z" stroke="#000000" stroke-width="0" fill="#2C2C2C" fill-rule="evenodd" /><path transform="matrix(1 0 0 -1 0 841)" d="M52.21875 740.6831L68.75 740.6831L68.75 740.6831L68.75 739.9334L68.75 739.9334L52.21875 739.9334z" stroke="none" fill="#2C2C2C" fill-rule="winding" /><path transform="matrix(1 0 0 -1 0 841)" d="M52.21875 717.4431L68.75 717.4431L68.75 717.4431L68.75 716.6934L68.75 716.6934L52.21875 716.6934z" stroke="none" fill="#808080" fill-rule="winding" /><path transform="matrix(1 0 0 -1 0 841)" d="M52.21875 740.6831L52.21875 716.6934L52.21875 716.6934L52.96875 717.4431L52.96875 717.4431L52.96875 740.6831z" stroke="#000000" stroke-width="0" fill="#2C2C2C" fill-rule="evenodd" /><path transform="matrix(1 0 0 -1 0 841)" d="M68 739.9334L68 716.6934L68 716.6934L68.75 716.6934L68.75 716.6934L68.75 740.6831z" stroke="#000000" stroke-width="0" fill="#808080" fill-rule="evenodd" /><path transform="matrix(1 0 0 -1 0 841)" d="M70.25 740.6831L78.5 740.6831L78.5 740.6831L78.5 739.9334L78.5 739.9334L70.25 739.9334z" stroke="none" fill="#2C2C2C" fill-rule="winding" /><path transform="matrix(1 0 0 -1 0 841)" d="M70.25 717.4431L78.5 717.4431L78.5 717.4431L78.5 716.6934L78.5 716.6934L70.25 716.6934z" stroke="none" fill="#808080" fill-rule="winding" /><path transform="matrix(1 0 0 -1 0 841)" d="M70.25 740.6831L70.25 716.6934L70.25 716.6934L71 717.4431L71 717.4431L71 740.6831z" stroke="#000000" stroke-width="0" fill="#2C2C2C" fill-rule="evenodd" /><path transform="matrix(1 0 0 -1 0 841)" d="M77.75 739.9334L77.75 716.6934L77.75 716.6934L78.5 716.6934L78.5 716.6934L78.5 740.6831z" stroke="#000000" stroke-width="0" fill="#808080" fill-rule="evenodd" /><path transform="matrix(1 0 0 -1 0 841)" d="M52.21875 715.194L68.75 715.194L68.75 715.194L68.75 714.4443L68.75 714.4443L52.21875 714.4443z" stroke="none" fill="#2C2C2C" fill-rule="winding" /><path transform="matrix(1 0 0 -1 0 841)" d="M52.21875 691.954L68.75 691.954L68.75 691.954L68.75 691.2043L68.75 691.2043L52.21875 691.2043z" stroke="none" fill="#808080" fill-rule="winding" /><path transform="matrix(1 0 0 -1 0 841)" d="M52.21875 715.194L52.21875 691.2043L52.21875 691.2043L52.96875 691.954L52.96875 691.954L52.96875 715.194z" stroke="#000000" stroke-width="0" fill="#2C2C2C" fill-rule="evenodd" /><path transform="matrix(1 0 0 -1 0 841)" d="M68 714.4443L68 691.2043L68 691.2043L68.75 691.2043L68.75 691.2043L68.75 715.194z" stroke="#000000" stroke-width="0" fill="#808080" fill-rule="evenodd" /><path transform="matrix(1 0 0 -1 0 841)" d="M70.25 715.194L78.5 715.194L78.5 715.194L78.5 714.4443L78.5 714.4443L70.25 714.4443z" stroke="none" fill="#2C2C2C" fill-rule="winding" /><path transform="matrix(1 0 0 -1 0 841)" d="M70.25 691.954L78.5 691.954L78.5 691.954L78.5 691.2043L78.5 691.2043L70.25 691.2043z" stroke="none" fill="#808080" fill-rule="winding" /><path transform="matrix(1 0 0 -1 0 841)" d="M70.25 715.194L70.25 691.2043L70.25 691.2043L71 691.954L71 691.954L71 715.194z" stroke="#000000" stroke-width="0" fill="#2C2C2C" fill-rule="evenodd" /><path transform="matrix(1 0 0 -1 0 841)" d="M77.75 714.4443L77.75 691.2043L77.75 691.2043L78.5 691.2043L78.5 691.2043L78.5 715.194z" stroke="#000000" stroke-width="0" fill="#808080" fill-rule="evenodd" /><path transform="matrix(1 0 0 -1 0 841)" d="M52.21875 689.705L68.75 689.705L68.75 689.705L68.75 688.9553L68.75 688.9553L52.21875 688.9553z" stroke="none" fill="#2C2C2C" fill-rule="winding" /><path transform="matrix(1 0 0 -1 0 841)" d="M52.21875 666.4648L68.75 666.4648L68.75 666.4648L68.75 665.7152L68.75 665.7152L52.21875 665.7152z" stroke="none" fill="#808080" fill-rule="winding" /><path transform="matrix(1 0 0 -1 0 841)" d="M52.21875 689.705L52.21875 665.7152L52.21875 665.7152L52.96875 666.4648L52.96875 666.4648L52.96875 689.705z" stroke="#000000" stroke-width="0" fill="#2C2C2C" fill-rule="evenodd" /><path transform="matrix(1 0 0 -1 0 841)" d="M68 688.9553L68 665.7152L68 665.7152L68.75 665.7152L68.75 665.7152L68.75 689.705z" stroke="#000000" stroke-width="0" fill="#808080" fill-rule="evenodd" /><path transform="matrix(1 0 0 -1 0 841)" d="M70.25 689.705L78.5 689.705L78.5 689.705L78.5 688.9553L78.5 688.9553L70.25 688.9553z" stroke="none" fill="#2C2C2C" fill-rule="winding" /><path transform="matrix(1 0 0 -1 0 841)" d="M70.25 666.4648L78.5 666.4648L78.5 666.4648L78.5 665.7152L78.5 665.7152L70.25 665.7152z" stroke="none" fill="#808080" fill-rule="winding" /><path transform="matrix(1 0 0 -1 0 841)" d="M70.25 689.705L70.25 665.7152L70.25 665.7152L71 666.4648L71 666.4648L71 689.705z" stroke="#000000" stroke-width="0" fill="#2C2C2C" fill-rule="evenodd" /><path transform="matrix(1 0 0 -1 0 841)" d="M77.75 688.9553L77.75 665.7152L77.75 665.7152L78.5 665.7152L78.5 665.7152L78.5 689.705z" stroke="#000000" stroke-width="0" fill="#808080" fill-rule="evenodd" /></g><g clip-path="url(#4)"></g><g clip-path="url(#5)"></g></g></g></g></svg>