<svg xmlns="http://www.w3.org/2000/svg" xmlns:xlink="http://www.w3.org/1999/xlink" id="body_33" preserveAspectRatio="xMinYMin meet" viewBox="0 0 793 1121"><defs><clipPath id="1"><path d="M0 841L0 -0.8897705L0 -0.8897705L595.2756 -0.8897705L595.2756 -0.8897705L595.2756 841L595.2756 841L0 841z" /></clipPath><clipPath id="2"><path d="M49.99805 -0.8897705L545.2734 -0.8897705L545.2734 -0.8897705L545.2734 840.9998L545.2734 840.9998L49.99805 840.9998L49.99805 840.9998L49.99805 -0.8897705" /></clipPath><clipPath id="3"><path d="M49.99805 48.58905L545.2734 48.58905L545.2734 48.58905L545.2734 791.5209L545.2734 791.5209L49.99805 791.5209L49.99805 791.5209L49.99805 48.58905" /></clipPath><clipPath id="4"><path d="M49.99805 791.5209L545.2734 791.5209L545.2734 791.5209L545.2734 840.9998L545.2734 840.9998L49.99805 840.9998L49.99805 840.9998L49.99805 791.5209" /></clipPath></defs><g transform="matrix(1.333333 0 0 1.333333 0 0)"><g><g clip-path="url(#1)"><g clip-path="url(#2)"></g><g clip-path="url(#3)"><path transform="matrix(1 0 0 -1 0 841)" d="M71.00977 449.8076C 71.00977 448.5655 70.00391 447.5586 68.75781 447.5586C 67.51367 447.5586 66.50781 448.5655 66.50781 449.8076C 66.50781 451.0498 67.51367 452.0567 68.75781 452.0567C 70.00391 452.0567 71.00977 451.0498 71.00977 449.8076" stroke="#000000" stroke-width="0.750418" fill="#000000" fill-rule="evenodd" /><path transform="matrix(1 0 0 -1 0 841)" d="M71.00977 425.0682C 71.00977 423.8261 70.00391 422.8192 68.75781 422.8192C 67.51367 422.8192 66.50781 423.8261 66.50781 425.0682C 66.50781 426.3104 67.51367 427.3173 68.75781 427.3173C 70.00391 427.3173 71.00977 426.3104 71.00977 425.0682" stroke="#000000" stroke-width="0.750418" fill="#000000" fill-rule="evenodd" /><path transform="matrix(1 0 0 -1 0 841)" d="M71.00977 400.3288C 71.00977 399.0867 70.00391 398.0798 68.75781 398.0798C 67.51367 398.0798 66.50781 399.0867 66.50781 400.3288C 66.50781 401.571 67.51367 402.5779 68.75781 402.5779C 70.00391 402.5779 71.00977 401.571 71.00977 400.3288" stroke="#000000" stroke-width="0.750418" fill="#000000" fill-rule="evenodd" /><path transform="matrix(1 0 0 -1 0 841)" d="M71.00977 358.3468C 71.00977 357.1046 70.00391 356.0977 68.75781 356.0977C 67.51367 356.0977 66.50781 357.1046 66.50781 358.3468C 66.50781 359.589 67.51367 360.5958 68.75781 360.5958C 70.00391 360.5958 71.00977 359.589 71.00977 358.3468" stroke="#000000" stroke-width="0.750418" fill="#000000" fill-rule="evenodd" /><path transform="matrix(1 0 0 -1 0 841)" d="M245.8574 193.0425L305.1406 193.0425z" stroke="#0000EE" stroke-width="0.750418" stroke-linecap="square" fill="none" /></g><g clip-path="url(#4)"></g></g></g></g></svg>