<svg xmlns="http://www.w3.org/2000/svg" xmlns:xlink="http://www.w3.org/1999/xlink" id="body_115" preserveAspectRatio="xMinYMin meet" viewBox="0 0 793 1121"><defs><clipPath id="1"><path d="M0 841L0 -0.8897705L0 -0.8897705L595.2756 -0.8897705L595.2756 -0.8897705L595.2756 841L595.2756 841L0 841z" /></clipPath><clipPath id="2"><path d="M50 -0.8897705L545.2734 -0.8897705L545.2734 -0.8897705L545.2734 840.9998L545.2734 840.9998L50 840.9998L50 840.9998L50 -0.8897705" /></clipPath><clipPath id="3"><path d="M50 48.58905L545.2734 48.58905L545.2734 48.58905L545.2734 791.5209L545.2734 791.5209L50 791.5209L50 791.5209L50 48.58905" /></clipPath><clipPath id="4"><path d="M50 791.5209L545.2734 791.5209L545.2734 791.5209L545.2734 840.9998L545.2734 840.9998L50 840.9998L50 840.9998L50 791.5209" /></clipPath></defs><g transform="matrix(1.333333 0 0 1.333333 0 0)"><g><g clip-path="url(#1)"><g clip-path="url(#2)"></g><g clip-path="url(#3)"><path transform="matrix(1 0 0 -1 0 841)" d="M71.00781 569.0066C 71.00781 567.7645 70.03906 566.7576 68.75781 566.7576C 67.47656 566.7576 66.50781 567.7645 66.50781 569.0066C 66.50781 570.2488 67.47656 571.2556 68.75781 571.2556C 70.03906 571.2556 71.00781 570.2488 71.00781 569.0066" stroke="#000000" stroke-width="0.750418" fill="#000000" fill-rule="evenodd" /><path transform="matrix(1 0 0 -1 0 841)" d="M71.00781 544.2672C 71.00781 543.025 70.03906 542.0182 68.75781 542.0182C 67.47656 542.0182 66.50781 543.025 66.50781 544.2672C 66.50781 545.5093 67.47656 546.5162 68.75781 546.5162C 70.03906 546.5162 71.00781 545.5093 71.00781 544.2672" stroke="#000000" stroke-width="0.750418" fill="#000000" fill-rule="evenodd" /><path transform="matrix(1 0 0 -1 0 841)" d="M71.00781 519.5278C 71.00781 518.2856 70.03906 517.2787 68.75781 517.2787C 67.47656 517.2787 66.50781 518.2856 66.50781 519.5278C 66.50781 520.7699 67.47656 521.7769 68.75781 521.7769C 70.03906 521.7769 71.00781 520.7699 71.00781 519.5278" stroke="#000000" stroke-width="0.750418" fill="#000000" fill-rule="evenodd" /><path transform="matrix(1 0 0 -1 0 841)" d="M71.00781 494.7884C 71.00781 493.5462 70.03906 492.5393 68.75781 492.5393C 67.47656 492.5393 66.50781 493.5462 66.50781 494.7884C 66.50781 496.0305 67.47656 497.0374 68.75781 497.0374C 70.03906 497.0374 71.00781 496.0305 71.00781 494.7884" stroke="#000000" stroke-width="0.750418" fill="#000000" fill-rule="evenodd" /><path transform="matrix(1 0 0 -1 0 841)" d="M71.00781 470.049C 71.00781 468.8068 70.03906 467.7999 68.75781 467.7999C 67.47656 467.7999 66.50781 468.8068 66.50781 470.049C 66.50781 471.2911 67.47656 472.298 68.75781 472.298C 70.03906 472.298 71.00781 471.2911 71.00781 470.049" stroke="#000000" stroke-width="0.750418" fill="#000000" fill-rule="evenodd" /><path transform="matrix(1 0 0 -1 0 841)" d="M71.00781 445.3096C 71.00781 444.0674 70.03906 443.0605 68.75781 443.0605C 67.47656 443.0605 66.50781 444.0674 66.50781 445.3096C 66.50781 446.5517 67.47656 447.5586 68.75781 447.5586C 70.03906 447.5586 71.00781 446.5517 71.00781 445.3096" stroke="#000000" stroke-width="0.750418" fill="#000000" fill-rule="evenodd" /></g><g clip-path="url(#4)"></g></g></g></g></svg>