<svg xmlns="http://www.w3.org/2000/svg" xmlns:xlink="http://www.w3.org/1999/xlink" id="body_37" preserveAspectRatio="xMinYMin meet" viewBox="0 0 793 1121"><defs><clipPath id="1"><path d="M0 841L0 -0.8897705L0 -0.8897705L595.2756 -0.8897705L595.2756 -0.8897705L595.2756 841L595.2756 841L0 841z" /></clipPath><clipPath id="2"><path d="M49.99805 -0.8897705L545.2754 -0.8897705L545.2754 -0.8897705L545.2754 840.9998L545.2754 840.9998L49.99805 840.9998L49.99805 840.9998L49.99805 -0.8897705" /></clipPath><clipPath id="3"><path d="M49.99805 48.58905L545.2754 48.58905L545.2754 48.58905L545.2754 791.5209L545.2754 791.5209L49.99805 791.5209L49.99805 791.5209L49.99805 48.58905" /></clipPath><clipPath id="4"><path d="M49.99805 791.5209L545.2754 791.5209L545.2754 791.5209L545.2754 840.9998L545.2754 840.9998L49.99805 840.9998L49.99805 840.9998L49.99805 791.5209" /></clipPath></defs><g transform="matrix(1.333333 0 0 1.333333 0 0)"><g><g clip-path="url(#1)"><g clip-path="url(#2)"></g><g clip-path="url(#3)"><path transform="matrix(1 0 0 -1 0 841)" d="M71.00977 628.2313C 71.00977 626.9891 70.00586 625.9822 68.75977 625.9822C 67.51367 625.9822 66.50781 626.9891 66.50781 628.2313C 66.50781 629.4734 67.51367 630.4803 68.75977 630.4803C 70.00586 630.4803 71.00977 629.4734 71.00977 628.2313" stroke="#000000" stroke-width="0.750418" fill="#000000" fill-rule="evenodd" /><path transform="matrix(1 0 0 -1 0 841)" d="M71.00977 533.022C 71.00977 531.7799 70.00586 530.7729 68.75977 530.7729C 67.51367 530.7729 66.50781 531.7799 66.50781 533.022C 66.50781 534.2642 67.51367 535.2711 68.75977 535.2711C 70.00586 535.2711 71.00977 534.2642 71.00977 533.022" stroke="#000000" stroke-width="0.750418" fill="#000000" fill-rule="evenodd" /></g><g clip-path="url(#4)"></g></g></g></g></svg>