<svg xmlns="http://www.w3.org/2000/svg" xmlns:xlink="http://www.w3.org/1999/xlink" id="body_249" preserveAspectRatio="xMinYMin meet" viewBox="0 0 793 1121"><defs><clipPath id="1"><path d="M0 841L0 -0.8897705L0 -0.8897705L595.2756 -0.8897705L595.2756 -0.8897705L595.2756 841L595.2756 841L0 841z" /></clipPath><clipPath id="2"><path d="M49.98438 -0.8897705L545.2656 -0.8897705L545.2656 -0.8897705L545.2656 840.9998L545.2656 840.9998L49.98438 840.9998L49.98438 840.9998L49.98438 -0.8897705" /></clipPath><clipPath id="3"><path d="M49.98438 48.58905L545.2656 48.58905L545.2656 48.58905L545.2656 791.5209L545.2656 791.5209L49.98438 791.5209L49.98438 791.5209L49.98438 48.58905" /></clipPath><clipPath id="4"><path d="M49.98438 791.5209L545.2656 791.5209L545.2656 791.5209L545.2656 840.9998L545.2656 840.9998L49.98438 840.9998L49.98438 840.9998L49.98438 791.5209" /></clipPath></defs><g transform="matrix(1.333333 0 0 1.333333 0 0)"><g><g clip-path="url(#1)"><g clip-path="url(#2)"></g><g clip-path="url(#3)"><path transform="matrix(1 0 0 -1 0 841)" d="M338.8906 729.0631L400.4375 729.0631z" stroke="#0000EE" stroke-width="0.750418" stroke-linecap="square" fill="none" /><path transform="matrix(1 0 0 -1 0 841)" d="M71 652.2209C 71 650.9788 70.01563 649.9719 68.75 649.9719C 67.48438 649.9719 66.5 650.9788 66.5 652.2209C 66.5 653.4631 67.48438 654.47 68.75 654.47C 70.01563 654.47 71 653.4631 71 652.2209" stroke="#000000" stroke-width="0.750418" fill="#000000" fill-rule="evenodd" /><path transform="matrix(1 0 0 -1 0 841)" d="M71 627.4816C 71 626.2394 70.01563 625.2325 68.75 625.2325C 67.48438 625.2325 66.5 626.2394 66.5 627.4816C 66.5 628.7237 67.48438 629.7306 68.75 629.7306C 70.01563 629.7306 71 628.7237 71 627.4816" stroke="#000000" stroke-width="0.750418" fill="#000000" fill-rule="evenodd" /></g><g clip-path="url(#4)"></g></g></g></g></svg>