<svg xmlns="http://www.w3.org/2000/svg" xmlns:xlink="http://www.w3.org/1999/xlink" id="body_313" preserveAspectRatio="xMinYMin meet" viewBox="0 0 793 1121"><defs><clipPath id="1"><path d="M0 841L0 -0.8897705L0 -0.8897705L595.2756 -0.8897705L595.2756 -0.8897705L595.2756 841L595.2756 841L0 841z" /></clipPath><clipPath id="2"><path d="M50 -0.8897705L545.25 -0.8897705L545.25 -0.8897705L545.25 840.9998L545.25 840.9998L50 840.9998L50 840.9998L50 -0.8897705" /></clipPath><clipPath id="3"><path d="M50 48.58905L545.25 48.58905L545.25 48.58905L545.25 791.5209L545.25 791.5209L50 791.5209L50 791.5209L50 48.58905" /></clipPath><clipPath id="4"><path d="M50 791.5209L545.25 791.5209L545.25 791.5209L545.25 840.9998L545.25 840.9998L50 840.9998L50 840.9998L50 791.5209" /></clipPath></defs><g transform="matrix(1.333333 0 0 1.333333 0 0)"><g><g clip-path="url(#1)"><g clip-path="url(#2)"></g><g clip-path="url(#3)"><path transform="matrix(1 0 0 -1 0 841)" d="M101 775.918C 101 774.6759 100.0313 773.6689 98.75 773.6689C 97.5 773.6689 96.5 774.6759 96.5 775.918C 96.5 777.1602 97.5 778.1671 98.75 778.1671C 100.0313 778.1671 101 777.1602 101 775.918" stroke="#000000" stroke-width="0.750418" stroke-linecap="square" fill="none" /><path transform="matrix(1 0 0 -1 0 841)" d="M207.5625 771.0451L395.9375 771.0451z" stroke="#0000EE" stroke-width="0.750418" stroke-linecap="square" fill="none" /><path transform="matrix(1 0 0 -1 0 841)" d="M71 743.6818C 71 742.4397 70 741.4328 68.75 741.4328C 67.46875 741.4328 66.5 742.4397 66.5 743.6818C 66.5 744.924 67.46875 745.9308 68.75 745.9308C 70 745.9308 71 744.924 71 743.6818" stroke="#000000" stroke-width="0.750418" fill="#000000" fill-rule="evenodd" /><path transform="matrix(1 0 0 -1 0 841)" d="M101 726.4392C 101 725.197 100.0313 724.1902 98.75 724.1902C 97.5 724.1902 96.5 725.197 96.5 726.4392C 96.5 727.6813 97.5 728.6882 98.75 728.6882C 100.0313 728.6882 101 727.6813 101 726.4392" stroke="#000000" stroke-width="0.750418" stroke-linecap="square" fill="none" /><path transform="matrix(1 0 0 -1 0 841)" d="M177.5625 721.5663L407.1875 721.5663z" stroke="#0000EE" stroke-width="0.750418" stroke-linecap="square" fill="none" /><path transform="matrix(1 0 0 -1 0 841)" d="M71 694.203C 71 692.9609 70 691.954 68.75 691.954C 67.46875 691.954 66.5 692.9609 66.5 694.203C 66.5 695.4451 67.46875 696.452 68.75 696.452C 70 696.452 71 695.4451 71 694.203" stroke="#000000" stroke-width="0.750418" fill="#000000" fill-rule="evenodd" /><path transform="matrix(1 0 0 -1 0 841)" d="M101 676.9604C 101 675.7183 100.0313 674.7114 98.75 674.7114C 97.5 674.7114 96.5 675.7183 96.5 676.9604C 96.5 678.2025 97.5 679.2094 98.75 679.2094C 100.0313 679.2094 101 678.2025 101 676.9604" stroke="#000000" stroke-width="0.750418" stroke-linecap="square" fill="none" /><path transform="matrix(1 0 0 -1 0 841)" d="M154.2813 672.0875L299.875 672.0875z" stroke="#0000EE" stroke-width="0.750418" stroke-linecap="square" fill="none" /><path transform="matrix(1 0 0 -1 0 841)" d="M71 644.7242C 71 643.4821 70 642.4752 68.75 642.4752C 67.46875 642.4752 66.5 643.4821 66.5 644.7242C 66.5 645.9663 67.46875 646.9732 68.75 646.9732C 70 646.9732 71 645.9663 71 644.7242" stroke="#000000" stroke-width="0.750418" fill="#000000" fill-rule="evenodd" /><path transform="matrix(1 0 0 -1 0 841)" d="M101 627.4816C 101 626.2394 100.0313 625.2325 98.75 625.2325C 97.5 625.2325 96.5 626.2394 96.5 627.4816C 96.5 628.7237 97.5 629.7306 98.75 629.7306C 100.0313 629.7306 101 628.7237 101 627.4816" stroke="#000000" stroke-width="0.750418" stroke-linecap="square" fill="none" /><path transform="matrix(1 0 0 -1 0 841)" d="M154.2813 622.6086L284.875 622.6086z" stroke="#0000EE" stroke-width="0.750418" stroke-linecap="square" fill="none" /><path transform="matrix(1 0 0 -1 0 841)" d="M71 595.2454C 71 594.0032 70 592.9963 68.75 592.9963C 67.46875 592.9963 66.5 594.0032 66.5 595.2454C 66.5 596.4875 67.46875 597.4944 68.75 597.4944C 70 597.4944 71 596.4875 71 595.2454" stroke="#000000" stroke-width="0.750418" fill="#000000" fill-rule="evenodd" /><path transform="matrix(1 0 0 -1 0 841)" d="M101 578.0027C 101 576.7606 100.0313 575.7537 98.75 575.7537C 97.5 575.7537 96.5 576.7606 96.5 578.0027C 96.5 579.2449 97.5 580.2518 98.75 580.2518C 100.0313 580.2518 101 579.2449 101 578.0027" stroke="#000000" stroke-width="0.750418" stroke-linecap="square" fill="none" /><path transform="matrix(1 0 0 -1 0 841)" d="M154.2813 573.1299L195.5625 573.1299z" stroke="#0000EE" stroke-width="0.750418" stroke-linecap="square" fill="none" /><path transform="matrix(1 0 0 -1 0 841)" d="M101 553.2633C 101 552.0212 100.0313 551.0143 98.75 551.0143C 97.5 551.0143 96.5 552.0212 96.5 553.2633C 96.5 554.5055 97.5 555.5124 98.75 555.5124C 100.0313 555.5124 101 554.5055 101 553.2633" stroke="#000000" stroke-width="0.750418" stroke-linecap="square" fill="none" /><path transform="matrix(1 0 0 -1 0 841)" d="M270.5938 548.3904L525 548.3904z" stroke="#0000EE" stroke-width="0.750418" stroke-linecap="square" fill="none" /><path transform="matrix(1 0 0 -1 0 841)" d="M101 528.5239C 101 527.2818 100.0313 526.2749 98.75 526.2749C 97.5 526.2749 96.5 527.2818 96.5 528.5239C 96.5 529.7661 97.5 530.7729 98.75 530.7729C 100.0313 530.7729 101 529.7661 101 528.5239" stroke="#000000" stroke-width="0.750418" stroke-linecap="square" fill="none" /><path transform="matrix(1 0 0 -1 0 841)" d="M170.8125 523.651L223.3438 523.651z" stroke="#0000EE" stroke-width="0.750418" stroke-linecap="square" fill="none" /><path transform="matrix(1 0 0 -1 0 841)" d="M101 503.7845C 101 502.5424 100.0313 501.5355 98.75 501.5355C 97.5 501.5355 96.5 502.5424 96.5 503.7845C 96.5 505.0267 97.5 506.0336 98.75 506.0336C 100.0313 506.0336 101 505.0267 101 503.7845" stroke="#000000" stroke-width="0.750418" stroke-linecap="square" fill="none" /><path transform="matrix(1 0 0 -1 0 841)" d="M260.0938 498.9116L522 498.9116z" stroke="#0000EE" stroke-width="0.750418" stroke-linecap="square" fill="none" /><path transform="matrix(1 0 0 -1 0 841)" d="M71 471.5483C 71 470.3062 70 469.2993 68.75 469.2993C 67.46875 469.2993 66.5 470.3062 66.5 471.5483C 66.5 472.7905 67.46875 473.7974 68.75 473.7974C 70 473.7974 71 472.7905 71 471.5483" stroke="#000000" stroke-width="0.750418" fill="#000000" fill-rule="evenodd" /><path transform="matrix(1 0 0 -1 0 841)" d="M263.0938 466.6754L493.4688 466.6754z" stroke="#0000EE" stroke-width="0.750418" stroke-linecap="square" fill="none" /><path transform="matrix(1 0 0 -1 0 841)" d="M71 446.8089C 71 445.5668 70 444.5599 68.75 444.5599C 67.46875 444.5599 66.5 445.5668 66.5 446.8089C 66.5 448.0511 67.46875 449.058 68.75 449.058C 70 449.058 71 448.0511 71 446.8089" stroke="#000000" stroke-width="0.750418" fill="#000000" fill-rule="evenodd" /><path transform="matrix(1 0 0 -1 0 841)" d="M275.875 441.936L460.4688 441.936z" stroke="#0000EE" stroke-width="0.750418" stroke-linecap="square" fill="none" /><path transform="matrix(1 0 0 -1 0 841)" d="M71 422.0695C 71 420.8274 70 419.8205 68.75 419.8205C 67.46875 419.8205 66.5 420.8274 66.5 422.0695C 66.5 423.3117 67.46875 424.3185 68.75 424.3185C 70 424.3185 71 423.3117 71 422.0695" stroke="#000000" stroke-width="0.750418" fill="#000000" fill-rule="evenodd" /><path transform="matrix(1 0 0 -1 0 841)" d="M101 404.8269C 101 403.5847 100.0313 402.5779 98.75 402.5779C 97.5 402.5779 96.5 403.5847 96.5 404.8269C 96.5 406.0691 97.5 407.0759 98.75 407.0759C 100.0313 407.0759 101 406.0691 101 404.8269" stroke="#000000" stroke-width="0.750418" stroke-linecap="square" fill="none" /><path transform="matrix(1 0 0 -1 0 841)" d="M154.2813 399.954L258.5938 399.954z" stroke="#0000EE" stroke-width="0.750418" stroke-linecap="square" fill="none" /><path transform="matrix(1 0 0 -1 0 841)" d="M71 372.5907C 71 371.3485 70 370.3417 68.75 370.3417C 67.46875 370.3417 66.5 371.3485 66.5 372.5907C 66.5 373.8329 67.46875 374.8397 68.75 374.8397C 70 374.8397 71 373.8329 71 372.5907" stroke="#000000" stroke-width="0.750418" fill="#000000" fill-rule="evenodd" /><path transform="matrix(1 0 0 -1 0 841)" d="M101 355.3481C 101 354.1059 100.0313 353.099 98.75 353.099C 97.5 353.099 96.5 354.1059 96.5 355.3481C 96.5 356.5902 97.5 357.5971 98.75 357.5971C 100.0313 357.5971 101 356.5902 101 355.3481" stroke="#000000" stroke-width="0.750418" stroke-linecap="square" fill="none" /><path transform="matrix(1 0 0 -1 0 841)" d="M188.8125 350.4752L432.6875 350.4752z" stroke="#0000EE" stroke-width="0.750418" stroke-linecap="square" fill="none" /><path transform="matrix(1 0 0 -1 0 841)" d="M71 323.1119C 71 321.8698 70 320.8629 68.75 320.8629C 67.46875 320.8629 66.5 321.8698 66.5 323.1119C 66.5 324.3541 67.46875 325.3609 68.75 325.3609C 70 325.3609 71 324.3541 71 323.1119" stroke="#000000" stroke-width="0.750418" fill="#000000" fill-rule="evenodd" /><path transform="matrix(1 0 0 -1 0 841)" d="M123.5313 318.239L245.8438 318.239z" stroke="#0000EE" stroke-width="0.750418" stroke-linecap="square" fill="none" /></g><g clip-path="url(#4)"></g></g></g></g></svg>