<svg xmlns="http://www.w3.org/2000/svg" xmlns:xlink="http://www.w3.org/1999/xlink" id="body_326" preserveAspectRatio="xMinYMin meet" viewBox="0 0 793 1121"><defs><clipPath id="1"><path d="M0 841L0 -0.8897705L0 -0.8897705L595.2756 -0.8897705L595.2756 -0.8897705L595.2756 841L595.2756 841L0 841z" /></clipPath><clipPath id="2"><path d="M49.96875 -0.8897705L545.25 -0.8897705L545.25 -0.8897705L545.25 840.9998L545.25 840.9998L49.96875 840.9998L49.96875 840.9998L49.96875 -0.8897705" /></clipPath><clipPath id="3"><path d="M49.96875 48.58905L545.25 48.58905L545.25 48.58905L545.25 791.5209L545.25 791.5209L49.96875 791.5209L49.96875 791.5209L49.96875 48.58905" /></clipPath><clipPath id="4"><path d="M49.96875 791.5209L545.25 791.5209L545.25 791.5209L545.25 840.9998L545.25 840.9998L49.96875 840.9998L49.96875 840.9998L49.96875 791.5209" /></clipPath></defs><g transform="matrix(1.333333 0 0 1.333333 0 0)"><g><g clip-path="url(#1)"><g clip-path="url(#2)"></g><g clip-path="url(#3)"><path transform="matrix(1 0 0 -1 0 841)" d="M71 718.9424C 71 717.7003 70 716.6934 68.75 716.6934C 67.46875 716.6934 66.5 717.7003 66.5 718.9424C 66.5 720.1846 67.46875 721.1915 68.75 721.1915C 70 721.1915 71 720.1846 71 718.9424" stroke="#000000" stroke-width="0.750418" fill="#000000" fill-rule="evenodd" /><path transform="matrix(1 0 0 -1 0 841)" d="M101 701.6998C 101 700.4576 100.0313 699.4507 98.75 699.4507C 97.5 699.4507 96.5 700.4576 96.5 701.6998C 96.5 702.942 97.5 703.9489 98.75 703.9489C 100.0313 703.9489 101 702.942 101 701.6998" stroke="#000000" stroke-width="0.750418" stroke-linecap="square" fill="none" /><path transform="matrix(1 0 0 -1 0 841)" d="M161.7813 696.8269L245.0938 696.8269z" stroke="#0000EE" stroke-width="0.750418" stroke-linecap="square" fill="none" /><path transform="matrix(1 0 0 -1 0 841)" d="M101 676.9604C 101 675.7183 100.0313 674.7114 98.75 674.7114C 97.5 674.7114 96.5 675.7183 96.5 676.9604C 96.5 678.2025 97.5 679.2094 98.75 679.2094C 100.0313 679.2094 101 678.2025 101 676.9604" stroke="#000000" stroke-width="0.750418" stroke-linecap="square" fill="none" /><path transform="matrix(1 0 0 -1 0 841)" d="M213.5625 672.0875L407.9375 672.0875z" stroke="#0000EE" stroke-width="0.750418" stroke-linecap="square" fill="none" /><path transform="matrix(1 0 0 -1 0 841)" d="M101 652.2209C 101 650.9788 100.0313 649.9719 98.75 649.9719C 97.5 649.9719 96.5 650.9788 96.5 652.2209C 96.5 653.4631 97.5 654.47 98.75 654.47C 100.0313 654.47 101 653.4631 101 652.2209" stroke="#000000" stroke-width="0.750418" stroke-linecap="square" fill="none" /><path transform="matrix(1 0 0 -1 0 841)" d="M206.0625 647.3481L392.9063 647.3481z" stroke="#0000EE" stroke-width="0.750418" stroke-linecap="square" fill="none" /><path transform="matrix(1 0 0 -1 0 841)" d="M101 627.4816C 101 626.2394 100.0313 625.2325 98.75 625.2325C 97.5 625.2325 96.5 626.2394 96.5 627.4816C 96.5 628.7237 97.5 629.7306 98.75 629.7306C 100.0313 629.7306 101 628.7237 101 627.4816" stroke="#000000" stroke-width="0.750418" stroke-linecap="square" fill="none" /><path transform="matrix(1 0 0 -1 0 841)" d="M161.0313 622.6086L398.1563 622.6086z" stroke="#0000EE" stroke-width="0.750418" stroke-linecap="square" fill="none" /><path transform="matrix(1 0 0 -1 0 841)" d="M101 602.7422C 101 601.5 100.0313 600.4931 98.75 600.4931C 97.5 600.4931 96.5 601.5 96.5 602.7422C 96.5 603.9843 97.5 604.9912 98.75 604.9912C 100.0313 604.9912 101 603.9843 101 602.7422" stroke="#000000" stroke-width="0.750418" stroke-linecap="square" fill="none" /><path transform="matrix(1 0 0 -1 0 841)" d="M230.8438 597.8693L442.4375 597.8693z" stroke="#0000EE" stroke-width="0.750418" stroke-linecap="square" fill="none" /><path transform="matrix(1 0 0 -1 0 841)" d="M71 570.506C 71 569.2638 70 568.257 68.75 568.257C 67.46875 568.257 66.5 569.2638 66.5 570.506C 66.5 571.7481 67.46875 572.755 68.75 572.755C 70 572.755 71 571.7481 71 570.506" stroke="#000000" stroke-width="0.750418" fill="#000000" fill-rule="evenodd" /><path transform="matrix(1 0 0 -1 0 841)" d="M101 553.2633C 101 552.0212 100.0313 551.0143 98.75 551.0143C 97.5 551.0143 96.5 552.0212 96.5 553.2633C 96.5 554.5055 97.5 555.5124 98.75 555.5124C 100.0313 555.5124 101 554.5055 101 553.2633" stroke="#000000" stroke-width="0.750418" stroke-linecap="square" fill="none" /><path transform="matrix(1 0 0 -1 0 841)" d="M154.2813 548.3904L277.3438 548.3904z" stroke="#0000EE" stroke-width="0.750418" stroke-linecap="square" fill="none" /><path transform="matrix(1 0 0 -1 0 841)" d="M71 521.0272C 71 519.785 70 518.7781 68.75 518.7781C 67.46875 518.7781 66.5 519.785 66.5 521.0272C 66.5 522.2693 67.46875 523.2762 68.75 523.2762C 70 523.2762 71 522.2693 71 521.0272" stroke="#000000" stroke-width="0.750418" fill="#000000" fill-rule="evenodd" /><path transform="matrix(1 0 0 -1 0 841)" d="M101 503.7845C 101 502.5424 100.0313 501.5355 98.75 501.5355C 97.5 501.5355 96.5 502.5424 96.5 503.7845C 96.5 505.0267 97.5 506.0336 98.75 506.0336C 100.0313 506.0336 101 505.0267 101 503.7845" stroke="#000000" stroke-width="0.750418" stroke-linecap="square" fill="none" /><path transform="matrix(1 0 0 -1 0 841)" d="M154.2813 498.9116L231.5938 498.9116z" stroke="#0000EE" stroke-width="0.750418" stroke-linecap="square" fill="none" /><path transform="matrix(1 0 0 -1 0 841)" d="M71 471.5483C 71 470.3062 70 469.2993 68.75 469.2993C 67.46875 469.2993 66.5 470.3062 66.5 471.5483C 66.5 472.7905 67.46875 473.7974 68.75 473.7974C 70 473.7974 71 472.7905 71 471.5483" stroke="#000000" stroke-width="0.750418" fill="#000000" fill-rule="evenodd" /><path transform="matrix(1 0 0 -1 0 841)" d="M101 454.3057C 101 453.0636 100.0313 452.0567 98.75 452.0567C 97.5 452.0567 96.5 453.0636 96.5 454.3057C 96.5 455.5479 97.5 456.5547 98.75 456.5547C 100.0313 456.5547 101 455.5479 101 454.3057" stroke="#000000" stroke-width="0.750418" stroke-linecap="square" fill="none" /><path transform="matrix(1 0 0 -1 0 841)" d="M154.2813 449.4328L242.0938 449.4328z" stroke="#0000EE" stroke-width="0.750418" stroke-linecap="square" fill="none" /><path transform="matrix(1 0 0 -1 0 841)" d="M101 429.5663C 101 428.3242 100.0313 427.3173 98.75 427.3173C 97.5 427.3173 96.5 428.3242 96.5 429.5663C 96.5 430.8085 97.5 431.8153 98.75 431.8153C 100.0313 431.8153 101 430.8085 101 429.5663" stroke="#000000" stroke-width="0.750418" stroke-linecap="square" fill="none" /><path transform="matrix(1 0 0 -1 0 841)" d="M247.3438 424.6934L480.7188 424.6934z" stroke="#0000EE" stroke-width="0.750418" stroke-linecap="square" fill="none" /><path transform="matrix(1 0 0 -1 0 841)" d="M488.9688 424.6934L545.25 424.6934z" stroke="#0000EE" stroke-width="0.750418" stroke-linecap="square" fill="none" /><path transform="matrix(1 0 0 -1 0 841)" d="M110 407.4508L173.0313 407.4508z" stroke="#0000EE" stroke-width="0.750418" stroke-linecap="square" fill="none" /><path transform="matrix(1 0 0 -1 0 841)" d="M101 387.5843C 101 386.3421 100.0313 385.3352 98.75 385.3352C 97.5 385.3352 96.5 386.3421 96.5 387.5843C 96.5 388.8264 97.5 389.8333 98.75 389.8333C 100.0313 389.8333 101 388.8264 101 387.5843" stroke="#000000" stroke-width="0.750418" stroke-linecap="square" fill="none" /><path transform="matrix(1 0 0 -1 0 841)" d="M206.8125 382.7114L398.1563 382.7114z" stroke="#0000EE" stroke-width="0.750418" stroke-linecap="square" fill="none" /><path transform="matrix(1 0 0 -1 0 841)" d="M405.6875 382.7114L528 382.7114z" stroke="#0000EE" stroke-width="0.750418" stroke-linecap="square" fill="none" /><path transform="matrix(1 0 0 -1 0 841)" d="M71 355.3481C 71 354.1059 70 353.099 68.75 353.099C 67.46875 353.099 66.5 354.1059 66.5 355.3481C 66.5 356.5902 67.46875 357.5971 68.75 357.5971C 70 357.5971 71 356.5902 71 355.3481" stroke="#000000" stroke-width="0.750418" fill="#000000" fill-rule="evenodd" /><path transform="matrix(1 0 0 -1 0 841)" d="M101 338.1055C 101 336.8633 100.0313 335.8564 98.75 335.8564C 97.5 335.8564 96.5 336.8633 96.5 338.1055C 96.5 339.3476 97.5 340.3545 98.75 340.3545C 100.0313 340.3545 101 339.3476 101 338.1055" stroke="#000000" stroke-width="0.750418" stroke-linecap="square" fill="none" /><path transform="matrix(1 0 0 -1 0 841)" d="M154.2813 333.2325L194.0625 333.2325z" stroke="#0000EE" stroke-width="0.750418" stroke-linecap="square" fill="none" /><path transform="matrix(1 0 0 -1 0 841)" d="M101 313.366C 101 312.1239 100.0313 311.117 98.75 311.117C 97.5 311.117 96.5 312.1239 96.5 313.366C 96.5 314.6082 97.5 315.6151 98.75 315.6151C 100.0313 315.6151 101 314.6082 101 313.366" stroke="#000000" stroke-width="0.750418" stroke-linecap="square" fill="none" /><path transform="matrix(1 0 0 -1 0 841)" d="M161.0313 308.4932L284.0938 308.4932z" stroke="#0000EE" stroke-width="0.750418" stroke-linecap="square" fill="none" /><path transform="matrix(1 0 0 -1 0 841)" d="M101 288.6266C 101 287.3845 100.0313 286.3776 98.75 286.3776C 97.5 286.3776 96.5 287.3845 96.5 288.6266C 96.5 289.8688 97.5 290.8757 98.75 290.8757C 100.0313 290.8757 101 289.8688 101 288.6266" stroke="#000000" stroke-width="0.750418" stroke-linecap="square" fill="none" /><path transform="matrix(1 0 0 -1 0 841)" d="M173.7813 283.7537L371.9063 283.7537z" stroke="#0000EE" stroke-width="0.750418" stroke-linecap="square" fill="none" /><path transform="matrix(1 0 0 -1 0 841)" d="M71 256.3904C 71 255.1483 70 254.1414 68.75 254.1414C 67.46875 254.1414 66.5 255.1483 66.5 256.3904C 66.5 257.6326 67.46875 258.6395 68.75 258.6395C 70 258.6395 71 257.6326 71 256.3904" stroke="#000000" stroke-width="0.750418" fill="#000000" fill-rule="evenodd" /><path transform="matrix(1 0 0 -1 0 841)" d="M101 239.1478C 101 237.9057 100.0313 236.8988 98.75 236.8988C 97.5 236.8988 96.5 237.9057 96.5 239.1478C 96.5 240.39 97.5 241.3969 98.75 241.3969C 100.0313 241.3969 101 240.39 101 239.1478" stroke="#000000" stroke-width="0.750418" stroke-linecap="square" fill="none" /><path transform="matrix(1 0 0 -1 0 841)" d="M177.5625 234.2749L379.4063 234.2749z" stroke="#0000EE" stroke-width="0.750418" stroke-linecap="square" fill="none" /><path transform="matrix(1 0 0 -1 0 841)" d="M71 206.9116C 71 205.6695 70 204.6626 68.75 204.6626C 67.46875 204.6626 66.5 205.6695 66.5 206.9116C 66.5 208.1538 67.46875 209.1606 68.75 209.1606C 70 209.1606 71 208.1538 71 206.9116" stroke="#000000" stroke-width="0.750418" fill="#000000" fill-rule="evenodd" /><path transform="matrix(1 0 0 -1 0 841)" d="M101 189.669C 101 188.4269 100.0313 187.42 98.75 187.42C 97.5 187.42 96.5 188.4269 96.5 189.669C 96.5 190.9112 97.5 191.918 98.75 191.918C 100.0313 191.918 101 190.9112 101 189.669" stroke="#000000" stroke-width="0.750418" stroke-linecap="square" fill="none" /><path transform="matrix(1 0 0 -1 0 841)" d="M154.2813 184.7961L225.5625 184.7961z" stroke="#0000EE" stroke-width="0.750418" stroke-linecap="square" fill="none" /><path transform="matrix(1 0 0 -1 0 841)" d="M101 164.9296C 101 163.6874 100.0313 162.6805 98.75 162.6805C 97.5 162.6805 96.5 163.6874 96.5 164.9296C 96.5 166.1718 97.5 167.1786 98.75 167.1786C 100.0313 167.1786 101 166.1718 101 164.9296" stroke="#000000" stroke-width="0.750418" stroke-linecap="square" fill="none" /><path transform="matrix(1 0 0 -1 0 841)" d="M149.7813 160.0567L221.0625 160.0567z" stroke="#0000EE" stroke-width="0.750418" stroke-linecap="square" fill="none" /><path transform="matrix(1 0 0 -1 0 841)" d="M71 132.6934C 71 131.4512 70 130.4444 68.75 130.4444C 67.46875 130.4444 66.5 131.4512 66.5 132.6934C 66.5 133.9355 67.46875 134.9424 68.75 134.9424C 70 134.9424 71 133.9355 71 132.6934" stroke="#000000" stroke-width="0.750418" fill="#000000" fill-rule="evenodd" /><path transform="matrix(1 0 0 -1 0 841)" d="M101 115.4508C 101 114.2086 100.0313 113.2018 98.75 113.2018C 97.5 113.2018 96.5 114.2086 96.5 115.4508C 96.5 116.6929 97.5 117.6998 98.75 117.6998C 100.0313 117.6998 101 116.6929 101 115.4508" stroke="#000000" stroke-width="0.750418" stroke-linecap="square" fill="none" /><path transform="matrix(1 0 0 -1 0 841)" d="M178.3125 110.5779L281.8438 110.5779z" stroke="#0000EE" stroke-width="0.750418" stroke-linecap="square" fill="none" /><path transform="matrix(1 0 0 -1 0 841)" d="M101 90.71136C 101 89.46918 100.0313 88.46234 98.75 88.46234C 97.5 88.46234 96.5 89.46918 96.5 90.71136C 96.5 91.95361 97.5 92.96045 98.75 92.96045C 100.0313 92.96045 101 91.95361 101 90.71136" stroke="#000000" stroke-width="0.750418" stroke-linecap="square" fill="none" /><path transform="matrix(1 0 0 -1 0 841)" d="M311.875 85.83844L545.25 85.83844z" stroke="#0000EE" stroke-width="0.750418" stroke-linecap="square" fill="none" /><path transform="matrix(1 0 0 -1 0 841)" d="M110 68.59583L214.3125 68.59583z" stroke="#0000EE" stroke-width="0.750418" stroke-linecap="square" fill="none" /><path transform="matrix(1 0 0 -1 0 841)" d="M221.8125 68.59583L344.1563 68.59583z" stroke="#0000EE" stroke-width="0.750418" stroke-linecap="square" fill="none" /></g><g clip-path="url(#4)"></g></g></g></g></svg>