<svg xmlns="http://www.w3.org/2000/svg" xmlns:xlink="http://www.w3.org/1999/xlink" id="body_91" preserveAspectRatio="xMinYMin meet" viewBox="0 0 793 1121"><defs><clipPath id="1"><path d="M0 841L0 -0.8897705L0 -0.8897705L595.2756 -0.8897705L595.2756 -0.8897705L595.2756 841L595.2756 841L0 841z" /></clipPath><clipPath id="2"><path d="M50 -0.8897705L545.2734 -0.8897705L545.2734 -0.8897705L545.2734 840.9998L545.2734 840.9998L50 840.9998L50 840.9998L50 -0.8897705" /></clipPath><clipPath id="3"><path d="M50 48.58905L545.2734 48.58905L545.2734 48.58905L545.2734 791.5209L545.2734 791.5209L50 791.5209L50 791.5209L50 48.58905" /></clipPath><clipPath id="4"><path d="M50 791.5209L545.2734 791.5209L545.2734 791.5209L545.2734 840.9998L545.2734 840.9998L50 840.9998L50 840.9998L50 791.5209" /></clipPath></defs><g transform="matrix(1.333333 0 0 1.333333 0 0)"><g><g clip-path="url(#1)"><g clip-path="url(#2)"></g><g clip-path="url(#3)"><path transform="matrix(1 0 0 -1 0 841)" d="M71.00781 760.1747C 71.00781 758.9326 70 757.9257 68.75781 757.9257C 67.51563 757.9257 66.50781 758.9326 66.50781 760.1747C 66.50781 761.4169 67.51563 762.4238 68.75781 762.4238C 70 762.4238 71.00781 761.4169 71.00781 760.1747" stroke="#000000" stroke-width="0.750418" fill="#000000" fill-rule="evenodd" /><path transform="matrix(1 0 0 -1 0 841)" d="M71.00781 700.2004C 71.00781 698.9583 70 697.9514 68.75781 697.9514C 67.51563 697.9514 66.50781 698.9583 66.50781 700.2004C 66.50781 701.4426 67.51563 702.4495 68.75781 702.4495C 70 702.4495 71.00781 701.4426 71.00781 700.2004" stroke="#000000" stroke-width="0.750418" fill="#000000" fill-rule="evenodd" /><path transform="matrix(1 0 0 -1 0 841)" d="M71.00781 604.9912C 71.00781 603.749 70 602.7422 68.75781 602.7422C 67.51563 602.7422 66.50781 603.749 66.50781 604.9912C 66.50781 606.2333 67.51563 607.2402 68.75781 607.2402C 70 607.2402 71.00781 606.2333 71.00781 604.9912" stroke="#000000" stroke-width="0.750418" fill="#000000" fill-rule="evenodd" /><path transform="matrix(1 0 0 -1 0 841)" d="M71.00781 545.0168C 71.00781 543.7748 70 542.7678 68.75781 542.7678C 67.51563 542.7678 66.50781 543.7748 66.50781 545.0168C 66.50781 546.259 67.51563 547.2659 68.75781 547.2659C 70 547.2659 71.00781 546.259 71.00781 545.0168" stroke="#000000" stroke-width="0.750418" fill="#000000" fill-rule="evenodd" /><g transform="matrix(0.750418 0 0 0.749679 49.99982 455.6648)"><g transform="matrix(1 0 0 1 0 0)"><image x="0" y="0" xlink:href="img_16.png" width="600" height="2" /></g></g><path transform="matrix(1 0 0 -1 0 841)" d="M71.00781 266.1363C 71.00781 264.8941 70 263.8873 68.75781 263.8873C 67.51563 263.8873 66.50781 264.8941 66.50781 266.1363C 66.50781 267.3784 67.51563 268.3853 68.75781 268.3853C 70 268.3853 71.00781 267.3784 71.00781 266.1363" stroke="#000000" stroke-width="0.750418" fill="#000000" fill-rule="evenodd" /><path transform="matrix(1 0 0 -1 0 841)" d="M80.01563 261.2634L301.3906 261.2634z" stroke="#0000EE" stroke-width="0.750418" stroke-linecap="square" fill="none" /><path transform="matrix(1 0 0 -1 0 841)" d="M71.00781 241.3969C 71.00781 240.1547 70 239.1478 68.75781 239.1478C 67.51563 239.1478 66.50781 240.1547 66.50781 241.3969C 66.50781 242.639 67.51563 243.6459 68.75781 243.6459C 70 243.6459 71.00781 242.639 71.00781 241.3969" stroke="#000000" stroke-width="0.750418" fill="#000000" fill-rule="evenodd" /><path transform="matrix(1 0 0 -1 0 841)" d="M80.01563 236.5239L242.1094 236.5239z" stroke="#0000EE" stroke-width="0.750418" stroke-linecap="square" fill="none" /><g transform="matrix(0.750418 0 0 0.749679 49.99982 630.34)"><g transform="matrix(1 0 0 1 0 0)"><image x="0" y="0" xlink:href="img_16.png" width="600" height="2" /></g></g></g><g clip-path="url(#4)"></g></g></g></g></svg>