<svg xmlns="http://www.w3.org/2000/svg" xmlns:xlink="http://www.w3.org/1999/xlink" id="body_221" preserveAspectRatio="xMinYMin meet" viewBox="0 0 793 1121"><defs><clipPath id="1"><path d="M0 841L0 -0.8897705L0 -0.8897705L595.2756 -0.8897705L595.2756 -0.8897705L595.2756 841L595.2756 841L0 841z" /></clipPath><clipPath id="2"><path d="M49.98438 -0.8897705L545.2656 -0.8897705L545.2656 -0.8897705L545.2656 840.9998L545.2656 840.9998L49.98438 840.9998L49.98438 840.9998L49.98438 -0.8897705" /></clipPath><clipPath id="3"><path d="M49.98438 48.58905L545.2656 48.58905L545.2656 48.58905L545.2656 791.5209L545.2656 791.5209L49.98438 791.5209L49.98438 791.5209L49.98438 48.58905" /></clipPath><clipPath id="4"><path d="M49.98438 791.5209L545.2656 791.5209L545.2656 791.5209L545.2656 840.9998L545.2656 840.9998L49.98438 840.9998L49.98438 840.9998L49.98438 791.5209" /></clipPath></defs><g transform="matrix(1.333333 0 0 1.333333 0 0)"><g><g clip-path="url(#1)"><g clip-path="url(#2)"></g><g clip-path="url(#3)"><g transform="matrix(0.5565301 0 0 0.5543532 80.00733 48.58905)"><g transform="matrix(1 0 0 1 0 0)"><image x="0" y="0" xlink:href="img_393.png" width="836" height="403" /></g></g><g transform="matrix(0.5499517 0 0 0.5461947 80.00733 463.9113)"><g transform="matrix(1 0 0 1 0 0)"><image x="0" y="0" xlink:href="img_394.png" width="846" height="140" /></g></g><g transform="matrix(0.5578647 0 0 0.552683 80.00733 582.3605)"><g transform="matrix(1 0 0 1 0 0)"><image x="0" y="0" xlink:href="img_395.png" width="834" height="137" /></g></g></g><g clip-path="url(#4)"></g></g></g></g></svg>