<svg xmlns="http://www.w3.org/2000/svg" xmlns:xlink="http://www.w3.org/1999/xlink" id="body_23" preserveAspectRatio="xMinYMin meet" viewBox="0 0 793 1121"><defs><clipPath id="1"><path d="M0 841L0 -0.8897705L0 -0.8897705L595.2756 -0.8897705L595.2756 -0.8897705L595.2756 841L595.2756 841L0 841z" /></clipPath><clipPath id="2"><path d="M49.99902 -0.8897705L545.2754 -0.8897705L545.2754 -0.8897705L545.2754 840.9998L545.2754 840.9998L49.99902 840.9998L49.99902 840.9998L49.99902 -0.8897705" /></clipPath><clipPath id="3"><path d="M49.99902 48.58905L545.2754 48.58905L545.2754 48.58905L545.2754 791.5209L545.2754 791.5209L49.99902 791.5209L49.99902 791.5209L49.99902 48.58905" /></clipPath><clipPath id="4"><path d="M49.99902 791.5209L545.2754 791.5209L545.2754 791.5209L545.2754 840.9998L545.2754 840.9998L49.99902 840.9998L49.99902 840.9998L49.99902 791.5209" /></clipPath></defs><g transform="matrix(1.333333 0 0 1.333333 0 0)"><g><g clip-path="url(#1)"><g clip-path="url(#2)"></g><g clip-path="url(#3)"><path transform="matrix(1 0 0 -1 0 841)" d="M49.99902 715.5688L111.5332 715.5688z" stroke="#0000EE" stroke-width="0.750418" stroke-linecap="square" fill="none" /><path transform="matrix(1 0 0 -1 0 841)" d="M49.99902 639.1016L110.0322 639.1016z" stroke="#0000EE" stroke-width="0.750418" stroke-linecap="square" fill="none" /><path transform="matrix(1 0 0 -1 0 841)" d="M49.99902 562.6343L112.2842 562.6343z" stroke="#0000EE" stroke-width="0.750418" stroke-linecap="square" fill="none" /><path transform="matrix(1 0 0 -1 0 841)" d="M49.99902 434.4392L110.7832 434.4392z" stroke="#0000EE" stroke-width="0.750418" stroke-linecap="square" fill="none" /><path transform="matrix(1 0 0 -1 0 841)" d="M49.99902 323.4867L112.2842 323.4867z" stroke="#0000EE" stroke-width="0.750418" stroke-linecap="square" fill="none" /><path transform="matrix(1 0 0 -1 0 841)" d="M49.99902 229.7769L107.7813 229.7769z" stroke="#0000EE" stroke-width="0.750418" stroke-linecap="square" fill="none" /><path transform="matrix(1 0 0 -1 0 841)" d="M49.99902 118.8243L110.7832 118.8243z" stroke="#0000EE" stroke-width="0.750418" stroke-linecap="square" fill="none" /></g><g clip-path="url(#4)"></g></g></g></g></svg>