<svg xmlns="http://www.w3.org/2000/svg" xmlns:xlink="http://www.w3.org/1999/xlink" id="body_310" preserveAspectRatio="xMinYMin meet" viewBox="0 0 793 1121"><defs><clipPath id="1"><path d="M0 841L0 -0.8897705L0 -0.8897705L595.2756 -0.8897705L595.2756 -0.8897705L595.2756 841L595.2756 841L0 841z" /></clipPath><clipPath id="2"><path d="M49.96875 -0.8897705L545.25 -0.8897705L545.25 -0.8897705L545.25 840.9998L545.25 840.9998L49.96875 840.9998L49.96875 840.9998L49.96875 -0.8897705" /></clipPath><clipPath id="3"><path d="M49.96875 48.58905L545.25 48.58905L545.25 48.58905L545.25 791.5209L545.25 791.5209L49.96875 791.5209L49.96875 791.5209L49.96875 48.58905" /></clipPath><clipPath id="4"><path d="M49.96875 791.5209L545.25 791.5209L545.25 791.5209L545.25 840.9998L545.25 840.9998L49.96875 840.9998L49.96875 840.9998L49.96875 791.5209" /></clipPath></defs><g transform="matrix(1.333333 0 0 1.333333 0 0)"><g><g clip-path="url(#1)"><g clip-path="url(#2)"></g><g clip-path="url(#3)"><path transform="matrix(1 0 0 -1 0 841)" d="M70.96875 718.9424C 70.96875 717.7003 70 716.6934 68.71875 716.6934C 67.46875 716.6934 66.46875 717.7003 66.46875 718.9424C 66.46875 720.1846 67.46875 721.1915 68.71875 721.1915C 70 721.1915 70.96875 720.1846 70.96875 718.9424" stroke="#000000" stroke-width="0.750418" fill="#000000" fill-rule="evenodd" /><path transform="matrix(1 0 0 -1 0 841)" d="M101 701.6998C 101 700.4576 100 699.4507 98.75 699.4507C 97.46875 699.4507 96.5 700.4576 96.5 701.6998C 96.5 702.942 97.46875 703.9489 98.75 703.9489C 100 703.9489 101 702.942 101 701.6998" stroke="#000000" stroke-width="0.750418" stroke-linecap="square" fill="none" /><path transform="matrix(1 0 0 -1 0 841)" d="M160.2813 696.8269L299.8438 696.8269z" stroke="#0000EE" stroke-width="0.750418" stroke-linecap="square" fill="none" /><path transform="matrix(1 0 0 -1 0 841)" d="M101 676.9604C 101 675.7183 100 674.7114 98.75 674.7114C 97.46875 674.7114 96.5 675.7183 96.5 676.9604C 96.5 678.2025 97.46875 679.2094 98.75 679.2094C 100 679.2094 101 678.2025 101 676.9604" stroke="#000000" stroke-width="0.750418" stroke-linecap="square" fill="none" /><path transform="matrix(1 0 0 -1 0 841)" d="M281.0938 672.0875L385.4063 672.0875z" stroke="#0000EE" stroke-width="0.750418" stroke-linecap="square" fill="none" /><path transform="matrix(1 0 0 -1 0 841)" d="M101 652.2209C 101 650.9788 100 649.9719 98.75 649.9719C 97.46875 649.9719 96.5 650.9788 96.5 652.2209C 96.5 653.4631 97.46875 654.47 98.75 654.47C 100 654.47 101 653.4631 101 652.2209" stroke="#000000" stroke-width="0.750418" stroke-linecap="square" fill="none" /><path transform="matrix(1 0 0 -1 0 841)" d="M171.5313 647.3481L221.0625 647.3481z" stroke="#0000EE" stroke-width="0.750418" stroke-linecap="square" fill="none" /><path transform="matrix(1 0 0 -1 0 841)" d="M101 627.4816C 101 626.2394 100 625.2325 98.75 625.2325C 97.46875 625.2325 96.5 626.2394 96.5 627.4816C 96.5 628.7237 97.46875 629.7306 98.75 629.7306C 100 629.7306 101 628.7237 101 627.4816" stroke="#000000" stroke-width="0.750418" stroke-linecap="square" fill="none" /><path transform="matrix(1 0 0 -1 0 841)" d="M152.0313 622.6086L254.0938 622.6086z" stroke="#0000EE" stroke-width="0.750418" stroke-linecap="square" fill="none" /><path transform="matrix(1 0 0 -1 0 841)" d="M101 602.7422C 101 601.5 100 600.4931 98.75 600.4931C 97.46875 600.4931 96.5 601.5 96.5 602.7422C 96.5 603.9843 97.46875 604.9912 98.75 604.9912C 100 604.9912 101 603.9843 101 602.7422" stroke="#000000" stroke-width="0.750418" stroke-linecap="square" fill="none" /><path transform="matrix(1 0 0 -1 0 841)" d="M165.5313 597.8693L267.5938 597.8693z" stroke="#0000EE" stroke-width="0.750418" stroke-linecap="square" fill="none" /><path transform="matrix(1 0 0 -1 0 841)" d="M101 578.0027C 101 576.7606 100 575.7537 98.75 575.7537C 97.46875 575.7537 96.5 576.7606 96.5 578.0027C 96.5 579.2449 97.46875 580.2518 98.75 580.2518C 100 580.2518 101 579.2449 101 578.0027" stroke="#000000" stroke-width="0.750418" stroke-linecap="square" fill="none" /><path transform="matrix(1 0 0 -1 0 841)" d="M249.5938 573.1299L380.1563 573.1299z" stroke="#0000EE" stroke-width="0.750418" stroke-linecap="square" fill="none" /><path transform="matrix(1 0 0 -1 0 841)" d="M101 553.2633C 101 552.0212 100 551.0143 98.75 551.0143C 97.46875 551.0143 96.5 552.0212 96.5 553.2633C 96.5 554.5055 97.46875 555.5124 98.75 555.5124C 100 555.5124 101 554.5055 101 553.2633" stroke="#000000" stroke-width="0.750418" stroke-linecap="square" fill="none" /><path transform="matrix(1 0 0 -1 0 841)" d="M257.8438 548.3904L403.4063 548.3904z" stroke="#0000EE" stroke-width="0.750418" stroke-linecap="square" fill="none" /><path transform="matrix(1 0 0 -1 0 841)" d="M70.96875 521.0272C 70.96875 519.785 70 518.7781 68.71875 518.7781C 67.46875 518.7781 66.46875 519.785 66.46875 521.0272C 66.46875 522.2693 67.46875 523.2762 68.71875 523.2762C 70 523.2762 70.96875 522.2693 70.96875 521.0272" stroke="#000000" stroke-width="0.750418" fill="#000000" fill-rule="evenodd" /><path transform="matrix(1 0 0 -1 0 841)" d="M101 503.7845C 101 502.5424 100 501.5355 98.75 501.5355C 97.46875 501.5355 96.5 502.5424 96.5 503.7845C 96.5 505.0267 97.46875 506.0336 98.75 506.0336C 100 506.0336 101 505.0267 101 503.7845" stroke="#000000" stroke-width="0.750418" stroke-linecap="square" fill="none" /><path transform="matrix(1 0 0 -1 0 841)" d="M154.2813 498.9116L254.8438 498.9116z" stroke="#0000EE" stroke-width="0.750418" stroke-linecap="square" fill="none" /><path transform="matrix(1 0 0 -1 0 841)" d="M70.96875 471.5483C 70.96875 470.3062 70 469.2993 68.71875 469.2993C 67.46875 469.2993 66.46875 470.3062 66.46875 471.5483C 66.46875 472.7905 67.46875 473.7974 68.71875 473.7974C 70 473.7974 70.96875 472.7905 70.96875 471.5483" stroke="#000000" stroke-width="0.750418" fill="#000000" fill-rule="evenodd" /><path transform="matrix(1 0 0 -1 0 841)" d="M101 454.3057C 101 453.0636 100 452.0567 98.75 452.0567C 97.46875 452.0567 96.5 453.0636 96.5 454.3057C 96.5 455.5479 97.46875 456.5547 98.75 456.5547C 100 456.5547 101 455.5479 101 454.3057" stroke="#000000" stroke-width="0.750418" stroke-linecap="square" fill="none" /><path transform="matrix(1 0 0 -1 0 841)" d="M201.5625 449.4328L468.6875 449.4328z" stroke="#0000EE" stroke-width="0.750418" stroke-linecap="square" fill="none" /><path transform="matrix(1 0 0 -1 0 841)" d="M482.9688 449.4328L545.25 449.4328z" stroke="#0000EE" stroke-width="0.750418" stroke-linecap="square" fill="none" /><path transform="matrix(1 0 0 -1 0 841)" d="M110 432.1902L173.0313 432.1902z" stroke="#0000EE" stroke-width="0.750418" stroke-linecap="square" fill="none" /><path transform="matrix(1 0 0 -1 0 841)" d="M70.96875 404.8269C 70.96875 403.5847 70 402.5779 68.71875 402.5779C 67.46875 402.5779 66.46875 403.5847 66.46875 404.8269C 66.46875 406.0691 67.46875 407.0759 68.71875 407.0759C 70 407.0759 70.96875 406.0691 70.96875 404.8269" stroke="#000000" stroke-width="0.750418" fill="#000000" fill-rule="evenodd" /><path transform="matrix(1 0 0 -1 0 841)" d="M101 387.5843C 101 386.3421 100 385.3352 98.75 385.3352C 97.46875 385.3352 96.5 386.3421 96.5 387.5843C 96.5 388.8264 97.46875 389.8333 98.75 389.8333C 100 389.8333 101 388.8264 101 387.5843" stroke="#000000" stroke-width="0.750418" stroke-linecap="square" fill="none" /><path transform="matrix(1 0 0 -1 0 841)" d="M154.2813 382.7114L293.0938 382.7114z" stroke="#0000EE" stroke-width="0.750418" stroke-linecap="square" fill="none" /><path transform="matrix(1 0 0 -1 0 841)" d="M70.96875 355.3481C 70.96875 354.1059 70 353.099 68.71875 353.099C 67.46875 353.099 66.46875 354.1059 66.46875 355.3481C 66.46875 356.5902 67.46875 357.5971 68.71875 357.5971C 70 357.5971 70.96875 356.5902 70.96875 355.3481" stroke="#000000" stroke-width="0.750418" fill="#000000" fill-rule="evenodd" /><path transform="matrix(1 0 0 -1 0 841)" d="M296.8438 350.4752L541.5 350.4752z" stroke="#0000EE" stroke-width="0.750418" stroke-linecap="square" fill="none" /><path transform="matrix(1 0 0 -1 0 841)" d="M80 333.2325L202.3125 333.2325z" stroke="#0000EE" stroke-width="0.750418" stroke-linecap="square" fill="none" /><path transform="matrix(1 0 0 -1 0 841)" d="M70.96875 313.366C 70.96875 312.1239 70 311.117 68.71875 311.117C 67.46875 311.117 66.46875 312.1239 66.46875 313.366C 66.46875 314.6082 67.46875 315.6151 68.71875 315.6151C 70 315.6151 70.96875 314.6082 70.96875 313.366" stroke="#000000" stroke-width="0.750418" fill="#000000" fill-rule="evenodd" /><path transform="matrix(1 0 0 -1 0 841)" d="M224.8125 308.4932L473.2188 308.4932z" stroke="#0000EE" stroke-width="0.750418" stroke-linecap="square" fill="none" /><path transform="matrix(1 0 0 -1 0 841)" d="M485.2188 308.4932L545.25 308.4932z" stroke="#0000EE" stroke-width="0.750418" stroke-linecap="square" fill="none" /><path transform="matrix(1 0 0 -1 0 841)" d="M80 291.2505L143.0313 291.2505z" stroke="#0000EE" stroke-width="0.750418" stroke-linecap="square" fill="none" /><path transform="matrix(1 0 0 -1 0 841)" d="M70.96875 271.384C 70.96875 270.1418 70 269.135 68.71875 269.135C 67.46875 269.135 66.46875 270.1418 66.46875 271.384C 66.46875 272.6262 67.46875 273.6331 68.71875 273.6331C 70 273.6331 70.96875 272.6262 70.96875 271.384" stroke="#000000" stroke-width="0.750418" fill="#000000" fill-rule="evenodd" /><path transform="matrix(1 0 0 -1 0 841)" d="M101 254.1414C 101 252.8992 100 251.8924 98.75 251.8924C 97.46875 251.8924 96.5 252.8992 96.5 254.1414C 96.5 255.3835 97.46875 256.3904 98.75 256.3904C 100 256.3904 101 255.3835 101 254.1414" stroke="#000000" stroke-width="0.750418" stroke-linecap="square" fill="none" /><path transform="matrix(1 0 0 -1 0 841)" d="M157.2813 249.2685L545.25 249.2685z" stroke="#0000EE" stroke-width="0.750418" stroke-linecap="square" fill="none" /><path transform="matrix(1 0 0 -1 0 841)" d="M110 232.0259L179.0313 232.0259z" stroke="#0000EE" stroke-width="0.750418" stroke-linecap="square" fill="none" /><path transform="matrix(1 0 0 -1 0 841)" d="M70.96875 204.6626C 70.96875 203.4204 70 202.4136 68.71875 202.4136C 67.46875 202.4136 66.46875 203.4204 66.46875 204.6626C 66.46875 205.9048 67.46875 206.9116 68.71875 206.9116C 70 206.9116 70.96875 205.9048 70.96875 204.6626" stroke="#000000" stroke-width="0.750418" fill="#000000" fill-rule="evenodd" /><path transform="matrix(1 0 0 -1 0 841)" d="M101 187.42C 101 186.1778 100 185.171 98.75 185.171C 97.46875 185.171 96.5 186.1778 96.5 187.42C 96.5 188.6621 97.46875 189.669 98.75 189.669C 100 189.669 101 188.6621 101 187.42" stroke="#000000" stroke-width="0.750418" stroke-linecap="square" fill="none" /><path transform="matrix(1 0 0 -1 0 841)" d="M154.2813 182.5471L355.375 182.5471z" stroke="#0000EE" stroke-width="0.750418" stroke-linecap="square" fill="none" /><path transform="matrix(1 0 0 -1 0 841)" d="M101 162.6805C 101 161.4384 100 160.4315 98.75 160.4315C 97.46875 160.4315 96.5 161.4384 96.5 162.6805C 96.5 163.9227 97.46875 164.9296 98.75 164.9296C 100 164.9296 101 163.9227 101 162.6805" stroke="#000000" stroke-width="0.750418" stroke-linecap="square" fill="none" /><path transform="matrix(1 0 0 -1 0 841)" d="M303.625 157.8077L504.7188 157.8077z" stroke="#0000EE" stroke-width="0.750418" stroke-linecap="square" fill="none" /><path transform="matrix(1 0 0 -1 0 841)" d="M101 137.9412C 101 136.699 100 135.6921 98.75 135.6921C 97.46875 135.6921 96.5 136.699 96.5 137.9412C 96.5 139.1833 97.46875 140.1902 98.75 140.1902C 100 140.1902 101 139.1833 101 137.9412" stroke="#000000" stroke-width="0.750418" stroke-linecap="square" fill="none" /><path transform="matrix(1 0 0 -1 0 841)" d="M288.5938 133.0682L489.7188 133.0682z" stroke="#0000EE" stroke-width="0.750418" stroke-linecap="square" fill="none" /><path transform="matrix(1 0 0 -1 0 841)" d="M101 113.2018C 101 111.9596 100 110.9527 98.75 110.9527C 97.46875 110.9527 96.5 111.9596 96.5 113.2018C 96.5 114.4439 97.46875 115.4508 98.75 115.4508C 100 115.4508 101 114.4439 101 113.2018" stroke="#000000" stroke-width="0.750418" stroke-linecap="square" fill="none" /><path transform="matrix(1 0 0 -1 0 841)" d="M153.5313 108.3289L383.1563 108.3289z" stroke="#0000EE" stroke-width="0.750418" stroke-linecap="square" fill="none" /><path transform="matrix(1 0 0 -1 0 841)" d="M101 88.46234C 101 87.22015 100 86.21332 98.75 86.21332C 97.46875 86.21332 96.5 87.22015 96.5 88.46234C 96.5 89.70453 97.46875 90.71136 98.75 90.71136C 100 90.71136 101 89.70453 101 88.46234" stroke="#000000" stroke-width="0.750418" stroke-linecap="square" fill="none" /><path transform="matrix(1 0 0 -1 0 841)" d="M208.3125 83.58942L294.5938 83.58942z" stroke="#0000EE" stroke-width="0.750418" stroke-linecap="square" fill="none" /><path transform="matrix(1 0 0 -1 0 841)" d="M101 63.72296C 101 62.48071 100 61.47388 98.75 61.47388C 97.46875 61.47388 96.5 62.48071 96.5 63.72296C 96.5 64.96515 97.46875 65.97198 98.75 65.97198C 100 65.97198 101 64.96515 101 63.72296" stroke="#000000" stroke-width="0.750418" stroke-linecap="square" fill="none" /><path transform="matrix(1 0 0 -1 0 841)" d="M155.0313 58.85004L366.6563 58.85004z" stroke="#0000EE" stroke-width="0.750418" stroke-linecap="square" fill="none" /></g><g clip-path="url(#4)"></g></g></g></g></svg>