<svg xmlns="http://www.w3.org/2000/svg" xmlns:xlink="http://www.w3.org/1999/xlink" id="body_267" preserveAspectRatio="xMinYMin meet" viewBox="0 0 793 1121"><defs><clipPath id="1"><path d="M0 841L0 -0.8897705L0 -0.8897705L595.2756 -0.8897705L595.2756 -0.8897705L595.2756 841L595.2756 841L0 841z" /></clipPath><clipPath id="2"><path d="M49.98438 -0.8897705L545.2656 -0.8897705L545.2656 -0.8897705L545.2656 840.9998L545.2656 840.9998L49.98438 840.9998L49.98438 840.9998L49.98438 -0.8897705" /></clipPath><clipPath id="3"><path d="M49.98438 48.58905L545.2656 48.58905L545.2656 48.58905L545.2656 791.5209L545.2656 791.5209L49.98438 791.5209L49.98438 791.5209L49.98438 48.58905" /></clipPath><clipPath id="4"><path d="M49.98438 48.58905L545.2656 48.58905L545.2656 48.58905L545.2656 791.5209L545.2656 791.5209L49.98438 791.5209L49.98438 791.5209L49.98438 48.58905" /></clipPath><clipPath id="5"><path d="M49.98438 791.5209L545.2656 791.5209L545.2656 791.5209L545.2656 840.9998L545.2656 840.9998L49.98438 840.9998L49.98438 840.9998L49.98438 791.5209" /></clipPath></defs><g transform="matrix(1.333333 0 0 1.333333 0 0)"><g><g clip-path="url(#1)"><g clip-path="url(#2)"></g><g clip-path="url(#3)"><path transform="matrix(1 0 0 -1 0 841)" d="M80 820.149L209.8281 820.149L209.8281 820.149L209.8281 819.3994L209.8281 819.3994L80 819.3994z" stroke="none" fill="#808080" fill-rule="winding" /><path transform="matrix(1 0 0 -1 0 841)" d="M80 703.9489L209.8281 703.9489L209.8281 703.9489L209.8281 703.1992L209.8281 703.1992L80 703.1992z" stroke="none" fill="#2C2C2C" fill-rule="winding" /><path transform="matrix(1 0 0 -1 0 841)" d="M80 820.149L80 703.1992L80 703.1992L80.75 703.9489L80.75 703.9489L80.75 820.149z" stroke="#000000" stroke-width="0" fill="#808080" fill-rule="evenodd" /><path transform="matrix(1 0 0 -1 0 841)" d="M209.0781 819.3994L209.0781 703.1992L209.0781 703.1992L209.8281 703.1992L209.8281 703.1992L209.8281 820.149z" stroke="#000000" stroke-width="0" fill="#2C2C2C" fill-rule="evenodd" /><path transform="matrix(1 0 0 -1 0 841)" d="M82.25 817.9L132.5313 817.9L132.5313 817.9L132.5313 817.1504L132.5313 817.1504L82.25 817.1504z" stroke="none" fill="#2C2C2C" fill-rule="winding" /><path transform="matrix(1 0 0 -1 0 841)" d="M82.25 794.66L132.5313 794.66L132.5313 794.66L132.5313 793.9103L132.5313 793.9103L82.25 793.9103z" stroke="none" fill="#808080" fill-rule="winding" /><path transform="matrix(1 0 0 -1 0 841)" d="M82.25 817.9L82.25 793.9103L82.25 793.9103L83 794.66L83 794.66L83 817.9z" stroke="#000000" stroke-width="0" fill="#2C2C2C" fill-rule="evenodd" /><path transform="matrix(1 0 0 -1 0 841)" d="M131.7813 817.1504L131.7813 793.9103L131.7813 793.9103L132.5313 793.9103L132.5313 793.9103L132.5313 817.9z" stroke="#000000" stroke-width="0" fill="#808080" fill-rule="evenodd" /><path transform="matrix(1 0 0 -1 0 841)" d="M134.0313 817.9L207.5781 817.9L207.5781 817.9L207.5781 817.1504L207.5781 817.1504L134.0313 817.1504z" stroke="none" fill="#2C2C2C" fill-rule="winding" /><path transform="matrix(1 0 0 -1 0 841)" d="M134.0313 794.66L207.5781 794.66L207.5781 794.66L207.5781 793.9103L207.5781 793.9103L134.0313 793.9103z" stroke="none" fill="#808080" fill-rule="winding" /><path transform="matrix(1 0 0 -1 0 841)" d="M134.0313 817.9L134.0313 793.9103L134.0313 793.9103L134.7813 794.66L134.7813 794.66L134.7813 817.9z" stroke="#000000" stroke-width="0" fill="#2C2C2C" fill-rule="evenodd" /><path transform="matrix(1 0 0 -1 0 841)" d="M206.8281 817.1504L206.8281 793.9103L206.8281 793.9103L207.5781 793.9103L207.5781 793.9103L207.5781 817.9z" stroke="#000000" stroke-width="0" fill="#808080" fill-rule="evenodd" /><path transform="matrix(1 0 0 -1 0 841)" d="M82.25 792.4109L132.5313 792.4109L132.5313 792.4109L132.5313 791.6613L132.5313 791.6613L82.25 791.6613z" stroke="none" fill="#2C2C2C" fill-rule="winding" /><path transform="matrix(1 0 0 -1 0 841)" d="M82.25 757.176L132.5313 757.176L132.5313 757.176L132.5313 756.4264L132.5313 756.4264L82.25 756.4264z" stroke="none" fill="#808080" fill-rule="winding" /><path transform="matrix(1 0 0 -1 0 841)" d="M82.25 792.4109L82.25 756.4264L82.25 756.4264L83 757.176L83 757.176L83 792.4109z" stroke="#000000" stroke-width="0" fill="#2C2C2C" fill-rule="evenodd" /><path transform="matrix(1 0 0 -1 0 841)" d="M131.7813 791.6613L131.7813 756.4264L131.7813 756.4264L132.5313 756.4264L132.5313 756.4264L132.5313 792.4109z" stroke="#000000" stroke-width="0" fill="#808080" fill-rule="evenodd" /><path transform="matrix(1 0 0 -1 0 841)" d="M134.0313 792.4109L207.5781 792.4109L207.5781 792.4109L207.5781 791.6613L207.5781 791.6613L134.0313 791.6613z" stroke="none" fill="#2C2C2C" fill-rule="winding" /><path transform="matrix(1 0 0 -1 0 841)" d="M134.0313 757.176L207.5781 757.176L207.5781 757.176L207.5781 756.4264L207.5781 756.4264L134.0313 756.4264z" stroke="none" fill="#808080" fill-rule="winding" /><path transform="matrix(1 0 0 -1 0 841)" d="M134.0313 792.4109L134.0313 756.4264L134.0313 756.4264L134.7813 757.176L134.7813 757.176L134.7813 792.4109z" stroke="#000000" stroke-width="0" fill="#2C2C2C" fill-rule="evenodd" /><path transform="matrix(1 0 0 -1 0 841)" d="M206.8281 791.6613L206.8281 756.4264L206.8281 756.4264L207.5781 756.4264L207.5781 756.4264L207.5781 792.4109z" stroke="#000000" stroke-width="0" fill="#808080" fill-rule="evenodd" /><path transform="matrix(1 0 0 -1 0 841)" d="M82.25 754.927L132.5313 754.927L132.5313 754.927L132.5313 754.1773L132.5313 754.1773L82.25 754.1773z" stroke="none" fill="#2C2C2C" fill-rule="winding" /><path transform="matrix(1 0 0 -1 0 841)" d="M82.25 731.687L132.5313 731.687L132.5313 731.687L132.5313 730.9373L132.5313 730.9373L82.25 730.9373z" stroke="none" fill="#808080" fill-rule="winding" /><path transform="matrix(1 0 0 -1 0 841)" d="M82.25 754.927L82.25 730.9373L82.25 730.9373L83 731.687L83 731.687L83 754.927z" stroke="#000000" stroke-width="0" fill="#2C2C2C" fill-rule="evenodd" /><path transform="matrix(1 0 0 -1 0 841)" d="M131.7813 754.1773L131.7813 730.9373L131.7813 730.9373L132.5313 730.9373L132.5313 730.9373L132.5313 754.927z" stroke="#000000" stroke-width="0" fill="#808080" fill-rule="evenodd" /><path transform="matrix(1 0 0 -1 0 841)" d="M134.0313 754.927L207.5781 754.927L207.5781 754.927L207.5781 754.1773L207.5781 754.1773L134.0313 754.1773z" stroke="none" fill="#2C2C2C" fill-rule="winding" /><path transform="matrix(1 0 0 -1 0 841)" d="M134.0313 731.687L207.5781 731.687L207.5781 731.687L207.5781 730.9373L207.5781 730.9373L134.0313 730.9373z" stroke="none" fill="#808080" fill-rule="winding" /><path transform="matrix(1 0 0 -1 0 841)" d="M134.0313 754.927L134.0313 730.9373L134.0313 730.9373L134.7813 731.687L134.7813 731.687L134.7813 754.927z" stroke="#000000" stroke-width="0" fill="#2C2C2C" fill-rule="evenodd" /><path transform="matrix(1 0 0 -1 0 841)" d="M206.8281 754.1773L206.8281 730.9373L206.8281 730.9373L207.5781 730.9373L207.5781 730.9373L207.5781 754.927z" stroke="#000000" stroke-width="0" fill="#808080" fill-rule="evenodd" /><path transform="matrix(1 0 0 -1 0 841)" d="M82.25 729.4379L132.5313 729.4379L132.5313 729.4379L132.5313 728.6882L132.5313 728.6882L82.25 728.6882z" stroke="none" fill="#2C2C2C" fill-rule="winding" /><path transform="matrix(1 0 0 -1 0 841)" d="M82.25 706.1979L132.5313 706.1979L132.5313 706.1979L132.5313 705.4482L132.5313 705.4482L82.25 705.4482z" stroke="none" fill="#808080" fill-rule="winding" /><path transform="matrix(1 0 0 -1 0 841)" d="M82.25 729.4379L82.25 705.4482L82.25 705.4482L83 706.1979L83 706.1979L83 729.4379z" stroke="#000000" stroke-width="0" fill="#2C2C2C" fill-rule="evenodd" /><path transform="matrix(1 0 0 -1 0 841)" d="M131.7813 728.6882L131.7813 705.4482L131.7813 705.4482L132.5313 705.4482L132.5313 705.4482L132.5313 729.4379z" stroke="#000000" stroke-width="0" fill="#808080" fill-rule="evenodd" /><path transform="matrix(1 0 0 -1 0 841)" d="M134.0313 729.4379L207.5781 729.4379L207.5781 729.4379L207.5781 728.6882L207.5781 728.6882L134.0313 728.6882z" stroke="none" fill="#2C2C2C" fill-rule="winding" /><path transform="matrix(1 0 0 -1 0 841)" d="M134.0313 706.1979L207.5781 706.1979L207.5781 706.1979L207.5781 705.4482L207.5781 705.4482L134.0313 705.4482z" stroke="none" fill="#808080" fill-rule="winding" /><path transform="matrix(1 0 0 -1 0 841)" d="M134.0313 729.4379L134.0313 705.4482L134.0313 705.4482L134.7813 706.1979L134.7813 706.1979L134.7813 729.4379z" stroke="#000000" stroke-width="0" fill="#2C2C2C" fill-rule="evenodd" /><path transform="matrix(1 0 0 -1 0 841)" d="M206.8281 728.6882L206.8281 705.4482L206.8281 705.4482L207.5781 705.4482L207.5781 705.4482L207.5781 729.4379z" stroke="#000000" stroke-width="0" fill="#808080" fill-rule="evenodd" /></g><g clip-path="url(#4)"><g transform="matrix(0.6097761 0 0 0.6088763 80.00348 206.0217)"><g transform="matrix(1 0 0 1 0 0)"><image x="0" y="0" xlink:href="img_500.png" width="763" height="394" /></g></g></g><g clip-path="url(#5)"></g></g></g></g></svg>