<svg xmlns="http://www.w3.org/2000/svg" xmlns:xlink="http://www.w3.org/1999/xlink" id="body_131" preserveAspectRatio="xMinYMin meet" viewBox="0 0 793 1121"><defs><clipPath id="1"><path d="M0 841L0 -0.8897705L0 -0.8897705L595.2756 -0.8897705L595.2756 -0.8897705L595.2756 841L595.2756 841L0 841z" /></clipPath><clipPath id="2"><path d="M49.99219 -0.8897705L545.2734 -0.8897705L545.2734 -0.8897705L545.2734 840.9998L545.2734 840.9998L49.99219 840.9998L49.99219 840.9998L49.99219 -0.8897705" /></clipPath><clipPath id="3"><path d="M49.99219 48.58905L545.2734 48.58905L545.2734 48.58905L545.2734 791.5209L545.2734 791.5209L49.99219 791.5209L49.99219 791.5209L49.99219 48.58905" /></clipPath><clipPath id="4"><path d="M49.99219 791.5209L545.2734 791.5209L545.2734 791.5209L545.2734 840.9998L545.2734 840.9998L49.99219 840.9998L49.99219 840.9998L49.99219 791.5209" /></clipPath></defs><g transform="matrix(1.333333 0 0 1.333333 0 0)"><g><g clip-path="url(#1)"><g clip-path="url(#2)"></g><g clip-path="url(#3)"><g transform="matrix(0.750418 0 0 0.749679 49.99531 174.5352)"><g transform="matrix(1 0 0 1 0 0)"><image x="0" y="0" xlink:href="img_16.png" width="600" height="2" /></g></g><path transform="matrix(1 0 0 -1 0 841)" d="M71.00781 564.5085C 71.00781 563.2664 70.03125 562.2595 68.75781 562.2595C 67.47656 562.2595 66.50781 563.2664 66.50781 564.5085C 66.50781 565.7507 67.47656 566.7576 68.75781 566.7576C 70.03125 566.7576 71.00781 565.7507 71.00781 564.5085" stroke="#000000" stroke-width="0.750418" fill="#000000" fill-rule="evenodd" /><path transform="matrix(1 0 0 -1 0 841)" d="M80.01563 559.6356L400.4375 559.6356z" stroke="#0000EE" stroke-width="0.750418" stroke-linecap="square" fill="none" /><path transform="matrix(1 0 0 -1 0 841)" d="M71.00781 539.7692C 71.00781 538.527 70.03125 537.5201 68.75781 537.5201C 67.47656 537.5201 66.50781 538.527 66.50781 539.7692C 66.50781 541.0112 67.47656 542.0182 68.75781 542.0182C 70.03125 542.0182 71.00781 541.0112 71.00781 539.7692" stroke="#000000" stroke-width="0.750418" fill="#000000" fill-rule="evenodd" /><path transform="matrix(1 0 0 -1 0 841)" d="M80.01563 534.8962L434.9609 534.8962z" stroke="#0000EE" stroke-width="0.750418" stroke-linecap="square" fill="none" /><path transform="matrix(1 0 0 -1 0 841)" d="M71.00781 515.0297C 71.00781 513.7876 70.03125 512.7806 68.75781 512.7806C 67.47656 512.7806 66.50781 513.7876 66.50781 515.0297C 66.50781 516.2719 67.47656 517.2787 68.75781 517.2787C 70.03125 517.2787 71.00781 516.2719 71.00781 515.0297" stroke="#000000" stroke-width="0.750418" fill="#000000" fill-rule="evenodd" /><path transform="matrix(1 0 0 -1 0 841)" d="M80.01563 510.1568L330.6484 510.1568z" stroke="#0000EE" stroke-width="0.750418" stroke-linecap="square" fill="none" /><g transform="matrix(0.750418 0 0 0.749679 49.99531 356.7072)"><g transform="matrix(1 0 0 1 0 0)"><image x="0" y="0" xlink:href="img_16.png" width="600" height="2" /></g></g></g><g clip-path="url(#4)"></g></g></g></g></svg>