<svg xmlns="http://www.w3.org/2000/svg" xmlns:xlink="http://www.w3.org/1999/xlink" id="body_314" preserveAspectRatio="xMinYMin meet" viewBox="0 0 793 1121"><defs><clipPath id="1"><path d="M0 841L0 -0.8897705L0 -0.8897705L595.2756 -0.8897705L595.2756 -0.8897705L595.2756 841L595.2756 841L0 841z" /></clipPath><clipPath id="2"><path d="M49.96875 -0.8897705L545.25 -0.8897705L545.25 -0.8897705L545.25 840.9998L545.25 840.9998L49.96875 840.9998L49.96875 840.9998L49.96875 -0.8897705" /></clipPath><clipPath id="3"><path d="M49.96875 48.58905L545.25 48.58905L545.25 48.58905L545.25 791.5209L545.25 791.5209L49.96875 791.5209L49.96875 791.5209L49.96875 48.58905" /></clipPath><clipPath id="4"><path d="M49.96875 791.5209L545.25 791.5209L545.25 791.5209L545.25 840.9998L545.25 840.9998L49.96875 840.9998L49.96875 840.9998L49.96875 791.5209" /></clipPath></defs><g transform="matrix(1.333333 0 0 1.333333 0 0)"><g><g clip-path="url(#1)"><g clip-path="url(#2)"></g><g clip-path="url(#3)"><path transform="matrix(1 0 0 -1 0 841)" d="M71 718.9424C 71 717.7003 70 716.6934 68.75 716.6934C 67.46875 716.6934 66.5 717.7003 66.5 718.9424C 66.5 720.1846 67.46875 721.1915 68.75 721.1915C 70 721.1915 71 720.1846 71 718.9424" stroke="#000000" stroke-width="0.750418" fill="#000000" fill-rule="evenodd" /><path transform="matrix(1 0 0 -1 0 841)" d="M101 701.6998C 101 700.4576 100.0313 699.4507 98.75 699.4507C 97.5 699.4507 96.5 700.4576 96.5 701.6998C 96.5 702.942 97.5 703.9489 98.75 703.9489C 100.0313 703.9489 101 702.942 101 701.6998" stroke="#000000" stroke-width="0.750418" stroke-linecap="square" fill="none" /><path transform="matrix(1 0 0 -1 0 841)" d="M154.2813 696.8269L277.3438 696.8269z" stroke="#0000EE" stroke-width="0.750418" stroke-linecap="square" fill="none" /><path transform="matrix(1 0 0 -1 0 841)" d="M71 669.4636C 71 668.2214 70 667.2145 68.75 667.2145C 67.46875 667.2145 66.5 668.2214 66.5 669.4636C 66.5 670.7057 67.46875 671.7126 68.75 671.7126C 70 671.7126 71 670.7057 71 669.4636" stroke="#000000" stroke-width="0.750418" fill="#000000" fill-rule="evenodd" /><path transform="matrix(1 0 0 -1 0 841)" d="M128.7813 664.5907L209.0625 664.5907z" stroke="#0000EE" stroke-width="0.750418" stroke-linecap="square" fill="none" /><path transform="matrix(1 0 0 -1 0 841)" d="M71 644.7242C 71 643.4821 70 642.4752 68.75 642.4752C 67.46875 642.4752 66.5 643.4821 66.5 644.7242C 66.5 645.9663 67.46875 646.9732 68.75 646.9732C 70 646.9732 71 645.9663 71 644.7242" stroke="#000000" stroke-width="0.750418" fill="#000000" fill-rule="evenodd" /><path transform="matrix(1 0 0 -1 0 841)" d="M101 627.4816C 101 626.2394 100.0313 625.2325 98.75 625.2325C 97.5 625.2325 96.5 626.2394 96.5 627.4816C 96.5 628.7237 97.5 629.7306 98.75 629.7306C 100.0313 629.7306 101 628.7237 101 627.4816" stroke="#000000" stroke-width="0.750418" stroke-linecap="square" fill="none" /><path transform="matrix(1 0 0 -1 0 841)" d="M154.2813 622.6086L365.9063 622.6086z" stroke="#0000EE" stroke-width="0.750418" stroke-linecap="square" fill="none" /><path transform="matrix(1 0 0 -1 0 841)" d="M71 595.2454C 71 594.0032 70 592.9963 68.75 592.9963C 67.46875 592.9963 66.5 594.0032 66.5 595.2454C 66.5 596.4875 67.46875 597.4944 68.75 597.4944C 70 597.4944 71 596.4875 71 595.2454" stroke="#000000" stroke-width="0.750418" fill="#000000" fill-rule="evenodd" /><path transform="matrix(1 0 0 -1 0 841)" d="M302.875 590.3724L541.5 590.3724z" stroke="#0000EE" stroke-width="0.750418" stroke-linecap="square" fill="none" /><path transform="matrix(1 0 0 -1 0 841)" d="M71 570.506C 71 569.2638 70 568.257 68.75 568.257C 67.46875 568.257 66.5 569.2638 66.5 570.506C 66.5 571.7481 67.46875 572.755 68.75 572.755C 70 572.755 71 571.7481 71 570.506" stroke="#000000" stroke-width="0.750418" fill="#000000" fill-rule="evenodd" /><path transform="matrix(1 0 0 -1 0 841)" d="M101 553.2633C 101 552.0212 100.0313 551.0143 98.75 551.0143C 97.5 551.0143 96.5 552.0212 96.5 553.2633C 96.5 554.5055 97.5 555.5124 98.75 555.5124C 100.0313 555.5124 101 554.5055 101 553.2633" stroke="#000000" stroke-width="0.750418" stroke-linecap="square" fill="none" /><path transform="matrix(1 0 0 -1 0 841)" d="M178.3125 548.3904L416.9375 548.3904z" stroke="#0000EE" stroke-width="0.750418" stroke-linecap="square" fill="none" /><path transform="matrix(1 0 0 -1 0 841)" d="M101 528.5239C 101 527.2818 100.0313 526.2749 98.75 526.2749C 97.5 526.2749 96.5 527.2818 96.5 528.5239C 96.5 529.7661 97.5 530.7729 98.75 530.7729C 100.0313 530.7729 101 529.7661 101 528.5239" stroke="#000000" stroke-width="0.750418" stroke-linecap="square" fill="none" /><path transform="matrix(1 0 0 -1 0 841)" d="M149.7813 523.651L388.4063 523.651z" stroke="#0000EE" stroke-width="0.750418" stroke-linecap="square" fill="none" /><path transform="matrix(1 0 0 -1 0 841)" d="M71 496.2878C 71 495.0456 70 494.0387 68.75 494.0387C 67.46875 494.0387 66.5 495.0456 66.5 496.2878C 66.5 497.5299 67.46875 498.5368 68.75 498.5368C 70 498.5368 71 497.5299 71 496.2878" stroke="#000000" stroke-width="0.750418" fill="#000000" fill-rule="evenodd" /><path transform="matrix(1 0 0 -1 0 841)" d="M101 479.0451C 101 477.803 100.0313 476.7961 98.75 476.7961C 97.5 476.7961 96.5 477.803 96.5 479.0451C 96.5 480.2873 97.5 481.2942 98.75 481.2942C 100.0313 481.2942 101 480.2873 101 479.0451" stroke="#000000" stroke-width="0.750418" stroke-linecap="square" fill="none" /><path transform="matrix(1 0 0 -1 0 841)" d="M152.7813 474.1722L347.9063 474.1722z" stroke="#0000EE" stroke-width="0.750418" stroke-linecap="square" fill="none" /><path transform="matrix(1 0 0 -1 0 841)" d="M71 446.8089C 71 445.5668 70 444.5599 68.75 444.5599C 67.46875 444.5599 66.5 445.5668 66.5 446.8089C 66.5 448.0511 67.46875 449.058 68.75 449.058C 70 449.058 71 448.0511 71 446.8089" stroke="#000000" stroke-width="0.750418" fill="#000000" fill-rule="evenodd" /><path transform="matrix(1 0 0 -1 0 841)" d="M101 429.5663C 101 428.3242 100.0313 427.3173 98.75 427.3173C 97.5 427.3173 96.5 428.3242 96.5 429.5663C 96.5 430.8085 97.5 431.8153 98.75 431.8153C 100.0313 431.8153 101 430.8085 101 429.5663" stroke="#000000" stroke-width="0.750418" stroke-linecap="square" fill="none" /><path transform="matrix(1 0 0 -1 0 841)" d="M188.8125 424.6934L455.9688 424.6934z" stroke="#0000EE" stroke-width="0.750418" stroke-linecap="square" fill="none" /><path transform="matrix(1 0 0 -1 0 841)" d="M71 397.3301C 71 396.088 70 395.0811 68.75 395.0811C 67.46875 395.0811 66.5 396.088 66.5 397.3301C 66.5 398.5723 67.46875 399.5791 68.75 399.5791C 70 399.5791 71 398.5723 71 397.3301" stroke="#000000" stroke-width="0.750418" fill="#000000" fill-rule="evenodd" /><path transform="matrix(1 0 0 -1 0 841)" d="M101 380.0875C 101 378.8453 100.0313 377.8384 98.75 377.8384C 97.5 377.8384 96.5 378.8453 96.5 380.0875C 96.5 381.3297 97.5 382.3365 98.75 382.3365C 100.0313 382.3365 101 381.3297 101 380.0875" stroke="#000000" stroke-width="0.750418" stroke-linecap="square" fill="none" /><path transform="matrix(1 0 0 -1 0 841)" d="M188.8125 375.2146L438.6875 375.2146z" stroke="#0000EE" stroke-width="0.750418" stroke-linecap="square" fill="none" /></g><g clip-path="url(#4)"></g></g></g></g></svg>