<svg xmlns="http://www.w3.org/2000/svg" xmlns:xlink="http://www.w3.org/1999/xlink" id="body_307" preserveAspectRatio="xMinYMin meet" viewBox="0 0 793 1121"><defs><clipPath id="1"><path d="M0 841L0 -0.8897705L0 -0.8897705L595.2756 -0.8897705L595.2756 -0.8897705L595.2756 841L595.2756 841L0 841z" /></clipPath><clipPath id="2"><path d="M50 -0.8897705L545.25 -0.8897705L545.25 -0.8897705L545.25 840.9998L545.25 840.9998L50 840.9998L50 840.9998L50 -0.8897705" /></clipPath><clipPath id="3"><path d="M50 48.58905L545.25 48.58905L545.25 48.58905L545.25 791.5209L545.25 791.5209L50 791.5209L50 791.5209L50 48.58905" /></clipPath><clipPath id="4"><path d="M50 791.5209L545.25 791.5209L545.25 791.5209L545.25 840.9998L545.25 840.9998L50 840.9998L50 840.9998L50 791.5209" /></clipPath></defs><g transform="matrix(1.333333 0 0 1.333333 0 0)"><g><g clip-path="url(#1)"><g clip-path="url(#2)"></g><g clip-path="url(#3)"><path transform="matrix(1 0 0 -1 0 841)" d="M71 718.9424C 71 717.7003 70 716.6934 68.75 716.6934C 67.46875 716.6934 66.5 717.7003 66.5 718.9424C 66.5 720.1846 67.46875 721.1915 68.75 721.1915C 70 721.1915 71 720.1846 71 718.9424" stroke="#000000" stroke-width="0.750418" fill="#000000" fill-rule="evenodd" /><path transform="matrix(1 0 0 -1 0 841)" d="M101 701.6998C 101 700.4576 100.0313 699.4507 98.75 699.4507C 97.5 699.4507 96.5 700.4576 96.5 701.6998C 96.5 702.942 97.5 703.9489 98.75 703.9489C 100.0313 703.9489 101 702.942 101 701.6998" stroke="#000000" stroke-width="0.750418" stroke-linecap="square" fill="none" /><path transform="matrix(1 0 0 -1 0 841)" d="M154.2813 696.8269L194.0625 696.8269z" stroke="#0000EE" stroke-width="0.750418" stroke-linecap="square" fill="none" /><path transform="matrix(1 0 0 -1 0 841)" d="M201.5625 696.8269L237.5938 696.8269z" stroke="#0000EE" stroke-width="0.750418" stroke-linecap="square" fill="none" /><path transform="matrix(1 0 0 -1 0 841)" d="M101 676.9604C 101 675.7183 100.0313 674.7114 98.75 674.7114C 97.5 674.7114 96.5 675.7183 96.5 676.9604C 96.5 678.2025 97.5 679.2094 98.75 679.2094C 100.0313 679.2094 101 678.2025 101 676.9604" stroke="#000000" stroke-width="0.750418" stroke-linecap="square" fill="none" /><path transform="matrix(1 0 0 -1 0 841)" d="M200.8125 672.0875L279.625 672.0875z" stroke="#0000EE" stroke-width="0.750418" stroke-linecap="square" fill="none" /><path transform="matrix(1 0 0 -1 0 841)" d="M101 652.2209C 101 650.9788 100.0313 649.9719 98.75 649.9719C 97.5 649.9719 96.5 650.9788 96.5 652.2209C 96.5 653.4631 97.5 654.47 98.75 654.47C 100.0313 654.47 101 653.4631 101 652.2209" stroke="#000000" stroke-width="0.750418" stroke-linecap="square" fill="none" /><path transform="matrix(1 0 0 -1 0 841)" d="M218.8438 647.3481L315.625 647.3481z" stroke="#0000EE" stroke-width="0.750418" stroke-linecap="square" fill="none" /><path transform="matrix(1 0 0 -1 0 841)" d="M101 627.4816C 101 626.2394 100.0313 625.2325 98.75 625.2325C 97.5 625.2325 96.5 626.2394 96.5 627.4816C 96.5 628.7237 97.5 629.7306 98.75 629.7306C 100.0313 629.7306 101 628.7237 101 627.4816" stroke="#000000" stroke-width="0.750418" stroke-linecap="square" fill="none" /><path transform="matrix(1 0 0 -1 0 841)" d="M236.0938 622.6086L353.1563 622.6086z" stroke="#0000EE" stroke-width="0.750418" stroke-linecap="square" fill="none" /><path transform="matrix(1 0 0 -1 0 841)" d="M101 602.7422C 101 601.5 100.0313 600.4931 98.75 600.4931C 97.5 600.4931 96.5 601.5 96.5 602.7422C 96.5 603.9843 97.5 604.9912 98.75 604.9912C 100.0313 604.9912 101 603.9843 101 602.7422" stroke="#000000" stroke-width="0.750418" stroke-linecap="square" fill="none" /><path transform="matrix(1 0 0 -1 0 841)" d="M315.625 597.8693L545.25 597.8693z" stroke="#0000EE" stroke-width="0.750418" stroke-linecap="square" fill="none" /><path transform="matrix(1 0 0 -1 0 841)" d="M110.0313 580.6266L188.0625 580.6266z" stroke="#0000EE" stroke-width="0.750418" stroke-linecap="square" fill="none" /><path transform="matrix(1 0 0 -1 0 841)" d="M195.5625 580.6266L317.875 580.6266z" stroke="#0000EE" stroke-width="0.750418" stroke-linecap="square" fill="none" /><path transform="matrix(1 0 0 -1 0 841)" d="M71 553.2633C 71 552.0212 70 551.0143 68.75 551.0143C 67.46875 551.0143 66.5 552.0212 66.5 553.2633C 66.5 554.5055 67.46875 555.5124 68.75 555.5124C 70 555.5124 71 554.5055 71 553.2633" stroke="#000000" stroke-width="0.750418" fill="#000000" fill-rule="evenodd" /><path transform="matrix(1 0 0 -1 0 841)" d="M101 536.0208C 101 534.7786 100.0313 533.7717 98.75 533.7717C 97.5 533.7717 96.5 534.7786 96.5 536.0208C 96.5 537.2628 97.5 538.2698 98.75 538.2698C 100.0313 538.2698 101 537.2628 101 536.0208" stroke="#000000" stroke-width="0.750418" stroke-linecap="square" fill="none" /><path transform="matrix(1 0 0 -1 0 841)" d="M178.3125 531.1478L377.9063 531.1478z" stroke="#0000EE" stroke-width="0.750418" stroke-linecap="square" fill="none" /><path transform="matrix(1 0 0 -1 0 841)" d="M101 511.2813C 101 510.0392 100.0313 509.0323 98.75 509.0323C 97.5 509.0323 96.5 510.0392 96.5 511.2813C 96.5 512.5234 97.5 513.5304 98.75 513.5304C 100.0313 513.5304 101 512.5234 101 511.2813" stroke="#000000" stroke-width="0.750418" stroke-linecap="square" fill="none" /><path transform="matrix(1 0 0 -1 0 841)" d="M162.5625 506.4084L240.5938 506.4084z" stroke="#0000EE" stroke-width="0.750418" stroke-linecap="square" fill="none" /><path transform="matrix(1 0 0 -1 0 841)" d="M101 486.5419C 101 485.2998 100.0313 484.2929 98.75 484.2929C 97.5 484.2929 96.5 485.2998 96.5 486.5419C 96.5 487.7841 97.5 488.791 98.75 488.791C 100.0313 488.791 101 487.7841 101 486.5419" stroke="#000000" stroke-width="0.750418" stroke-linecap="square" fill="none" /><path transform="matrix(1 0 0 -1 0 841)" d="M168.5625 481.669L252.5938 481.669z" stroke="#0000EE" stroke-width="0.750418" stroke-linecap="square" fill="none" /><path transform="matrix(1 0 0 -1 0 841)" d="M71 454.3057C 71 453.0636 70 452.0567 68.75 452.0567C 67.46875 452.0567 66.5 453.0636 66.5 454.3057C 66.5 455.5479 67.46875 456.5547 68.75 456.5547C 70 456.5547 71 455.5479 71 454.3057" stroke="#000000" stroke-width="0.750418" fill="#000000" fill-rule="evenodd" /><path transform="matrix(1 0 0 -1 0 841)" d="M101 437.0631C 101 435.8209 100.0313 434.8141 98.75 434.8141C 97.5 434.8141 96.5 435.8209 96.5 437.0631C 96.5 438.3053 97.5 439.3121 98.75 439.3121C 100.0313 439.3121 101 438.3053 101 437.0631" stroke="#000000" stroke-width="0.750418" stroke-linecap="square" fill="none" /><path transform="matrix(1 0 0 -1 0 841)" d="M154.2813 432.1902L182.8125 432.1902z" stroke="#0000EE" stroke-width="0.750418" stroke-linecap="square" fill="none" /><path transform="matrix(1 0 0 -1 0 841)" d="M71 404.8269C 71 403.5847 70 402.5779 68.75 402.5779C 67.46875 402.5779 66.5 403.5847 66.5 404.8269C 66.5 406.0691 67.46875 407.0759 68.75 407.0759C 70 407.0759 71 406.0691 71 404.8269" stroke="#000000" stroke-width="0.750418" fill="#000000" fill-rule="evenodd" /><path transform="matrix(1 0 0 -1 0 841)" d="M101 387.5843C 101 386.3421 100.0313 385.3352 98.75 385.3352C 97.5 385.3352 96.5 386.3421 96.5 387.5843C 96.5 388.8264 97.5 389.8333 98.75 389.8333C 100.0313 389.8333 101 388.8264 101 387.5843" stroke="#000000" stroke-width="0.750418" stroke-linecap="square" fill="none" /><path transform="matrix(1 0 0 -1 0 841)" d="M176.8125 382.7114L328.4063 382.7114z" stroke="#0000EE" stroke-width="0.750418" stroke-linecap="square" fill="none" /><path transform="matrix(1 0 0 -1 0 841)" d="M101 362.8449C 101 361.6027 100.0313 360.5958 98.75 360.5958C 97.5 360.5958 96.5 361.6027 96.5 362.8449C 96.5 364.087 97.5 365.0939 98.75 365.0939C 100.0313 365.0939 101 364.087 101 362.8449" stroke="#000000" stroke-width="0.750418" stroke-linecap="square" fill="none" /><path transform="matrix(1 0 0 -1 0 841)" d="M154.2813 357.972L305.875 357.972z" stroke="#0000EE" stroke-width="0.750418" stroke-linecap="square" fill="none" /><path transform="matrix(1 0 0 -1 0 841)" d="M101 338.1055C 101 336.8633 100.0313 335.8564 98.75 335.8564C 97.5 335.8564 96.5 336.8633 96.5 338.1055C 96.5 339.3476 97.5 340.3545 98.75 340.3545C 100.0313 340.3545 101 339.3476 101 338.1055" stroke="#000000" stroke-width="0.750418" stroke-linecap="square" fill="none" /><path transform="matrix(1 0 0 -1 0 841)" d="M149.7813 333.2325L301.375 333.2325z" stroke="#0000EE" stroke-width="0.750418" stroke-linecap="square" fill="none" /><path transform="matrix(1 0 0 -1 0 841)" d="M101 313.366C 101 312.1239 100.0313 311.117 98.75 311.117C 97.5 311.117 96.5 312.1239 96.5 313.366C 96.5 314.6082 97.5 315.6151 98.75 315.6151C 100.0313 315.6151 101 314.6082 101 313.366" stroke="#000000" stroke-width="0.750418" stroke-linecap="square" fill="none" /><path transform="matrix(1 0 0 -1 0 841)" d="M262.3438 308.4932L545.25 308.4932z" stroke="#0000EE" stroke-width="0.750418" stroke-linecap="square" fill="none" /><path transform="matrix(1 0 0 -1 0 841)" d="M110.0313 291.2505L167.0625 291.2505z" stroke="#0000EE" stroke-width="0.750418" stroke-linecap="square" fill="none" /><path transform="matrix(1 0 0 -1 0 841)" d="M101 271.384C 101 270.1418 100.0313 269.135 98.75 269.135C 97.5 269.135 96.5 270.1418 96.5 271.384C 96.5 272.6262 97.5 273.6331 98.75 273.6331C 100.0313 273.6331 101 272.6262 101 271.384" stroke="#000000" stroke-width="0.750418" stroke-linecap="square" fill="none" /><path transform="matrix(1 0 0 -1 0 841)" d="M252.5938 266.5111L545.25 266.5111z" stroke="#0000EE" stroke-width="0.750418" stroke-linecap="square" fill="none" /><path transform="matrix(1 0 0 -1 0 841)" d="M110.0313 249.2685L151.2813 249.2685z" stroke="#0000EE" stroke-width="0.750418" stroke-linecap="square" fill="none" /><path transform="matrix(1 0 0 -1 0 841)" d="M158.7813 249.2685L281.125 249.2685z" stroke="#0000EE" stroke-width="0.750418" stroke-linecap="square" fill="none" /><path transform="matrix(1 0 0 -1 0 841)" d="M101 229.402C 101 228.1599 100.0313 227.153 98.75 227.153C 97.5 227.153 96.5 228.1599 96.5 229.402C 96.5 230.6442 97.5 231.6511 98.75 231.6511C 100.0313 231.6511 101 230.6442 101 229.402" stroke="#000000" stroke-width="0.750418" stroke-linecap="square" fill="none" /><path transform="matrix(1 0 0 -1 0 841)" d="M239.8438 224.5291L545.25 224.5291z" stroke="#0000EE" stroke-width="0.750418" stroke-linecap="square" fill="none" /><path transform="matrix(1 0 0 -1 0 841)" d="M110.0313 207.2865L151.2813 207.2865z" stroke="#0000EE" stroke-width="0.750418" stroke-linecap="square" fill="none" /><path transform="matrix(1 0 0 -1 0 841)" d="M101 187.42C 101 186.1778 100.0313 185.171 98.75 185.171C 97.5 185.171 96.5 186.1778 96.5 187.42C 96.5 188.6621 97.5 189.669 98.75 189.669C 100.0313 189.669 101 188.6621 101 187.42" stroke="#000000" stroke-width="0.750418" stroke-linecap="square" fill="none" /><path transform="matrix(1 0 0 -1 0 841)" d="M270.5938 182.5471L545.25 182.5471z" stroke="#0000EE" stroke-width="0.750418" stroke-linecap="square" fill="none" /><path transform="matrix(1 0 0 -1 0 841)" d="M110.0313 165.3044L216.5938 165.3044z" stroke="#0000EE" stroke-width="0.750418" stroke-linecap="square" fill="none" /><path transform="matrix(1 0 0 -1 0 841)" d="M101 145.4379C 101 144.1958 100.0313 143.1889 98.75 143.1889C 97.5 143.1889 96.5 144.1958 96.5 145.4379C 96.5 146.6801 97.5 147.687 98.75 147.687C 100.0313 147.687 101 146.6801 101 145.4379" stroke="#000000" stroke-width="0.750418" stroke-linecap="square" fill="none" /><path transform="matrix(1 0 0 -1 0 841)" d="M272.875 140.5651L545.25 140.5651z" stroke="#0000EE" stroke-width="0.750418" stroke-linecap="square" fill="none" /><path transform="matrix(1 0 0 -1 0 841)" d="M110.0313 123.3224L161.8125 123.3224z" stroke="#0000EE" stroke-width="0.750418" stroke-linecap="square" fill="none" /><path transform="matrix(1 0 0 -1 0 841)" d="M101 103.4559C 101 102.2137 100.0313 101.2069 98.75 101.2069C 97.5 101.2069 96.5 102.2137 96.5 103.4559C 96.5 104.6981 97.5 105.705 98.75 105.705C 100.0313 105.705 101 104.6981 101 103.4559" stroke="#000000" stroke-width="0.750418" stroke-linecap="square" fill="none" /><path transform="matrix(1 0 0 -1 0 841)" d="M266.0938 98.58301L545.25 98.58301z" stroke="#0000EE" stroke-width="0.750418" stroke-linecap="square" fill="none" /><path transform="matrix(1 0 0 -1 0 841)" d="M110.0313 81.34039L154.2813 81.34039z" stroke="#0000EE" stroke-width="0.750418" stroke-linecap="square" fill="none" /></g><g clip-path="url(#4)"></g></g></g></g></svg>