<svg xmlns="http://www.w3.org/2000/svg" xmlns:xlink="http://www.w3.org/1999/xlink" id="body_210" preserveAspectRatio="xMinYMin meet" viewBox="0 0 793 1121"><defs><clipPath id="1"><path d="M0 841L0 -0.8897705L0 -0.8897705L595.2756 -0.8897705L595.2756 -0.8897705L595.2756 841L595.2756 841L0 841z" /></clipPath><clipPath id="2"><path d="M49.98438 -0.8897705L545.2656 -0.8897705L545.2656 -0.8897705L545.2656 840.9998L545.2656 840.9998L49.98438 840.9998L49.98438 840.9998L49.98438 -0.8897705" /></clipPath><clipPath id="3"><path d="M49.98438 48.58905L545.2656 48.58905L545.2656 48.58905L545.2656 791.5209L545.2656 791.5209L49.98438 791.5209L49.98438 791.5209L49.98438 48.58905" /></clipPath><clipPath id="4"><path d="M49.98438 791.5209L545.2656 791.5209L545.2656 791.5209L545.2656 840.9998L545.2656 840.9998L49.98438 840.9998L49.98438 840.9998L49.98438 791.5209" /></clipPath></defs><g transform="matrix(1.333333 0 0 1.333333 0 0)"><g><g clip-path="url(#1)"><g clip-path="url(#2)"></g><g clip-path="url(#3)"><path transform="matrix(1 0 0 -1 0 841)" d="M71 263.8873C 71 262.6451 70.03125 261.6382 68.75 261.6382C 67.46875 261.6382 66.5 262.6451 66.5 263.8873C 66.5 265.1294 67.46875 266.1363 68.75 266.1363C 70.03125 266.1363 71 265.1294 71 263.8873" stroke="#000000" stroke-width="0.750418" fill="#000000" fill-rule="evenodd" /><path transform="matrix(1 0 0 -1 0 841)" d="M71 239.1478C 71 237.9057 70.03125 236.8988 68.75 236.8988C 67.46875 236.8988 66.5 237.9057 66.5 239.1478C 66.5 240.39 67.46875 241.3969 68.75 241.3969C 70.03125 241.3969 71 240.39 71 239.1478" stroke="#000000" stroke-width="0.750418" fill="#000000" fill-rule="evenodd" /><path transform="matrix(1 0 0 -1 0 841)" d="M71 214.4084C 71 213.1663 70.03125 212.1594 68.75 212.1594C 67.46875 212.1594 66.5 213.1663 66.5 214.4084C 66.5 215.6506 67.46875 216.6575 68.75 216.6575C 70.03125 216.6575 71 215.6506 71 214.4084" stroke="#000000" stroke-width="0.750418" fill="#000000" fill-rule="evenodd" /><path transform="matrix(1 0 0 -1 0 841)" d="M71 189.669C 71 188.4269 70.03125 187.42 68.75 187.42C 67.46875 187.42 66.5 188.4269 66.5 189.669C 66.5 190.9112 67.46875 191.918 68.75 191.918C 70.03125 191.918 71 190.9112 71 189.669" stroke="#000000" stroke-width="0.750418" fill="#000000" fill-rule="evenodd" /></g><g clip-path="url(#4)"></g></g></g></g></svg>