<svg xmlns="http://www.w3.org/2000/svg" xmlns:xlink="http://www.w3.org/1999/xlink" id="body_21" preserveAspectRatio="xMinYMin meet" viewBox="0 0 793 1121"><defs><clipPath id="1"><path d="M0 841L0 -0.8897705L0 -0.8897705L595.2756 -0.8897705L595.2756 -0.8897705L595.2756 841L595.2756 841L0 841z" /></clipPath><clipPath id="2"><path d="M49.99902 -0.8897705L545.2754 -0.8897705L545.2754 -0.8897705L545.2754 840.9998L545.2754 840.9998L49.99902 840.9998L49.99902 840.9998L49.99902 -0.8897705" /></clipPath><clipPath id="3"><path d="M49.99902 48.58905L545.2754 48.58905L545.2754 48.58905L545.2754 791.5209L545.2754 791.5209L49.99902 791.5209L49.99902 791.5209L49.99902 48.58905" /></clipPath><clipPath id="4"><path d="M49.99902 791.5209L545.2754 791.5209L545.2754 791.5209L545.2754 840.9998L545.2754 840.9998L49.99902 840.9998L49.99902 840.9998L49.99902 791.5209" /></clipPath></defs><g transform="matrix(1.333333 0 0 1.333333 0 0)"><g><g clip-path="url(#1)"><g clip-path="url(#2)"></g><g clip-path="url(#3)"><path transform="matrix(1 0 0 -1 0 841)" d="M71.01074 718.9424C 71.01074 717.7003 70.00586 716.6934 68.75977 716.6934C 67.51367 716.6934 66.50879 717.7003 66.50879 718.9424C 66.50879 720.1846 67.51367 721.1915 68.75977 721.1915C 70.00586 721.1915 71.01074 720.1846 71.01074 718.9424" stroke="#000000" stroke-width="0.750418" fill="#000000" fill-rule="evenodd" /><path transform="matrix(1 0 0 -1 0 841)" d="M71.01074 694.203C 71.01074 692.9609 70.00586 691.954 68.75977 691.954C 67.51367 691.954 66.50879 692.9609 66.50879 694.203C 66.50879 695.4451 67.51367 696.452 68.75977 696.452C 70.00586 696.452 71.01074 695.4451 71.01074 694.203" stroke="#000000" stroke-width="0.750418" fill="#000000" fill-rule="evenodd" /><path transform="matrix(1 0 0 -1 0 841)" d="M71.01074 669.4636C 71.01074 668.2214 70.00586 667.2145 68.75977 667.2145C 67.51367 667.2145 66.50879 668.2214 66.50879 669.4636C 66.50879 670.7057 67.51367 671.7126 68.75977 671.7126C 70.00586 671.7126 71.01074 670.7057 71.01074 669.4636" stroke="#000000" stroke-width="0.750418" fill="#000000" fill-rule="evenodd" /></g><g clip-path="url(#4)"></g></g></g></g></svg>