<svg xmlns="http://www.w3.org/2000/svg" xmlns:xlink="http://www.w3.org/1999/xlink" id="body_318" preserveAspectRatio="xMinYMin meet" viewBox="0 0 793 1121"><defs><clipPath id="1"><path d="M0 841L0 -0.8897705L0 -0.8897705L595.2756 -0.8897705L595.2756 -0.8897705L595.2756 841L595.2756 841L0 841z" /></clipPath><clipPath id="2"><path d="M50 -0.8897705L545.25 -0.8897705L545.25 -0.8897705L545.25 840.9998L545.25 840.9998L50 840.9998L50 840.9998L50 -0.8897705" /></clipPath><clipPath id="3"><path d="M50 48.58905L545.25 48.58905L545.25 48.58905L545.25 791.5209L545.25 791.5209L50 791.5209L50 791.5209L50 48.58905" /></clipPath><clipPath id="4"><path d="M50 791.5209L545.25 791.5209L545.25 791.5209L545.25 840.9998L545.25 840.9998L50 840.9998L50 840.9998L50 791.5209" /></clipPath></defs><g transform="matrix(1.333333 0 0 1.333333 0 0)"><g><g clip-path="url(#1)"><g clip-path="url(#2)"></g><g clip-path="url(#3)"><path transform="matrix(1 0 0 -1 0 841)" d="M101.0313 775.918C 101.0313 774.6759 100.0313 773.6689 98.78125 773.6689C 97.5 773.6689 96.5 774.6759 96.5 775.918C 96.5 777.1602 97.5 778.1671 98.78125 778.1671C 100.0313 778.1671 101.0313 777.1602 101.0313 775.918" stroke="#000000" stroke-width="0.750418" stroke-linecap="square" fill="none" /><path transform="matrix(1 0 0 -1 0 841)" d="M166.3125 771.0451L212.8438 771.0451z" stroke="#0000EE" stroke-width="0.750418" stroke-linecap="square" fill="none" /><path transform="matrix(1 0 0 -1 0 841)" d="M101.0313 751.1786C 101.0313 749.9365 100.0313 748.9296 98.78125 748.9296C 97.5 748.9296 96.5 749.9365 96.5 751.1786C 96.5 752.4208 97.5 753.4276 98.78125 753.4276C 100.0313 753.4276 101.0313 752.4208 101.0313 751.1786" stroke="#000000" stroke-width="0.750418" stroke-linecap="square" fill="none" /><path transform="matrix(1 0 0 -1 0 841)" d="M198.5625 746.3057L275.125 746.3057z" stroke="#0000EE" stroke-width="0.750418" stroke-linecap="square" fill="none" /><path transform="matrix(1 0 0 -1 0 841)" d="M101.0313 726.4392C 101.0313 725.197 100.0313 724.1902 98.78125 724.1902C 97.5 724.1902 96.5 725.197 96.5 726.4392C 96.5 727.6813 97.5 728.6882 98.78125 728.6882C 100.0313 728.6882 101.0313 727.6813 101.0313 726.4392" stroke="#000000" stroke-width="0.750418" stroke-linecap="square" fill="none" /><path transform="matrix(1 0 0 -1 0 841)" d="M170.8125 721.5663L219.5938 721.5663z" stroke="#0000EE" stroke-width="0.750418" stroke-linecap="square" fill="none" /><path transform="matrix(1 0 0 -1 0 841)" d="M101.0313 701.6998C 101.0313 700.4576 100.0313 699.4507 98.78125 699.4507C 97.5 699.4507 96.5 700.4576 96.5 701.6998C 96.5 702.942 97.5 703.9489 98.78125 703.9489C 100.0313 703.9489 101.0313 702.942 101.0313 701.6998" stroke="#000000" stroke-width="0.750418" stroke-linecap="square" fill="none" /><path transform="matrix(1 0 0 -1 0 841)" d="M168.5625 696.8269L217.3438 696.8269z" stroke="#0000EE" stroke-width="0.750418" stroke-linecap="square" fill="none" /><path transform="matrix(1 0 0 -1 0 841)" d="M101.0313 676.9604C 101.0313 675.7183 100.0313 674.7114 98.78125 674.7114C 97.5 674.7114 96.5 675.7183 96.5 676.9604C 96.5 678.2025 97.5 679.2094 98.78125 679.2094C 100.0313 679.2094 101.0313 678.2025 101.0313 676.9604" stroke="#000000" stroke-width="0.750418" stroke-linecap="square" fill="none" /><path transform="matrix(1 0 0 -1 0 841)" d="M257.8438 672.0875L304.375 672.0875z" stroke="#0000EE" stroke-width="0.750418" stroke-linecap="square" fill="none" /><path transform="matrix(1 0 0 -1 0 841)" d="M101.0313 652.2209C 101.0313 650.9788 100.0313 649.9719 98.78125 649.9719C 97.5 649.9719 96.5 650.9788 96.5 652.2209C 96.5 653.4631 97.5 654.47 98.78125 654.47C 100.0313 654.47 101.0313 653.4631 101.0313 652.2209" stroke="#000000" stroke-width="0.750418" stroke-linecap="square" fill="none" /><path transform="matrix(1 0 0 -1 0 841)" d="M163.3125 647.3481L204.5625 647.3481z" stroke="#0000EE" stroke-width="0.750418" stroke-linecap="square" fill="none" /><path transform="matrix(1 0 0 -1 0 841)" d="M71 619.9847C 71 618.7427 70.03125 617.7357 68.75 617.7357C 67.46875 617.7357 66.5 618.7427 66.5 619.9847C 66.5 621.2269 67.46875 622.2338 68.75 622.2338C 70.03125 622.2338 71 621.2269 71 619.9847" stroke="#000000" stroke-width="0.750418" fill="#000000" fill-rule="evenodd" /><path transform="matrix(1 0 0 -1 0 841)" d="M101.0313 602.7422C 101.0313 601.5 100.0313 600.4931 98.78125 600.4931C 97.5 600.4931 96.5 601.5 96.5 602.7422C 96.5 603.9843 97.5 604.9912 98.78125 604.9912C 100.0313 604.9912 101.0313 603.9843 101.0313 602.7422" stroke="#000000" stroke-width="0.750418" stroke-linecap="square" fill="none" /><path transform="matrix(1 0 0 -1 0 841)" d="M154.3125 597.8693L251.0938 597.8693z" stroke="#0000EE" stroke-width="0.750418" stroke-linecap="square" fill="none" /><path transform="matrix(1 0 0 -1 0 841)" d="M71 570.506C 71 569.2638 70.03125 568.257 68.75 568.257C 67.46875 568.257 66.5 569.2638 66.5 570.506C 66.5 571.7481 67.46875 572.755 68.75 572.755C 70.03125 572.755 71 571.7481 71 570.506" stroke="#000000" stroke-width="0.750418" fill="#000000" fill-rule="evenodd" /><path transform="matrix(1 0 0 -1 0 841)" d="M101.0313 553.2633C 101.0313 552.0212 100.0313 551.0143 98.78125 551.0143C 97.5 551.0143 96.5 552.0212 96.5 553.2633C 96.5 554.5055 97.5 555.5124 98.78125 555.5124C 100.0313 555.5124 101.0313 554.5055 101.0313 553.2633" stroke="#000000" stroke-width="0.750418" stroke-linecap="square" fill="none" /><path transform="matrix(1 0 0 -1 0 841)" d="M154.3125 548.3904L201.5625 548.3904z" stroke="#0000EE" stroke-width="0.750418" stroke-linecap="square" fill="none" /><path transform="matrix(1 0 0 -1 0 841)" d="M71 521.0272C 71 519.785 70.03125 518.7781 68.75 518.7781C 67.46875 518.7781 66.5 519.785 66.5 521.0272C 66.5 522.2693 67.46875 523.2762 68.75 523.2762C 70.03125 523.2762 71 522.2693 71 521.0272" stroke="#000000" stroke-width="0.750418" fill="#000000" fill-rule="evenodd" /><path transform="matrix(1 0 0 -1 0 841)" d="M101.0313 503.7845C 101.0313 502.5424 100.0313 501.5355 98.78125 501.5355C 97.5 501.5355 96.5 502.5424 96.5 503.7845C 96.5 505.0267 97.5 506.0336 98.78125 506.0336C 100.0313 506.0336 101.0313 505.0267 101.0313 503.7845" stroke="#000000" stroke-width="0.750418" stroke-linecap="square" fill="none" /><path transform="matrix(1 0 0 -1 0 841)" d="M154.3125 498.9116L191.8125 498.9116z" stroke="#0000EE" stroke-width="0.750418" stroke-linecap="square" fill="none" /><path transform="matrix(1 0 0 -1 0 841)" d="M71 471.5483C 71 470.3062 70.03125 469.2993 68.75 469.2993C 67.46875 469.2993 66.5 470.3062 66.5 471.5483C 66.5 472.7905 67.46875 473.7974 68.75 473.7974C 70.03125 473.7974 71 472.7905 71 471.5483" stroke="#000000" stroke-width="0.750418" fill="#000000" fill-rule="evenodd" /><path transform="matrix(1 0 0 -1 0 841)" d="M101.0313 454.3057C 101.0313 453.0636 100.0313 452.0567 98.78125 452.0567C 97.5 452.0567 96.5 453.0636 96.5 454.3057C 96.5 455.5479 97.5 456.5547 98.78125 456.5547C 100.0313 456.5547 101.0313 455.5479 101.0313 454.3057" stroke="#000000" stroke-width="0.750418" stroke-linecap="square" fill="none" /><path transform="matrix(1 0 0 -1 0 841)" d="M178.3125 449.4328L329.9063 449.4328z" stroke="#0000EE" stroke-width="0.750418" stroke-linecap="square" fill="none" /><path transform="matrix(1 0 0 -1 0 841)" d="M101.0313 429.5663C 101.0313 428.3242 100.0313 427.3173 98.78125 427.3173C 97.5 427.3173 96.5 428.3242 96.5 429.5663C 96.5 430.8085 97.5 431.8153 98.78125 431.8153C 100.0313 431.8153 101.0313 430.8085 101.0313 429.5663" stroke="#000000" stroke-width="0.750418" stroke-linecap="square" fill="none" /><path transform="matrix(1 0 0 -1 0 841)" d="M149.7813 424.6934L301.375 424.6934z" stroke="#0000EE" stroke-width="0.750418" stroke-linecap="square" fill="none" /><path transform="matrix(1 0 0 -1 0 841)" d="M101.0313 404.8269C 101.0313 403.5847 100.0313 402.5779 98.78125 402.5779C 97.5 402.5779 96.5 403.5847 96.5 404.8269C 96.5 406.0691 97.5 407.0759 98.78125 407.0759C 100.0313 407.0759 101.0313 406.0691 101.0313 404.8269" stroke="#000000" stroke-width="0.750418" stroke-linecap="square" fill="none" /><path transform="matrix(1 0 0 -1 0 841)" d="M253.3438 399.954L545.25 399.954z" stroke="#0000EE" stroke-width="0.750418" stroke-linecap="square" fill="none" /><path transform="matrix(1 0 0 -1 0 841)" d="M110.0313 382.7114L152.7813 382.7114z" stroke="#0000EE" stroke-width="0.750418" stroke-linecap="square" fill="none" /><path transform="matrix(1 0 0 -1 0 841)" d="M101.0313 362.8449C 101.0313 361.6027 100.0313 360.5958 98.78125 360.5958C 97.5 360.5958 96.5 361.6027 96.5 362.8449C 96.5 364.087 97.5 365.0939 98.78125 365.0939C 100.0313 365.0939 101.0313 364.087 101.0313 362.8449" stroke="#000000" stroke-width="0.750418" stroke-linecap="square" fill="none" /><path transform="matrix(1 0 0 -1 0 841)" d="M263.0938 357.972L507 357.972z" stroke="#0000EE" stroke-width="0.750418" stroke-linecap="square" fill="none" /><path transform="matrix(1 0 0 -1 0 841)" d="M101.0313 338.1055C 101.0313 336.8633 100.0313 335.8564 98.78125 335.8564C 97.5 335.8564 96.5 336.8633 96.5 338.1055C 96.5 339.3476 97.5 340.3545 98.78125 340.3545C 100.0313 340.3545 101.0313 339.3476 101.0313 338.1055" stroke="#000000" stroke-width="0.750418" stroke-linecap="square" fill="none" /><path transform="matrix(1 0 0 -1 0 841)" d="M263.0938 333.2325L402.6875 333.2325z" stroke="#0000EE" stroke-width="0.750418" stroke-linecap="square" fill="none" /><path transform="matrix(1 0 0 -1 0 841)" d="M101.0313 313.366C 101.0313 312.1239 100.0313 311.117 98.78125 311.117C 97.5 311.117 96.5 312.1239 96.5 313.366C 96.5 314.6082 97.5 315.6151 98.78125 315.6151C 100.0313 315.6151 101.0313 314.6082 101.0313 313.366" stroke="#000000" stroke-width="0.750418" stroke-linecap="square" fill="none" /><path transform="matrix(1 0 0 -1 0 841)" d="M242.8438 308.4932L362.9063 308.4932z" stroke="#0000EE" stroke-width="0.750418" stroke-linecap="square" fill="none" /><path transform="matrix(1 0 0 -1 0 841)" d="M101.0313 288.6266C 101.0313 287.3845 100.0313 286.3776 98.78125 286.3776C 97.5 286.3776 96.5 287.3845 96.5 288.6266C 96.5 289.8688 97.5 290.8757 98.78125 290.8757C 100.0313 290.8757 101.0313 289.8688 101.0313 288.6266" stroke="#000000" stroke-width="0.750418" stroke-linecap="square" fill="none" /><path transform="matrix(1 0 0 -1 0 841)" d="M255.5938 283.7537L388.4375 283.7537z" stroke="#0000EE" stroke-width="0.750418" stroke-linecap="square" fill="none" /><path transform="matrix(1 0 0 -1 0 841)" d="M101.0313 263.8873C 101.0313 262.6451 100.0313 261.6382 98.78125 261.6382C 97.5 261.6382 96.5 262.6451 96.5 263.8873C 96.5 265.1294 97.5 266.1363 98.78125 266.1363C 100.0313 266.1363 101.0313 265.1294 101.0313 263.8873" stroke="#000000" stroke-width="0.750418" stroke-linecap="square" fill="none" /><path transform="matrix(1 0 0 -1 0 841)" d="M300.625 259.0143L495.75 259.0143z" stroke="#0000EE" stroke-width="0.750418" stroke-linecap="square" fill="none" /><path transform="matrix(1 0 0 -1 0 841)" d="M71 231.6511C 71 230.4089 70.03125 229.402 68.75 229.402C 67.46875 229.402 66.5 230.4089 66.5 231.6511C 66.5 232.8932 67.46875 233.9001 68.75 233.9001C 70.03125 233.9001 71 232.8932 71 231.6511" stroke="#000000" stroke-width="0.750418" fill="#000000" fill-rule="evenodd" /><path transform="matrix(1 0 0 -1 0 841)" d="M101.0313 214.4084C 101.0313 213.1663 100.0313 212.1594 98.78125 212.1594C 97.5 212.1594 96.5 213.1663 96.5 214.4084C 96.5 215.6506 97.5 216.6575 98.78125 216.6575C 100.0313 216.6575 101.0313 215.6506 101.0313 214.4084" stroke="#000000" stroke-width="0.750418" stroke-linecap="square" fill="none" /><path transform="matrix(1 0 0 -1 0 841)" d="M155.8125 209.5355L541.5 209.5355z" stroke="#0000EE" stroke-width="0.750418" stroke-linecap="square" fill="none" /><path transform="matrix(1 0 0 -1 0 841)" d="M110.0313 192.2929L232.3438 192.2929z" stroke="#0000EE" stroke-width="0.750418" stroke-linecap="square" fill="none" /><path transform="matrix(1 0 0 -1 0 841)" d="M71 164.9296C 71 163.6874 70.03125 162.6805 68.75 162.6805C 67.46875 162.6805 66.5 163.6874 66.5 164.9296C 66.5 166.1718 67.46875 167.1786 68.75 167.1786C 70.03125 167.1786 71 166.1718 71 164.9296" stroke="#000000" stroke-width="0.750418" fill="#000000" fill-rule="evenodd" /><path transform="matrix(1 0 0 -1 0 841)" d="M217.3438 160.0567L451.4688 160.0567z" stroke="#0000EE" stroke-width="0.750418" stroke-linecap="square" fill="none" /><path transform="matrix(1 0 0 -1 0 841)" d="M71 140.1902C 71 138.9481 70.03125 137.9412 68.75 137.9412C 67.46875 137.9412 66.5 138.9481 66.5 140.1902C 66.5 141.4324 67.46875 142.4392 68.75 142.4392C 70.03125 142.4392 71 141.4324 71 140.1902" stroke="#000000" stroke-width="0.750418" fill="#000000" fill-rule="evenodd" /><path transform="matrix(1 0 0 -1 0 841)" d="M203.8125 135.3173L462.7188 135.3173z" stroke="#0000EE" stroke-width="0.750418" stroke-linecap="square" fill="none" /><path transform="matrix(1 0 0 -1 0 841)" d="M71 115.4508C 71 114.2086 70.03125 113.2018 68.75 113.2018C 67.46875 113.2018 66.5 114.2086 66.5 115.4508C 66.5 116.6929 67.46875 117.6998 68.75 117.6998C 70.03125 117.6998 71 116.6929 71 115.4508" stroke="#000000" stroke-width="0.750418" fill="#000000" fill-rule="evenodd" /><path transform="matrix(1 0 0 -1 0 841)" d="M186.5625 110.5779L412.4375 110.5779z" stroke="#0000EE" stroke-width="0.750418" stroke-linecap="square" fill="none" /><path transform="matrix(1 0 0 -1 0 841)" d="M419.9375 110.5779L542.25 110.5779z" stroke="#0000EE" stroke-width="0.750418" stroke-linecap="square" fill="none" /><path transform="matrix(1 0 0 -1 0 841)" d="M71 90.71136C 71 89.46918 70.03125 88.46234 68.75 88.46234C 67.46875 88.46234 66.5 89.46918 66.5 90.71136C 66.5 91.95361 67.46875 92.96045 68.75 92.96045C 70.03125 92.96045 71 91.95361 71 90.71136" stroke="#000000" stroke-width="0.750418" fill="#000000" fill-rule="evenodd" /><path transform="matrix(1 0 0 -1 0 841)" d="M101.0313 73.46875C 101.0313 72.22656 100.0313 71.21973 98.78125 71.21973C 97.5 71.21973 96.5 72.22656 96.5 73.46875C 96.5 74.711 97.5 75.71777 98.78125 75.71777C 100.0313 75.71777 101.0313 74.711 101.0313 73.46875" stroke="#000000" stroke-width="0.750418" stroke-linecap="square" fill="none" /><path transform="matrix(1 0 0 -1 0 841)" d="M154.3125 68.59583L177.5625 68.59583z" stroke="#0000EE" stroke-width="0.750418" stroke-linecap="square" fill="none" /></g><g clip-path="url(#4)"></g></g></g></g></svg>