<svg xmlns="http://www.w3.org/2000/svg" xmlns:xlink="http://www.w3.org/1999/xlink" id="body_36" preserveAspectRatio="xMinYMin meet" viewBox="0 0 793 1121"><defs><clipPath id="1"><path d="M0 841L0 -0.8897705L0 -0.8897705L595.2756 -0.8897705L595.2756 -0.8897705L595.2756 841L595.2756 841L0 841z" /></clipPath><clipPath id="2"><path d="M50 -0.8897705L545.2754 -0.8897705L545.2754 -0.8897705L545.2754 840.9998L545.2754 840.9998L50 840.9998L50 840.9998L50 -0.8897705" /></clipPath><clipPath id="3"><path d="M50 48.58905L545.2754 48.58905L545.2754 48.58905L545.2754 791.5209L545.2754 791.5209L50 791.5209L50 791.5209L50 48.58905" /></clipPath><clipPath id="4"><path d="M50 791.5209L545.2754 791.5209L545.2754 791.5209L545.2754 840.9998L545.2754 840.9998L50 840.9998L50 840.9998L50 791.5209" /></clipPath></defs><g transform="matrix(1.333333 0 0 1.333333 0 0)"><g><g clip-path="url(#1)"><g clip-path="url(#2)"></g><g clip-path="url(#3)"><g transform="matrix(0.6647999 0 0 0.6622725 49.99979 303.4799)"><g transform="matrix(1 0 0 1 0 0)"><image x="0" y="0" xlink:href="img_40.png" width="745" height="223" /></g></g><path transform="matrix(1 0 0 -1 0 841)" d="M71.01172 222.6549C 71.01172 221.4127 70.00586 220.4059 68.75977 220.4059C 67.51367 220.4059 66.50977 221.4127 66.50977 222.6549C 66.50977 223.897 67.51367 224.9039 68.75977 224.9039C 70.00586 224.9039 71.01172 223.897 71.01172 222.6549" stroke="#000000" stroke-width="0.750418" fill="#000000" fill-rule="evenodd" /><path transform="matrix(1 0 0 -1 0 841)" d="M71.01172 180.6729C 71.01172 179.4307 70.00586 178.4238 68.75977 178.4238C 67.51367 178.4238 66.50977 179.4307 66.50977 180.6729C 66.50977 181.915 67.51367 182.9219 68.75977 182.9219C 70.00586 182.9219 71.01172 181.915 71.01172 180.6729" stroke="#000000" stroke-width="0.750418" fill="#000000" fill-rule="evenodd" /><path transform="matrix(1 0 0 -1 0 841)" d="M71.01172 121.4482C 71.01172 120.2061 70.00586 119.1992 68.75977 119.1992C 67.51367 119.1992 66.50977 120.2061 66.50977 121.4482C 66.50977 122.6904 67.51367 123.6973 68.75977 123.6973C 70.00586 123.6973 71.01172 122.6904 71.01172 121.4482" stroke="#000000" stroke-width="0.750418" fill="#000000" fill-rule="evenodd" /></g><g clip-path="url(#4)"></g></g></g></g></svg>