<svg xmlns="http://www.w3.org/2000/svg" xmlns:xlink="http://www.w3.org/1999/xlink" id="body_137" preserveAspectRatio="xMinYMin meet" viewBox="0 0 793 1121"><defs><clipPath id="1"><path d="M0 841L0 -0.8897705L0 -0.8897705L595.2756 -0.8897705L595.2756 -0.8897705L595.2756 841L595.2756 841L0 841z" /></clipPath><clipPath id="2"><path d="M49.99219 -0.8897705L545.2656 -0.8897705L545.2656 -0.8897705L545.2656 840.9998L545.2656 840.9998L49.99219 840.9998L49.99219 840.9998L49.99219 -0.8897705" /></clipPath><clipPath id="3"><path d="M49.99219 48.58905L545.2656 48.58905L545.2656 48.58905L545.2656 791.5209L545.2656 791.5209L49.99219 791.5209L49.99219 791.5209L49.99219 48.58905" /></clipPath><clipPath id="4"><path d="M49.99219 791.5209L545.2656 791.5209L545.2656 791.5209L545.2656 840.9998L545.2656 840.9998L49.99219 840.9998L49.99219 840.9998L49.99219 791.5209" /></clipPath></defs><g transform="matrix(1.333333 0 0 1.333333 0 0)"><g><g clip-path="url(#1)"><g clip-path="url(#2)"></g><g clip-path="url(#3)"><path transform="matrix(1 0 0 -1 0 841)" d="M71.00781 586.9989C 71.00781 585.7568 70.03125 584.7499 68.75 584.7499C 67.47656 584.7499 66.5 585.7568 66.5 586.9989C 66.5 588.241 67.47656 589.2479 68.75 589.2479C 70.03125 589.2479 71.00781 588.241 71.00781 586.9989" stroke="#000000" stroke-width="0.750418" fill="#000000" fill-rule="evenodd" /><path transform="matrix(1 0 0 -1 0 841)" d="M71.00781 562.2595C 71.00781 561.0173 70.03125 560.0105 68.75 560.0105C 67.47656 560.0105 66.5 561.0173 66.5 562.2595C 66.5 563.5016 67.47656 564.5085 68.75 564.5085C 70.03125 564.5085 71.00781 563.5016 71.00781 562.2595" stroke="#000000" stroke-width="0.750418" fill="#000000" fill-rule="evenodd" /><path transform="matrix(1 0 0 -1 0 841)" d="M71.00781 537.5201C 71.00781 536.278 70.03125 535.2711 68.75 535.2711C 67.47656 535.2711 66.5 536.278 66.5 537.5201C 66.5 538.7622 67.47656 539.7692 68.75 539.7692C 70.03125 539.7692 71.00781 538.7622 71.00781 537.5201" stroke="#000000" stroke-width="0.750418" fill="#000000" fill-rule="evenodd" /><path transform="matrix(1 0 0 -1 0 841)" d="M71.00781 512.7806C 71.00781 511.5385 70.03125 510.5316 68.75 510.5316C 67.47656 510.5316 66.5 511.5385 66.5 512.7806C 66.5 514.0228 67.47656 515.0297 68.75 515.0297C 70.03125 515.0297 71.00781 514.0228 71.00781 512.7806" stroke="#000000" stroke-width="0.750418" fill="#000000" fill-rule="evenodd" /><path transform="matrix(1 0 0 -1 0 841)" d="M71.00781 488.0413C 71.00781 486.7991 70.03125 485.7922 68.75 485.7922C 67.47656 485.7922 66.5 486.7991 66.5 488.0413C 66.5 489.2834 67.47656 490.2903 68.75 490.2903C 70.03125 490.2903 71.00781 489.2834 71.00781 488.0413" stroke="#000000" stroke-width="0.750418" fill="#000000" fill-rule="evenodd" /><path transform="matrix(1 0 0 -1 0 841)" d="M71.00781 463.3018C 71.00781 462.0597 70.03125 461.0528 68.75 461.0528C 67.47656 461.0528 66.5 462.0597 66.5 463.3018C 66.5 464.544 67.47656 465.5509 68.75 465.5509C 70.03125 465.5509 71.00781 464.544 71.00781 463.3018" stroke="#000000" stroke-width="0.750418" fill="#000000" fill-rule="evenodd" /></g><g clip-path="url(#4)"></g></g></g></g></svg>