<svg xmlns="http://www.w3.org/2000/svg" xmlns:xlink="http://www.w3.org/1999/xlink" id="body_32" preserveAspectRatio="xMinYMin meet" viewBox="0 0 793 1121"><defs><clipPath id="1"><path d="M0 841L0 -0.8897705L0 -0.8897705L595.2756 -0.8897705L595.2756 -0.8897705L595.2756 841L595.2756 841L0 841z" /></clipPath><clipPath id="2"><path d="M50 -0.8897705L545.2754 -0.8897705L545.2754 -0.8897705L545.2754 840.9998L545.2754 840.9998L50 840.9998L50 840.9998L50 -0.8897705" /></clipPath><clipPath id="3"><path d="M50 48.58905L545.2754 48.58905L545.2754 48.58905L545.2754 791.5209L545.2754 791.5209L50 791.5209L50 791.5209L50 48.58905" /></clipPath><clipPath id="4"><path d="M50 791.5209L545.2754 791.5209L545.2754 791.5209L545.2754 840.9998L545.2754 840.9998L50 840.9998L50 840.9998L50 791.5209" /></clipPath></defs><g transform="matrix(1.333333 0 0 1.333333 0 0)"><g><g clip-path="url(#1)"><g clip-path="url(#2)"></g><g clip-path="url(#3)"><path transform="matrix(1 0 0 -1 0 841)" d="M71.01172 586.9989C 71.01172 585.7568 70.00586 584.7499 68.75977 584.7499C 67.51367 584.7499 66.50781 585.7568 66.50781 586.9989C 66.50781 588.241 67.51367 589.2479 68.75977 589.2479C 70.00586 589.2479 71.01172 588.241 71.01172 586.9989" stroke="#000000" stroke-width="0.750418" fill="#000000" fill-rule="evenodd" /><path transform="matrix(1 0 0 -1 0 841)" d="M71.01172 562.2595C 71.01172 561.0173 70.00586 560.0105 68.75977 560.0105C 67.51367 560.0105 66.50781 561.0173 66.50781 562.2595C 66.50781 563.5016 67.51367 564.5085 68.75977 564.5085C 70.00586 564.5085 71.01172 563.5016 71.01172 562.2595" stroke="#000000" stroke-width="0.750418" fill="#000000" fill-rule="evenodd" /><path transform="matrix(1 0 0 -1 0 841)" d="M71.01172 536.7704C 71.01172 535.5283 70.00586 534.5214 68.75977 534.5214C 67.51367 534.5214 66.50781 535.5283 66.50781 536.7704C 66.50781 538.0126 67.51367 539.0194 68.75977 539.0194C 70.00586 539.0194 71.01172 538.0126 71.01172 536.7704" stroke="#000000" stroke-width="0.750418" fill="#000000" fill-rule="evenodd" /><path transform="matrix(1 0 0 -1 0 841)" d="M71.01172 494.7884C 71.01172 493.5462 70.00586 492.5393 68.75977 492.5393C 67.51367 492.5393 66.50781 493.5462 66.50781 494.7884C 66.50781 496.0305 67.51367 497.0374 68.75977 497.0374C 70.00586 497.0374 71.01172 496.0305 71.01172 494.7884" stroke="#000000" stroke-width="0.750418" fill="#000000" fill-rule="evenodd" /><path transform="matrix(1 0 0 -1 0 841)" d="M71.01172 469.2993C 71.01172 468.0572 70.00586 467.0503 68.75977 467.0503C 67.51367 467.0503 66.50781 468.0572 66.50781 469.2993C 66.50781 470.5414 67.51367 471.5483 68.75977 471.5483C 70.00586 471.5483 71.01172 470.5414 71.01172 469.2993" stroke="#000000" stroke-width="0.750418" fill="#000000" fill-rule="evenodd" /></g><g clip-path="url(#4)"></g></g></g></g></svg>