<svg xmlns="http://www.w3.org/2000/svg" xmlns:xlink="http://www.w3.org/1999/xlink" id="body_243" preserveAspectRatio="xMinYMin meet" viewBox="0 0 793 1121"><defs><clipPath id="1"><path d="M0 841L0 -0.8897705L0 -0.8897705L595.2756 -0.8897705L595.2756 -0.8897705L595.2756 841L595.2756 841L0 841z" /></clipPath><clipPath id="2"><path d="M50 -0.8897705L545.2656 -0.8897705L545.2656 -0.8897705L545.2656 840.9998L545.2656 840.9998L50 840.9998L50 840.9998L50 -0.8897705" /></clipPath><clipPath id="3"><path d="M50 48.58905L545.2656 48.58905L545.2656 48.58905L545.2656 791.5209L545.2656 791.5209L50 791.5209L50 791.5209L50 48.58905" /></clipPath><clipPath id="4"><path d="M50 791.5209L545.2656 791.5209L545.2656 791.5209L545.2656 840.9998L545.2656 840.9998L50 840.9998L50 840.9998L50 791.5209" /></clipPath></defs><g transform="matrix(1.333333 0 0 1.333333 0 0)"><g><g clip-path="url(#1)"><g clip-path="url(#2)"></g><g clip-path="url(#3)"><path transform="matrix(1 0 0 -1 0 841)" d="M130.2969 761.2993L189.5781 761.2993z" stroke="#0000EE" stroke-width="0.750418" stroke-linecap="square" fill="none" /><g transform="matrix(0.5619072 0 0 0.5588516 80.01148 517.1384)"><g transform="matrix(1 0 0 1 0 0)"><image x="0" y="0" xlink:href="img_440.png" width="828" height="55" /></g></g></g><g clip-path="url(#4)"></g></g></g></g></svg>