<svg xmlns="http://www.w3.org/2000/svg" xmlns:xlink="http://www.w3.org/1999/xlink" id="body_193" preserveAspectRatio="xMinYMin meet" viewBox="0 0 793 1121"><defs><clipPath id="1"><path d="M0 841L0 -0.8897705L0 -0.8897705L595.2756 -0.8897705L595.2756 -0.8897705L595.2756 841L595.2756 841L0 841z" /></clipPath><clipPath id="2"><path d="M49.98438 -0.8897705L545.2656 -0.8897705L545.2656 -0.8897705L545.2656 840.9998L545.2656 840.9998L49.98438 840.9998L49.98438 840.9998L49.98438 -0.8897705" /></clipPath><clipPath id="3"><path d="M49.98438 48.58905L545.2656 48.58905L545.2656 48.58905L545.2656 791.5209L545.2656 791.5209L49.98438 791.5209L49.98438 791.5209L49.98438 48.58905" /></clipPath><clipPath id="4"><path d="M49.98438 791.5209L545.2656 791.5209L545.2656 791.5209L545.2656 840.9998L545.2656 840.9998L49.98438 840.9998L49.98438 840.9998L49.98438 791.5209" /></clipPath></defs><g transform="matrix(1.333333 0 0 1.333333 0 0)"><g><g clip-path="url(#1)"><g clip-path="url(#2)"></g><g clip-path="url(#3)"><path transform="matrix(1 0 0 -1 0 841)" d="M54.48438 587.3737L278.8594 587.3737z" stroke="#0000EE" stroke-width="0.750418" stroke-linecap="square" fill="none" /><path transform="matrix(1 0 0 -1 0 841)" d="M374.9219 587.3737L509.25 587.3737z" stroke="#0000EE" stroke-width="0.750418" stroke-linecap="square" fill="none" /><path transform="matrix(1 0 0 -1 0 841)" d="M101.0156 570.1311L221.8281 570.1311z" stroke="#0000EE" stroke-width="0.750418" stroke-linecap="square" fill="none" /><path transform="matrix(1 0 0 -1 0 841)" d="M71 476.0464C 71 474.8043 70.03125 473.7974 68.75 473.7974C 67.46875 473.7974 66.5 474.8043 66.5 476.0464C 66.5 477.2885 67.46875 478.2954 68.75 478.2954C 70.03125 478.2954 71 477.2885 71 476.0464" stroke="#000000" stroke-width="0.750418" fill="#000000" fill-rule="evenodd" /><path transform="matrix(1 0 0 -1 0 841)" d="M71 451.307C 71 450.0648 70.03125 449.058 68.75 449.058C 67.46875 449.058 66.5 450.0648 66.5 451.307C 66.5 452.5492 67.46875 453.556 68.75 453.556C 70.03125 453.556 71 452.5492 71 451.307" stroke="#000000" stroke-width="0.750418" fill="#000000" fill-rule="evenodd" /><path transform="matrix(1 0 0 -1 0 841)" d="M71 426.5676C 71 425.3254 70.03125 424.3185 68.75 424.3185C 67.46875 424.3185 66.5 425.3254 66.5 426.5676C 66.5 427.8098 67.46875 428.8166 68.75 428.8166C 70.03125 428.8166 71 427.8098 71 426.5676" stroke="#000000" stroke-width="0.750418" fill="#000000" fill-rule="evenodd" /><path transform="matrix(1 0 0 -1 0 841)" d="M71 401.8282C 71 400.586 70.03125 399.5791 68.75 399.5791C 67.46875 399.5791 66.5 400.586 66.5 401.8282C 66.5 403.0703 67.46875 404.0772 68.75 404.0772C 70.03125 404.0772 71 403.0703 71 401.8282" stroke="#000000" stroke-width="0.750418" fill="#000000" fill-rule="evenodd" /><path transform="matrix(1 0 0 -1 0 841)" d="M71 377.0888C 71 375.8466 70.03125 374.8397 68.75 374.8397C 67.46875 374.8397 66.5 375.8466 66.5 377.0888C 66.5 378.3309 67.46875 379.3378 68.75 379.3378C 70.03125 379.3378 71 378.3309 71 377.0888" stroke="#000000" stroke-width="0.750418" fill="#000000" fill-rule="evenodd" /><path transform="matrix(1 0 0 -1 0 841)" d="M71 352.3494C 71 351.1072 70.03125 350.1003 68.75 350.1003C 67.46875 350.1003 66.5 351.1072 66.5 352.3494C 66.5 353.5915 67.46875 354.5984 68.75 354.5984C 70.03125 354.5984 71 353.5915 71 352.3494" stroke="#000000" stroke-width="0.750418" fill="#000000" fill-rule="evenodd" /></g><g clip-path="url(#4)"></g></g></g></g></svg>