<svg xmlns="http://www.w3.org/2000/svg" xmlns:xlink="http://www.w3.org/1999/xlink" id="body_333" preserveAspectRatio="xMinYMin meet" viewBox="0 0 793 1121"><defs><clipPath id="1"><path d="M0 841L0 -0.8897705L0 -0.8897705L595.2756 -0.8897705L595.2756 -0.8897705L595.2756 841L595.2756 841L0 841z" /></clipPath><clipPath id="2"><path d="M49.96875 -0.8897705L545.25 -0.8897705L545.25 -0.8897705L545.25 840.9998L545.25 840.9998L49.96875 840.9998L49.96875 840.9998L49.96875 -0.8897705" /></clipPath><clipPath id="3"><path d="M49.96875 48.58905L545.25 48.58905L545.25 48.58905L545.25 791.5209L545.25 791.5209L49.96875 791.5209L49.96875 791.5209L49.96875 48.58905" /></clipPath><clipPath id="4"><path d="M49.96875 791.5209L545.25 791.5209L545.25 791.5209L545.25 840.9998L545.25 840.9998L49.96875 840.9998L49.96875 840.9998L49.96875 791.5209" /></clipPath></defs><g transform="matrix(1.333333 0 0 1.333333 0 0)"><g><g clip-path="url(#1)"><g clip-path="url(#2)"></g><g clip-path="url(#3)"><path transform="matrix(1 0 0 -1 0 841)" d="M101 783.4148C 101 782.1727 100 781.1658 98.75 781.1658C 97.46875 781.1658 96.5 782.1727 96.5 783.4148C 96.5 784.6569 97.46875 785.6638 98.75 785.6638C 100 785.6638 101 784.6569 101 783.4148" stroke="#000000" stroke-width="0.750418" stroke-linecap="square" fill="none" /><path transform="matrix(1 0 0 -1 0 841)" d="M154.2813 778.5419L348.625 778.5419z" stroke="#0000EE" stroke-width="0.750418" stroke-linecap="square" fill="none" /><path transform="matrix(1 0 0 -1 0 841)" d="M70.96875 751.1786C 70.96875 749.9365 70 748.9296 68.71875 748.9296C 67.46875 748.9296 66.46875 749.9365 66.46875 751.1786C 66.46875 752.4208 67.46875 753.4276 68.71875 753.4276C 70 753.4276 70.96875 752.4208 70.96875 751.1786" stroke="#000000" stroke-width="0.750418" fill="#000000" fill-rule="evenodd" /><path transform="matrix(1 0 0 -1 0 841)" d="M101 733.936C 101 732.6938 100 731.687 98.75 731.687C 97.46875 731.687 96.5 732.6938 96.5 733.936C 96.5 735.1782 97.46875 736.1851 98.75 736.1851C 100 736.1851 101 735.1782 101 733.936" stroke="#000000" stroke-width="0.750418" stroke-linecap="square" fill="none" /><path transform="matrix(1 0 0 -1 0 841)" d="M154.2813 729.0631L240.5625 729.0631z" stroke="#0000EE" stroke-width="0.750418" stroke-linecap="square" fill="none" /><path transform="matrix(1 0 0 -1 0 841)" d="M101 709.1966C 101 707.9545 100 706.9475 98.75 706.9475C 97.46875 706.9475 96.5 707.9545 96.5 709.1966C 96.5 710.4387 97.46875 711.4456 98.75 711.4456C 100 711.4456 101 710.4387 101 709.1966" stroke="#000000" stroke-width="0.750418" stroke-linecap="square" fill="none" /><path transform="matrix(1 0 0 -1 0 841)" d="M176.7813 704.3237L490.4688 704.3237z" stroke="#0000EE" stroke-width="0.750418" stroke-linecap="square" fill="none" /><path transform="matrix(1 0 0 -1 0 841)" d="M101 684.4572C 101 683.215 100 682.2081 98.75 682.2081C 97.46875 682.2081 96.5 683.215 96.5 684.4572C 96.5 685.6993 97.46875 686.7062 98.75 686.7062C 100 686.7062 101 685.6993 101 684.4572" stroke="#000000" stroke-width="0.750418" stroke-linecap="square" fill="none" /><path transform="matrix(1 0 0 -1 0 841)" d="M200.8125 679.5842L545.25 679.5842z" stroke="#0000EE" stroke-width="0.750418" stroke-linecap="square" fill="none" /><path transform="matrix(1 0 0 -1 0 841)" d="M110 662.3417L221.0625 662.3417z" stroke="#0000EE" stroke-width="0.750418" stroke-linecap="square" fill="none" /><path transform="matrix(1 0 0 -1 0 841)" d="M101 642.4752C 101 641.233 100 640.2261 98.75 640.2261C 97.46875 640.2261 96.5 641.233 96.5 642.4752C 96.5 643.7173 97.46875 644.7242 98.75 644.7242C 100 644.7242 101 643.7173 101 642.4752" stroke="#000000" stroke-width="0.750418" stroke-linecap="square" fill="none" /><path transform="matrix(1 0 0 -1 0 841)" d="M322.375 637.6022L545.25 637.6022z" stroke="#0000EE" stroke-width="0.750418" stroke-linecap="square" fill="none" /><path transform="matrix(1 0 0 -1 0 841)" d="M110 620.3596L363.6563 620.3596z" stroke="#0000EE" stroke-width="0.750418" stroke-linecap="square" fill="none" /><path transform="matrix(1 0 0 -1 0 841)" d="M70.96875 592.9963C 70.96875 591.7542 70 590.7473 68.71875 590.7473C 67.46875 590.7473 66.46875 591.7542 66.46875 592.9963C 66.46875 594.2385 67.46875 595.2454 68.71875 595.2454C 70 595.2454 70.96875 594.2385 70.96875 592.9963" stroke="#000000" stroke-width="0.750418" fill="#000000" fill-rule="evenodd" /><path transform="matrix(1 0 0 -1 0 841)" d="M101 575.7537C 101 574.5116 100 573.5046 98.75 573.5046C 97.46875 573.5046 96.5 574.5116 96.5 575.7537C 96.5 576.9958 97.46875 578.0027 98.75 578.0027C 100 578.0027 101 576.9958 101 575.7537" stroke="#000000" stroke-width="0.750418" stroke-linecap="square" fill="none" /><path transform="matrix(1 0 0 -1 0 841)" d="M176.7813 570.8808L490.4688 570.8808z" stroke="#0000EE" stroke-width="0.750418" stroke-linecap="square" fill="none" /><path transform="matrix(1 0 0 -1 0 841)" d="M70.96875 543.5175C 70.96875 542.2754 70 541.2685 68.71875 541.2685C 67.46875 541.2685 66.46875 542.2754 66.46875 543.5175C 66.46875 544.7596 67.46875 545.7665 68.71875 545.7665C 70 545.7665 70.96875 544.7596 70.96875 543.5175" stroke="#000000" stroke-width="0.750418" fill="#000000" fill-rule="evenodd" /><path transform="matrix(1 0 0 -1 0 841)" d="M101 526.2749C 101 525.0328 100 524.0259 98.75 524.0259C 97.46875 524.0259 96.5 525.0328 96.5 526.2749C 96.5 527.517 97.46875 528.5239 98.75 528.5239C 100 528.5239 101 527.517 101 526.2749" stroke="#000000" stroke-width="0.750418" stroke-linecap="square" fill="none" /><path transform="matrix(1 0 0 -1 0 841)" d="M152.7813 521.402L310.375 521.402z" stroke="#0000EE" stroke-width="0.750418" stroke-linecap="square" fill="none" /><path transform="matrix(1 0 0 -1 0 841)" d="M101 501.5355C 101 500.2934 100 499.2865 98.75 499.2865C 97.46875 499.2865 96.5 500.2934 96.5 501.5355C 96.5 502.7776 97.46875 503.7845 98.75 503.7845C 100 503.7845 101 502.7776 101 501.5355" stroke="#000000" stroke-width="0.750418" stroke-linecap="square" fill="none" /><path transform="matrix(1 0 0 -1 0 841)" d="M383.9063 496.6626L545.25 496.6626z" stroke="#0000EE" stroke-width="0.750418" stroke-linecap="square" fill="none" /><path transform="matrix(1 0 0 -1 0 841)" d="M110 479.42L318.625 479.42z" stroke="#0000EE" stroke-width="0.750418" stroke-linecap="square" fill="none" /><path transform="matrix(1 0 0 -1 0 841)" d="M326.125 479.42L448.4375 479.42z" stroke="#0000EE" stroke-width="0.750418" stroke-linecap="square" fill="none" /><path transform="matrix(1 0 0 -1 0 841)" d="M101 459.5535C 101 458.3113 100 457.3044 98.75 457.3044C 97.46875 457.3044 96.5 458.3113 96.5 459.5535C 96.5 460.7956 97.46875 461.8025 98.75 461.8025C 100 461.8025 101 460.7956 101 459.5535" stroke="#000000" stroke-width="0.750418" stroke-linecap="square" fill="none" /><path transform="matrix(1 0 0 -1 0 841)" d="M308.125 454.6805L545.25 454.6805z" stroke="#0000EE" stroke-width="0.750418" stroke-linecap="square" fill="none" /><path transform="matrix(1 0 0 -1 0 841)" d="M110 437.4379L161.7813 437.4379z" stroke="#0000EE" stroke-width="0.750418" stroke-linecap="square" fill="none" /><path transform="matrix(1 0 0 -1 0 841)" d="M169.2813 437.4379L291.5938 437.4379z" stroke="#0000EE" stroke-width="0.750418" stroke-linecap="square" fill="none" /><path transform="matrix(1 0 0 -1 0 841)" d="M101 417.5714C 101 416.3293 100 415.3224 98.75 415.3224C 97.46875 415.3224 96.5 416.3293 96.5 417.5714C 96.5 418.8136 97.46875 419.8205 98.75 419.8205C 100 419.8205 101 418.8136 101 417.5714" stroke="#000000" stroke-width="0.750418" stroke-linecap="square" fill="none" /><path transform="matrix(1 0 0 -1 0 841)" d="M332.125 412.6985L545.25 412.6985z" stroke="#0000EE" stroke-width="0.750418" stroke-linecap="square" fill="none" /><path transform="matrix(1 0 0 -1 0 841)" d="M110 395.4559L215.8125 395.4559z" stroke="#0000EE" stroke-width="0.750418" stroke-linecap="square" fill="none" /><path transform="matrix(1 0 0 -1 0 841)" d="M70.96875 368.0926C 70.96875 366.8505 70 365.8436 68.71875 365.8436C 67.46875 365.8436 66.46875 366.8505 66.46875 368.0926C 66.46875 369.3348 67.46875 370.3417 68.71875 370.3417C 70 370.3417 70.96875 369.3348 70.96875 368.0926" stroke="#000000" stroke-width="0.750418" fill="#000000" fill-rule="evenodd" /><path transform="matrix(1 0 0 -1 0 841)" d="M101 350.85C 101 349.6078 100 348.601 98.75 348.601C 97.46875 348.601 96.5 349.6078 96.5 350.85C 96.5 352.0922 97.46875 353.099 98.75 353.099C 100 353.099 101 352.0922 101 350.85" stroke="#000000" stroke-width="0.750418" stroke-linecap="square" fill="none" /><path transform="matrix(1 0 0 -1 0 841)" d="M154.2813 345.9771L209.0625 345.9771z" stroke="#0000EE" stroke-width="0.750418" stroke-linecap="square" fill="none" /><path transform="matrix(1 0 0 -1 0 841)" d="M70.96875 318.6138C 70.96875 317.3716 70 316.3647 68.71875 316.3647C 67.46875 316.3647 66.46875 317.3716 66.46875 318.6138C 66.46875 319.856 67.46875 320.8629 68.71875 320.8629C 70 320.8629 70.96875 319.856 70.96875 318.6138" stroke="#000000" stroke-width="0.750418" fill="#000000" fill-rule="evenodd" /><path transform="matrix(1 0 0 -1 0 841)" d="M101 301.3712C 101 300.129 100 299.1221 98.75 299.1221C 97.46875 299.1221 96.5 300.129 96.5 301.3712C 96.5 302.6133 97.46875 303.6202 98.75 303.6202C 100 303.6202 101 302.6133 101 301.3712" stroke="#000000" stroke-width="0.750418" stroke-linecap="square" fill="none" /><path transform="matrix(1 0 0 -1 0 841)" d="M149.7813 296.4983L221.8125 296.4983z" stroke="#0000EE" stroke-width="0.750418" stroke-linecap="square" fill="none" /><path transform="matrix(1 0 0 -1 0 841)" d="M70.96875 269.135C 70.96875 267.8928 70 266.8859 68.71875 266.8859C 67.46875 266.8859 66.46875 267.8928 66.46875 269.135C 66.46875 270.3771 67.46875 271.384 68.71875 271.384C 70 271.384 70.96875 270.3771 70.96875 269.135" stroke="#000000" stroke-width="0.750418" fill="#000000" fill-rule="evenodd" /><path transform="matrix(1 0 0 -1 0 841)" d="M101 251.8924C 101 250.6502 100 249.6433 98.75 249.6433C 97.46875 249.6433 96.5 250.6502 96.5 251.8924C 96.5 253.1345 97.46875 254.1414 98.75 254.1414C 100 254.1414 101 253.1345 101 251.8924" stroke="#000000" stroke-width="0.750418" stroke-linecap="square" fill="none" /><path transform="matrix(1 0 0 -1 0 841)" d="M154.2813 247.0195L355.4063 247.0195z" stroke="#0000EE" stroke-width="0.750418" stroke-linecap="square" fill="none" /><path transform="matrix(1 0 0 -1 0 841)" d="M70.96875 219.6562C 70.96875 218.414 70 217.4072 68.71875 217.4072C 67.46875 217.4072 66.46875 218.414 66.46875 219.6562C 66.46875 220.8983 67.46875 221.9052 68.71875 221.9052C 70 221.9052 70.96875 220.8983 70.96875 219.6562" stroke="#000000" stroke-width="0.750418" fill="#000000" fill-rule="evenodd" /><path transform="matrix(1 0 0 -1 0 841)" d="M101 202.4136C 101 201.1714 100 200.1646 98.75 200.1646C 97.46875 200.1646 96.5 201.1714 96.5 202.4136C 96.5 203.6557 97.46875 204.6626 98.75 204.6626C 100 204.6626 101 203.6557 101 202.4136" stroke="#000000" stroke-width="0.750418" stroke-linecap="square" fill="none" /><path transform="matrix(1 0 0 -1 0 841)" d="M154.2813 197.5406L332.875 197.5406z" stroke="#0000EE" stroke-width="0.750418" stroke-linecap="square" fill="none" /><path transform="matrix(1 0 0 -1 0 841)" d="M101 177.6741C 101 176.432 100 175.4251 98.75 175.4251C 97.46875 175.4251 96.5 176.432 96.5 177.6741C 96.5 178.9163 97.46875 179.9232 98.75 179.9232C 100 179.9232 101 178.9163 101 177.6741" stroke="#000000" stroke-width="0.750418" stroke-linecap="square" fill="none" /><path transform="matrix(1 0 0 -1 0 841)" d="M185.8125 172.8012L364.4063 172.8012z" stroke="#0000EE" stroke-width="0.750418" stroke-linecap="square" fill="none" /><path transform="matrix(1 0 0 -1 0 841)" d="M70.96875 145.4379C 70.96875 144.1958 70 143.1889 68.71875 143.1889C 67.46875 143.1889 66.46875 144.1958 66.46875 145.4379C 66.46875 146.6801 67.46875 147.687 68.71875 147.687C 70 147.687 70.96875 146.6801 70.96875 145.4379" stroke="#000000" stroke-width="0.750418" fill="#000000" fill-rule="evenodd" /><path transform="matrix(1 0 0 -1 0 841)" d="M101 128.1953C 101 126.9532 100 125.9463 98.75 125.9463C 97.46875 125.9463 96.5 126.9532 96.5 128.1953C 96.5 129.4375 97.46875 130.4444 98.75 130.4444C 100 130.4444 101 129.4375 101 128.1953" stroke="#000000" stroke-width="0.750418" stroke-linecap="square" fill="none" /><path transform="matrix(1 0 0 -1 0 841)" d="M188.8125 123.3224L331.375 123.3224z" stroke="#0000EE" stroke-width="0.750418" stroke-linecap="square" fill="none" /><path transform="matrix(1 0 0 -1 0 841)" d="M70.96875 95.95911C 70.96875 94.71698 70 93.71008 68.71875 93.71008C 67.46875 93.71008 66.46875 94.71698 66.46875 95.95911C 66.46875 97.20129 67.46875 98.20819 68.71875 98.20819C 70 98.20819 70.96875 97.20129 70.96875 95.95911" stroke="#000000" stroke-width="0.750418" fill="#000000" fill-rule="evenodd" /><path transform="matrix(1 0 0 -1 0 841)" d="M101 78.71649C 101 77.4743 100 76.46747 98.75 76.46747C 97.46875 76.46747 96.5 77.4743 96.5 78.71649C 96.5 79.95874 97.46875 80.96558 98.75 80.96558C 100 80.96558 101 79.95874 101 78.71649" stroke="#000000" stroke-width="0.750418" stroke-linecap="square" fill="none" /><path transform="matrix(1 0 0 -1 0 841)" d="M154.2813 73.84363L263.8438 73.84363z" stroke="#0000EE" stroke-width="0.750418" stroke-linecap="square" fill="none" /></g><g clip-path="url(#4)"></g></g></g></g></svg>