<svg xmlns="http://www.w3.org/2000/svg" xmlns:xlink="http://www.w3.org/1999/xlink" id="body_339" preserveAspectRatio="xMinYMin meet" viewBox="0 0 793 1121"><defs><clipPath id="1"><path d="M0 841L0 -0.8897705L0 -0.8897705L595.2756 -0.8897705L595.2756 -0.8897705L595.2756 841L595.2756 841L0 841z" /></clipPath><clipPath id="2"><path d="M49.96875 -0.8897705L545.25 -0.8897705L545.25 -0.8897705L545.25 840.9998L545.25 840.9998L49.96875 840.9998L49.96875 840.9998L49.96875 -0.8897705" /></clipPath><clipPath id="3"><path d="M49.96875 48.58905L545.25 48.58905L545.25 48.58905L545.25 791.5209L545.25 791.5209L49.96875 791.5209L49.96875 791.5209L49.96875 48.58905" /></clipPath><clipPath id="4"><path d="M49.96875 791.5209L545.25 791.5209L545.25 791.5209L545.25 840.9998L545.25 840.9998L49.96875 840.9998L49.96875 840.9998L49.96875 791.5209" /></clipPath></defs><g transform="matrix(1.333333 0 0 1.333333 0 0)"><g><g clip-path="url(#1)"><g clip-path="url(#2)"></g><g clip-path="url(#3)"><path transform="matrix(1 0 0 -1 0 841)" d="M101 775.918C 101 774.6759 100 773.6689 98.75 773.6689C 97.46875 773.6689 96.5 774.6759 96.5 775.918C 96.5 777.1602 97.46875 778.1671 98.75 778.1671C 100 778.1671 101 777.1602 101 775.918" stroke="#000000" stroke-width="0.750418" stroke-linecap="square" fill="none" /><path transform="matrix(1 0 0 -1 0 841)" d="M150.5313 771.0451L286.3438 771.0451z" stroke="#0000EE" stroke-width="0.750418" stroke-linecap="square" fill="none" /><path transform="matrix(1 0 0 -1 0 841)" d="M101 751.1786C 101 749.9365 100 748.9296 98.75 748.9296C 97.46875 748.9296 96.5 749.9365 96.5 751.1786C 96.5 752.4208 97.46875 753.4276 98.75 753.4276C 100 753.4276 101 752.4208 101 751.1786" stroke="#000000" stroke-width="0.750418" stroke-linecap="square" fill="none" /><path transform="matrix(1 0 0 -1 0 841)" d="M143.0313 746.3057L313.375 746.3057z" stroke="#0000EE" stroke-width="0.750418" stroke-linecap="square" fill="none" /><path transform="matrix(1 0 0 -1 0 841)" d="M101 726.4392C 101 725.197 100 724.1902 98.75 724.1902C 97.46875 724.1902 96.5 725.197 96.5 726.4392C 96.5 727.6813 97.46875 728.6882 98.75 728.6882C 100 728.6882 101 727.6813 101 726.4392" stroke="#000000" stroke-width="0.750418" stroke-linecap="square" fill="none" /><path transform="matrix(1 0 0 -1 0 841)" d="M218.8125 721.5663L320.875 721.5663z" stroke="#0000EE" stroke-width="0.750418" stroke-linecap="square" fill="none" /><path transform="matrix(1 0 0 -1 0 841)" d="M101 701.6998C 101 700.4576 100 699.4507 98.75 699.4507C 97.46875 699.4507 96.5 700.4576 96.5 701.6998C 96.5 702.942 97.46875 703.9489 98.75 703.9489C 100 703.9489 101 702.942 101 701.6998" stroke="#000000" stroke-width="0.750418" stroke-linecap="square" fill="none" /><path transform="matrix(1 0 0 -1 0 841)" d="M210.5625 696.8269L306.625 696.8269z" stroke="#0000EE" stroke-width="0.750418" stroke-linecap="square" fill="none" /><path transform="matrix(1 0 0 -1 0 841)" d="M101 676.9604C 101 675.7183 100 674.7114 98.75 674.7114C 97.46875 674.7114 96.5 675.7183 96.5 676.9604C 96.5 678.2025 97.46875 679.2094 98.75 679.2094C 100 679.2094 101 678.2025 101 676.9604" stroke="#000000" stroke-width="0.750418" stroke-linecap="square" fill="none" /><path transform="matrix(1 0 0 -1 0 841)" d="M271.3438 672.0875L423.6875 672.0875z" stroke="#0000EE" stroke-width="0.750418" stroke-linecap="square" fill="none" /><path transform="matrix(1 0 0 -1 0 841)" d="M70.96875 644.7242C 70.96875 643.4821 70 642.4752 68.71875 642.4752C 67.46875 642.4752 66.46875 643.4821 66.46875 644.7242C 66.46875 645.9663 67.46875 646.9732 68.71875 646.9732C 70 646.9732 70.96875 645.9663 70.96875 644.7242" stroke="#000000" stroke-width="0.750418" fill="#000000" fill-rule="evenodd" /><path transform="matrix(1 0 0 -1 0 841)" d="M101 627.4816C 101 626.2394 100 625.2325 98.75 625.2325C 97.46875 625.2325 96.5 626.2394 96.5 627.4816C 96.5 628.7237 97.46875 629.7306 98.75 629.7306C 100 629.7306 101 628.7237 101 627.4816" stroke="#000000" stroke-width="0.750418" stroke-linecap="square" fill="none" /><path transform="matrix(1 0 0 -1 0 841)" d="M173.7813 622.6086L312.625 622.6086z" stroke="#0000EE" stroke-width="0.750418" stroke-linecap="square" fill="none" /><path transform="matrix(1 0 0 -1 0 841)" d="M70.96875 595.2454C 70.96875 594.0032 70 592.9963 68.71875 592.9963C 67.46875 592.9963 66.46875 594.0032 66.46875 595.2454C 66.46875 596.4875 67.46875 597.4944 68.71875 597.4944C 70 597.4944 70.96875 596.4875 70.96875 595.2454" stroke="#000000" stroke-width="0.750418" fill="#000000" fill-rule="evenodd" /><path transform="matrix(1 0 0 -1 0 841)" d="M101 578.0027C 101 576.7606 100 575.7537 98.75 575.7537C 97.46875 575.7537 96.5 576.7606 96.5 578.0027C 96.5 579.2449 97.46875 580.2518 98.75 580.2518C 100 580.2518 101 579.2449 101 578.0027" stroke="#000000" stroke-width="0.750418" stroke-linecap="square" fill="none" /><path transform="matrix(1 0 0 -1 0 841)" d="M154.2813 573.1299L206.0625 573.1299z" stroke="#0000EE" stroke-width="0.750418" stroke-linecap="square" fill="none" /><path transform="matrix(1 0 0 -1 0 841)" d="M101 553.2633C 101 552.0212 100 551.0143 98.75 551.0143C 97.46875 551.0143 96.5 552.0212 96.5 553.2633C 96.5 554.5055 97.46875 555.5124 98.75 555.5124C 100 555.5124 101 554.5055 101 553.2633" stroke="#000000" stroke-width="0.750418" stroke-linecap="square" fill="none" /><path transform="matrix(1 0 0 -1 0 841)" d="M156.5313 548.3904L191.0625 548.3904z" stroke="#0000EE" stroke-width="0.750418" stroke-linecap="square" fill="none" /><path transform="matrix(1 0 0 -1 0 841)" d="M101 528.5239C 101 527.2818 100 526.2749 98.75 526.2749C 97.46875 526.2749 96.5 527.2818 96.5 528.5239C 96.5 529.7661 97.46875 530.7729 98.75 530.7729C 100 530.7729 101 529.7661 101 528.5239" stroke="#000000" stroke-width="0.750418" stroke-linecap="square" fill="none" /><path transform="matrix(1 0 0 -1 0 841)" d="M152.0313 523.651L182.0313 523.651z" stroke="#0000EE" stroke-width="0.750418" stroke-linecap="square" fill="none" /><path transform="matrix(1 0 0 -1 0 841)" d="M101 503.7845C 101 502.5424 100 501.5355 98.75 501.5355C 97.46875 501.5355 96.5 502.5424 96.5 503.7845C 96.5 505.0267 97.46875 506.0336 98.75 506.0336C 100 506.0336 101 505.0267 101 503.7845" stroke="#000000" stroke-width="0.750418" stroke-linecap="square" fill="none" /><path transform="matrix(1 0 0 -1 0 841)" d="M153.5313 498.9116L185.0313 498.9116z" stroke="#0000EE" stroke-width="0.750418" stroke-linecap="square" fill="none" /><path transform="matrix(1 0 0 -1 0 841)" d="M70.96875 471.5483C 70.96875 470.3062 70 469.2993 68.71875 469.2993C 67.46875 469.2993 66.46875 470.3062 66.46875 471.5483C 66.46875 472.7905 67.46875 473.7974 68.71875 473.7974C 70 473.7974 70.96875 472.7905 70.96875 471.5483" stroke="#000000" stroke-width="0.750418" fill="#000000" fill-rule="evenodd" /><path transform="matrix(1 0 0 -1 0 841)" d="M101 454.3057C 101 453.0636 100 452.0567 98.75 452.0567C 97.46875 452.0567 96.5 453.0636 96.5 454.3057C 96.5 455.5479 97.46875 456.5547 98.75 456.5547C 100 456.5547 101 455.5479 101 454.3057" stroke="#000000" stroke-width="0.750418" stroke-linecap="square" fill="none" /><path transform="matrix(1 0 0 -1 0 841)" d="M154.2813 449.4328L184.2813 449.4328z" stroke="#0000EE" stroke-width="0.750418" stroke-linecap="square" fill="none" /><path transform="matrix(1 0 0 -1 0 841)" d="M70.96875 422.0695C 70.96875 420.8274 70 419.8205 68.71875 419.8205C 67.46875 419.8205 66.46875 420.8274 66.46875 422.0695C 66.46875 423.3117 67.46875 424.3185 68.71875 424.3185C 70 424.3185 70.96875 423.3117 70.96875 422.0695" stroke="#000000" stroke-width="0.750418" fill="#000000" fill-rule="evenodd" /><path transform="matrix(1 0 0 -1 0 841)" d="M101 404.8269C 101 403.5847 100 402.5779 98.75 402.5779C 97.46875 402.5779 96.5 403.5847 96.5 404.8269C 96.5 406.0691 97.46875 407.0759 98.75 407.0759C 100 407.0759 101 406.0691 101 404.8269" stroke="#000000" stroke-width="0.750418" stroke-linecap="square" fill="none" /><path transform="matrix(1 0 0 -1 0 841)" d="M154.2813 399.954L210.5625 399.954z" stroke="#0000EE" stroke-width="0.750418" stroke-linecap="square" fill="none" /><path transform="matrix(1 0 0 -1 0 841)" d="M70.96875 372.5907C 70.96875 371.3485 70 370.3417 68.71875 370.3417C 67.46875 370.3417 66.46875 371.3485 66.46875 372.5907C 66.46875 373.8329 67.46875 374.8397 68.71875 374.8397C 70 374.8397 70.96875 373.8329 70.96875 372.5907" stroke="#000000" stroke-width="0.750418" fill="#000000" fill-rule="evenodd" /><path transform="matrix(1 0 0 -1 0 841)" d="M266.8438 367.7178L389.1563 367.7178z" stroke="#0000EE" stroke-width="0.750418" stroke-linecap="square" fill="none" /><path transform="matrix(1 0 0 -1 0 841)" d="M70.96875 347.8513C 70.96875 346.6091 70 345.6023 68.71875 345.6023C 67.46875 345.6023 66.46875 346.6091 66.46875 347.8513C 66.46875 349.0934 67.46875 350.1003 68.71875 350.1003C 70 350.1003 70.96875 349.0934 70.96875 347.8513" stroke="#000000" stroke-width="0.750418" fill="#000000" fill-rule="evenodd" /><path transform="matrix(1 0 0 -1 0 841)" d="M101 330.6087C 101 329.3665 100 328.3596 98.75 328.3596C 97.46875 328.3596 96.5 329.3665 96.5 330.6087C 96.5 331.8508 97.46875 332.8577 98.75 332.8577C 100 332.8577 101 331.8508 101 330.6087" stroke="#000000" stroke-width="0.750418" stroke-linecap="square" fill="none" /><path transform="matrix(1 0 0 -1 0 841)" d="M154.2813 325.7358L392.9063 325.7358z" stroke="#0000EE" stroke-width="0.750418" stroke-linecap="square" fill="none" /><path transform="matrix(1 0 0 -1 0 841)" d="M101 305.8693C 101 304.6271 100 303.6202 98.75 303.6202C 97.46875 303.6202 96.5 304.6271 96.5 305.8693C 96.5 307.1115 97.46875 308.1183 98.75 308.1183C 100 308.1183 101 307.1115 101 305.8693" stroke="#000000" stroke-width="0.750418" stroke-linecap="square" fill="none" /><path transform="matrix(1 0 0 -1 0 841)" d="M225.5625 300.9963L348.625 300.9963z" stroke="#0000EE" stroke-width="0.750418" stroke-linecap="square" fill="none" /><path transform="matrix(1 0 0 -1 0 841)" d="M101 281.1299C 101 279.8877 100 278.8808 98.75 278.8808C 97.46875 278.8808 96.5 279.8877 96.5 281.1299C 96.5 282.372 97.46875 283.3789 98.75 283.3789C 100 283.3789 101 282.372 101 281.1299" stroke="#000000" stroke-width="0.750418" stroke-linecap="square" fill="none" /><path transform="matrix(1 0 0 -1 0 841)" d="M282.5938 276.257L461.1875 276.257z" stroke="#0000EE" stroke-width="0.750418" stroke-linecap="square" fill="none" /><path transform="matrix(1 0 0 -1 0 841)" d="M70.96875 248.8937C 70.96875 247.6515 70 246.6446 68.71875 246.6446C 67.46875 246.6446 66.46875 247.6515 66.46875 248.8937C 66.46875 250.1358 67.46875 251.1427 68.71875 251.1427C 70 251.1427 70.96875 250.1358 70.96875 248.8937" stroke="#000000" stroke-width="0.750418" fill="#000000" fill-rule="evenodd" /><path transform="matrix(1 0 0 -1 0 841)" d="M101 231.6511C 101 230.4089 100 229.402 98.75 229.402C 97.46875 229.402 96.5 230.4089 96.5 231.6511C 96.5 232.8932 97.46875 233.9001 98.75 233.9001C 100 233.9001 101 232.8932 101 231.6511" stroke="#000000" stroke-width="0.750418" stroke-linecap="square" fill="none" /><path transform="matrix(1 0 0 -1 0 841)" d="M246.5938 226.7781L425.1875 226.7781z" stroke="#0000EE" stroke-width="0.750418" stroke-linecap="square" fill="none" /><path transform="matrix(1 0 0 -1 0 841)" d="M70.96875 199.4149C 70.96875 198.1727 70 197.1658 68.71875 197.1658C 67.46875 197.1658 66.46875 198.1727 66.46875 199.4149C 66.46875 200.657 67.46875 201.6639 68.71875 201.6639C 70 201.6639 70.96875 200.657 70.96875 199.4149" stroke="#000000" stroke-width="0.750418" fill="#000000" fill-rule="evenodd" /><path transform="matrix(1 0 0 -1 0 841)" d="M101 182.1722C 101 180.9301 100 179.9232 98.75 179.9232C 97.46875 179.9232 96.5 180.9301 96.5 182.1722C 96.5 183.4144 97.46875 184.4213 98.75 184.4213C 100 184.4213 101 183.4144 101 182.1722" stroke="#000000" stroke-width="0.750418" stroke-linecap="square" fill="none" /><path transform="matrix(1 0 0 -1 0 841)" d="M154.2813 177.2993L365.9063 177.2993z" stroke="#0000EE" stroke-width="0.750418" stroke-linecap="square" fill="none" /><path transform="matrix(1 0 0 -1 0 841)" d="M70.96875 149.936C 70.96875 148.6938 70 147.687 68.71875 147.687C 67.46875 147.687 66.46875 148.6938 66.46875 149.936C 66.46875 151.1782 67.46875 152.1851 68.71875 152.1851C 70 152.1851 70.96875 151.1782 70.96875 149.936" stroke="#000000" stroke-width="0.750418" fill="#000000" fill-rule="evenodd" /><path transform="matrix(1 0 0 -1 0 841)" d="M101 132.6934C 101 131.4512 100 130.4444 98.75 130.4444C 97.46875 130.4444 96.5 131.4512 96.5 132.6934C 96.5 133.9355 97.46875 134.9424 98.75 134.9424C 100 134.9424 101 133.9355 101 132.6934" stroke="#000000" stroke-width="0.750418" stroke-linecap="square" fill="none" /><path transform="matrix(1 0 0 -1 0 841)" d="M154.2813 127.8205L365.9063 127.8205z" stroke="#0000EE" stroke-width="0.750418" stroke-linecap="square" fill="none" /><path transform="matrix(1 0 0 -1 0 841)" d="M70.96875 100.4572C 70.96875 99.21503 70 98.20819 68.71875 98.20819C 67.46875 98.20819 66.46875 99.21503 66.46875 100.4572C 66.46875 101.6993 67.46875 102.7062 68.71875 102.7062C 70 102.7062 70.96875 101.6993 70.96875 100.4572" stroke="#000000" stroke-width="0.750418" fill="#000000" fill-rule="evenodd" /><path transform="matrix(1 0 0 -1 0 841)" d="M101 83.2146C 101 81.97241 100 80.96558 98.75 80.96558C 97.46875 80.96558 96.5 81.97241 96.5 83.2146C 96.5 84.45679 97.46875 85.46362 98.75 85.46362C 100 85.46362 101 84.45679 101 83.2146" stroke="#000000" stroke-width="0.750418" stroke-linecap="square" fill="none" /><path transform="matrix(1 0 0 -1 0 841)" d="M169.2813 78.34167L431.1875 78.34167z" stroke="#0000EE" stroke-width="0.750418" stroke-linecap="square" fill="none" /></g><g clip-path="url(#4)"></g></g></g></g></svg>