<svg xmlns="http://www.w3.org/2000/svg" xmlns:xlink="http://www.w3.org/1999/xlink" id="body_165" preserveAspectRatio="xMinYMin meet" viewBox="0 0 793 1121"><defs><clipPath id="1"><path d="M0 841L0 -0.8897705L0 -0.8897705L595.2756 -0.8897705L595.2756 -0.8897705L595.2756 841L595.2756 841L0 841z" /></clipPath><clipPath id="2"><path d="M50 -0.8897705L545.2734 -0.8897705L545.2734 -0.8897705L545.2734 840.9998L545.2734 840.9998L50 840.9998L50 840.9998L50 -0.8897705" /></clipPath><clipPath id="3"><path d="M50 48.58905L545.2734 48.58905L545.2734 48.58905L545.2734 791.5209L545.2734 791.5209L50 791.5209L50 791.5209L50 48.58905" /></clipPath><clipPath id="4"><path d="M50 791.5209L545.2734 791.5209L545.2734 791.5209L545.2734 840.9998L545.2734 840.9998L50 840.9998L50 840.9998L50 791.5209" /></clipPath></defs><g transform="matrix(1.333333 0 0 1.333333 0 0)"><g><g clip-path="url(#1)"><g clip-path="url(#2)"></g><g clip-path="url(#3)"><path transform="matrix(1 0 0 -1 0 841)" d="M71.00781 604.2415C 71.00781 602.9994 70.03906 601.9925 68.75781 601.9925C 67.48438 601.9925 66.50781 602.9994 66.50781 604.2415C 66.50781 605.4836 67.48438 606.4905 68.75781 606.4905C 70.03906 606.4905 71.00781 605.4836 71.00781 604.2415" stroke="#000000" stroke-width="0.750418" fill="#000000" fill-rule="evenodd" /><path transform="matrix(1 0 0 -1 0 841)" d="M80.01563 599.3686L799.6641 599.3686z" stroke="#0000EE" stroke-width="0.750418" stroke-linecap="square" fill="none" /><path transform="matrix(1 0 0 -1 0 841)" d="M71.00781 579.5021C 71.00781 578.26 70.03906 577.2531 68.75781 577.2531C 67.48438 577.2531 66.50781 578.26 66.50781 579.5021C 66.50781 580.7443 67.48438 581.7512 68.75781 581.7512C 70.03906 581.7512 71.00781 580.7443 71.00781 579.5021" stroke="#000000" stroke-width="0.750418" fill="#000000" fill-rule="evenodd" /><path transform="matrix(1 0 0 -1 0 841)" d="M80.01563 574.6292L839.4375 574.6292z" stroke="#0000EE" stroke-width="0.750418" stroke-linecap="square" fill="none" /><path transform="matrix(1 0 0 -1 0 841)" d="M71.00781 554.7627C 71.00781 553.5206 70.03906 552.5137 68.75781 552.5137C 67.48438 552.5137 66.50781 553.5206 66.50781 554.7627C 66.50781 556.0049 67.48438 557.0117 68.75781 557.0117C 70.03906 557.0117 71.00781 556.0049 71.00781 554.7627" stroke="#000000" stroke-width="0.750418" fill="#000000" fill-rule="evenodd" /><path transform="matrix(1 0 0 -1 0 841)" d="M80.01563 549.8898L728.375 549.8898z" stroke="#0000EE" stroke-width="0.750418" stroke-linecap="square" fill="none" /><path transform="matrix(1 0 0 -1 0 841)" d="M71.00781 530.0233C 71.00781 528.7811 70.03906 527.7743 68.75781 527.7743C 67.48438 527.7743 66.50781 528.7811 66.50781 530.0233C 66.50781 531.2654 67.48438 532.2723 68.75781 532.2723C 70.03906 532.2723 71.00781 531.2654 71.00781 530.0233" stroke="#000000" stroke-width="0.750418" fill="#000000" fill-rule="evenodd" /><path transform="matrix(1 0 0 -1 0 841)" d="M80.01563 525.1504L749.3906 525.1504z" stroke="#0000EE" stroke-width="0.750418" stroke-linecap="square" fill="none" /><path transform="matrix(1 0 0 -1 0 841)" d="M71.00781 505.2839C 71.00781 504.0417 70.03906 503.0349 68.75781 503.0349C 67.48438 503.0349 66.50781 504.0417 66.50781 505.2839C 66.50781 506.526 67.48438 507.5329 68.75781 507.5329C 70.03906 507.5329 71.00781 506.526 71.00781 505.2839" stroke="#000000" stroke-width="0.750418" fill="#000000" fill-rule="evenodd" /><path transform="matrix(1 0 0 -1 0 841)" d="M80.01563 500.411L807.9219 500.411z" stroke="#0000EE" stroke-width="0.750418" stroke-linecap="square" fill="none" /><path transform="matrix(1 0 0 -1 0 841)" d="M258.6172 443.4354L317.1484 443.4354z" stroke="#0000EE" stroke-width="0.750418" stroke-linecap="square" fill="none" /></g><g clip-path="url(#4)"></g></g></g></g></svg>