<svg xmlns="http://www.w3.org/2000/svg" xmlns:xlink="http://www.w3.org/1999/xlink" id="body_218" preserveAspectRatio="xMinYMin meet" viewBox="0 0 793 1121"><defs><clipPath id="1"><path d="M0 841L0 -0.8897705L0 -0.8897705L595.2756 -0.8897705L595.2756 -0.8897705L595.2756 841L595.2756 841L0 841z" /></clipPath><clipPath id="2"><path d="M50 -0.8897705L545.2656 -0.8897705L545.2656 -0.8897705L545.2656 840.9998L545.2656 840.9998L50 840.9998L50 840.9998L50 -0.8897705" /></clipPath><clipPath id="3"><path d="M50 48.58905L545.2656 48.58905L545.2656 48.58905L545.2656 791.5209L545.2656 791.5209L50 791.5209L50 791.5209L50 48.58905" /></clipPath><clipPath id="4"><path d="M50 791.5209L545.2656 791.5209L545.2656 791.5209L545.2656 840.9998L545.2656 840.9998L50 840.9998L50 840.9998L50 791.5209" /></clipPath></defs><g transform="matrix(1.333333 0 0 1.333333 0 0)"><g><g clip-path="url(#1)"><g clip-path="url(#2)"></g><g clip-path="url(#3)"><path transform="matrix(1 0 0 -1 0 841)" d="M71.01563 592.2466C 71.01563 591.0045 70.03125 589.9976 68.75 589.9976C 67.48438 589.9976 66.5 591.0045 66.5 592.2466C 66.5 593.4888 67.48438 594.4957 68.75 594.4957C 70.03125 594.4957 71.01563 593.4888 71.01563 592.2466" stroke="#000000" stroke-width="0.750418" fill="#000000" fill-rule="evenodd" /><path transform="matrix(1 0 0 -1 0 841)" d="M71.01563 549.515C 71.01563 548.2728 70.03125 547.2659 68.75 547.2659C 67.48438 547.2659 66.5 548.2728 66.5 549.515C 66.5 550.7571 67.48438 551.764 68.75 551.764C 70.03125 551.764 71.01563 550.7571 71.01563 549.515" stroke="#000000" stroke-width="0.750418" fill="#000000" fill-rule="evenodd" /><g transform="matrix(0.588913 0 0 0.5855157 49.99645 340.2142)"><g transform="matrix(1 0 0 1 0 0)"><image x="0" y="0" xlink:href="img_384.png" width="841" height="137" /></g></g></g><g clip-path="url(#4)"></g></g></g></g></svg>