<svg xmlns="http://www.w3.org/2000/svg" xmlns:xlink="http://www.w3.org/1999/xlink" id="body_347" preserveAspectRatio="xMinYMin meet" viewBox="0 0 793 1121"><defs><clipPath id="1"><path d="M0 841L0 -0.8897705L0 -0.8897705L595.2756 -0.8897705L595.2756 -0.8897705L595.2756 841L595.2756 841L0 841z" /></clipPath><clipPath id="2"><path d="M50 -0.8897705L545.2813 -0.8897705L545.2813 -0.8897705L545.2813 840.9998L545.2813 840.9998L50 840.9998L50 840.9998L50 -0.8897705" /></clipPath><clipPath id="3"><path d="M50 48.58905L545.2813 48.58905L545.2813 48.58905L545.2813 791.5209L545.2813 791.5209L50 791.5209L50 791.5209L50 48.58905" /></clipPath><clipPath id="4"><path d="M50 791.5209L545.2813 791.5209L545.2813 791.5209L545.2813 840.9998L545.2813 840.9998L50 840.9998L50 840.9998L50 791.5209" /></clipPath></defs><g transform="matrix(1.333333 0 0 1.333333 0 0)"><g><g clip-path="url(#1)"><g clip-path="url(#2)"></g><g clip-path="url(#3)"><path transform="matrix(1 0 0 -1 0 841)" d="M101.0313 783.4148C 101.0313 782.1727 100.0313 781.1658 98.78125 781.1658C 97.5 781.1658 96.53125 782.1727 96.53125 783.4148C 96.53125 784.6569 97.5 785.6638 98.78125 785.6638C 100.0313 785.6638 101.0313 784.6569 101.0313 783.4148" stroke="#000000" stroke-width="0.750418" stroke-linecap="square" fill="none" /><path transform="matrix(1 0 0 -1 0 841)" d="M154.3125 778.5419L227.0938 778.5419z" stroke="#0000EE" stroke-width="0.750418" stroke-linecap="square" fill="none" /><path transform="matrix(1 0 0 -1 0 841)" d="M101.0313 758.6754C 101.0313 757.4332 100.0313 756.4264 98.78125 756.4264C 97.5 756.4264 96.53125 757.4332 96.53125 758.6754C 96.53125 759.9175 97.5 760.9244 98.78125 760.9244C 100.0313 760.9244 101.0313 759.9175 101.0313 758.6754" stroke="#000000" stroke-width="0.750418" stroke-linecap="square" fill="none" /><path transform="matrix(1 0 0 -1 0 841)" d="M169.3125 753.8025L401.9375 753.8025z" stroke="#0000EE" stroke-width="0.750418" stroke-linecap="square" fill="none" /><path transform="matrix(1 0 0 -1 0 841)" d="M409.4375 753.8025L531.75 753.8025z" stroke="#0000EE" stroke-width="0.750418" stroke-linecap="square" fill="none" /><path transform="matrix(1 0 0 -1 0 841)" d="M71 726.4392C 71 725.197 70.03125 724.1902 68.75 724.1902C 67.46875 724.1902 66.5 725.197 66.5 726.4392C 66.5 727.6813 67.46875 728.6882 68.75 728.6882C 70.03125 728.6882 71 727.6813 71 726.4392" stroke="#000000" stroke-width="0.750418" fill="#000000" fill-rule="evenodd" /><path transform="matrix(1 0 0 -1 0 841)" d="M101.0313 709.1966C 101.0313 707.9545 100.0313 706.9475 98.78125 706.9475C 97.5 706.9475 96.53125 707.9545 96.53125 709.1966C 96.53125 710.4387 97.5 711.4456 98.78125 711.4456C 100.0313 711.4456 101.0313 710.4387 101.0313 709.1966" stroke="#000000" stroke-width="0.750418" stroke-linecap="square" fill="none" /><path transform="matrix(1 0 0 -1 0 841)" d="M182.0625 704.3237L305.125 704.3237z" stroke="#0000EE" stroke-width="0.750418" stroke-linecap="square" fill="none" /><path transform="matrix(1 0 0 -1 0 841)" d="M101.0313 684.4572C 101.0313 683.215 100.0313 682.2081 98.78125 682.2081C 97.5 682.2081 96.53125 683.215 96.53125 684.4572C 96.53125 685.6993 97.5 686.7062 98.78125 686.7062C 100.0313 686.7062 101.0313 685.6993 101.0313 684.4572" stroke="#000000" stroke-width="0.750418" stroke-linecap="square" fill="none" /><path transform="matrix(1 0 0 -1 0 841)" d="M194.8125 679.5842L332.9063 679.5842z" stroke="#0000EE" stroke-width="0.750418" stroke-linecap="square" fill="none" /><path transform="matrix(1 0 0 -1 0 841)" d="M71 652.2209C 71 650.9788 70.03125 649.9719 68.75 649.9719C 67.46875 649.9719 66.5 650.9788 66.5 652.2209C 66.5 653.4631 67.46875 654.47 68.75 654.47C 70.03125 654.47 71 653.4631 71 652.2209" stroke="#000000" stroke-width="0.750418" fill="#000000" fill-rule="evenodd" /><path transform="matrix(1 0 0 -1 0 841)" d="M101.0313 634.9784C 101.0313 633.7362 100.0313 632.7293 98.78125 632.7293C 97.5 632.7293 96.53125 633.7362 96.53125 634.9784C 96.53125 636.2205 97.5 637.2274 98.78125 637.2274C 100.0313 637.2274 101.0313 636.2205 101.0313 634.9784" stroke="#000000" stroke-width="0.750418" stroke-linecap="square" fill="none" /><path transform="matrix(1 0 0 -1 0 841)" d="M154.3125 630.1055L191.8125 630.1055z" stroke="#0000EE" stroke-width="0.750418" stroke-linecap="square" fill="none" /><path transform="matrix(1 0 0 -1 0 841)" d="M71 602.7422C 71 601.5 70.03125 600.4931 68.75 600.4931C 67.46875 600.4931 66.5 601.5 66.5 602.7422C 66.5 603.9843 67.46875 604.9912 68.75 604.9912C 70.03125 604.9912 71 603.9843 71 602.7422" stroke="#000000" stroke-width="0.750418" fill="#000000" fill-rule="evenodd" /><path transform="matrix(1 0 0 -1 0 841)" d="M101.0313 585.4995C 101.0313 584.2574 100.0313 583.2505 98.78125 583.2505C 97.5 583.2505 96.53125 584.2574 96.53125 585.4995C 96.53125 586.7417 97.5 587.7486 98.78125 587.7486C 100.0313 587.7486 101.0313 586.7417 101.0313 585.4995" stroke="#000000" stroke-width="0.750418" stroke-linecap="square" fill="none" /><path transform="matrix(1 0 0 -1 0 841)" d="M154.3125 580.6266L227.8438 580.6266z" stroke="#0000EE" stroke-width="0.750418" stroke-linecap="square" fill="none" /></g><g clip-path="url(#4)"></g></g></g></g></svg>