<svg xmlns="http://www.w3.org/2000/svg" xmlns:xlink="http://www.w3.org/1999/xlink" id="body_334" preserveAspectRatio="xMinYMin meet" viewBox="0 0 793 1121"><defs><clipPath id="1"><path d="M0 841L0 -0.8897705L0 -0.8897705L595.2756 -0.8897705L595.2756 -0.8897705L595.2756 841L595.2756 841L0 841z" /></clipPath><clipPath id="2"><path d="M50 -0.8897705L545.2813 -0.8897705L545.2813 -0.8897705L545.2813 840.9998L545.2813 840.9998L50 840.9998L50 840.9998L50 -0.8897705" /></clipPath><clipPath id="3"><path d="M50 48.58905L545.2813 48.58905L545.2813 48.58905L545.2813 791.5209L545.2813 791.5209L50 791.5209L50 791.5209L50 48.58905" /></clipPath><clipPath id="4"><path d="M50 791.5209L545.2813 791.5209L545.2813 791.5209L545.2813 840.9998L545.2813 840.9998L50 840.9998L50 840.9998L50 791.5209" /></clipPath></defs><g transform="matrix(1.333333 0 0 1.333333 0 0)"><g><g clip-path="url(#1)"><g clip-path="url(#2)"></g><g clip-path="url(#3)"><path transform="matrix(1 0 0 -1 0 841)" d="M71 775.918C 71 774.6759 70.03125 773.6689 68.75 773.6689C 67.5 773.6689 66.5 774.6759 66.5 775.918C 66.5 777.1602 67.5 778.1671 68.75 778.1671C 70.03125 778.1671 71 777.1602 71 775.918" stroke="#000000" stroke-width="0.750418" fill="#000000" fill-rule="evenodd" /><path transform="matrix(1 0 0 -1 0 841)" d="M101.0313 758.6754C 101.0313 757.4332 100.0313 756.4264 98.78125 756.4264C 97.5 756.4264 96.53125 757.4332 96.53125 758.6754C 96.53125 759.9175 97.5 760.9244 98.78125 760.9244C 100.0313 760.9244 101.0313 759.9175 101.0313 758.6754" stroke="#000000" stroke-width="0.750418" stroke-linecap="square" fill="none" /><path transform="matrix(1 0 0 -1 0 841)" d="M160.3125 753.8025L248.8438 753.8025z" stroke="#0000EE" stroke-width="0.750418" stroke-linecap="square" fill="none" /><path transform="matrix(1 0 0 -1 0 841)" d="M101.0313 733.936C 101.0313 732.6938 100.0313 731.687 98.78125 731.687C 97.5 731.687 96.53125 732.6938 96.53125 733.936C 96.53125 735.1782 97.5 736.1851 98.78125 736.1851C 100.0313 736.1851 101.0313 735.1782 101.0313 733.936" stroke="#000000" stroke-width="0.750418" stroke-linecap="square" fill="none" /><path transform="matrix(1 0 0 -1 0 841)" d="M188.8125 729.0631L410.1875 729.0631z" stroke="#0000EE" stroke-width="0.750418" stroke-linecap="square" fill="none" /><path transform="matrix(1 0 0 -1 0 841)" d="M417.6875 729.0631L540.0313 729.0631z" stroke="#0000EE" stroke-width="0.750418" stroke-linecap="square" fill="none" /><path transform="matrix(1 0 0 -1 0 841)" d="M71 701.6998C 71 700.4576 70.03125 699.4507 68.75 699.4507C 67.5 699.4507 66.5 700.4576 66.5 701.6998C 66.5 702.942 67.5 703.9489 68.75 703.9489C 70.03125 703.9489 71 702.942 71 701.6998" stroke="#000000" stroke-width="0.750418" fill="#000000" fill-rule="evenodd" /><path transform="matrix(1 0 0 -1 0 841)" d="M101.0313 684.4572C 101.0313 683.215 100.0313 682.2081 98.78125 682.2081C 97.5 682.2081 96.53125 683.215 96.53125 684.4572C 96.53125 685.6993 97.5 686.7062 98.78125 686.7062C 100.0313 686.7062 101.0313 685.6993 101.0313 684.4572" stroke="#000000" stroke-width="0.750418" stroke-linecap="square" fill="none" /><path transform="matrix(1 0 0 -1 0 841)" d="M149.8125 679.5842L223.3438 679.5842z" stroke="#0000EE" stroke-width="0.750418" stroke-linecap="square" fill="none" /></g><g clip-path="url(#4)"></g></g></g></g></svg>