<svg xmlns="http://www.w3.org/2000/svg" xmlns:xlink="http://www.w3.org/1999/xlink" id="body_183" preserveAspectRatio="xMinYMin meet" viewBox="0 0 793 1121"><defs><clipPath id="1"><path d="M0 841L0 -0.8897705L0 -0.8897705L595.2756 -0.8897705L595.2756 -0.8897705L595.2756 841L595.2756 841L0 841z" /></clipPath><clipPath id="2"><path d="M50 -0.8897705L545.2813 -0.8897705L545.2813 -0.8897705L545.2813 840.9998L545.2813 840.9998L50 840.9998L50 840.9998L50 -0.8897705" /></clipPath><clipPath id="3"><path d="M50 48.58905L545.2813 48.58905L545.2813 48.58905L545.2813 791.5209L545.2813 791.5209L50 791.5209L50 791.5209L50 48.58905" /></clipPath><clipPath id="4"><path d="M50 791.5209L545.2813 791.5209L545.2813 791.5209L545.2813 840.9998L545.2813 840.9998L50 840.9998L50 840.9998L50 791.5209" /></clipPath></defs><g transform="matrix(1.333333 0 0 1.333333 0 0)"><g><g clip-path="url(#1)"><g clip-path="url(#2)"></g><g clip-path="url(#3)"><path transform="matrix(1 0 0 -1 0 841)" d="M71.01563 659.7178C 71.01563 658.4756 70.03125 657.4688 68.76563 657.4688C 67.48438 657.4688 66.51563 658.4756 66.51563 659.7178C 66.51563 660.9599 67.48438 661.9668 68.76563 661.9668C 70.03125 661.9668 71.01563 660.9599 71.01563 659.7178" stroke="#000000" stroke-width="0.750418" fill="#000000" fill-rule="evenodd" /><path transform="matrix(1 0 0 -1 0 841)" d="M71.01563 634.9784C 71.01563 633.7362 70.03125 632.7293 68.76563 632.7293C 67.48438 632.7293 66.51563 633.7362 66.51563 634.9784C 66.51563 636.2205 67.48438 637.2274 68.76563 637.2274C 70.03125 637.2274 71.01563 636.2205 71.01563 634.9784" stroke="#000000" stroke-width="0.750418" fill="#000000" fill-rule="evenodd" /><path transform="matrix(1 0 0 -1 0 841)" d="M71.01563 610.239C 71.01563 608.9968 70.03125 607.9899 68.76563 607.9899C 67.48438 607.9899 66.51563 608.9968 66.51563 610.239C 66.51563 611.4811 67.48438 612.488 68.76563 612.488C 70.03125 612.488 71.01563 611.4811 71.01563 610.239" stroke="#000000" stroke-width="0.750418" fill="#000000" fill-rule="evenodd" /><path transform="matrix(1 0 0 -1 0 841)" d="M71.01563 568.257C 71.01563 567.0148 70.03125 566.0079 68.76563 566.0079C 67.48438 566.0079 66.51563 567.0148 66.51563 568.257C 66.51563 569.499 67.48438 570.506 68.76563 570.506C 70.03125 570.506 71.01563 569.499 71.01563 568.257" stroke="#000000" stroke-width="0.750418" fill="#000000" fill-rule="evenodd" /><path transform="matrix(1 0 0 -1 0 841)" d="M71.01563 526.2749C 71.01563 525.0328 70.03125 524.0259 68.76563 524.0259C 67.48438 524.0259 66.51563 525.0328 66.51563 526.2749C 66.51563 527.517 67.48438 528.5239 68.76563 528.5239C 70.03125 528.5239 71.01563 527.517 71.01563 526.2749" stroke="#000000" stroke-width="0.750418" fill="#000000" fill-rule="evenodd" /><path transform="matrix(1 0 0 -1 0 841)" d="M71.01563 501.5355C 71.01563 500.2934 70.03125 499.2865 68.76563 499.2865C 67.48438 499.2865 66.51563 500.2934 66.51563 501.5355C 66.51563 502.7776 67.48438 503.7845 68.76563 503.7845C 70.03125 503.7845 71.01563 502.7776 71.01563 501.5355" stroke="#000000" stroke-width="0.750418" fill="#000000" fill-rule="evenodd" /><path transform="matrix(1 0 0 -1 0 841)" d="M71.01563 476.7961C 71.01563 475.554 70.03125 474.5471 68.76563 474.5471C 67.48438 474.5471 66.51563 475.554 66.51563 476.7961C 66.51563 478.0382 67.48438 479.0451 68.76563 479.0451C 70.03125 479.0451 71.01563 478.0382 71.01563 476.7961" stroke="#000000" stroke-width="0.750418" fill="#000000" fill-rule="evenodd" /><path transform="matrix(1 0 0 -1 0 841)" d="M71.01563 452.0567C 71.01563 450.8145 70.03125 449.8076 68.76563 449.8076C 67.48438 449.8076 66.51563 450.8145 66.51563 452.0567C 66.51563 453.2988 67.48438 454.3057 68.76563 454.3057C 70.03125 454.3057 71.01563 453.2988 71.01563 452.0567" stroke="#000000" stroke-width="0.750418" fill="#000000" fill-rule="evenodd" /><path transform="matrix(1 0 0 -1 0 841)" d="M71.01563 427.3173C 71.01563 426.0751 70.03125 425.0682 68.76563 425.0682C 67.48438 425.0682 66.51563 426.0751 66.51563 427.3173C 66.51563 428.5594 67.48438 429.5663 68.76563 429.5663C 70.03125 429.5663 71.01563 428.5594 71.01563 427.3173" stroke="#000000" stroke-width="0.750418" fill="#000000" fill-rule="evenodd" /></g><g clip-path="url(#4)"></g></g></g></g></svg>