<svg xmlns="http://www.w3.org/2000/svg" xmlns:xlink="http://www.w3.org/1999/xlink" id="body_245" preserveAspectRatio="xMinYMin meet" viewBox="0 0 793 1121"><defs><clipPath id="1"><path d="M0 841L0 -0.8897705L0 -0.8897705L595.2756 -0.8897705L595.2756 -0.8897705L595.2756 841L595.2756 841L0 841z" /></clipPath><clipPath id="2"><path d="M50 -0.8897705L545.2813 -0.8897705L545.2813 -0.8897705L545.2813 840.9998L545.2813 840.9998L50 840.9998L50 840.9998L50 -0.8897705" /></clipPath><clipPath id="3"><path d="M50 48.58905L545.2813 48.58905L545.2813 48.58905L545.2813 791.5209L545.2813 791.5209L50 791.5209L50 791.5209L50 48.58905" /></clipPath><clipPath id="4"><path d="M50 791.5209L545.2813 791.5209L545.2813 791.5209L545.2813 840.9998L545.2813 840.9998L50 840.9998L50 840.9998L50 791.5209" /></clipPath></defs><g transform="matrix(1.333333 0 0 1.333333 0 0)"><g><g clip-path="url(#1)"><g clip-path="url(#2)"></g><g clip-path="url(#3)"><g transform="matrix(0.7504179 0 0 0.749679 80.01543 48.58905)"><g transform="matrix(1 0 0 1 0 0)"><image x="0" y="0" xlink:href="img_444.png" width="372" height="259" /></g></g><g transform="matrix(0.5592057 0 0 0.5555996 80.01543 284.738)"><g transform="matrix(1 0 0 1 0 0)"><image x="0" y="0" xlink:href="img_445.png" width="832" height="197" /></g></g><g transform="matrix(0.6121832 0 0 0.61147 80.01543 436.1731)"><g transform="matrix(1 0 0 1 0 0)"><image x="0" y="0" xlink:href="img_446.png" width="760" height="358" /></g></g></g><g clip-path="url(#4)"></g></g></g></g></svg>