<svg xmlns="http://www.w3.org/2000/svg" xmlns:xlink="http://www.w3.org/1999/xlink" id="body_341" preserveAspectRatio="xMinYMin meet" viewBox="0 0 793 1121"><defs><clipPath id="1"><path d="M0 841L0 -0.8897705L0 -0.8897705L595.2756 -0.8897705L595.2756 -0.8897705L595.2756 841L595.2756 841L0 841z" /></clipPath><clipPath id="2"><path d="M50 -0.8897705L545.2813 -0.8897705L545.2813 -0.8897705L545.2813 840.9998L545.2813 840.9998L50 840.9998L50 840.9998L50 -0.8897705" /></clipPath><clipPath id="3"><path d="M50 48.58905L545.2813 48.58905L545.2813 48.58905L545.2813 791.5209L545.2813 791.5209L50 791.5209L50 791.5209L50 48.58905" /></clipPath><clipPath id="4"><path d="M50 791.5209L545.2813 791.5209L545.2813 791.5209L545.2813 840.9998L545.2813 840.9998L50 840.9998L50 840.9998L50 791.5209" /></clipPath></defs><g transform="matrix(1.333333 0 0 1.333333 0 0)"><g><g clip-path="url(#1)"><g clip-path="url(#2)"></g><g clip-path="url(#3)"><path transform="matrix(1 0 0 -1 0 841)" d="M71 718.9424C 71 717.7003 70.03125 716.6934 68.75 716.6934C 67.5 716.6934 66.5 717.7003 66.5 718.9424C 66.5 720.1846 67.5 721.1915 68.75 721.1915C 70.03125 721.1915 71 720.1846 71 718.9424" stroke="#000000" stroke-width="0.750418" fill="#000000" fill-rule="evenodd" /><path transform="matrix(1 0 0 -1 0 841)" d="M101.0313 701.6998C 101.0313 700.4576 100.0313 699.4507 98.78125 699.4507C 97.5 699.4507 96.53125 700.4576 96.53125 701.6998C 96.53125 702.942 97.5 703.9489 98.78125 703.9489C 100.0313 703.9489 101.0313 702.942 101.0313 701.6998" stroke="#000000" stroke-width="0.750418" stroke-linecap="square" fill="none" /><path transform="matrix(1 0 0 -1 0 841)" d="M154.3125 696.8269L236.8438 696.8269z" stroke="#0000EE" stroke-width="0.750418" stroke-linecap="square" fill="none" /><path transform="matrix(1 0 0 -1 0 841)" d="M71 669.4636C 71 668.2214 70.03125 667.2145 68.75 667.2145C 67.5 667.2145 66.5 668.2214 66.5 669.4636C 66.5 670.7057 67.5 671.7126 68.75 671.7126C 70.03125 671.7126 71 670.7057 71 669.4636" stroke="#000000" stroke-width="0.750418" fill="#000000" fill-rule="evenodd" /><path transform="matrix(1 0 0 -1 0 841)" d="M101.0313 652.2209C 101.0313 650.9788 100.0313 649.9719 98.78125 649.9719C 97.5 649.9719 96.53125 650.9788 96.53125 652.2209C 96.53125 653.4631 97.5 654.47 98.78125 654.47C 100.0313 654.47 101.0313 653.4631 101.0313 652.2209" stroke="#000000" stroke-width="0.750418" stroke-linecap="square" fill="none" /><path transform="matrix(1 0 0 -1 0 841)" d="M170.8125 647.3481L431.2188 647.3481z" stroke="#0000EE" stroke-width="0.750418" stroke-linecap="square" fill="none" /><path transform="matrix(1 0 0 -1 0 841)" d="M71 619.9847C 71 618.7427 70.03125 617.7357 68.75 617.7357C 67.5 617.7357 66.5 618.7427 66.5 619.9847C 66.5 621.2269 67.5 622.2338 68.75 622.2338C 70.03125 622.2338 71 621.2269 71 619.9847" stroke="#000000" stroke-width="0.750418" fill="#000000" fill-rule="evenodd" /><path transform="matrix(1 0 0 -1 0 841)" d="M101.0313 602.7422C 101.0313 601.5 100.0313 600.4931 98.78125 600.4931C 97.5 600.4931 96.53125 601.5 96.53125 602.7422C 96.53125 603.9843 97.5 604.9912 98.78125 604.9912C 100.0313 604.9912 101.0313 603.9843 101.0313 602.7422" stroke="#000000" stroke-width="0.750418" stroke-linecap="square" fill="none" /><path transform="matrix(1 0 0 -1 0 841)" d="M154.3125 597.8693L263.125 597.8693z" stroke="#0000EE" stroke-width="0.750418" stroke-linecap="square" fill="none" /><path transform="matrix(1 0 0 -1 0 841)" d="M101.0313 578.0027C 101.0313 576.7606 100.0313 575.7537 98.78125 575.7537C 97.5 575.7537 96.53125 576.7606 96.53125 578.0027C 96.53125 579.2449 97.5 580.2518 98.78125 580.2518C 100.0313 580.2518 101.0313 579.2449 101.0313 578.0027" stroke="#000000" stroke-width="0.750418" stroke-linecap="square" fill="none" /><path transform="matrix(1 0 0 -1 0 841)" d="M226.3438 573.1299L433.4688 573.1299z" stroke="#0000EE" stroke-width="0.750418" stroke-linecap="square" fill="none" /><path transform="matrix(1 0 0 -1 0 841)" d="M101.0313 553.2633C 101.0313 552.0212 100.0313 551.0143 98.78125 551.0143C 97.5 551.0143 96.53125 552.0212 96.53125 553.2633C 96.53125 554.5055 97.5 555.5124 98.78125 555.5124C 100.0313 555.5124 101.0313 554.5055 101.0313 553.2633" stroke="#000000" stroke-width="0.750418" stroke-linecap="square" fill="none" /><path transform="matrix(1 0 0 -1 0 841)" d="M244.3438 548.3904L366.6563 548.3904z" stroke="#0000EE" stroke-width="0.750418" stroke-linecap="square" fill="none" /><path transform="matrix(1 0 0 -1 0 841)" d="M71 521.0272C 71 519.785 70.03125 518.7781 68.75 518.7781C 67.5 518.7781 66.5 519.785 66.5 521.0272C 66.5 522.2693 67.5 523.2762 68.75 523.2762C 70.03125 523.2762 71 522.2693 71 521.0272" stroke="#000000" stroke-width="0.750418" fill="#000000" fill-rule="evenodd" /><path transform="matrix(1 0 0 -1 0 841)" d="M101.0313 503.7845C 101.0313 502.5424 100.0313 501.5355 98.78125 501.5355C 97.5 501.5355 96.53125 502.5424 96.53125 503.7845C 96.53125 505.0267 97.5 506.0336 98.78125 506.0336C 100.0313 506.0336 101.0313 505.0267 101.0313 503.7845" stroke="#000000" stroke-width="0.750418" stroke-linecap="square" fill="none" /><path transform="matrix(1 0 0 -1 0 841)" d="M154.3125 498.9116L352.4063 498.9116z" stroke="#0000EE" stroke-width="0.750418" stroke-linecap="square" fill="none" /><path transform="matrix(1 0 0 -1 0 841)" d="M101.0313 479.0451C 101.0313 477.803 100.0313 476.7961 98.78125 476.7961C 97.5 476.7961 96.53125 477.803 96.53125 479.0451C 96.53125 480.2873 97.5 481.2942 98.78125 481.2942C 100.0313 481.2942 101.0313 480.2873 101.0313 479.0451" stroke="#000000" stroke-width="0.750418" stroke-linecap="square" fill="none" /><path transform="matrix(1 0 0 -1 0 841)" d="M219.5938 474.1722L320.1563 474.1722z" stroke="#0000EE" stroke-width="0.750418" stroke-linecap="square" fill="none" /><path transform="matrix(1 0 0 -1 0 841)" d="M101.0313 454.3057C 101.0313 453.0636 100.0313 452.0567 98.78125 452.0567C 97.5 452.0567 96.53125 453.0636 96.53125 454.3057C 96.53125 455.5479 97.5 456.5547 98.78125 456.5547C 100.0313 456.5547 101.0313 455.5479 101.0313 454.3057" stroke="#000000" stroke-width="0.750418" stroke-linecap="square" fill="none" /><path transform="matrix(1 0 0 -1 0 841)" d="M230.8438 449.4328L340.4063 449.4328z" stroke="#0000EE" stroke-width="0.750418" stroke-linecap="square" fill="none" /><path transform="matrix(1 0 0 -1 0 841)" d="M71 422.0695C 71 420.8274 70.03125 419.8205 68.75 419.8205C 67.5 419.8205 66.5 420.8274 66.5 422.0695C 66.5 423.3117 67.5 424.3185 68.75 424.3185C 70.03125 424.3185 71 423.3117 71 422.0695" stroke="#000000" stroke-width="0.750418" fill="#000000" fill-rule="evenodd" /><path transform="matrix(1 0 0 -1 0 841)" d="M101.0313 404.8269C 101.0313 403.5847 100.0313 402.5779 98.78125 402.5779C 97.5 402.5779 96.53125 403.5847 96.53125 404.8269C 96.53125 406.0691 97.5 407.0759 98.78125 407.0759C 100.0313 407.0759 101.0313 406.0691 101.0313 404.8269" stroke="#000000" stroke-width="0.750418" stroke-linecap="square" fill="none" /><path transform="matrix(1 0 0 -1 0 841)" d="M154.3125 399.954L184.3125 399.954z" stroke="#0000EE" stroke-width="0.750418" stroke-linecap="square" fill="none" /><path transform="matrix(1 0 0 -1 0 841)" d="M71 372.5907C 71 371.3485 70.03125 370.3417 68.75 370.3417C 67.5 370.3417 66.5 371.3485 66.5 372.5907C 66.5 373.8329 67.5 374.8397 68.75 374.8397C 70.03125 374.8397 71 373.8329 71 372.5907" stroke="#000000" stroke-width="0.750418" fill="#000000" fill-rule="evenodd" /><path transform="matrix(1 0 0 -1 0 841)" d="M101.0313 355.3481C 101.0313 354.1059 100.0313 353.099 98.78125 353.099C 97.5 353.099 96.53125 354.1059 96.53125 355.3481C 96.53125 356.5902 97.5 357.5971 98.78125 357.5971C 100.0313 357.5971 101.0313 356.5902 101.0313 355.3481" stroke="#000000" stroke-width="0.750418" stroke-linecap="square" fill="none" /><path transform="matrix(1 0 0 -1 0 841)" d="M154.3125 350.4752L230.8438 350.4752z" stroke="#0000EE" stroke-width="0.750418" stroke-linecap="square" fill="none" /><path transform="matrix(1 0 0 -1 0 841)" d="M71 323.1119C 71 321.8698 70.03125 320.8629 68.75 320.8629C 67.5 320.8629 66.5 321.8698 66.5 323.1119C 66.5 324.3541 67.5 325.3609 68.75 325.3609C 70.03125 325.3609 71 324.3541 71 323.1119" stroke="#000000" stroke-width="0.750418" fill="#000000" fill-rule="evenodd" /><path transform="matrix(1 0 0 -1 0 841)" d="M101.0313 305.8693C 101.0313 304.6271 100.0313 303.6202 98.78125 303.6202C 97.5 303.6202 96.53125 304.6271 96.53125 305.8693C 96.53125 307.1115 97.5 308.1183 98.78125 308.1183C 100.0313 308.1183 101.0313 307.1115 101.0313 305.8693" stroke="#000000" stroke-width="0.750418" stroke-linecap="square" fill="none" /><path transform="matrix(1 0 0 -1 0 841)" d="M188.8125 300.9963L321.6563 300.9963z" stroke="#0000EE" stroke-width="0.750418" stroke-linecap="square" fill="none" /><path transform="matrix(1 0 0 -1 0 841)" d="M101.0313 281.1299C 101.0313 279.8877 100.0313 278.8808 98.78125 278.8808C 97.5 278.8808 96.53125 279.8877 96.53125 281.1299C 96.53125 282.372 97.5 283.3789 98.78125 283.3789C 100.0313 283.3789 101.0313 282.372 101.0313 281.1299" stroke="#000000" stroke-width="0.750418" stroke-linecap="square" fill="none" /><path transform="matrix(1 0 0 -1 0 841)" d="M266.125 276.257L545.2813 276.257z" stroke="#0000EE" stroke-width="0.750418" stroke-linecap="square" fill="none" /><path transform="matrix(1 0 0 -1 0 841)" d="M110.0313 259.0143L219.5938 259.0143z" stroke="#0000EE" stroke-width="0.750418" stroke-linecap="square" fill="none" /><path transform="matrix(1 0 0 -1 0 841)" d="M101.0313 239.1478C 101.0313 237.9057 100.0313 236.8988 98.78125 236.8988C 97.5 236.8988 96.53125 237.9057 96.53125 239.1478C 96.53125 240.39 97.5 241.3969 98.78125 241.3969C 100.0313 241.3969 101.0313 240.39 101.0313 239.1478" stroke="#000000" stroke-width="0.750418" stroke-linecap="square" fill="none" /><path transform="matrix(1 0 0 -1 0 841)" d="M261.5938 234.2749L533.25 234.2749z" stroke="#0000EE" stroke-width="0.750418" stroke-linecap="square" fill="none" /><path transform="matrix(1 0 0 -1 0 841)" d="M101.0313 214.4084C 101.0313 213.1663 100.0313 212.1594 98.78125 212.1594C 97.5 212.1594 96.53125 213.1663 96.53125 214.4084C 96.53125 215.6506 97.5 216.6575 98.78125 216.6575C 100.0313 216.6575 101.0313 215.6506 101.0313 214.4084" stroke="#000000" stroke-width="0.750418" stroke-linecap="square" fill="none" /><path transform="matrix(1 0 0 -1 0 841)" d="M341.1563 209.5355L545.2813 209.5355z" stroke="#0000EE" stroke-width="0.750418" stroke-linecap="square" fill="none" /><path transform="matrix(1 0 0 -1 0 841)" d="M110.0313 192.2929L233.8438 192.2929z" stroke="#0000EE" stroke-width="0.750418" stroke-linecap="square" fill="none" /><path transform="matrix(1 0 0 -1 0 841)" d="M101.0313 172.4264C 101.0313 171.1843 100.0313 170.1774 98.78125 170.1774C 97.5 170.1774 96.53125 171.1843 96.53125 172.4264C 96.53125 173.6686 97.5 174.6754 98.78125 174.6754C 100.0313 174.6754 101.0313 173.6686 101.0313 172.4264" stroke="#000000" stroke-width="0.750418" stroke-linecap="square" fill="none" /><path transform="matrix(1 0 0 -1 0 841)" d="M167.0625 167.5535L362.9063 167.5535z" stroke="#0000EE" stroke-width="0.750418" stroke-linecap="square" fill="none" /><path transform="matrix(1 0 0 -1 0 841)" d="M71 140.1902C 71 138.9481 70.03125 137.9412 68.75 137.9412C 67.5 137.9412 66.5 138.9481 66.5 140.1902C 66.5 141.4324 67.5 142.4392 68.75 142.4392C 70.03125 142.4392 71 141.4324 71 140.1902" stroke="#000000" stroke-width="0.750418" fill="#000000" fill-rule="evenodd" /><path transform="matrix(1 0 0 -1 0 841)" d="M101.0313 122.9476C 101.0313 121.7054 100.0313 120.6985 98.78125 120.6985C 97.5 120.6985 96.53125 121.7054 96.53125 122.9476C 96.53125 124.1898 97.5 125.1966 98.78125 125.1966C 100.0313 125.1966 101.0313 124.1898 101.0313 122.9476" stroke="#000000" stroke-width="0.750418" stroke-linecap="square" fill="none" /><path transform="matrix(1 0 0 -1 0 841)" d="M200.8125 118.0746L311.125 118.0746z" stroke="#0000EE" stroke-width="0.750418" stroke-linecap="square" fill="none" /><path transform="matrix(1 0 0 -1 0 841)" d="M71 90.71136C 71 89.46918 70.03125 88.46234 68.75 88.46234C 67.5 88.46234 66.5 89.46918 66.5 90.71136C 66.5 91.95361 67.5 92.96045 68.75 92.96045C 70.03125 92.96045 71 91.95361 71 90.71136" stroke="#000000" stroke-width="0.750418" fill="#000000" fill-rule="evenodd" /><path transform="matrix(1 0 0 -1 0 841)" d="M254.8438 85.83844L356.9063 85.83844z" stroke="#0000EE" stroke-width="0.750418" stroke-linecap="square" fill="none" /><path transform="matrix(1 0 0 -1 0 841)" d="M71 65.97198C 71 64.7298 70.03125 63.72296 68.75 63.72296C 67.5 63.72296 66.5 64.7298 66.5 65.97198C 66.5 67.21417 67.5 68.22101 68.75 68.22101C 70.03125 68.22101 71 67.21417 71 65.97198" stroke="#000000" stroke-width="0.750418" fill="#000000" fill-rule="evenodd" /></g><g clip-path="url(#4)"></g></g></g></g></svg>