<svg xmlns="http://www.w3.org/2000/svg" xmlns:xlink="http://www.w3.org/1999/xlink" id="body_324" preserveAspectRatio="xMinYMin meet" viewBox="0 0 793 1121"><defs><clipPath id="1"><path d="M0 841L0 -0.8897705L0 -0.8897705L595.2756 -0.8897705L595.2756 -0.8897705L595.2756 841L595.2756 841L0 841z" /></clipPath><clipPath id="2"><path d="M50 -0.8897705L545.25 -0.8897705L545.25 -0.8897705L545.25 840.9998L545.25 840.9998L50 840.9998L50 840.9998L50 -0.8897705" /></clipPath><clipPath id="3"><path d="M50 48.58905L545.25 48.58905L545.25 48.58905L545.25 791.5209L545.25 791.5209L50 791.5209L50 791.5209L50 48.58905" /></clipPath><clipPath id="4"><path d="M50 791.5209L545.25 791.5209L545.25 791.5209L545.25 840.9998L545.25 840.9998L50 840.9998L50 840.9998L50 791.5209" /></clipPath></defs><g transform="matrix(1.333333 0 0 1.333333 0 0)"><g><g clip-path="url(#1)"><g clip-path="url(#2)"></g><g clip-path="url(#3)"><path transform="matrix(1 0 0 -1 0 841)" d="M101.0313 783.4148C 101.0313 782.1727 100.0313 781.1658 98.75 781.1658C 97.5 781.1658 96.5 782.1727 96.5 783.4148C 96.5 784.6569 97.5 785.6638 98.75 785.6638C 100.0313 785.6638 101.0313 784.6569 101.0313 783.4148" stroke="#000000" stroke-width="0.750418" stroke-linecap="square" fill="none" /><path transform="matrix(1 0 0 -1 0 841)" d="M154.2813 778.5419L188.0625 778.5419z" stroke="#0000EE" stroke-width="0.750418" stroke-linecap="square" fill="none" /><path transform="matrix(1 0 0 -1 0 841)" d="M71 751.1786C 71 749.9365 70 748.9296 68.75 748.9296C 67.46875 748.9296 66.5 749.9365 66.5 751.1786C 66.5 752.4208 67.46875 753.4276 68.75 753.4276C 70 753.4276 71 752.4208 71 751.1786" stroke="#000000" stroke-width="0.750418" fill="#000000" fill-rule="evenodd" /><path transform="matrix(1 0 0 -1 0 841)" d="M101.0313 733.936C 101.0313 732.6938 100.0313 731.687 98.75 731.687C 97.5 731.687 96.5 732.6938 96.5 733.936C 96.5 735.1782 97.5 736.1851 98.75 736.1851C 100.0313 736.1851 101.0313 735.1782 101.0313 733.936" stroke="#000000" stroke-width="0.750418" stroke-linecap="square" fill="none" /><path transform="matrix(1 0 0 -1 0 841)" d="M259.3438 729.0631L528 729.0631z" stroke="#0000EE" stroke-width="0.750418" stroke-linecap="square" fill="none" /><path transform="matrix(1 0 0 -1 0 841)" d="M101.0313 709.1966C 101.0313 707.9545 100.0313 706.9475 98.75 706.9475C 97.5 706.9475 96.5 707.9545 96.5 709.1966C 96.5 710.4387 97.5 711.4456 98.75 711.4456C 100.0313 711.4456 101.0313 710.4387 101.0313 709.1966" stroke="#000000" stroke-width="0.750418" stroke-linecap="square" fill="none" /><path transform="matrix(1 0 0 -1 0 841)" d="M246.5938 704.3237L505.5 704.3237z" stroke="#0000EE" stroke-width="0.750418" stroke-linecap="square" fill="none" /><path transform="matrix(1 0 0 -1 0 841)" d="M514.5 704.3237L545.25 704.3237z" stroke="#0000EE" stroke-width="0.750418" stroke-linecap="square" fill="none" /><path transform="matrix(1 0 0 -1 0 841)" d="M110.0313 687.0811L197.8125 687.0811z" stroke="#0000EE" stroke-width="0.750418" stroke-linecap="square" fill="none" /><path transform="matrix(1 0 0 -1 0 841)" d="M71 659.7178C 71 658.4756 70 657.4688 68.75 657.4688C 67.46875 657.4688 66.5 658.4756 66.5 659.7178C 66.5 660.9599 67.46875 661.9668 68.75 661.9668C 70 661.9668 71 660.9599 71 659.7178" stroke="#000000" stroke-width="0.750418" fill="#000000" fill-rule="evenodd" /><path transform="matrix(1 0 0 -1 0 841)" d="M101.0313 642.4752C 101.0313 641.233 100.0313 640.2261 98.75 640.2261C 97.5 640.2261 96.5 641.233 96.5 642.4752C 96.5 643.7173 97.5 644.7242 98.75 644.7242C 100.0313 644.7242 101.0313 643.7173 101.0313 642.4752" stroke="#000000" stroke-width="0.750418" stroke-linecap="square" fill="none" /><path transform="matrix(1 0 0 -1 0 841)" d="M154.2813 637.6022L239.8438 637.6022z" stroke="#0000EE" stroke-width="0.750418" stroke-linecap="square" fill="none" /><path transform="matrix(1 0 0 -1 0 841)" d="M71 610.239C 71 608.9968 70 607.9899 68.75 607.9899C 67.46875 607.9899 66.5 608.9968 66.5 610.239C 66.5 611.4811 67.46875 612.488 68.75 612.488C 70 612.488 71 611.4811 71 610.239" stroke="#000000" stroke-width="0.750418" fill="#000000" fill-rule="evenodd" /><path transform="matrix(1 0 0 -1 0 841)" d="M101.0313 592.9963C 101.0313 591.7542 100.0313 590.7473 98.75 590.7473C 97.5 590.7473 96.5 591.7542 96.5 592.9963C 96.5 594.2385 97.5 595.2454 98.75 595.2454C 100.0313 595.2454 101.0313 594.2385 101.0313 592.9963" stroke="#000000" stroke-width="0.750418" stroke-linecap="square" fill="none" /><path transform="matrix(1 0 0 -1 0 841)" d="M254.0938 588.1234L545.25 588.1234z" stroke="#0000EE" stroke-width="0.750418" stroke-linecap="square" fill="none" /><path transform="matrix(1 0 0 -1 0 841)" d="M110.0313 570.8808L185.0625 570.8808z" stroke="#0000EE" stroke-width="0.750418" stroke-linecap="square" fill="none" /><path transform="matrix(1 0 0 -1 0 841)" d="M101.0313 551.0143C 101.0313 549.7722 100.0313 548.7653 98.75 548.7653C 97.5 548.7653 96.5 549.7722 96.5 551.0143C 96.5 552.2565 97.5 553.2633 98.75 553.2633C 100.0313 553.2633 101.0313 552.2565 101.0313 551.0143" stroke="#000000" stroke-width="0.750418" stroke-linecap="square" fill="none" /><path transform="matrix(1 0 0 -1 0 841)" d="M236.8438 546.1414L545.25 546.1414z" stroke="#0000EE" stroke-width="0.750418" stroke-linecap="square" fill="none" /><path transform="matrix(1 0 0 -1 0 841)" d="M110.0313 528.8988L151.2813 528.8988z" stroke="#0000EE" stroke-width="0.750418" stroke-linecap="square" fill="none" /><path transform="matrix(1 0 0 -1 0 841)" d="M158.8125 528.8988L281.125 528.8988z" stroke="#0000EE" stroke-width="0.750418" stroke-linecap="square" fill="none" /><path transform="matrix(1 0 0 -1 0 841)" d="M71 501.5355C 71 500.2934 70 499.2865 68.75 499.2865C 67.46875 499.2865 66.5 500.2934 66.5 501.5355C 66.5 502.7776 67.46875 503.7845 68.75 503.7845C 70 503.7845 71 502.7776 71 501.5355" stroke="#000000" stroke-width="0.750418" fill="#000000" fill-rule="evenodd" /><path transform="matrix(1 0 0 -1 0 841)" d="M101.0313 484.2929C 101.0313 483.0508 100.0313 482.0438 98.75 482.0438C 97.5 482.0438 96.5 483.0508 96.5 484.2929C 96.5 485.535 97.5 486.5419 98.75 486.5419C 100.0313 486.5419 101.0313 485.535 101.0313 484.2929" stroke="#000000" stroke-width="0.750418" stroke-linecap="square" fill="none" /><path transform="matrix(1 0 0 -1 0 841)" d="M154.2813 479.42L184.3125 479.42z" stroke="#0000EE" stroke-width="0.750418" stroke-linecap="square" fill="none" /><path transform="matrix(1 0 0 -1 0 841)" d="M71 452.0567C 71 450.8145 70 449.8076 68.75 449.8076C 67.46875 449.8076 66.5 450.8145 66.5 452.0567C 66.5 453.2988 67.46875 454.3057 68.75 454.3057C 70 454.3057 71 453.2988 71 452.0567" stroke="#000000" stroke-width="0.750418" fill="#000000" fill-rule="evenodd" /><path transform="matrix(1 0 0 -1 0 841)" d="M101.0313 434.8141C 101.0313 433.5719 100.0313 432.565 98.75 432.565C 97.5 432.565 96.5 433.5719 96.5 434.8141C 96.5 436.0562 97.5 437.0631 98.75 437.0631C 100.0313 437.0631 101.0313 436.0562 101.0313 434.8141" stroke="#000000" stroke-width="0.750418" stroke-linecap="square" fill="none" /><path transform="matrix(1 0 0 -1 0 841)" d="M333.6563 429.9411L545.25 429.9411z" stroke="#0000EE" stroke-width="0.750418" stroke-linecap="square" fill="none" /><path transform="matrix(1 0 0 -1 0 841)" d="M110.0313 412.6985L223.3438 412.6985z" stroke="#0000EE" stroke-width="0.750418" stroke-linecap="square" fill="none" /><path transform="matrix(1 0 0 -1 0 841)" d="M230.8438 412.6985L353.1563 412.6985z" stroke="#0000EE" stroke-width="0.750418" stroke-linecap="square" fill="none" /></g><g clip-path="url(#4)"></g></g></g></g></svg>