<svg xmlns="http://www.w3.org/2000/svg" xmlns:xlink="http://www.w3.org/1999/xlink" id="body_86" preserveAspectRatio="xMinYMin meet" viewBox="0 0 793 1121"><defs><clipPath id="1"><path d="M0 841L0 -0.8897705L0 -0.8897705L595.2756 -0.8897705L595.2756 -0.8897705L595.2756 841L595.2756 841L0 841z" /></clipPath><clipPath id="2"><path d="M49.99609 -0.8897705L545.2734 -0.8897705L545.2734 -0.8897705L545.2734 840.9998L545.2734 840.9998L49.99609 840.9998L49.99609 840.9998L49.99609 -0.8897705" /></clipPath><clipPath id="3"><path d="M49.99609 48.58905L545.2734 48.58905L545.2734 48.58905L545.2734 791.5209L545.2734 791.5209L49.99609 791.5209L49.99609 791.5209L49.99609 48.58905" /></clipPath><clipPath id="4"><path d="M49.99609 791.5209L545.2734 791.5209L545.2734 791.5209L545.2734 840.9998L545.2734 840.9998L49.99609 840.9998L49.99609 840.9998L49.99609 791.5209" /></clipPath></defs><g transform="matrix(1.333333 0 0 1.333333 0 0)"><g><g clip-path="url(#1)"><g clip-path="url(#2)"></g><g clip-path="url(#3)"><path transform="matrix(1 0 0 -1 0 841)" d="M80.01172 624.108L320.8984 624.108z" stroke="#0000EE" stroke-width="0.750418" stroke-linecap="square" fill="none" /><g transform="matrix(0.4592884 0 0 0.4586271 80.01357 354.4581)"><g transform="matrix(1 0 0 1 0 0)"><image x="0" y="0" xlink:href="img_133.png" width="1013" height="595" /></g></g></g><g clip-path="url(#4)"></g></g></g></g></svg>