<svg xmlns="http://www.w3.org/2000/svg" xmlns:xlink="http://www.w3.org/1999/xlink" id="body_331" preserveAspectRatio="xMinYMin meet" viewBox="0 0 793 1121"><defs><clipPath id="1"><path d="M0 841L0 -0.8897705L0 -0.8897705L595.2756 -0.8897705L595.2756 -0.8897705L595.2756 841L595.2756 841L0 841z" /></clipPath><clipPath id="2"><path d="M49.96875 -0.8897705L545.25 -0.8897705L545.25 -0.8897705L545.25 840.9998L545.25 840.9998L49.96875 840.9998L49.96875 840.9998L49.96875 -0.8897705" /></clipPath><clipPath id="3"><path d="M49.96875 48.58905L545.25 48.58905L545.25 48.58905L545.25 791.5209L545.25 791.5209L49.96875 791.5209L49.96875 791.5209L49.96875 48.58905" /></clipPath><clipPath id="4"><path d="M49.96875 791.5209L545.25 791.5209L545.25 791.5209L545.25 840.9998L545.25 840.9998L49.96875 840.9998L49.96875 840.9998L49.96875 791.5209" /></clipPath></defs><g transform="matrix(1.333333 0 0 1.333333 0 0)"><g><g clip-path="url(#1)"><g clip-path="url(#2)"></g><g clip-path="url(#3)"><path transform="matrix(1 0 0 -1 0 841)" d="M71 775.918C 71 774.6759 70 773.6689 68.75 773.6689C 67.46875 773.6689 66.5 774.6759 66.5 775.918C 66.5 777.1602 67.46875 778.1671 68.75 778.1671C 70 778.1671 71 777.1602 71 775.918" stroke="#000000" stroke-width="0.750418" fill="#000000" fill-rule="evenodd" /><path transform="matrix(1 0 0 -1 0 841)" d="M101 758.6754C 101 757.4332 100.0313 756.4264 98.75 756.4264C 97.5 756.4264 96.5 757.4332 96.5 758.6754C 96.5 759.9175 97.5 760.9244 98.75 760.9244C 100.0313 760.9244 101 759.9175 101 758.6754" stroke="#000000" stroke-width="0.750418" stroke-linecap="square" fill="none" /><path transform="matrix(1 0 0 -1 0 841)" d="M154.2813 753.8025L232.3438 753.8025z" stroke="#0000EE" stroke-width="0.750418" stroke-linecap="square" fill="none" /><path transform="matrix(1 0 0 -1 0 841)" d="M101 733.936C 101 732.6938 100.0313 731.687 98.75 731.687C 97.5 731.687 96.5 732.6938 96.5 733.936C 96.5 735.1782 97.5 736.1851 98.75 736.1851C 100.0313 736.1851 101 735.1782 101 733.936" stroke="#000000" stroke-width="0.750418" stroke-linecap="square" fill="none" /><path transform="matrix(1 0 0 -1 0 841)" d="M263.8438 729.0631L545.25 729.0631z" stroke="#0000EE" stroke-width="0.750418" stroke-linecap="square" fill="none" /><path transform="matrix(1 0 0 -1 0 841)" d="M110 711.8204L174.5625 711.8204z" stroke="#0000EE" stroke-width="0.750418" stroke-linecap="square" fill="none" /><path transform="matrix(1 0 0 -1 0 841)" d="M182.0625 711.8204L304.375 711.8204z" stroke="#0000EE" stroke-width="0.750418" stroke-linecap="square" fill="none" /><path transform="matrix(1 0 0 -1 0 841)" d="M71 684.4572C 71 683.215 70 682.2081 68.75 682.2081C 67.46875 682.2081 66.5 683.215 66.5 684.4572C 66.5 685.6993 67.46875 686.7062 68.75 686.7062C 70 686.7062 71 685.6993 71 684.4572" stroke="#000000" stroke-width="0.750418" fill="#000000" fill-rule="evenodd" /><path transform="matrix(1 0 0 -1 0 841)" d="M206.8125 679.5842L292.375 679.5842z" stroke="#0000EE" stroke-width="0.750418" stroke-linecap="square" fill="none" /><path transform="matrix(1 0 0 -1 0 841)" d="M71 659.7178C 71 658.4756 70 657.4688 68.75 657.4688C 67.46875 657.4688 66.5 658.4756 66.5 659.7178C 66.5 660.9599 67.46875 661.9668 68.75 661.9668C 70 661.9668 71 660.9599 71 659.7178" stroke="#000000" stroke-width="0.750418" fill="#000000" fill-rule="evenodd" /><path transform="matrix(1 0 0 -1 0 841)" d="M101 642.4752C 101 641.233 100.0313 640.2261 98.75 640.2261C 97.5 640.2261 96.5 641.233 96.5 642.4752C 96.5 643.7173 97.5 644.7242 98.75 644.7242C 100.0313 644.7242 101 643.7173 101 642.4752" stroke="#000000" stroke-width="0.750418" stroke-linecap="square" fill="none" /><path transform="matrix(1 0 0 -1 0 841)" d="M154.2813 637.6022L232.3438 637.6022z" stroke="#0000EE" stroke-width="0.750418" stroke-linecap="square" fill="none" /><path transform="matrix(1 0 0 -1 0 841)" d="M71 610.239C 71 608.9968 70 607.9899 68.75 607.9899C 67.46875 607.9899 66.5 608.9968 66.5 610.239C 66.5 611.4811 67.46875 612.488 68.75 612.488C 70 612.488 71 611.4811 71 610.239" stroke="#000000" stroke-width="0.750418" fill="#000000" fill-rule="evenodd" /><path transform="matrix(1 0 0 -1 0 841)" d="M101 592.9963C 101 591.7542 100.0313 590.7473 98.75 590.7473C 97.5 590.7473 96.5 591.7542 96.5 592.9963C 96.5 594.2385 97.5 595.2454 98.75 595.2454C 100.0313 595.2454 101 594.2385 101 592.9963" stroke="#000000" stroke-width="0.750418" stroke-linecap="square" fill="none" /><path transform="matrix(1 0 0 -1 0 841)" d="M154.2813 588.1234L232.3438 588.1234z" stroke="#0000EE" stroke-width="0.750418" stroke-linecap="square" fill="none" /><path transform="matrix(1 0 0 -1 0 841)" d="M71 560.7601C 71 559.518 70 558.5111 68.75 558.5111C 67.46875 558.5111 66.5 559.518 66.5 560.7601C 66.5 562.0023 67.46875 563.0092 68.75 563.0092C 70 563.0092 71 562.0023 71 560.7601" stroke="#000000" stroke-width="0.750418" fill="#000000" fill-rule="evenodd" /><path transform="matrix(1 0 0 -1 0 841)" d="M260.0938 555.8872L545.25 555.8872z" stroke="#0000EE" stroke-width="0.750418" stroke-linecap="square" fill="none" /><path transform="matrix(1 0 0 -1 0 841)" d="M80 538.6446L145.2813 538.6446z" stroke="#0000EE" stroke-width="0.750418" stroke-linecap="square" fill="none" /><path transform="matrix(1 0 0 -1 0 841)" d="M71 518.7781C 71 517.536 70 516.5291 68.75 516.5291C 67.46875 516.5291 66.5 517.536 66.5 518.7781C 66.5 520.0203 67.46875 521.0272 68.75 521.0272C 70 521.0272 71 520.0203 71 518.7781" stroke="#000000" stroke-width="0.750418" fill="#000000" fill-rule="evenodd" /><path transform="matrix(1 0 0 -1 0 841)" d="M101 501.5355C 101 500.2934 100.0313 499.2865 98.75 499.2865C 97.5 499.2865 96.5 500.2934 96.5 501.5355C 96.5 502.7776 97.5 503.7845 98.75 503.7845C 100.0313 503.7845 101 502.7776 101 501.5355" stroke="#000000" stroke-width="0.750418" stroke-linecap="square" fill="none" /><path transform="matrix(1 0 0 -1 0 841)" d="M161.7813 496.6626L300.625 496.6626z" stroke="#0000EE" stroke-width="0.750418" stroke-linecap="square" fill="none" /><path transform="matrix(1 0 0 -1 0 841)" d="M101 476.7961C 101 475.554 100.0313 474.5471 98.75 474.5471C 97.5 474.5471 96.5 475.554 96.5 476.7961C 96.5 478.0382 97.5 479.0451 98.75 479.0451C 100.0313 479.0451 101 478.0382 101 476.7961" stroke="#000000" stroke-width="0.750418" stroke-linecap="square" fill="none" /><path transform="matrix(1 0 0 -1 0 841)" d="M152.7813 471.9232L291.625 471.9232z" stroke="#0000EE" stroke-width="0.750418" stroke-linecap="square" fill="none" /><path transform="matrix(1 0 0 -1 0 841)" d="M101 452.0567C 101 450.8145 100.0313 449.8076 98.75 449.8076C 97.5 449.8076 96.5 450.8145 96.5 452.0567C 96.5 453.2988 97.5 454.3057 98.75 454.3057C 100.0313 454.3057 101 453.2988 101 452.0567" stroke="#000000" stroke-width="0.750418" stroke-linecap="square" fill="none" /><path transform="matrix(1 0 0 -1 0 841)" d="M204.5625 447.1838L287.125 447.1838z" stroke="#0000EE" stroke-width="0.750418" stroke-linecap="square" fill="none" /></g><g clip-path="url(#4)"></g></g></g></g></svg>